<?xml version="1.0" encoding="utf-8" standalone="no"?>
<!DOCTYPE svg PUBLIC "-//W3C//DTD SVG 1.1//EN"
  "http://www.w3.org/Graphics/SVG/1.1/DTD/svg11.dtd">
<svg xmlns:xlink="http://www.w3.org/1999/xlink" width="460.8pt" height="345.6pt" viewBox="0 0 460.8 345.6" xmlns="http://www.w3.org/2000/svg" version="1.1">
 <metadata>
  <rdf:RDF xmlns:dc="http://purl.org/dc/elements/1.1/" xmlns:cc="http://creativecommons.org/ns#" xmlns:rdf="http://www.w3.org/1999/02/22-rdf-syntax-ns#">
   <cc:Work>
    <dc:type rdf:resource="http://purl.org/dc/dcmitype/StillImage"/>
    <dc:date>2025-07-15T20:40:07.435345</dc:date>
    <dc:format>image/svg+xml</dc:format>
    <dc:creator>
     <cc:Agent>
      <dc:title>Matplotlib v3.9.4, https://matplotlib.org/</dc:title>
     </cc:Agent>
    </dc:creator>
   </cc:Work>
  </rdf:RDF>
 </metadata>
 <defs>
  <style type="text/css">*{stroke-linejoin: round; stroke-linecap: butt}</style>
 </defs>
 <g id="figure_1">
  <g id="patch_1">
   <path d="M 0 345.6 
L 460.8 345.6 
L 460.8 0 
L 0 0 
z
" style="fill: #ffffff"/>
  </g>
  <g id="axes_1">
   <g id="patch_2">
    <path d="M 54.2 296.715 
L 450 296.715 
L 450 10.8 
L 54.2 10.8 
z
" style="fill: #ffffff"/>
   </g>
   <g id="PolyCollection_1">
    <defs>
     <path id="mb5c400d49c" d="M 72.190909 -63.54901 
L 72.190909 -62.001679 
L 75.900375 -62.942644 
L 79.609841 -63.35993 
L 83.319306 -63.827424 
L 87.028772 -64.21917 
L 90.738238 -64.863698 
L 94.447704 -65.342506 
L 98.15717 -65.866731 
L 101.866635 -66.302969 
L 105.576101 -67.325158 
L 109.285567 -68.540931 
L 112.995033 -68.794962 
L 116.704499 -68.994236 
L 120.413964 -70.261619 
L 124.12343 -70.59667 
L 127.832896 -72.290262 
L 131.542362 -71.430206 
L 135.251828 -74.044633 
L 138.961293 -74.131702 
L 142.670759 -74.906908 
L 146.380225 -76.724215 
L 150.089691 -77.578739 
L 153.799157 -76.961028 
L 157.508622 -79.708694 
L 161.218088 -80.744824 
L 164.927554 -81.998289 
L 168.63702 -83.11318 
L 172.346485 -85.393822 
L 176.055951 -85.733136 
L 179.765417 -87.061942 
L 183.474883 -87.924739 
L 187.184349 -89.763155 
L 190.893814 -90.280975 
L 194.60328 -91.177029 
L 198.312746 -92.578808 
L 202.022212 -94.331202 
L 205.731678 -95.922578 
L 209.441143 -97.293435 
L 213.150609 -99.554788 
L 216.860075 -100.001553 
L 220.569541 -101.725579 
L 224.279007 -103.354841 
L 227.988472 -105.056005 
L 231.697938 -107.345013 
L 235.407404 -108.821497 
L 239.11687 -110.483473 
L 242.826336 -112.083944 
L 246.535801 -114.030442 
L 250.245267 -116.612601 
L 253.954733 -117.799761 
L 257.664199 -120.668025 
L 261.373664 -122.748645 
L 265.08313 -124.408152 
L 268.792596 -126.048111 
L 272.502062 -128.96664 
L 276.211528 -131.517238 
L 279.920993 -134.456618 
L 283.630459 -134.881289 
L 287.339925 -137.555358 
L 291.049391 -139.770932 
L 294.758857 -142.632049 
L 298.468322 -146.832337 
L 302.177788 -148.635853 
L 305.887254 -150.322492 
L 309.59672 -151.374038 
L 313.306186 -153.823885 
L 317.015651 -152.485381 
L 320.725117 -157.523197 
L 324.434583 -161.802255 
L 328.144049 -163.785724 
L 331.853515 -168.576592 
L 335.56298 -178.75816 
L 339.272446 -176.089848 
L 342.981912 -177.36913 
L 346.691378 -179.688565 
L 350.400843 -183.764332 
L 354.110309 -186.624959 
L 357.819775 -189.49148 
L 361.529241 -195.169368 
L 365.238707 -200.587469 
L 368.948172 -202.115127 
L 372.657638 -213.046428 
L 376.367104 -202.988066 
L 380.07657 -206.773322 
L 383.786036 -211.942723 
L 387.495501 -214.54487 
L 391.204967 -209.752266 
L 394.914433 -228.545129 
L 398.623899 -230.064055 
L 402.333365 -221.294091 
L 406.04283 -238.685208 
L 409.752296 -233.675482 
L 413.461762 -241.829108 
L 417.171228 -261.997559 
L 420.880694 -244.226905 
L 424.590159 -251.129555 
L 428.299625 -267.472221 
L 432.009091 -280.785427 
L 432.009091 -303.437298 
L 432.009091 -303.437298 
L 428.299625 -308.753487 
L 424.590159 -321.803864 
L 420.880694 -261.834214 
L 417.171228 -294.580798 
L 413.461762 -252.155305 
L 409.752296 -262.296585 
L 406.04283 -244.179335 
L 402.333365 -291.646312 
L 398.623899 -255.051712 
L 394.914433 -247.790387 
L 391.204967 -270.23142 
L 387.495501 -233.253245 
L 383.786036 -222.587018 
L 380.07657 -219.146027 
L 376.367104 -213.021126 
L 372.657638 -229.732582 
L 368.948172 -239.698194 
L 365.238707 -236.520338 
L 361.529241 -215.695448 
L 357.819775 -198.9298 
L 354.110309 -199.453781 
L 350.400843 -196.559079 
L 346.691378 -187.792773 
L 342.981912 -186.69967 
L 339.272446 -186.251973 
L 335.56298 -192.048328 
L 331.853515 -182.991807 
L 328.144049 -171.261987 
L 324.434583 -173.99215 
L 320.725117 -195.584723 
L 317.015651 -176.504802 
L 313.306186 -163.873578 
L 309.59672 -158.437745 
L 305.887254 -160.487104 
L 302.177788 -163.770628 
L 298.468322 -152.405864 
L 294.758857 -145.131486 
L 291.049391 -143.46014 
L 287.339925 -140.401808 
L 283.630459 -138.667198 
L 279.920993 -137.980931 
L 276.211528 -134.487924 
L 272.502062 -131.044793 
L 268.792596 -129.654005 
L 265.08313 -127.313753 
L 261.373664 -126.435356 
L 257.664199 -124.694894 
L 253.954733 -121.449818 
L 250.245267 -119.520829 
L 246.535801 -117.763623 
L 242.826336 -114.75612 
L 239.11687 -112.403472 
L 235.407404 -109.820111 
L 231.697938 -108.38516 
L 227.988472 -108.527892 
L 224.279007 -105.099385 
L 220.569541 -105.129329 
L 216.860075 -102.228188 
L 213.150609 -100.696746 
L 209.441143 -98.286472 
L 205.731678 -97.704608 
L 202.022212 -96.14579 
L 198.312746 -97.764731 
L 194.60328 -93.424344 
L 190.893814 -92.281239 
L 187.184349 -90.423711 
L 183.474883 -91.579236 
L 179.765417 -88.995157 
L 176.055951 -86.974795 
L 172.346485 -87.762275 
L 168.63702 -90.028884 
L 164.927554 -83.084125 
L 161.218088 -81.733517 
L 157.508622 -81.680406 
L 153.799157 -84.325408 
L 150.089691 -78.930808 
L 146.380225 -77.816887 
L 142.670759 -78.164243 
L 138.961293 -78.401034 
L 135.251828 -74.931168 
L 131.542362 -76.453075 
L 127.832896 -77.785482 
L 124.12343 -72.764798 
L 120.413964 -70.544572 
L 116.704499 -70.751094 
L 112.995033 -69.142207 
L 109.285567 -70.581387 
L 105.576101 -70.524325 
L 101.866635 -68.166521 
L 98.15717 -67.028461 
L 94.447704 -65.768027 
L 90.738238 -64.987563 
L 87.028772 -64.759101 
L 83.319306 -63.954301 
L 79.609841 -63.500108 
L 75.900375 -63.124644 
L 72.190909 -63.54901 
z
" style="stroke: #0000ff; stroke-opacity: 0.2"/>
    </defs>
    <g clip-path="url(#p3a3bb17755)">
     <use xlink:href="#mb5c400d49c" x="0" y="345.6" style="fill: #0000ff; fill-opacity: 0.2; stroke: #0000ff; stroke-opacity: 0.2"/>
    </g>
   </g>
   <g id="PolyCollection_2">
    <defs>
     <path id="m06f6afa41b" d="M 72.190909 -61.887875 
L 72.190909 -61.881136 
L 75.900375 -62.034434 
L 79.609841 -62.175991 
L 83.319306 -62.315971 
L 87.028772 -62.46022 
L 90.738238 -62.611633 
L 94.447704 -62.747198 
L 98.15717 -62.883608 
L 101.866635 -62.576379 
L 105.576101 -63.252493 
L 109.285567 -63.467517 
L 112.995033 -63.511971 
L 116.704499 -63.630114 
L 120.413964 -63.773446 
L 124.12343 -63.894125 
L 127.832896 -63.947022 
L 131.542362 -64.190399 
L 135.251828 -64.346065 
L 138.961293 -64.397532 
L 142.670759 -64.381419 
L 146.380225 -64.684678 
L 150.089691 -64.963578 
L 153.799157 -63.511892 
L 157.508622 -64.999619 
L 161.218088 -65.150978 
L 164.927554 -65.249725 
L 168.63702 -64.716711 
L 172.346485 -65.477364 
L 176.055951 -65.780844 
L 179.765417 -65.994768 
L 183.474883 -66.081171 
L 187.184349 -66.255331 
L 190.893814 -66.333383 
L 194.60328 -66.329166 
L 198.312746 -66.478951 
L 202.022212 -66.708292 
L 205.731678 -66.893015 
L 209.441143 -66.987041 
L 213.150609 -67.140431 
L 216.860075 -67.244189 
L 220.569541 -67.263634 
L 224.279007 -67.533018 
L 227.988472 -67.589941 
L 231.697938 -67.825346 
L 235.407404 -68.00356 
L 239.11687 -68.090243 
L 242.826336 -68.257867 
L 246.535801 -68.384547 
L 250.245267 -68.496609 
L 253.954733 -68.591117 
L 257.664199 -68.78654 
L 261.373664 -68.822676 
L 265.08313 -68.971264 
L 268.792596 -69.154053 
L 272.502062 -69.191166 
L 276.211528 -69.437145 
L 279.920993 -69.505198 
L 283.630459 -69.688083 
L 287.339925 -69.827079 
L 291.049391 -69.956388 
L 294.758857 -70.136675 
L 298.468322 -70.092996 
L 302.177788 -66.919805 
L 305.887254 -70.474593 
L 309.59672 -70.463244 
L 313.306186 -70.139283 
L 317.015651 -71.000907 
L 320.725117 -70.965422 
L 324.434583 -71.262888 
L 328.144049 -71.347174 
L 331.853515 -71.152586 
L 335.56298 -71.749568 
L 339.272446 -71.85384 
L 342.981912 -71.872097 
L 346.691378 -72.073027 
L 350.400843 -69.322946 
L 354.110309 -70.630188 
L 357.819775 -72.488732 
L 361.529241 -72.651217 
L 365.238707 -69.391627 
L 368.948172 -73.110884 
L 372.657638 -73.320587 
L 376.367104 -73.108846 
L 380.07657 -71.775314 
L 383.786036 -73.148174 
L 387.495501 -73.761605 
L 391.204967 -73.767772 
L 394.914433 -74.169755 
L 398.623899 -74.427162 
L 402.333365 -70.341822 
L 406.04283 -74.315585 
L 409.752296 -74.181309 
L 413.461762 -74.582999 
L 417.171228 -74.928222 
L 420.880694 -75.166182 
L 424.590159 -74.409235 
L 428.299625 -75.54499 
L 432.009091 -75.372728 
L 432.009091 -78.867898 
L 432.009091 -78.867898 
L 428.299625 -76.180712 
L 424.590159 -80.344054 
L 420.880694 -75.418451 
L 417.171228 -76.651056 
L 413.461762 -75.223076 
L 409.752296 -75.688528 
L 406.04283 -74.626288 
L 402.333365 -83.431708 
L 398.623899 -74.924271 
L 394.914433 -75.521622 
L 391.204967 -74.779851 
L 387.495501 -74.083657 
L 383.786036 -74.435163 
L 380.07657 -76.985793 
L 376.367104 -73.707811 
L 372.657638 -74.233565 
L 368.948172 -73.645794 
L 365.238707 -81.226292 
L 361.529241 -73.099369 
L 357.819775 -73.122028 
L 354.110309 -76.1332 
L 350.400843 -78.588816 
L 346.691378 -72.31004 
L 342.981912 -72.321431 
L 339.272446 -72.270852 
L 335.56298 -72.322225 
L 331.853515 -73.497256 
L 328.144049 -72.037031 
L 324.434583 -71.42245 
L 320.725117 -72.787655 
L 317.015651 -71.412243 
L 313.306186 -72.653091 
L 309.59672 -71.491648 
L 305.887254 -70.876596 
L 302.177788 -79.826861 
L 298.468322 -70.68441 
L 294.758857 -70.356732 
L 291.049391 -70.094374 
L 287.339925 -70.023277 
L 283.630459 -69.846233 
L 279.920993 -69.932407 
L 276.211528 -69.548934 
L 272.502062 -69.643248 
L 268.792596 -69.46911 
L 265.08313 -69.147706 
L 261.373664 -69.082983 
L 257.664199 -68.999751 
L 253.954733 -68.951737 
L 250.245267 -68.935929 
L 246.535801 -68.597636 
L 242.826336 -68.342319 
L 239.11687 -68.327821 
L 235.407404 -68.080344 
L 231.697938 -68.17301 
L 227.988472 -68.074655 
L 224.279007 -67.813575 
L 220.569541 -67.796462 
L 216.860075 -67.559066 
L 213.150609 -67.40123 
L 209.441143 -67.18942 
L 205.731678 -67.104594 
L 202.022212 -67.499697 
L 198.312746 -67.276632 
L 194.60328 -66.932009 
L 190.893814 -66.4562 
L 187.184349 -66.427948 
L 183.474883 -66.251841 
L 179.765417 -66.139339 
L 176.055951 -65.908713 
L 172.346485 -66.954329 
L 168.63702 -67.914907 
L 164.927554 -65.709539 
L 161.218088 -65.601278 
L 157.508622 -65.382876 
L 153.799157 -68.377781 
L 150.089691 -65.445796 
L 146.380225 -65.332798 
L 142.670759 -65.265169 
L 138.961293 -66.145723 
L 135.251828 -64.683961 
L 131.542362 -64.42653 
L 127.832896 -66.505454 
L 124.12343 -64.136694 
L 120.413964 -63.920566 
L 116.704499 -63.770062 
L 112.995033 -63.643431 
L 109.285567 -64.024328 
L 105.576101 -63.992239 
L 101.866635 -64.29663 
L 98.15717 -63.251822 
L 94.447704 -62.85688 
L 90.738238 -62.654683 
L 87.028772 -62.561955 
L 83.319306 -62.334859 
L 79.609841 -62.213078 
L 75.900375 -62.104669 
L 72.190909 -61.887875 
z
" style="stroke: #ff0000; stroke-opacity: 0.2"/>
    </defs>
    <g clip-path="url(#p3a3bb17755)">
     <use xlink:href="#m06f6afa41b" x="0" y="345.6" style="fill: #ff0000; fill-opacity: 0.2; stroke: #ff0000; stroke-opacity: 0.2"/>
    </g>
   </g>
   <g id="matplotlib.axis_1">
    <g id="xtick_1">
     <g id="line2d_1">
      <path d="M 64.771978 296.715 
L 64.771978 10.8 
" clip-path="url(#p3a3bb17755)" style="fill: none; stroke: #b0b0b0; stroke-width: 0.8; stroke-linecap: square"/>
     </g>
     <g id="line2d_2">
      <defs>
       <path id="mc3ec2a101a" d="M 0 0 
L 0 3.5 
" style="stroke: #000000; stroke-width: 0.8"/>
      </defs>
      <g>
       <use xlink:href="#mc3ec2a101a" x="64.771978" y="296.715" style="stroke: #000000; stroke-width: 0.8"/>
      </g>
     </g>
     <g id="text_1">
      <!-- 0 -->
      <g transform="translate(61.590728 311.313437) scale(0.1 -0.1)">
       <defs>
        <path id="DejaVuSans-30" d="M 2034 4250 
Q 1547 4250 1301 3770 
Q 1056 3291 1056 2328 
Q 1056 1369 1301 889 
Q 1547 409 2034 409 
Q 2525 409 2770 889 
Q 3016 1369 3016 2328 
Q 3016 3291 2770 3770 
Q 2525 4250 2034 4250 
z
M 2034 4750 
Q 2819 4750 3233 4129 
Q 3647 3509 3647 2328 
Q 3647 1150 3233 529 
Q 2819 -91 2034 -91 
Q 1250 -91 836 529 
Q 422 1150 422 2328 
Q 422 3509 836 4129 
Q 1250 4750 2034 4750 
z
" transform="scale(0.015625)"/>
       </defs>
       <use xlink:href="#DejaVuSans-30"/>
      </g>
     </g>
    </g>
    <g id="xtick_2">
     <g id="line2d_3">
      <path d="M 138.961293 296.715 
L 138.961293 10.8 
" clip-path="url(#p3a3bb17755)" style="fill: none; stroke: #b0b0b0; stroke-width: 0.8; stroke-linecap: square"/>
     </g>
     <g id="line2d_4">
      <g>
       <use xlink:href="#mc3ec2a101a" x="138.961293" y="296.715" style="stroke: #000000; stroke-width: 0.8"/>
      </g>
     </g>
     <g id="text_2">
      <!-- 20 -->
      <g transform="translate(132.598793 311.313437) scale(0.1 -0.1)">
       <defs>
        <path id="DejaVuSans-32" d="M 1228 531 
L 3431 531 
L 3431 0 
L 469 0 
L 469 531 
Q 828 903 1448 1529 
Q 2069 2156 2228 2338 
Q 2531 2678 2651 2914 
Q 2772 3150 2772 3378 
Q 2772 3750 2511 3984 
Q 2250 4219 1831 4219 
Q 1534 4219 1204 4116 
Q 875 4013 500 3803 
L 500 4441 
Q 881 4594 1212 4672 
Q 1544 4750 1819 4750 
Q 2544 4750 2975 4387 
Q 3406 4025 3406 3419 
Q 3406 3131 3298 2873 
Q 3191 2616 2906 2266 
Q 2828 2175 2409 1742 
Q 1991 1309 1228 531 
z
" transform="scale(0.015625)"/>
       </defs>
       <use xlink:href="#DejaVuSans-32"/>
       <use xlink:href="#DejaVuSans-30" x="63.623047"/>
      </g>
     </g>
    </g>
    <g id="xtick_3">
     <g id="line2d_5">
      <path d="M 213.150609 296.715 
L 213.150609 10.8 
" clip-path="url(#p3a3bb17755)" style="fill: none; stroke: #b0b0b0; stroke-width: 0.8; stroke-linecap: square"/>
     </g>
     <g id="line2d_6">
      <g>
       <use xlink:href="#mc3ec2a101a" x="213.150609" y="296.715" style="stroke: #000000; stroke-width: 0.8"/>
      </g>
     </g>
     <g id="text_3">
      <!-- 40 -->
      <g transform="translate(206.788109 311.313437) scale(0.1 -0.1)">
       <defs>
        <path id="DejaVuSans-34" d="M 2419 4116 
L 825 1625 
L 2419 1625 
L 2419 4116 
z
M 2253 4666 
L 3047 4666 
L 3047 1625 
L 3713 1625 
L 3713 1100 
L 3047 1100 
L 3047 0 
L 2419 0 
L 2419 1100 
L 313 1100 
L 313 1709 
L 2253 4666 
z
" transform="scale(0.015625)"/>
       </defs>
       <use xlink:href="#DejaVuSans-34"/>
       <use xlink:href="#DejaVuSans-30" x="63.623047"/>
      </g>
     </g>
    </g>
    <g id="xtick_4">
     <g id="line2d_7">
      <path d="M 287.339925 296.715 
L 287.339925 10.8 
" clip-path="url(#p3a3bb17755)" style="fill: none; stroke: #b0b0b0; stroke-width: 0.8; stroke-linecap: square"/>
     </g>
     <g id="line2d_8">
      <g>
       <use xlink:href="#mc3ec2a101a" x="287.339925" y="296.715" style="stroke: #000000; stroke-width: 0.8"/>
      </g>
     </g>
     <g id="text_4">
      <!-- 60 -->
      <g transform="translate(280.977425 311.313437) scale(0.1 -0.1)">
       <defs>
        <path id="DejaVuSans-36" d="M 2113 2584 
Q 1688 2584 1439 2293 
Q 1191 2003 1191 1497 
Q 1191 994 1439 701 
Q 1688 409 2113 409 
Q 2538 409 2786 701 
Q 3034 994 3034 1497 
Q 3034 2003 2786 2293 
Q 2538 2584 2113 2584 
z
M 3366 4563 
L 3366 3988 
Q 3128 4100 2886 4159 
Q 2644 4219 2406 4219 
Q 1781 4219 1451 3797 
Q 1122 3375 1075 2522 
Q 1259 2794 1537 2939 
Q 1816 3084 2150 3084 
Q 2853 3084 3261 2657 
Q 3669 2231 3669 1497 
Q 3669 778 3244 343 
Q 2819 -91 2113 -91 
Q 1303 -91 875 529 
Q 447 1150 447 2328 
Q 447 3434 972 4092 
Q 1497 4750 2381 4750 
Q 2619 4750 2861 4703 
Q 3103 4656 3366 4563 
z
" transform="scale(0.015625)"/>
       </defs>
       <use xlink:href="#DejaVuSans-36"/>
       <use xlink:href="#DejaVuSans-30" x="63.623047"/>
      </g>
     </g>
    </g>
    <g id="xtick_5">
     <g id="line2d_9">
      <path d="M 361.529241 296.715 
L 361.529241 10.8 
" clip-path="url(#p3a3bb17755)" style="fill: none; stroke: #b0b0b0; stroke-width: 0.8; stroke-linecap: square"/>
     </g>
     <g id="line2d_10">
      <g>
       <use xlink:href="#mc3ec2a101a" x="361.529241" y="296.715" style="stroke: #000000; stroke-width: 0.8"/>
      </g>
     </g>
     <g id="text_5">
      <!-- 80 -->
      <g transform="translate(355.166741 311.313437) scale(0.1 -0.1)">
       <defs>
        <path id="DejaVuSans-38" d="M 2034 2216 
Q 1584 2216 1326 1975 
Q 1069 1734 1069 1313 
Q 1069 891 1326 650 
Q 1584 409 2034 409 
Q 2484 409 2743 651 
Q 3003 894 3003 1313 
Q 3003 1734 2745 1975 
Q 2488 2216 2034 2216 
z
M 1403 2484 
Q 997 2584 770 2862 
Q 544 3141 544 3541 
Q 544 4100 942 4425 
Q 1341 4750 2034 4750 
Q 2731 4750 3128 4425 
Q 3525 4100 3525 3541 
Q 3525 3141 3298 2862 
Q 3072 2584 2669 2484 
Q 3125 2378 3379 2068 
Q 3634 1759 3634 1313 
Q 3634 634 3220 271 
Q 2806 -91 2034 -91 
Q 1263 -91 848 271 
Q 434 634 434 1313 
Q 434 1759 690 2068 
Q 947 2378 1403 2484 
z
M 1172 3481 
Q 1172 3119 1398 2916 
Q 1625 2713 2034 2713 
Q 2441 2713 2670 2916 
Q 2900 3119 2900 3481 
Q 2900 3844 2670 4047 
Q 2441 4250 2034 4250 
Q 1625 4250 1398 4047 
Q 1172 3844 1172 3481 
z
" transform="scale(0.015625)"/>
       </defs>
       <use xlink:href="#DejaVuSans-38"/>
       <use xlink:href="#DejaVuSans-30" x="63.623047"/>
      </g>
     </g>
    </g>
    <g id="xtick_6">
     <g id="line2d_11">
      <path d="M 435.718557 296.715 
L 435.718557 10.8 
" clip-path="url(#p3a3bb17755)" style="fill: none; stroke: #b0b0b0; stroke-width: 0.8; stroke-linecap: square"/>
     </g>
     <g id="line2d_12">
      <g>
       <use xlink:href="#mc3ec2a101a" x="435.718557" y="296.715" style="stroke: #000000; stroke-width: 0.8"/>
      </g>
     </g>
     <g id="text_6">
      <!-- 100 -->
      <g transform="translate(426.174807 311.313437) scale(0.1 -0.1)">
       <defs>
        <path id="DejaVuSans-31" d="M 794 531 
L 1825 531 
L 1825 4091 
L 703 3866 
L 703 4441 
L 1819 4666 
L 2450 4666 
L 2450 531 
L 3481 531 
L 3481 0 
L 794 0 
L 794 531 
z
" transform="scale(0.015625)"/>
       </defs>
       <use xlink:href="#DejaVuSans-31"/>
       <use xlink:href="#DejaVuSans-30" x="63.623047"/>
       <use xlink:href="#DejaVuSans-30" x="127.246094"/>
      </g>
     </g>
    </g>
    <g id="text_7">
     <!-- Size GMM $\overline{M}$ -->
     <g transform="translate(209.68 328.481562) scale(0.14 -0.14)">
      <defs>
       <path id="DejaVuSans-53" d="M 3425 4513 
L 3425 3897 
Q 3066 4069 2747 4153 
Q 2428 4238 2131 4238 
Q 1616 4238 1336 4038 
Q 1056 3838 1056 3469 
Q 1056 3159 1242 3001 
Q 1428 2844 1947 2747 
L 2328 2669 
Q 3034 2534 3370 2195 
Q 3706 1856 3706 1288 
Q 3706 609 3251 259 
Q 2797 -91 1919 -91 
Q 1588 -91 1214 -16 
Q 841 59 441 206 
L 441 856 
Q 825 641 1194 531 
Q 1563 422 1919 422 
Q 2459 422 2753 634 
Q 3047 847 3047 1241 
Q 3047 1584 2836 1778 
Q 2625 1972 2144 2069 
L 1759 2144 
Q 1053 2284 737 2584 
Q 422 2884 422 3419 
Q 422 4038 858 4394 
Q 1294 4750 2059 4750 
Q 2388 4750 2728 4690 
Q 3069 4631 3425 4513 
z
" transform="scale(0.015625)"/>
       <path id="DejaVuSans-69" d="M 603 3500 
L 1178 3500 
L 1178 0 
L 603 0 
L 603 3500 
z
M 603 4863 
L 1178 4863 
L 1178 4134 
L 603 4134 
L 603 4863 
z
" transform="scale(0.015625)"/>
       <path id="DejaVuSans-7a" d="M 353 3500 
L 3084 3500 
L 3084 2975 
L 922 459 
L 3084 459 
L 3084 0 
L 275 0 
L 275 525 
L 2438 3041 
L 353 3041 
L 353 3500 
z
" transform="scale(0.015625)"/>
       <path id="DejaVuSans-65" d="M 3597 1894 
L 3597 1613 
L 953 1613 
Q 991 1019 1311 708 
Q 1631 397 2203 397 
Q 2534 397 2845 478 
Q 3156 559 3463 722 
L 3463 178 
Q 3153 47 2828 -22 
Q 2503 -91 2169 -91 
Q 1331 -91 842 396 
Q 353 884 353 1716 
Q 353 2575 817 3079 
Q 1281 3584 2069 3584 
Q 2775 3584 3186 3129 
Q 3597 2675 3597 1894 
z
M 3022 2063 
Q 3016 2534 2758 2815 
Q 2500 3097 2075 3097 
Q 1594 3097 1305 2825 
Q 1016 2553 972 2059 
L 3022 2063 
z
" transform="scale(0.015625)"/>
       <path id="DejaVuSans-20" transform="scale(0.015625)"/>
       <path id="DejaVuSans-47" d="M 3809 666 
L 3809 1919 
L 2778 1919 
L 2778 2438 
L 4434 2438 
L 4434 434 
Q 4069 175 3628 42 
Q 3188 -91 2688 -91 
Q 1594 -91 976 548 
Q 359 1188 359 2328 
Q 359 3472 976 4111 
Q 1594 4750 2688 4750 
Q 3144 4750 3555 4637 
Q 3966 4525 4313 4306 
L 4313 3634 
Q 3963 3931 3569 4081 
Q 3175 4231 2741 4231 
Q 1884 4231 1454 3753 
Q 1025 3275 1025 2328 
Q 1025 1384 1454 906 
Q 1884 428 2741 428 
Q 3075 428 3337 486 
Q 3600 544 3809 666 
z
" transform="scale(0.015625)"/>
       <path id="DejaVuSans-4d" d="M 628 4666 
L 1569 4666 
L 2759 1491 
L 3956 4666 
L 4897 4666 
L 4897 0 
L 4281 0 
L 4281 4097 
L 3078 897 
L 2444 897 
L 1241 4097 
L 1241 0 
L 628 0 
L 628 4666 
z
" transform="scale(0.015625)"/>
       <path id="DejaVuSans-Oblique-4d" d="M 1081 4666 
L 2028 4666 
L 2572 1522 
L 4378 4666 
L 5350 4666 
L 4441 0 
L 3828 0 
L 4622 4091 
L 2791 897 
L 2175 897 
L 1581 4103 
L 788 0 
L 172 0 
L 1081 4666 
z
" transform="scale(0.015625)"/>
      </defs>
      <use xlink:href="#DejaVuSans-53" transform="translate(0 0.34375)"/>
      <use xlink:href="#DejaVuSans-69" transform="translate(63.476562 0.34375)"/>
      <use xlink:href="#DejaVuSans-7a" transform="translate(91.259766 0.34375)"/>
      <use xlink:href="#DejaVuSans-65" transform="translate(143.75 0.34375)"/>
      <use xlink:href="#DejaVuSans-20" transform="translate(205.273438 0.34375)"/>
      <use xlink:href="#DejaVuSans-47" transform="translate(237.060547 0.34375)"/>
      <use xlink:href="#DejaVuSans-4d" transform="translate(314.550781 0.34375)"/>
      <use xlink:href="#DejaVuSans-4d" transform="translate(400.830078 0.34375)"/>
      <use xlink:href="#DejaVuSans-20" transform="translate(487.109375 0.34375)"/>
      <use xlink:href="#DejaVuSans-Oblique-4d" transform="translate(518.896484 0.84375)"/>
      <path d="M 518.896484 85.5 
L 518.896484 91.75 
L 605.175781 91.75 
L 605.175781 85.5 
L 518.896484 85.5 
z
"/>
     </g>
    </g>
   </g>
   <g id="matplotlib.axis_2">
    <g id="ytick_1">
     <g id="line2d_13">
      <path d="M 54.2 284.016368 
L 450 284.016368 
" clip-path="url(#p3a3bb17755)" style="fill: none; stroke: #b0b0b0; stroke-width: 0.8; stroke-linecap: square"/>
     </g>
     <g id="line2d_14">
      <defs>
       <path id="m5169551a23" d="M 0 0 
L -3.5 0 
" style="stroke: #000000; stroke-width: 0.8"/>
      </defs>
      <g>
       <use xlink:href="#m5169551a23" x="54.2" y="284.016368" style="stroke: #000000; stroke-width: 0.8"/>
      </g>
     </g>
     <g id="text_8">
      <!-- 0.0 -->
      <g transform="translate(31.296875 287.815586) scale(0.1 -0.1)">
       <defs>
        <path id="DejaVuSans-2e" d="M 684 794 
L 1344 794 
L 1344 0 
L 684 0 
L 684 794 
z
" transform="scale(0.015625)"/>
       </defs>
       <use xlink:href="#DejaVuSans-30"/>
       <use xlink:href="#DejaVuSans-2e" x="63.623047"/>
       <use xlink:href="#DejaVuSans-30" x="95.410156"/>
      </g>
     </g>
    </g>
    <g id="ytick_2">
     <g id="line2d_15">
      <path d="M 54.2 235.161383 
L 450 235.161383 
" clip-path="url(#p3a3bb17755)" style="fill: none; stroke: #b0b0b0; stroke-width: 0.8; stroke-linecap: square"/>
     </g>
     <g id="line2d_16">
      <g>
       <use xlink:href="#m5169551a23" x="54.2" y="235.161383" style="stroke: #000000; stroke-width: 0.8"/>
      </g>
     </g>
     <g id="text_9">
      <!-- 0.5 -->
      <g transform="translate(31.296875 238.960602) scale(0.1 -0.1)">
       <defs>
        <path id="DejaVuSans-35" d="M 691 4666 
L 3169 4666 
L 3169 4134 
L 1269 4134 
L 1269 2991 
Q 1406 3038 1543 3061 
Q 1681 3084 1819 3084 
Q 2600 3084 3056 2656 
Q 3513 2228 3513 1497 
Q 3513 744 3044 326 
Q 2575 -91 1722 -91 
Q 1428 -91 1123 -41 
Q 819 9 494 109 
L 494 744 
Q 775 591 1075 516 
Q 1375 441 1709 441 
Q 2250 441 2565 725 
Q 2881 1009 2881 1497 
Q 2881 1984 2565 2268 
Q 2250 2553 1709 2553 
Q 1456 2553 1204 2497 
Q 953 2441 691 2322 
L 691 4666 
z
" transform="scale(0.015625)"/>
       </defs>
       <use xlink:href="#DejaVuSans-30"/>
       <use xlink:href="#DejaVuSans-2e" x="63.623047"/>
       <use xlink:href="#DejaVuSans-35" x="95.410156"/>
      </g>
     </g>
    </g>
    <g id="ytick_3">
     <g id="line2d_17">
      <path d="M 54.2 186.306399 
L 450 186.306399 
" clip-path="url(#p3a3bb17755)" style="fill: none; stroke: #b0b0b0; stroke-width: 0.8; stroke-linecap: square"/>
     </g>
     <g id="line2d_18">
      <g>
       <use xlink:href="#m5169551a23" x="54.2" y="186.306399" style="stroke: #000000; stroke-width: 0.8"/>
      </g>
     </g>
     <g id="text_10">
      <!-- 1.0 -->
      <g transform="translate(31.296875 190.105618) scale(0.1 -0.1)">
       <use xlink:href="#DejaVuSans-31"/>
       <use xlink:href="#DejaVuSans-2e" x="63.623047"/>
       <use xlink:href="#DejaVuSans-30" x="95.410156"/>
      </g>
     </g>
    </g>
    <g id="ytick_4">
     <g id="line2d_19">
      <path d="M 54.2 137.451414 
L 450 137.451414 
" clip-path="url(#p3a3bb17755)" style="fill: none; stroke: #b0b0b0; stroke-width: 0.8; stroke-linecap: square"/>
     </g>
     <g id="line2d_20">
      <g>
       <use xlink:href="#m5169551a23" x="54.2" y="137.451414" style="stroke: #000000; stroke-width: 0.8"/>
      </g>
     </g>
     <g id="text_11">
      <!-- 1.5 -->
      <g transform="translate(31.296875 141.250633) scale(0.1 -0.1)">
       <use xlink:href="#DejaVuSans-31"/>
       <use xlink:href="#DejaVuSans-2e" x="63.623047"/>
       <use xlink:href="#DejaVuSans-35" x="95.410156"/>
      </g>
     </g>
    </g>
    <g id="ytick_5">
     <g id="line2d_21">
      <path d="M 54.2 88.59643 
L 450 88.59643 
" clip-path="url(#p3a3bb17755)" style="fill: none; stroke: #b0b0b0; stroke-width: 0.8; stroke-linecap: square"/>
     </g>
     <g id="line2d_22">
      <g>
       <use xlink:href="#m5169551a23" x="54.2" y="88.59643" style="stroke: #000000; stroke-width: 0.8"/>
      </g>
     </g>
     <g id="text_12">
      <!-- 2.0 -->
      <g transform="translate(31.296875 92.395649) scale(0.1 -0.1)">
       <use xlink:href="#DejaVuSans-32"/>
       <use xlink:href="#DejaVuSans-2e" x="63.623047"/>
       <use xlink:href="#DejaVuSans-30" x="95.410156"/>
      </g>
     </g>
    </g>
    <g id="ytick_6">
     <g id="line2d_23">
      <path d="M 54.2 39.741446 
L 450 39.741446 
" clip-path="url(#p3a3bb17755)" style="fill: none; stroke: #b0b0b0; stroke-width: 0.8; stroke-linecap: square"/>
     </g>
     <g id="line2d_24">
      <g>
       <use xlink:href="#m5169551a23" x="54.2" y="39.741446" style="stroke: #000000; stroke-width: 0.8"/>
      </g>
     </g>
     <g id="text_13">
      <!-- 2.5 -->
      <g transform="translate(31.296875 43.540664) scale(0.1 -0.1)">
       <use xlink:href="#DejaVuSans-32"/>
       <use xlink:href="#DejaVuSans-2e" x="63.623047"/>
       <use xlink:href="#DejaVuSans-35" x="95.410156"/>
      </g>
     </g>
    </g>
    <g id="text_14">
     <!-- Computation time $T$ (sec) -->
     <g transform="translate(24.356875 243.1475) rotate(-90) scale(0.14 -0.14)">
      <defs>
       <path id="DejaVuSans-43" d="M 4122 4306 
L 4122 3641 
Q 3803 3938 3442 4084 
Q 3081 4231 2675 4231 
Q 1875 4231 1450 3742 
Q 1025 3253 1025 2328 
Q 1025 1406 1450 917 
Q 1875 428 2675 428 
Q 3081 428 3442 575 
Q 3803 722 4122 1019 
L 4122 359 
Q 3791 134 3420 21 
Q 3050 -91 2638 -91 
Q 1578 -91 968 557 
Q 359 1206 359 2328 
Q 359 3453 968 4101 
Q 1578 4750 2638 4750 
Q 3056 4750 3426 4639 
Q 3797 4528 4122 4306 
z
" transform="scale(0.015625)"/>
       <path id="DejaVuSans-6f" d="M 1959 3097 
Q 1497 3097 1228 2736 
Q 959 2375 959 1747 
Q 959 1119 1226 758 
Q 1494 397 1959 397 
Q 2419 397 2687 759 
Q 2956 1122 2956 1747 
Q 2956 2369 2687 2733 
Q 2419 3097 1959 3097 
z
M 1959 3584 
Q 2709 3584 3137 3096 
Q 3566 2609 3566 1747 
Q 3566 888 3137 398 
Q 2709 -91 1959 -91 
Q 1206 -91 779 398 
Q 353 888 353 1747 
Q 353 2609 779 3096 
Q 1206 3584 1959 3584 
z
" transform="scale(0.015625)"/>
       <path id="DejaVuSans-6d" d="M 3328 2828 
Q 3544 3216 3844 3400 
Q 4144 3584 4550 3584 
Q 5097 3584 5394 3201 
Q 5691 2819 5691 2113 
L 5691 0 
L 5113 0 
L 5113 2094 
Q 5113 2597 4934 2840 
Q 4756 3084 4391 3084 
Q 3944 3084 3684 2787 
Q 3425 2491 3425 1978 
L 3425 0 
L 2847 0 
L 2847 2094 
Q 2847 2600 2669 2842 
Q 2491 3084 2119 3084 
Q 1678 3084 1418 2786 
Q 1159 2488 1159 1978 
L 1159 0 
L 581 0 
L 581 3500 
L 1159 3500 
L 1159 2956 
Q 1356 3278 1631 3431 
Q 1906 3584 2284 3584 
Q 2666 3584 2933 3390 
Q 3200 3197 3328 2828 
z
" transform="scale(0.015625)"/>
       <path id="DejaVuSans-70" d="M 1159 525 
L 1159 -1331 
L 581 -1331 
L 581 3500 
L 1159 3500 
L 1159 2969 
Q 1341 3281 1617 3432 
Q 1894 3584 2278 3584 
Q 2916 3584 3314 3078 
Q 3713 2572 3713 1747 
Q 3713 922 3314 415 
Q 2916 -91 2278 -91 
Q 1894 -91 1617 61 
Q 1341 213 1159 525 
z
M 3116 1747 
Q 3116 2381 2855 2742 
Q 2594 3103 2138 3103 
Q 1681 3103 1420 2742 
Q 1159 2381 1159 1747 
Q 1159 1113 1420 752 
Q 1681 391 2138 391 
Q 2594 391 2855 752 
Q 3116 1113 3116 1747 
z
" transform="scale(0.015625)"/>
       <path id="DejaVuSans-75" d="M 544 1381 
L 544 3500 
L 1119 3500 
L 1119 1403 
Q 1119 906 1312 657 
Q 1506 409 1894 409 
Q 2359 409 2629 706 
Q 2900 1003 2900 1516 
L 2900 3500 
L 3475 3500 
L 3475 0 
L 2900 0 
L 2900 538 
Q 2691 219 2414 64 
Q 2138 -91 1772 -91 
Q 1169 -91 856 284 
Q 544 659 544 1381 
z
M 1991 3584 
L 1991 3584 
z
" transform="scale(0.015625)"/>
       <path id="DejaVuSans-74" d="M 1172 4494 
L 1172 3500 
L 2356 3500 
L 2356 3053 
L 1172 3053 
L 1172 1153 
Q 1172 725 1289 603 
Q 1406 481 1766 481 
L 2356 481 
L 2356 0 
L 1766 0 
Q 1100 0 847 248 
Q 594 497 594 1153 
L 594 3053 
L 172 3053 
L 172 3500 
L 594 3500 
L 594 4494 
L 1172 4494 
z
" transform="scale(0.015625)"/>
       <path id="DejaVuSans-61" d="M 2194 1759 
Q 1497 1759 1228 1600 
Q 959 1441 959 1056 
Q 959 750 1161 570 
Q 1363 391 1709 391 
Q 2188 391 2477 730 
Q 2766 1069 2766 1631 
L 2766 1759 
L 2194 1759 
z
M 3341 1997 
L 3341 0 
L 2766 0 
L 2766 531 
Q 2569 213 2275 61 
Q 1981 -91 1556 -91 
Q 1019 -91 701 211 
Q 384 513 384 1019 
Q 384 1609 779 1909 
Q 1175 2209 1959 2209 
L 2766 2209 
L 2766 2266 
Q 2766 2663 2505 2880 
Q 2244 3097 1772 3097 
Q 1472 3097 1187 3025 
Q 903 2953 641 2809 
L 641 3341 
Q 956 3463 1253 3523 
Q 1550 3584 1831 3584 
Q 2591 3584 2966 3190 
Q 3341 2797 3341 1997 
z
" transform="scale(0.015625)"/>
       <path id="DejaVuSans-6e" d="M 3513 2113 
L 3513 0 
L 2938 0 
L 2938 2094 
Q 2938 2591 2744 2837 
Q 2550 3084 2163 3084 
Q 1697 3084 1428 2787 
Q 1159 2491 1159 1978 
L 1159 0 
L 581 0 
L 581 3500 
L 1159 3500 
L 1159 2956 
Q 1366 3272 1645 3428 
Q 1925 3584 2291 3584 
Q 2894 3584 3203 3211 
Q 3513 2838 3513 2113 
z
" transform="scale(0.015625)"/>
       <path id="DejaVuSans-Oblique-54" d="M 378 4666 
L 4325 4666 
L 4225 4134 
L 2559 4134 
L 1759 0 
L 1125 0 
L 1925 4134 
L 275 4134 
L 378 4666 
z
" transform="scale(0.015625)"/>
       <path id="DejaVuSans-28" d="M 1984 4856 
Q 1566 4138 1362 3434 
Q 1159 2731 1159 2009 
Q 1159 1288 1364 580 
Q 1569 -128 1984 -844 
L 1484 -844 
Q 1016 -109 783 600 
Q 550 1309 550 2009 
Q 550 2706 781 3412 
Q 1013 4119 1484 4856 
L 1984 4856 
z
" transform="scale(0.015625)"/>
       <path id="DejaVuSans-73" d="M 2834 3397 
L 2834 2853 
Q 2591 2978 2328 3040 
Q 2066 3103 1784 3103 
Q 1356 3103 1142 2972 
Q 928 2841 928 2578 
Q 928 2378 1081 2264 
Q 1234 2150 1697 2047 
L 1894 2003 
Q 2506 1872 2764 1633 
Q 3022 1394 3022 966 
Q 3022 478 2636 193 
Q 2250 -91 1575 -91 
Q 1294 -91 989 -36 
Q 684 19 347 128 
L 347 722 
Q 666 556 975 473 
Q 1284 391 1588 391 
Q 1994 391 2212 530 
Q 2431 669 2431 922 
Q 2431 1156 2273 1281 
Q 2116 1406 1581 1522 
L 1381 1569 
Q 847 1681 609 1914 
Q 372 2147 372 2553 
Q 372 3047 722 3315 
Q 1072 3584 1716 3584 
Q 2034 3584 2315 3537 
Q 2597 3491 2834 3397 
z
" transform="scale(0.015625)"/>
       <path id="DejaVuSans-63" d="M 3122 3366 
L 3122 2828 
Q 2878 2963 2633 3030 
Q 2388 3097 2138 3097 
Q 1578 3097 1268 2742 
Q 959 2388 959 1747 
Q 959 1106 1268 751 
Q 1578 397 2138 397 
Q 2388 397 2633 464 
Q 2878 531 3122 666 
L 3122 134 
Q 2881 22 2623 -34 
Q 2366 -91 2075 -91 
Q 1284 -91 818 406 
Q 353 903 353 1747 
Q 353 2603 823 3093 
Q 1294 3584 2113 3584 
Q 2378 3584 2631 3529 
Q 2884 3475 3122 3366 
z
" transform="scale(0.015625)"/>
       <path id="DejaVuSans-29" d="M 513 4856 
L 1013 4856 
Q 1481 4119 1714 3412 
Q 1947 2706 1947 2009 
Q 1947 1309 1714 600 
Q 1481 -109 1013 -844 
L 513 -844 
Q 928 -128 1133 580 
Q 1338 1288 1338 2009 
Q 1338 2731 1133 3434 
Q 928 4138 513 4856 
z
" transform="scale(0.015625)"/>
      </defs>
      <use xlink:href="#DejaVuSans-43" transform="translate(0 0.015625)"/>
      <use xlink:href="#DejaVuSans-6f" transform="translate(69.824219 0.015625)"/>
      <use xlink:href="#DejaVuSans-6d" transform="translate(131.005859 0.015625)"/>
      <use xlink:href="#DejaVuSans-70" transform="translate(228.417969 0.015625)"/>
      <use xlink:href="#DejaVuSans-75" transform="translate(291.894531 0.015625)"/>
      <use xlink:href="#DejaVuSans-74" transform="translate(355.273438 0.015625)"/>
      <use xlink:href="#DejaVuSans-61" transform="translate(394.482422 0.015625)"/>
      <use xlink:href="#DejaVuSans-74" transform="translate(455.761719 0.015625)"/>
      <use xlink:href="#DejaVuSans-69" transform="translate(494.970703 0.015625)"/>
      <use xlink:href="#DejaVuSans-6f" transform="translate(522.753906 0.015625)"/>
      <use xlink:href="#DejaVuSans-6e" transform="translate(583.935547 0.015625)"/>
      <use xlink:href="#DejaVuSans-20" transform="translate(647.314453 0.015625)"/>
      <use xlink:href="#DejaVuSans-74" transform="translate(679.101562 0.015625)"/>
      <use xlink:href="#DejaVuSans-69" transform="translate(718.310547 0.015625)"/>
      <use xlink:href="#DejaVuSans-6d" transform="translate(746.09375 0.015625)"/>
      <use xlink:href="#DejaVuSans-65" transform="translate(843.505859 0.015625)"/>
      <use xlink:href="#DejaVuSans-20" transform="translate(905.029297 0.015625)"/>
      <use xlink:href="#DejaVuSans-Oblique-54" transform="translate(936.816406 0.015625)"/>
      <use xlink:href="#DejaVuSans-20" transform="translate(997.900391 0.015625)"/>
      <use xlink:href="#DejaVuSans-28" transform="translate(1029.6875 0.015625)"/>
      <use xlink:href="#DejaVuSans-73" transform="translate(1068.701172 0.015625)"/>
      <use xlink:href="#DejaVuSans-65" transform="translate(1120.800781 0.015625)"/>
      <use xlink:href="#DejaVuSans-63" transform="translate(1182.324219 0.015625)"/>
      <use xlink:href="#DejaVuSans-29" transform="translate(1237.304688 0.015625)"/>
     </g>
    </g>
   </g>
   <g id="line2d_25">
    <path d="M 72.190909 282.824656 
L 75.900375 282.566356 
L 79.609841 282.169981 
L 83.319306 281.709137 
L 87.028772 281.110864 
L 90.738238 280.67437 
L 94.447704 280.044734 
L 98.15717 279.152404 
L 101.866635 278.365255 
L 105.576101 276.675258 
L 109.285567 276.038841 
L 112.995033 276.631415 
L 116.704499 275.727335 
L 120.413964 275.196905 
L 124.12343 273.919266 
L 127.832896 270.562128 
L 131.542362 271.658359 
L 135.251828 271.112099 
L 138.961293 269.333632 
L 142.670759 269.064425 
L 146.380225 268.329449 
L 150.089691 267.345227 
L 153.799157 264.956782 
L 157.508622 264.90545 
L 161.218088 264.36083 
L 164.927554 263.058793 
L 168.63702 259.028968 
L 172.346485 259.021952 
L 176.055951 259.246035 
L 179.765417 257.571451 
L 183.474883 255.848013 
L 187.184349 255.506567 
L 190.893814 254.318893 
L 194.60328 253.299314 
L 198.312746 250.42823 
L 202.022212 250.361504 
L 205.731678 248.786407 
L 209.441143 247.810047 
L 213.150609 245.474233 
L 216.860075 244.48513 
L 220.569541 242.172546 
L 224.279007 241.372887 
L 227.988472 238.808051 
L 231.697938 237.734913 
L 235.407404 236.279196 
L 239.11687 234.156527 
L 242.826336 232.179968 
L 246.535801 229.702967 
L 250.245267 227.533285 
L 253.954733 225.975211 
L 257.664199 222.918541 
L 261.373664 221.007999 
L 265.08313 219.739048 
L 268.792596 217.748942 
L 272.502062 215.594283 
L 276.211528 212.597419 
L 279.920993 209.381226 
L 283.630459 208.825756 
L 287.339925 206.621417 
L 291.049391 203.984464 
L 294.758857 201.718232 
L 298.468322 195.9809 
L 302.177788 189.396759 
L 305.887254 190.195202 
L 309.59672 190.694109 
L 313.306186 186.751268 
L 317.015651 181.104908 
L 320.725117 169.04604 
L 324.434583 177.702798 
L 328.144049 178.076144 
L 331.853515 169.815801 
L 335.56298 160.196756 
L 339.272446 164.429089 
L 342.981912 163.5656 
L 346.691378 161.859331 
L 350.400843 155.438295 
L 354.110309 152.56063 
L 357.819775 151.38936 
L 361.529241 140.167592 
L 365.238707 127.046097 
L 368.948172 124.693339 
L 372.657638 124.210495 
L 376.367104 137.595404 
L 380.07657 132.640325 
L 383.786036 128.335129 
L 387.495501 121.700943 
L 391.204967 105.608157 
L 394.914433 107.432242 
L 398.623899 103.042116 
L 402.333365 89.129798 
L 406.04283 104.167729 
L 409.752296 97.613966 
L 413.461762 98.607794 
L 417.171228 67.310822 
L 420.880694 92.569441 
L 424.590159 59.133291 
L 428.299625 57.487146 
L 432.009091 53.488638 
" clip-path="url(#p3a3bb17755)" style="fill: none; stroke: #0000ff; stroke-width: 2; stroke-linecap: square"/>
   </g>
   <g id="line2d_26">
    <path d="M 72.190909 282.05099 
L 75.900375 282.475356 
L 79.609841 282.099892 
L 83.319306 281.645699 
L 87.028772 280.840899 
L 90.738238 280.612437 
L 94.447704 279.831973 
L 98.15717 278.571539 
L 101.866635 277.433479 
L 105.576101 275.075675 
L 109.285567 275.018613 
L 112.995033 276.457793 
L 116.704499 274.848906 
L 120.413964 275.055428 
L 124.12343 272.835202 
L 127.832896 267.814518 
L 131.542362 269.146925 
L 135.251828 270.668832 
L 138.961293 267.198966 
L 142.670759 267.435757 
L 146.380225 267.783113 
L 150.089691 266.669192 
L 153.799157 261.274592 
L 157.508622 263.919594 
L 161.218088 263.866483 
L 164.927554 262.515875 
L 168.63702 255.571116 
L 172.346485 257.837725 
L 176.055951 258.625205 
L 179.765417 256.604843 
L 183.474883 254.020764 
L 187.184349 255.176289 
L 190.893814 253.318761 
L 194.60328 252.175656 
L 198.312746 247.835269 
L 202.022212 249.45421 
L 205.731678 247.895392 
L 209.441143 247.313528 
L 213.150609 244.903254 
L 216.860075 243.371812 
L 220.569541 240.470671 
L 224.279007 240.500615 
L 227.988472 237.072108 
L 231.697938 237.21484 
L 235.407404 235.779889 
L 239.11687 233.196528 
L 242.826336 230.84388 
L 246.535801 227.836377 
L 250.245267 226.079171 
L 253.954733 224.150182 
L 257.664199 220.905106 
L 261.373664 219.164644 
L 265.08313 218.286247 
L 268.792596 215.945995 
L 272.502062 214.555207 
L 276.211528 211.112076 
L 279.920993 207.619069 
L 283.630459 206.932802 
L 287.339925 205.198192 
L 291.049391 202.13986 
L 294.758857 200.468514 
L 298.468322 193.194136 
L 302.177788 181.829372 
L 305.887254 185.112896 
L 309.59672 187.162255 
L 313.306186 181.726422 
L 317.015651 169.095198 
L 320.725117 150.015277 
L 324.434583 171.60785 
L 328.144049 174.338013 
L 331.853515 162.608193 
L 335.56298 153.551672 
L 339.272446 159.348027 
L 342.981912 158.90033 
L 346.691378 157.807227 
L 350.400843 149.040921 
L 354.110309 146.146219 
L 357.819775 146.6702 
L 361.529241 129.904552 
L 365.238707 109.079662 
L 368.948172 105.901806 
L 372.657638 115.867418 
L 376.367104 132.578874 
L 380.07657 126.453973 
L 383.786036 123.012982 
L 387.495501 112.346755 
L 391.204967 75.36858 
L 394.914433 97.809613 
L 398.623899 90.548288 
L 402.333365 53.953688 
L 406.04283 101.420665 
L 409.752296 83.303415 
L 413.461762 93.444695 
L 417.171228 51.019202 
L 420.880694 83.765786 
L 424.590159 23.796136 
L 428.299625 36.846513 
L 432.009091 42.162702 
" clip-path="url(#p3a3bb17755)" style="fill: none; stroke-dasharray: 3.7,1.6; stroke-dashoffset: 0; stroke: #0000ff"/>
   </g>
   <g id="line2d_27">
    <path d="M 72.190909 283.598321 
L 75.900375 282.657356 
L 79.609841 282.24007 
L 83.319306 281.772576 
L 87.028772 281.38083 
L 90.738238 280.736302 
L 94.447704 280.257494 
L 98.15717 279.733269 
L 101.866635 279.297031 
L 105.576101 278.274842 
L 109.285567 277.059069 
L 112.995033 276.805038 
L 116.704499 276.605764 
L 120.413964 275.338381 
L 124.12343 275.00333 
L 127.832896 273.309738 
L 131.542362 274.169794 
L 135.251828 271.555367 
L 138.961293 271.468298 
L 142.670759 270.693092 
L 146.380225 268.875785 
L 150.089691 268.021261 
L 153.799157 268.638972 
L 157.508622 265.891306 
L 161.218088 264.855176 
L 164.927554 263.601711 
L 168.63702 262.48682 
L 172.346485 260.206178 
L 176.055951 259.866864 
L 179.765417 258.538058 
L 183.474883 257.675261 
L 187.184349 255.836845 
L 190.893814 255.319025 
L 194.60328 254.422971 
L 198.312746 253.021192 
L 202.022212 251.268798 
L 205.731678 249.677422 
L 209.441143 248.306565 
L 213.150609 246.045212 
L 216.860075 245.598447 
L 220.569541 243.874421 
L 224.279007 242.245159 
L 227.988472 240.543995 
L 231.697938 238.254987 
L 235.407404 236.778503 
L 239.11687 235.116527 
L 242.826336 233.516056 
L 246.535801 231.569558 
L 250.245267 228.987399 
L 253.954733 227.800239 
L 257.664199 224.931975 
L 261.373664 222.851355 
L 265.08313 221.191848 
L 268.792596 219.551889 
L 272.502062 216.63336 
L 276.211528 214.082762 
L 279.920993 211.143382 
L 283.630459 210.718711 
L 287.339925 208.044642 
L 291.049391 205.829068 
L 294.758857 202.967951 
L 298.468322 198.767663 
L 302.177788 196.964147 
L 305.887254 195.277508 
L 309.59672 194.225962 
L 313.306186 191.776115 
L 317.015651 193.114619 
L 320.725117 188.076803 
L 324.434583 183.797745 
L 328.144049 181.814276 
L 331.853515 177.023408 
L 335.56298 166.84184 
L 339.272446 169.510152 
L 342.981912 168.23087 
L 346.691378 165.911435 
L 350.400843 161.835668 
L 354.110309 158.975041 
L 357.819775 156.10852 
L 361.529241 150.430632 
L 365.238707 145.012531 
L 368.948172 143.484873 
L 372.657638 132.553572 
L 376.367104 142.611934 
L 380.07657 138.826678 
L 383.786036 133.657277 
L 387.495501 131.05513 
L 391.204967 135.847734 
L 394.914433 117.054871 
L 398.623899 115.535945 
L 402.333365 124.305909 
L 406.04283 106.914792 
L 409.752296 111.924518 
L 413.461762 103.770892 
L 417.171228 83.602441 
L 420.880694 101.373095 
L 424.590159 94.470445 
L 428.299625 78.127779 
L 432.009091 64.814573 
" clip-path="url(#p3a3bb17755)" style="fill: none; stroke-dasharray: 3.7,1.6; stroke-dashoffset: 0; stroke: #0000ff"/>
   </g>
   <g id="line2d_28">
    <path d="M 72.190909 283.715494 
L 75.900375 283.530448 
L 79.609841 283.405466 
L 83.319306 283.274585 
L 87.028772 283.088912 
L 90.738238 282.966842 
L 94.447704 282.797961 
L 98.15717 282.532285 
L 101.866635 282.163495 
L 105.576101 281.977634 
L 109.285567 281.854077 
L 112.995033 282.022299 
L 116.704499 281.899912 
L 120.413964 281.752994 
L 124.12343 281.584591 
L 127.832896 280.373762 
L 131.542362 281.291536 
L 135.251828 281.084987 
L 138.961293 280.328372 
L 142.670759 280.776706 
L 146.380225 280.591262 
L 150.089691 280.395313 
L 153.799157 279.655164 
L 157.508622 280.408753 
L 161.218088 280.223872 
L 164.927554 280.120368 
L 168.63702 279.284191 
L 172.346485 279.384153 
L 176.055951 279.755222 
L 179.765417 279.532947 
L 183.474883 279.433494 
L 187.184349 279.25836 
L 190.893814 279.205209 
L 194.60328 278.969412 
L 198.312746 278.722208 
L 202.022212 278.496005 
L 205.731678 278.601196 
L 209.441143 278.51177 
L 213.150609 278.32917 
L 216.860075 278.198373 
L 220.569541 278.069952 
L 224.279007 277.926703 
L 227.988472 277.767702 
L 231.697938 277.600822 
L 235.407404 277.558048 
L 239.11687 277.390968 
L 242.826336 277.299907 
L 246.535801 277.108909 
L 250.245267 276.883731 
L 253.954733 276.828573 
L 257.664199 276.706854 
L 261.373664 276.64717 
L 265.08313 276.540515 
L 268.792596 276.288419 
L 272.502062 276.182793 
L 276.211528 276.10696 
L 279.920993 275.881197 
L 283.630459 275.832842 
L 287.339925 275.674822 
L 291.049391 275.574619 
L 294.758857 275.353297 
L 298.468322 275.211297 
L 302.177788 272.226667 
L 305.887254 274.924406 
L 309.59672 274.622554 
L 313.306186 274.203813 
L 317.015651 274.393425 
L 320.725117 273.723462 
L 324.434583 274.257331 
L 328.144049 273.907897 
L 331.853515 273.275079 
L 335.56298 273.564104 
L 339.272446 273.537654 
L 342.981912 273.503236 
L 346.691378 273.408466 
L 350.400843 271.644119 
L 354.110309 272.218306 
L 357.819775 272.79462 
L 361.529241 272.724707 
L 365.238707 270.291041 
L 368.948172 272.221661 
L 372.657638 271.822924 
L 376.367104 272.191672 
L 380.07657 271.219447 
L 383.786036 271.808331 
L 387.495501 271.677369 
L 391.204967 271.326188 
L 394.914433 270.754312 
L 398.623899 270.924283 
L 402.333365 268.713235 
L 406.04283 271.129063 
L 409.752296 270.665082 
L 413.461762 270.696962 
L 417.171228 269.810361 
L 420.880694 270.307683 
L 424.590159 268.223355 
L 428.299625 269.737149 
L 432.009091 268.479687 
" clip-path="url(#p3a3bb17755)" style="fill: none; stroke: #ff0000; stroke-width: 2; stroke-linecap: square"/>
   </g>
   <g id="line2d_29">
    <path d="M 72.190909 283.712125 
L 75.900375 283.495331 
L 79.609841 283.386922 
L 83.319306 283.265141 
L 87.028772 283.038045 
L 90.738238 282.945317 
L 94.447704 282.74312 
L 98.15717 282.348178 
L 101.866635 281.30337 
L 105.576101 281.607761 
L 109.285567 281.575672 
L 112.995033 281.956569 
L 116.704499 281.829938 
L 120.413964 281.679434 
L 124.12343 281.463306 
L 127.832896 279.094546 
L 131.542362 281.17347 
L 135.251828 280.916039 
L 138.961293 279.454277 
L 142.670759 280.334831 
L 146.380225 280.267202 
L 150.089691 280.154204 
L 153.799157 277.222219 
L 157.508622 280.217124 
L 161.218088 279.998722 
L 164.927554 279.890461 
L 168.63702 277.685093 
L 172.346485 278.645671 
L 176.055951 279.691287 
L 179.765417 279.460661 
L 183.474883 279.348159 
L 187.184349 279.172052 
L 190.893814 279.1438 
L 194.60328 278.667991 
L 198.312746 278.323368 
L 202.022212 278.100303 
L 205.731678 278.495406 
L 209.441143 278.41058 
L 213.150609 278.19877 
L 216.860075 278.040934 
L 220.569541 277.803538 
L 224.279007 277.786425 
L 227.988472 277.525345 
L 231.697938 277.42699 
L 235.407404 277.519656 
L 239.11687 277.272179 
L 242.826336 277.257681 
L 246.535801 277.002364 
L 250.245267 276.664071 
L 253.954733 276.648263 
L 257.664199 276.600249 
L 261.373664 276.517017 
L 265.08313 276.452294 
L 268.792596 276.13089 
L 272.502062 275.956752 
L 276.211528 276.051066 
L 279.920993 275.667593 
L 283.630459 275.753767 
L 287.339925 275.576723 
L 291.049391 275.505626 
L 294.758857 275.243268 
L 298.468322 274.91559 
L 302.177788 265.773139 
L 305.887254 274.723404 
L 309.59672 274.108352 
L 313.306186 272.946909 
L 317.015651 274.187757 
L 320.725117 272.812345 
L 324.434583 274.17755 
L 328.144049 273.562969 
L 331.853515 272.102744 
L 335.56298 273.277775 
L 339.272446 273.329148 
L 342.981912 273.278569 
L 346.691378 273.28996 
L 350.400843 267.011184 
L 354.110309 269.4668 
L 357.819775 272.477972 
L 361.529241 272.500631 
L 365.238707 264.373708 
L 368.948172 271.954206 
L 372.657638 271.366435 
L 376.367104 271.892189 
L 380.07657 268.614207 
L 383.786036 271.164837 
L 387.495501 271.516343 
L 391.204967 270.820149 
L 394.914433 270.078378 
L 398.623899 270.675729 
L 402.333365 262.168292 
L 406.04283 270.973712 
L 409.752296 269.911472 
L 413.461762 270.376924 
L 417.171228 268.948944 
L 420.880694 270.181549 
L 424.590159 265.255946 
L 428.299625 269.419288 
L 432.009091 266.732102 
" clip-path="url(#p3a3bb17755)" style="fill: none; stroke-dasharray: 3.7,1.6; stroke-dashoffset: 0; stroke: #ff0000"/>
   </g>
   <g id="line2d_30">
    <path d="M 72.190909 283.718864 
L 75.900375 283.565566 
L 79.609841 283.424009 
L 83.319306 283.284029 
L 87.028772 283.13978 
L 90.738238 282.988367 
L 94.447704 282.852802 
L 98.15717 282.716392 
L 101.866635 283.023621 
L 105.576101 282.347507 
L 109.285567 282.132483 
L 112.995033 282.088029 
L 116.704499 281.969886 
L 120.413964 281.826554 
L 124.12343 281.705875 
L 127.832896 281.652978 
L 131.542362 281.409601 
L 135.251828 281.253935 
L 138.961293 281.202468 
L 142.670759 281.218581 
L 146.380225 280.915322 
L 150.089691 280.636422 
L 153.799157 282.088108 
L 157.508622 280.600381 
L 161.218088 280.449022 
L 164.927554 280.350275 
L 168.63702 280.883289 
L 172.346485 280.122636 
L 176.055951 279.819156 
L 179.765417 279.605232 
L 183.474883 279.518829 
L 187.184349 279.344669 
L 190.893814 279.266617 
L 194.60328 279.270834 
L 198.312746 279.121049 
L 202.022212 278.891708 
L 205.731678 278.706985 
L 209.441143 278.612959 
L 213.150609 278.459569 
L 216.860075 278.355811 
L 220.569541 278.336366 
L 224.279007 278.066982 
L 227.988472 278.010059 
L 231.697938 277.774654 
L 235.407404 277.59644 
L 239.11687 277.509757 
L 242.826336 277.342133 
L 246.535801 277.215453 
L 250.245267 277.103391 
L 253.954733 277.008883 
L 257.664199 276.81346 
L 261.373664 276.777324 
L 265.08313 276.628736 
L 268.792596 276.445947 
L 272.502062 276.408834 
L 276.211528 276.162855 
L 279.920993 276.094802 
L 283.630459 275.911917 
L 287.339925 275.772921 
L 291.049391 275.643612 
L 294.758857 275.463325 
L 298.468322 275.507004 
L 302.177788 278.680195 
L 305.887254 275.125407 
L 309.59672 275.136756 
L 313.306186 275.460717 
L 317.015651 274.599093 
L 320.725117 274.634578 
L 324.434583 274.337112 
L 328.144049 274.252826 
L 331.853515 274.447414 
L 335.56298 273.850432 
L 339.272446 273.74616 
L 342.981912 273.727903 
L 346.691378 273.526973 
L 350.400843 276.277054 
L 354.110309 274.969812 
L 357.819775 273.111268 
L 361.529241 272.948783 
L 365.238707 276.208373 
L 368.948172 272.489116 
L 372.657638 272.279413 
L 376.367104 272.491154 
L 380.07657 273.824686 
L 383.786036 272.451826 
L 387.495501 271.838395 
L 391.204967 271.832228 
L 394.914433 271.430245 
L 398.623899 271.172838 
L 402.333365 275.258178 
L 406.04283 271.284415 
L 409.752296 271.418691 
L 413.461762 271.017001 
L 417.171228 270.671778 
L 420.880694 270.433818 
L 424.590159 271.190765 
L 428.299625 270.05501 
L 432.009091 270.227272 
" clip-path="url(#p3a3bb17755)" style="fill: none; stroke-dasharray: 3.7,1.6; stroke-dashoffset: 0; stroke: #ff0000"/>
   </g>
   <g id="patch_3">
    <path d="M 54.2 296.715 
L 54.2 10.8 
" style="fill: none; stroke: #000000; stroke-width: 0.8; stroke-linejoin: miter; stroke-linecap: square"/>
   </g>
   <g id="patch_4">
    <path d="M 450 296.715 
L 450 10.8 
" style="fill: none; stroke: #000000; stroke-width: 0.8; stroke-linejoin: miter; stroke-linecap: square"/>
   </g>
   <g id="patch_5">
    <path d="M 54.2 296.715 
L 450 296.715 
" style="fill: none; stroke: #000000; stroke-width: 0.8; stroke-linejoin: miter; stroke-linecap: square"/>
   </g>
   <g id="patch_6">
    <path d="M 54.2 10.8 
L 450 10.8 
" style="fill: none; stroke: #000000; stroke-width: 0.8; stroke-linejoin: miter; stroke-linecap: square"/>
   </g>
   <g id="legend_1">
    <g id="patch_7">
     <path d="M 64 63.09875 
L 216.834063 63.09875 
Q 219.634063 63.09875 219.634063 60.29875 
L 219.634063 20.6 
Q 219.634063 17.8 216.834063 17.8 
L 64 17.8 
Q 61.2 17.8 61.2 20.6 
L 61.2 60.29875 
Q 61.2 63.09875 64 63.09875 
z
" style="fill: #ffffff; opacity: 0.8; stroke: #cccccc; stroke-linejoin: miter"/>
    </g>
    <g id="line2d_31">
     <path d="M 66.8 29.137813 
L 80.8 29.137813 
L 94.8 29.137813 
" style="fill: none; stroke: #0000ff; stroke-width: 2; stroke-linecap: square"/>
    </g>
    <g id="text_15">
     <!-- Multi-Grid -->
     <g transform="translate(106 34.037813) scale(0.14 -0.14)">
      <defs>
       <path id="DejaVuSans-6c" d="M 603 4863 
L 1178 4863 
L 1178 0 
L 603 0 
L 603 4863 
z
" transform="scale(0.015625)"/>
       <path id="DejaVuSans-2d" d="M 313 2009 
L 1997 2009 
L 1997 1497 
L 313 1497 
L 313 2009 
z
" transform="scale(0.015625)"/>
       <path id="DejaVuSans-72" d="M 2631 2963 
Q 2534 3019 2420 3045 
Q 2306 3072 2169 3072 
Q 1681 3072 1420 2755 
Q 1159 2438 1159 1844 
L 1159 0 
L 581 0 
L 581 3500 
L 1159 3500 
L 1159 2956 
Q 1341 3275 1631 3429 
Q 1922 3584 2338 3584 
Q 2397 3584 2469 3576 
Q 2541 3569 2628 3553 
L 2631 2963 
z
" transform="scale(0.015625)"/>
       <path id="DejaVuSans-64" d="M 2906 2969 
L 2906 4863 
L 3481 4863 
L 3481 0 
L 2906 0 
L 2906 525 
Q 2725 213 2448 61 
Q 2172 -91 1784 -91 
Q 1150 -91 751 415 
Q 353 922 353 1747 
Q 353 2572 751 3078 
Q 1150 3584 1784 3584 
Q 2172 3584 2448 3432 
Q 2725 3281 2906 2969 
z
M 947 1747 
Q 947 1113 1208 752 
Q 1469 391 1925 391 
Q 2381 391 2643 752 
Q 2906 1113 2906 1747 
Q 2906 2381 2643 2742 
Q 2381 3103 1925 3103 
Q 1469 3103 1208 2742 
Q 947 2381 947 1747 
z
" transform="scale(0.015625)"/>
      </defs>
      <use xlink:href="#DejaVuSans-4d"/>
      <use xlink:href="#DejaVuSans-75" x="86.279297"/>
      <use xlink:href="#DejaVuSans-6c" x="149.658203"/>
      <use xlink:href="#DejaVuSans-74" x="177.441406"/>
      <use xlink:href="#DejaVuSans-69" x="216.650391"/>
      <use xlink:href="#DejaVuSans-2d" x="244.433594"/>
      <use xlink:href="#DejaVuSans-47" x="284.142578"/>
      <use xlink:href="#DejaVuSans-72" x="361.632812"/>
      <use xlink:href="#DejaVuSans-69" x="402.746094"/>
      <use xlink:href="#DejaVuSans-64" x="430.529297"/>
     </g>
    </g>
    <g id="line2d_32">
     <path d="M 66.8 49.687188 
L 80.8 49.687188 
L 94.8 49.687188 
" style="fill: none; stroke: #ff0000; stroke-width: 2; stroke-linecap: square"/>
    </g>
    <g id="text_16">
     <!-- Per Component -->
     <g transform="translate(106 54.587188) scale(0.14 -0.14)">
      <defs>
       <path id="DejaVuSans-50" d="M 1259 4147 
L 1259 2394 
L 2053 2394 
Q 2494 2394 2734 2622 
Q 2975 2850 2975 3272 
Q 2975 3691 2734 3919 
Q 2494 4147 2053 4147 
L 1259 4147 
z
M 628 4666 
L 2053 4666 
Q 2838 4666 3239 4311 
Q 3641 3956 3641 3272 
Q 3641 2581 3239 2228 
Q 2838 1875 2053 1875 
L 1259 1875 
L 1259 0 
L 628 0 
L 628 4666 
z
" transform="scale(0.015625)"/>
      </defs>
      <use xlink:href="#DejaVuSans-50"/>
      <use xlink:href="#DejaVuSans-65" x="56.677734"/>
      <use xlink:href="#DejaVuSans-72" x="118.201172"/>
      <use xlink:href="#DejaVuSans-20" x="159.314453"/>
      <use xlink:href="#DejaVuSans-43" x="191.101562"/>
      <use xlink:href="#DejaVuSans-6f" x="260.925781"/>
      <use xlink:href="#DejaVuSans-6d" x="322.107422"/>
      <use xlink:href="#DejaVuSans-70" x="419.519531"/>
      <use xlink:href="#DejaVuSans-6f" x="482.996094"/>
      <use xlink:href="#DejaVuSans-6e" x="544.177734"/>
      <use xlink:href="#DejaVuSans-65" x="607.556641"/>
      <use xlink:href="#DejaVuSans-6e" x="669.080078"/>
      <use xlink:href="#DejaVuSans-74" x="732.458984"/>
     </g>
    </g>
   </g>
  </g>
 </g>
 <defs>
  <clipPath id="p3a3bb17755">
   <rect x="54.2" y="10.8" width="395.8" height="285.915"/>
  </clipPath>
 </defs>
</svg>
