<?xml version="1.0" encoding="utf-8" standalone="no"?>
<!DOCTYPE svg PUBLIC "-//W3C//DTD SVG 1.1//EN"
  "http://www.w3.org/Graphics/SVG/1.1/DTD/svg11.dtd">
<svg xmlns:xlink="http://www.w3.org/1999/xlink" width="576pt" height="360pt" viewBox="0 0 576 360" xmlns="http://www.w3.org/2000/svg" version="1.1">
 <metadata>
  <rdf:RDF xmlns:dc="http://purl.org/dc/elements/1.1/" xmlns:cc="http://creativecommons.org/ns#" xmlns:rdf="http://www.w3.org/1999/02/22-rdf-syntax-ns#">
   <cc:Work>
    <dc:type rdf:resource="http://purl.org/dc/dcmitype/StillImage"/>
    <dc:date>2025-07-08T14:09:52.183091</dc:date>
    <dc:format>image/svg+xml</dc:format>
    <dc:creator>
     <cc:Agent>
      <dc:title>Matplotlib v3.9.4, https://matplotlib.org/</dc:title>
     </cc:Agent>
    </dc:creator>
   </cc:Work>
  </rdf:RDF>
 </metadata>
 <defs>
  <style type="text/css">*{stroke-linejoin: round; stroke-linecap: butt}</style>
 </defs>
 <g id="figure_1">
  <g id="patch_1">
   <path d="M 0 360 
L 576 360 
L 576 0 
L 0 0 
z
" style="fill: #ffffff"/>
  </g>
  <g id="axes_1">
   <g id="patch_2">
    <path d="M 56.441 311.115 
L 565.2 311.115 
L 565.2 11.08026 
L 56.441 11.08026 
z
" style="fill: #ffffff"/>
   </g>
   <g id="PolyCollection_1">
    <defs>
     <path id="m446badb337" d="M 79.566409 -68.329129 
L 79.566409 -63.580438 
L 84.334535 -62.522943 
L 89.10266 -63.030669 
L 93.870786 -64.862625 
L 98.638911 -67.021362 
L 103.407037 -67.537987 
L 108.175163 -68.12067 
L 112.943288 -67.944952 
L 117.711414 -67.070113 
L 122.479539 -67.484569 
L 127.247665 -67.901318 
L 132.015791 -69.455179 
L 136.783916 -68.477504 
L 141.552042 -67.962521 
L 146.320167 -68.734484 
L 151.088293 -69.241149 
L 155.856418 -68.931414 
L 160.624544 -68.725725 
L 165.39267 -69.927071 
L 170.160795 -68.517769 
L 174.928921 -69.670933 
L 179.697046 -68.780741 
L 184.465172 -68.814252 
L 189.233298 -69.357137 
L 194.001423 -68.895403 
L 198.769549 -68.395176 
L 203.537674 -69.239433 
L 208.3058 -69.4712 
L 213.073925 -69.170714 
L 217.842051 -69.605779 
L 222.610177 -68.978137 
L 227.378302 -68.864412 
L 232.146428 -68.972626 
L 236.914553 -68.525324 
L 241.682679 -69.60043 
L 246.450805 -69.485864 
L 251.21893 -68.806792 
L 255.987056 -68.855 
L 260.755181 -69.598536 
L 265.523307 -69.566352 
L 270.291433 -69.216004 
L 275.059558 -69.250363 
L 279.827684 -69.369655 
L 284.595809 -70.04669 
L 289.363935 -69.485851 
L 294.13206 -69.578046 
L 298.900186 -69.879321 
L 303.668312 -69.575247 
L 308.436437 -69.890952 
L 313.204563 -69.350128 
L 317.972688 -69.969563 
L 322.740814 -69.746089 
L 327.50894 -69.803392 
L 332.277065 -69.23224 
L 337.045191 -69.233038 
L 341.813316 -70.292376 
L 346.581442 -69.73009 
L 351.349567 -69.492362 
L 356.117693 -69.963852 
L 360.885819 -69.243911 
L 365.653944 -69.443549 
L 370.42207 -69.738533 
L 375.190195 -69.399258 
L 379.958321 -69.79519 
L 384.726447 -69.952956 
L 389.494572 -69.779323 
L 394.262698 -69.502928 
L 399.030823 -70.030015 
L 403.798949 -69.729808 
L 408.567075 -70.317362 
L 413.3352 -68.956499 
L 418.103326 -69.726959 
L 422.871451 -69.730724 
L 427.639577 -69.978101 
L 432.407702 -70.151617 
L 437.175828 -69.877866 
L 441.943954 -69.62023 
L 446.712079 -69.969604 
L 451.480205 -69.624668 
L 456.24833 -69.791873 
L 461.016456 -69.854554 
L 465.784582 -69.961756 
L 470.552707 -69.715877 
L 475.320833 -69.962804 
L 480.088958 -69.671434 
L 484.857084 -70.230164 
L 489.625209 -70.204905 
L 494.393335 -69.939798 
L 499.161461 -69.461892 
L 503.929586 -70.303745 
L 508.697712 -69.820182 
L 513.465837 -70.245965 
L 518.233963 -69.912074 
L 523.002089 -70.105813 
L 527.770214 -69.942629 
L 532.53834 -70.050247 
L 537.306465 -70.122633 
L 542.074591 -69.884288 
L 542.074591 -71.548996 
L 542.074591 -71.548996 
L 537.306465 -71.459366 
L 532.53834 -70.953126 
L 527.770214 -71.895688 
L 523.002089 -71.902829 
L 518.233963 -71.79565 
L 513.465837 -70.945136 
L 508.697712 -71.242858 
L 503.929586 -71.447094 
L 499.161461 -71.366074 
L 494.393335 -71.540471 
L 489.625209 -70.950018 
L 484.857084 -71.41586 
L 480.088958 -71.992028 
L 475.320833 -71.687529 
L 470.552707 -71.582644 
L 465.784582 -71.649274 
L 461.016456 -71.92305 
L 456.24833 -71.1699 
L 451.480205 -70.811177 
L 446.712079 -71.170752 
L 441.943954 -71.527598 
L 437.175828 -71.432685 
L 432.407702 -72.191065 
L 427.639577 -71.712464 
L 422.871451 -71.289644 
L 418.103326 -71.462479 
L 413.3352 -71.201041 
L 408.567075 -71.670725 
L 403.798949 -71.817088 
L 399.030823 -71.755512 
L 394.262698 -71.631387 
L 389.494572 -72.012157 
L 384.726447 -72.034615 
L 379.958321 -71.781337 
L 375.190195 -71.754925 
L 370.42207 -71.347083 
L 365.653944 -71.467361 
L 360.885819 -70.884024 
L 356.117693 -71.944211 
L 351.349567 -71.916877 
L 346.581442 -71.633995 
L 341.813316 -71.878574 
L 337.045191 -71.637581 
L 332.277065 -71.595505 
L 327.50894 -71.454625 
L 322.740814 -72.89925 
L 317.972688 -71.86771 
L 313.204563 -71.83895 
L 308.436437 -72.194489 
L 303.668312 -71.141668 
L 298.900186 -72.627771 
L 294.13206 -72.772844 
L 289.363935 -71.786908 
L 284.595809 -72.91735 
L 279.827684 -72.71454 
L 275.059558 -71.146513 
L 270.291433 -72.58778 
L 265.523307 -71.853033 
L 260.755181 -71.931423 
L 255.987056 -71.377466 
L 251.21893 -71.265356 
L 246.450805 -71.820917 
L 241.682679 -71.949489 
L 236.914553 -71.986323 
L 232.146428 -71.196942 
L 227.378302 -70.841761 
L 222.610177 -71.66336 
L 217.842051 -72.045435 
L 213.073925 -72.19494 
L 208.3058 -72.325196 
L 203.537674 -71.605298 
L 198.769549 -71.876924 
L 194.001423 -72.048673 
L 189.233298 -72.133348 
L 184.465172 -71.473934 
L 179.697046 -72.252176 
L 174.928921 -72.136142 
L 170.160795 -71.66346 
L 165.39267 -71.578264 
L 160.624544 -71.001143 
L 155.856418 -72.497251 
L 151.088293 -71.711404 
L 146.320167 -73.278759 
L 141.552042 -71.304921 
L 136.783916 -71.493974 
L 132.015791 -72.375223 
L 127.247665 -71.152499 
L 122.479539 -70.334971 
L 117.711414 -73.129401 
L 112.943288 -72.619954 
L 108.175163 -71.835949 
L 103.407037 -71.737773 
L 98.638911 -70.983547 
L 93.870786 -72.64635 
L 89.10266 -72.746862 
L 84.334535 -69.005032 
L 79.566409 -68.329129 
z
" style="stroke: #0000ff; stroke-opacity: 0.2"/>
    </defs>
    <g clip-path="url(#p94a7d72e6e)">
     <use xlink:href="#m446badb337" x="0" y="360" style="fill: #0000ff; fill-opacity: 0.2; stroke: #0000ff; stroke-opacity: 0.2"/>
    </g>
   </g>
   <g id="PolyCollection_2">
    <defs>
     <path id="mafe02b5968" d="M 79.566409 -77.959269 
L 79.566409 -74.906747 
L 84.334535 -95.074099 
L 89.10266 -103.271448 
L 93.870786 -107.378953 
L 98.638911 -139.411194 
L 103.407037 -137.075422 
L 108.175163 -138.067708 
L 112.943288 -140.196075 
L 117.711414 -140.532184 
L 122.479539 -188.954631 
L 127.247665 -191.103279 
L 132.015791 -187.97142 
L 136.783916 -189.998979 
L 141.552042 -192.965793 
L 146.320167 -189.42239 
L 151.088293 -190.227646 
L 155.856418 -190.702217 
L 160.624544 -196.412617 
L 165.39267 -190.78818 
L 170.160795 -329.352776 
L 174.928921 -329.763351 
L 179.697046 -330.909 
L 184.465172 -329.585858 
L 189.233298 -329.340106 
L 194.001423 -329.614113 
L 198.769549 -329.177366 
L 203.537674 -331.309375 
L 208.3058 -330.693078 
L 213.073925 -330.368214 
L 217.842051 -330.474945 
L 222.610177 -330.647096 
L 227.378302 -331.756063 
L 232.146428 -330.651358 
L 236.914553 -330.201275 
L 241.682679 -330.348011 
L 246.450805 -330.559395 
L 251.21893 -330.493949 
L 255.987056 -330.595808 
L 260.755181 -329.37604 
L 265.523307 -331.853414 
L 270.291433 -330.420717 
L 275.059558 -330.014919 
L 279.827684 -331.460431 
L 284.595809 -330.373197 
L 289.363935 -331.353871 
L 294.13206 -330.255618 
L 298.900186 -331.203055 
L 303.668312 -330.776036 
L 308.436437 -330.718675 
L 313.204563 -331.363598 
L 317.972688 -330.282779 
L 322.740814 -331.390975 
L 327.50894 -330.590399 
L 332.277065 -330.063171 
L 337.045191 -331.333948 
L 341.813316 -329.616199 
L 346.581442 -329.728988 
L 351.349567 -331.176392 
L 356.117693 -329.545763 
L 360.885819 -331.137721 
L 365.653944 -331.386137 
L 370.42207 -330.709965 
L 375.190195 -332.093944 
L 379.958321 -330.334765 
L 384.726447 -330.807512 
L 389.494572 -331.635624 
L 394.262698 -331.170121 
L 399.030823 -330.245457 
L 403.798949 -331.559894 
L 408.567075 -330.469439 
L 413.3352 -331.249299 
L 418.103326 -331.640039 
L 422.871451 -331.09615 
L 427.639577 -330.971212 
L 432.407702 -330.627146 
L 437.175828 -330.82733 
L 441.943954 -331.510863 
L 446.712079 -330.803936 
L 451.480205 -332.044392 
L 456.24833 -331.031718 
L 461.016456 -331.167045 
L 465.784582 -330.934382 
L 470.552707 -330.633913 
L 475.320833 -331.234089 
L 480.088958 -331.356293 
L 484.857084 -330.764 
L 489.625209 -331.894482 
L 494.393335 -331.310989 
L 499.161461 -331.120567 
L 503.929586 -331.17873 
L 508.697712 -331.374274 
L 513.465837 -330.763256 
L 518.233963 -331.154902 
L 523.002089 -331.257677 
L 527.770214 -330.90515 
L 532.53834 -331.566984 
L 537.306465 -330.353254 
L 542.074591 -331.459712 
L 542.074591 -332.744531 
L 542.074591 -332.744531 
L 537.306465 -332.87218 
L 532.53834 -333.160619 
L 527.770214 -333.353854 
L 523.002089 -332.637938 
L 518.233963 -333.110885 
L 513.465837 -332.978872 
L 508.697712 -333.086177 
L 503.929586 -333.207122 
L 499.161461 -333.008544 
L 494.393335 -332.797858 
L 489.625209 -333.179239 
L 484.857084 -332.925119 
L 480.088958 -332.588897 
L 475.320833 -332.879639 
L 470.552707 -332.916735 
L 465.784582 -333.387389 
L 461.016456 -333.044077 
L 456.24833 -332.739313 
L 451.480205 -333.420694 
L 446.712079 -332.840037 
L 441.943954 -333.183767 
L 437.175828 -332.629782 
L 432.407702 -333.236673 
L 427.639577 -333.162648 
L 422.871451 -333.235116 
L 418.103326 -332.854339 
L 413.3352 -332.723977 
L 408.567075 -332.881984 
L 403.798949 -334.153282 
L 399.030823 -333.328961 
L 394.262698 -333.439685 
L 389.494572 -333.660047 
L 384.726447 -333.097567 
L 379.958321 -333.615989 
L 375.190195 -333.385211 
L 370.42207 -333.368391 
L 365.653944 -333.204194 
L 360.885819 -333.050452 
L 356.117693 -332.741091 
L 351.349567 -333.500867 
L 346.581442 -332.633625 
L 341.813316 -333.222124 
L 337.045191 -332.970569 
L 332.277065 -332.962643 
L 327.50894 -333.941924 
L 322.740814 -333.279499 
L 317.972688 -332.641655 
L 313.204563 -333.929109 
L 308.436437 -332.863999 
L 303.668312 -333.941617 
L 298.900186 -332.965461 
L 294.13206 -332.848149 
L 289.363935 -334.094908 
L 284.595809 -333.361062 
L 279.827684 -334.056972 
L 275.059558 -332.808227 
L 270.291433 -332.977431 
L 265.523307 -334.403583 
L 260.755181 -333.124015 
L 255.987056 -334.264204 
L 251.21893 -333.711482 
L 246.450805 -333.548627 
L 241.682679 -332.806001 
L 236.914553 -333.792124 
L 232.146428 -333.737221 
L 227.378302 -334.29816 
L 222.610177 -335.281798 
L 217.842051 -333.626786 
L 213.073925 -333.909712 
L 208.3058 -333.438007 
L 203.537674 -333.966414 
L 198.769549 -333.497367 
L 194.001423 -333.919231 
L 189.233298 -333.198599 
L 184.465172 -333.726965 
L 179.697046 -333.606578 
L 174.928921 -333.652955 
L 170.160795 -333.230188 
L 165.39267 -199.480852 
L 160.624544 -201.901304 
L 155.856418 -197.234347 
L 151.088293 -198.268241 
L 146.320167 -201.246857 
L 141.552042 -203.076313 
L 136.783916 -200.773222 
L 132.015791 -200.529707 
L 127.247665 -203.675937 
L 122.479539 -198.978918 
L 117.711414 -148.486421 
L 112.943288 -149.636988 
L 108.175163 -147.029488 
L 103.407037 -148.505247 
L 98.638911 -149.979489 
L 93.870786 -112.332722 
L 89.10266 -111.588595 
L 84.334535 -97.442478 
L 79.566409 -77.959269 
z
" style="stroke: #ff0000; stroke-opacity: 0.2"/>
    </defs>
    <g clip-path="url(#p94a7d72e6e)">
     <use xlink:href="#mafe02b5968" x="0" y="360" style="fill: #ff0000; fill-opacity: 0.2; stroke: #ff0000; stroke-opacity: 0.2"/>
    </g>
   </g>
   <g id="matplotlib.axis_1">
    <g id="xtick_1">
     <g id="line2d_1">
      <path d="M 70.030158 311.115 
L 70.030158 11.08026 
" clip-path="url(#p94a7d72e6e)" style="fill: none; stroke: #b0b0b0; stroke-width: 0.8; stroke-linecap: square"/>
     </g>
     <g id="line2d_2">
      <defs>
       <path id="m4e901b94f5" d="M 0 0 
L 0 3.5 
" style="stroke: #000000; stroke-width: 0.8"/>
      </defs>
      <g>
       <use xlink:href="#m4e901b94f5" x="70.030158" y="311.115" style="stroke: #000000; stroke-width: 0.8"/>
      </g>
     </g>
     <g id="text_1">
      <!-- 0 -->
      <g transform="translate(66.848908 325.713437) scale(0.1 -0.1)">
       <defs>
        <path id="DejaVuSans-30" d="M 2034 4250 
Q 1547 4250 1301 3770 
Q 1056 3291 1056 2328 
Q 1056 1369 1301 889 
Q 1547 409 2034 409 
Q 2525 409 2770 889 
Q 3016 1369 3016 2328 
Q 3016 3291 2770 3770 
Q 2525 4250 2034 4250 
z
M 2034 4750 
Q 2819 4750 3233 4129 
Q 3647 3509 3647 2328 
Q 3647 1150 3233 529 
Q 2819 -91 2034 -91 
Q 1250 -91 836 529 
Q 422 1150 422 2328 
Q 422 3509 836 4129 
Q 1250 4750 2034 4750 
z
" transform="scale(0.015625)"/>
       </defs>
       <use xlink:href="#DejaVuSans-30"/>
      </g>
     </g>
    </g>
    <g id="xtick_2">
     <g id="line2d_3">
      <path d="M 165.39267 311.115 
L 165.39267 11.08026 
" clip-path="url(#p94a7d72e6e)" style="fill: none; stroke: #b0b0b0; stroke-width: 0.8; stroke-linecap: square"/>
     </g>
     <g id="line2d_4">
      <g>
       <use xlink:href="#m4e901b94f5" x="165.39267" y="311.115" style="stroke: #000000; stroke-width: 0.8"/>
      </g>
     </g>
     <g id="text_2">
      <!-- 20 -->
      <g transform="translate(159.03017 325.713437) scale(0.1 -0.1)">
       <defs>
        <path id="DejaVuSans-32" d="M 1228 531 
L 3431 531 
L 3431 0 
L 469 0 
L 469 531 
Q 828 903 1448 1529 
Q 2069 2156 2228 2338 
Q 2531 2678 2651 2914 
Q 2772 3150 2772 3378 
Q 2772 3750 2511 3984 
Q 2250 4219 1831 4219 
Q 1534 4219 1204 4116 
Q 875 4013 500 3803 
L 500 4441 
Q 881 4594 1212 4672 
Q 1544 4750 1819 4750 
Q 2544 4750 2975 4387 
Q 3406 4025 3406 3419 
Q 3406 3131 3298 2873 
Q 3191 2616 2906 2266 
Q 2828 2175 2409 1742 
Q 1991 1309 1228 531 
z
" transform="scale(0.015625)"/>
       </defs>
       <use xlink:href="#DejaVuSans-32"/>
       <use xlink:href="#DejaVuSans-30" x="63.623047"/>
      </g>
     </g>
    </g>
    <g id="xtick_3">
     <g id="line2d_5">
      <path d="M 260.755181 311.115 
L 260.755181 11.08026 
" clip-path="url(#p94a7d72e6e)" style="fill: none; stroke: #b0b0b0; stroke-width: 0.8; stroke-linecap: square"/>
     </g>
     <g id="line2d_6">
      <g>
       <use xlink:href="#m4e901b94f5" x="260.755181" y="311.115" style="stroke: #000000; stroke-width: 0.8"/>
      </g>
     </g>
     <g id="text_3">
      <!-- 40 -->
      <g transform="translate(254.392681 325.713437) scale(0.1 -0.1)">
       <defs>
        <path id="DejaVuSans-34" d="M 2419 4116 
L 825 1625 
L 2419 1625 
L 2419 4116 
z
M 2253 4666 
L 3047 4666 
L 3047 1625 
L 3713 1625 
L 3713 1100 
L 3047 1100 
L 3047 0 
L 2419 0 
L 2419 1100 
L 313 1100 
L 313 1709 
L 2253 4666 
z
" transform="scale(0.015625)"/>
       </defs>
       <use xlink:href="#DejaVuSans-34"/>
       <use xlink:href="#DejaVuSans-30" x="63.623047"/>
      </g>
     </g>
    </g>
    <g id="xtick_4">
     <g id="line2d_7">
      <path d="M 356.117693 311.115 
L 356.117693 11.08026 
" clip-path="url(#p94a7d72e6e)" style="fill: none; stroke: #b0b0b0; stroke-width: 0.8; stroke-linecap: square"/>
     </g>
     <g id="line2d_8">
      <g>
       <use xlink:href="#m4e901b94f5" x="356.117693" y="311.115" style="stroke: #000000; stroke-width: 0.8"/>
      </g>
     </g>
     <g id="text_4">
      <!-- 60 -->
      <g transform="translate(349.755193 325.713437) scale(0.1 -0.1)">
       <defs>
        <path id="DejaVuSans-36" d="M 2113 2584 
Q 1688 2584 1439 2293 
Q 1191 2003 1191 1497 
Q 1191 994 1439 701 
Q 1688 409 2113 409 
Q 2538 409 2786 701 
Q 3034 994 3034 1497 
Q 3034 2003 2786 2293 
Q 2538 2584 2113 2584 
z
M 3366 4563 
L 3366 3988 
Q 3128 4100 2886 4159 
Q 2644 4219 2406 4219 
Q 1781 4219 1451 3797 
Q 1122 3375 1075 2522 
Q 1259 2794 1537 2939 
Q 1816 3084 2150 3084 
Q 2853 3084 3261 2657 
Q 3669 2231 3669 1497 
Q 3669 778 3244 343 
Q 2819 -91 2113 -91 
Q 1303 -91 875 529 
Q 447 1150 447 2328 
Q 447 3434 972 4092 
Q 1497 4750 2381 4750 
Q 2619 4750 2861 4703 
Q 3103 4656 3366 4563 
z
" transform="scale(0.015625)"/>
       </defs>
       <use xlink:href="#DejaVuSans-36"/>
       <use xlink:href="#DejaVuSans-30" x="63.623047"/>
      </g>
     </g>
    </g>
    <g id="xtick_5">
     <g id="line2d_9">
      <path d="M 451.480205 311.115 
L 451.480205 11.08026 
" clip-path="url(#p94a7d72e6e)" style="fill: none; stroke: #b0b0b0; stroke-width: 0.8; stroke-linecap: square"/>
     </g>
     <g id="line2d_10">
      <g>
       <use xlink:href="#m4e901b94f5" x="451.480205" y="311.115" style="stroke: #000000; stroke-width: 0.8"/>
      </g>
     </g>
     <g id="text_5">
      <!-- 80 -->
      <g transform="translate(445.117705 325.713437) scale(0.1 -0.1)">
       <defs>
        <path id="DejaVuSans-38" d="M 2034 2216 
Q 1584 2216 1326 1975 
Q 1069 1734 1069 1313 
Q 1069 891 1326 650 
Q 1584 409 2034 409 
Q 2484 409 2743 651 
Q 3003 894 3003 1313 
Q 3003 1734 2745 1975 
Q 2488 2216 2034 2216 
z
M 1403 2484 
Q 997 2584 770 2862 
Q 544 3141 544 3541 
Q 544 4100 942 4425 
Q 1341 4750 2034 4750 
Q 2731 4750 3128 4425 
Q 3525 4100 3525 3541 
Q 3525 3141 3298 2862 
Q 3072 2584 2669 2484 
Q 3125 2378 3379 2068 
Q 3634 1759 3634 1313 
Q 3634 634 3220 271 
Q 2806 -91 2034 -91 
Q 1263 -91 848 271 
Q 434 634 434 1313 
Q 434 1759 690 2068 
Q 947 2378 1403 2484 
z
M 1172 3481 
Q 1172 3119 1398 2916 
Q 1625 2713 2034 2713 
Q 2441 2713 2670 2916 
Q 2900 3119 2900 3481 
Q 2900 3844 2670 4047 
Q 2441 4250 2034 4250 
Q 1625 4250 1398 4047 
Q 1172 3844 1172 3481 
z
" transform="scale(0.015625)"/>
       </defs>
       <use xlink:href="#DejaVuSans-38"/>
       <use xlink:href="#DejaVuSans-30" x="63.623047"/>
      </g>
     </g>
    </g>
    <g id="xtick_6">
     <g id="line2d_11">
      <path d="M 546.842716 311.115 
L 546.842716 11.08026 
" clip-path="url(#p94a7d72e6e)" style="fill: none; stroke: #b0b0b0; stroke-width: 0.8; stroke-linecap: square"/>
     </g>
     <g id="line2d_12">
      <g>
       <use xlink:href="#m4e901b94f5" x="546.842716" y="311.115" style="stroke: #000000; stroke-width: 0.8"/>
      </g>
     </g>
     <g id="text_6">
      <!-- 100 -->
      <g transform="translate(537.298966 325.713437) scale(0.1 -0.1)">
       <defs>
        <path id="DejaVuSans-31" d="M 794 531 
L 1825 531 
L 1825 4091 
L 703 3866 
L 703 4441 
L 1819 4666 
L 2450 4666 
L 2450 531 
L 3481 531 
L 3481 0 
L 794 0 
L 794 531 
z
" transform="scale(0.015625)"/>
       </defs>
       <use xlink:href="#DejaVuSans-31"/>
       <use xlink:href="#DejaVuSans-30" x="63.623047"/>
       <use xlink:href="#DejaVuSans-30" x="127.246094"/>
      </g>
     </g>
    </g>
    <g id="text_7">
     <!-- Size GMM $\overline{M}$ -->
     <g transform="translate(268.4005 342.881563) scale(0.14 -0.14)">
      <defs>
       <path id="DejaVuSans-53" d="M 3425 4513 
L 3425 3897 
Q 3066 4069 2747 4153 
Q 2428 4238 2131 4238 
Q 1616 4238 1336 4038 
Q 1056 3838 1056 3469 
Q 1056 3159 1242 3001 
Q 1428 2844 1947 2747 
L 2328 2669 
Q 3034 2534 3370 2195 
Q 3706 1856 3706 1288 
Q 3706 609 3251 259 
Q 2797 -91 1919 -91 
Q 1588 -91 1214 -16 
Q 841 59 441 206 
L 441 856 
Q 825 641 1194 531 
Q 1563 422 1919 422 
Q 2459 422 2753 634 
Q 3047 847 3047 1241 
Q 3047 1584 2836 1778 
Q 2625 1972 2144 2069 
L 1759 2144 
Q 1053 2284 737 2584 
Q 422 2884 422 3419 
Q 422 4038 858 4394 
Q 1294 4750 2059 4750 
Q 2388 4750 2728 4690 
Q 3069 4631 3425 4513 
z
" transform="scale(0.015625)"/>
       <path id="DejaVuSans-69" d="M 603 3500 
L 1178 3500 
L 1178 0 
L 603 0 
L 603 3500 
z
M 603 4863 
L 1178 4863 
L 1178 4134 
L 603 4134 
L 603 4863 
z
" transform="scale(0.015625)"/>
       <path id="DejaVuSans-7a" d="M 353 3500 
L 3084 3500 
L 3084 2975 
L 922 459 
L 3084 459 
L 3084 0 
L 275 0 
L 275 525 
L 2438 3041 
L 353 3041 
L 353 3500 
z
" transform="scale(0.015625)"/>
       <path id="DejaVuSans-65" d="M 3597 1894 
L 3597 1613 
L 953 1613 
Q 991 1019 1311 708 
Q 1631 397 2203 397 
Q 2534 397 2845 478 
Q 3156 559 3463 722 
L 3463 178 
Q 3153 47 2828 -22 
Q 2503 -91 2169 -91 
Q 1331 -91 842 396 
Q 353 884 353 1716 
Q 353 2575 817 3079 
Q 1281 3584 2069 3584 
Q 2775 3584 3186 3129 
Q 3597 2675 3597 1894 
z
M 3022 2063 
Q 3016 2534 2758 2815 
Q 2500 3097 2075 3097 
Q 1594 3097 1305 2825 
Q 1016 2553 972 2059 
L 3022 2063 
z
" transform="scale(0.015625)"/>
       <path id="DejaVuSans-20" transform="scale(0.015625)"/>
       <path id="DejaVuSans-47" d="M 3809 666 
L 3809 1919 
L 2778 1919 
L 2778 2438 
L 4434 2438 
L 4434 434 
Q 4069 175 3628 42 
Q 3188 -91 2688 -91 
Q 1594 -91 976 548 
Q 359 1188 359 2328 
Q 359 3472 976 4111 
Q 1594 4750 2688 4750 
Q 3144 4750 3555 4637 
Q 3966 4525 4313 4306 
L 4313 3634 
Q 3963 3931 3569 4081 
Q 3175 4231 2741 4231 
Q 1884 4231 1454 3753 
Q 1025 3275 1025 2328 
Q 1025 1384 1454 906 
Q 1884 428 2741 428 
Q 3075 428 3337 486 
Q 3600 544 3809 666 
z
" transform="scale(0.015625)"/>
       <path id="DejaVuSans-4d" d="M 628 4666 
L 1569 4666 
L 2759 1491 
L 3956 4666 
L 4897 4666 
L 4897 0 
L 4281 0 
L 4281 4097 
L 3078 897 
L 2444 897 
L 1241 4097 
L 1241 0 
L 628 0 
L 628 4666 
z
" transform="scale(0.015625)"/>
       <path id="DejaVuSans-Oblique-4d" d="M 1081 4666 
L 2028 4666 
L 2572 1522 
L 4378 4666 
L 5350 4666 
L 4441 0 
L 3828 0 
L 4622 4091 
L 2791 897 
L 2175 897 
L 1581 4103 
L 788 0 
L 172 0 
L 1081 4666 
z
" transform="scale(0.015625)"/>
      </defs>
      <use xlink:href="#DejaVuSans-53" transform="translate(0 0.34375)"/>
      <use xlink:href="#DejaVuSans-69" transform="translate(63.476562 0.34375)"/>
      <use xlink:href="#DejaVuSans-7a" transform="translate(91.259766 0.34375)"/>
      <use xlink:href="#DejaVuSans-65" transform="translate(143.75 0.34375)"/>
      <use xlink:href="#DejaVuSans-20" transform="translate(205.273438 0.34375)"/>
      <use xlink:href="#DejaVuSans-47" transform="translate(237.060547 0.34375)"/>
      <use xlink:href="#DejaVuSans-4d" transform="translate(314.550781 0.34375)"/>
      <use xlink:href="#DejaVuSans-4d" transform="translate(400.830078 0.34375)"/>
      <use xlink:href="#DejaVuSans-20" transform="translate(487.109375 0.34375)"/>
      <use xlink:href="#DejaVuSans-Oblique-4d" transform="translate(518.896484 0.84375)"/>
      <path d="M 518.896484 85.5 
L 518.896484 91.75 
L 605.175781 91.75 
L 605.175781 85.5 
L 518.896484 85.5 
z
"/>
     </g>
    </g>
   </g>
   <g id="matplotlib.axis_2">
    <g id="ytick_1">
     <g id="line2d_13">
      <path d="M 56.441 279.901388 
L 565.2 279.901388 
" clip-path="url(#p94a7d72e6e)" style="fill: none; stroke: #b0b0b0; stroke-width: 0.8; stroke-linecap: square"/>
     </g>
     <g id="line2d_14">
      <defs>
       <path id="m80a896be95" d="M 0 0 
L -3.5 0 
" style="stroke: #000000; stroke-width: 0.8"/>
      </defs>
      <g>
       <use xlink:href="#m80a896be95" x="56.441" y="279.901388" style="stroke: #000000; stroke-width: 0.8"/>
      </g>
     </g>
     <g id="text_8">
      <!-- 0.2 -->
      <g transform="translate(33.537875 283.700607) scale(0.1 -0.1)">
       <defs>
        <path id="DejaVuSans-2e" d="M 684 794 
L 1344 794 
L 1344 0 
L 684 0 
L 684 794 
z
" transform="scale(0.015625)"/>
       </defs>
       <use xlink:href="#DejaVuSans-30"/>
       <use xlink:href="#DejaVuSans-2e" x="63.623047"/>
       <use xlink:href="#DejaVuSans-32" x="95.410156"/>
      </g>
     </g>
    </g>
    <g id="ytick_2">
     <g id="line2d_15">
      <path d="M 56.441 213.691822 
L 565.2 213.691822 
" clip-path="url(#p94a7d72e6e)" style="fill: none; stroke: #b0b0b0; stroke-width: 0.8; stroke-linecap: square"/>
     </g>
     <g id="line2d_16">
      <g>
       <use xlink:href="#m80a896be95" x="56.441" y="213.691822" style="stroke: #000000; stroke-width: 0.8"/>
      </g>
     </g>
     <g id="text_9">
      <!-- 0.4 -->
      <g transform="translate(33.537875 217.491041) scale(0.1 -0.1)">
       <use xlink:href="#DejaVuSans-30"/>
       <use xlink:href="#DejaVuSans-2e" x="63.623047"/>
       <use xlink:href="#DejaVuSans-34" x="95.410156"/>
      </g>
     </g>
    </g>
    <g id="ytick_3">
     <g id="line2d_17">
      <path d="M 56.441 147.482256 
L 565.2 147.482256 
" clip-path="url(#p94a7d72e6e)" style="fill: none; stroke: #b0b0b0; stroke-width: 0.8; stroke-linecap: square"/>
     </g>
     <g id="line2d_18">
      <g>
       <use xlink:href="#m80a896be95" x="56.441" y="147.482256" style="stroke: #000000; stroke-width: 0.8"/>
      </g>
     </g>
     <g id="text_10">
      <!-- 0.6 -->
      <g transform="translate(33.537875 151.281475) scale(0.1 -0.1)">
       <use xlink:href="#DejaVuSans-30"/>
       <use xlink:href="#DejaVuSans-2e" x="63.623047"/>
       <use xlink:href="#DejaVuSans-36" x="95.410156"/>
      </g>
     </g>
    </g>
    <g id="ytick_4">
     <g id="line2d_19">
      <path d="M 56.441 81.27269 
L 565.2 81.27269 
" clip-path="url(#p94a7d72e6e)" style="fill: none; stroke: #b0b0b0; stroke-width: 0.8; stroke-linecap: square"/>
     </g>
     <g id="line2d_20">
      <g>
       <use xlink:href="#m80a896be95" x="56.441" y="81.27269" style="stroke: #000000; stroke-width: 0.8"/>
      </g>
     </g>
     <g id="text_11">
      <!-- 0.8 -->
      <g transform="translate(33.537875 85.071909) scale(0.1 -0.1)">
       <use xlink:href="#DejaVuSans-30"/>
       <use xlink:href="#DejaVuSans-2e" x="63.623047"/>
       <use xlink:href="#DejaVuSans-38" x="95.410156"/>
      </g>
     </g>
    </g>
    <g id="ytick_5">
     <g id="line2d_21">
      <path d="M 56.441 15.063124 
L 565.2 15.063124 
" clip-path="url(#p94a7d72e6e)" style="fill: none; stroke: #b0b0b0; stroke-width: 0.8; stroke-linecap: square"/>
     </g>
     <g id="line2d_22">
      <g>
       <use xlink:href="#m80a896be95" x="56.441" y="15.063124" style="stroke: #000000; stroke-width: 0.8"/>
      </g>
     </g>
     <g id="text_12">
      <!-- 1.0 -->
      <g transform="translate(33.537875 18.862343) scale(0.1 -0.1)">
       <use xlink:href="#DejaVuSans-31"/>
       <use xlink:href="#DejaVuSans-2e" x="63.623047"/>
       <use xlink:href="#DejaVuSans-30" x="95.410156"/>
      </g>
     </g>
    </g>
    <g id="text_13">
     <!-- $\overline{W}_2$ -->
     <g transform="translate(26.626312 171.45763) rotate(-90) scale(0.14 -0.14)">
      <defs>
       <path id="DejaVuSans-Oblique-57" d="M 616 4666 
L 1228 4666 
L 1453 697 
L 3213 4666 
L 3916 4666 
L 4147 697 
L 5888 4666 
L 6528 4666 
L 4453 0 
L 3659 0 
L 3444 3891 
L 1697 0 
L 903 0 
L 616 4666 
z
" transform="scale(0.015625)"/>
      </defs>
      <use xlink:href="#DejaVuSans-Oblique-57" transform="translate(0 0.84375)"/>
      <use xlink:href="#DejaVuSans-32" transform="translate(99.833984 -16.0625) scale(0.7)"/>
      <path d="M 0 85.5 
L 0 91.75 
L 98.876953 91.75 
L 98.876953 85.5 
L 0 85.5 
z
"/>
     </g>
    </g>
   </g>
   <g id="line2d_23">
    <path d="M 79.566409 294.045216 
L 84.334535 294.236013 
L 89.10266 292.111235 
L 93.870786 291.245513 
L 98.638911 290.997546 
L 103.407037 290.36212 
L 108.175163 290.02169 
L 112.943288 289.717547 
L 117.711414 289.900243 
L 122.479539 291.09023 
L 127.247665 290.473092 
L 132.015791 289.084799 
L 136.783916 290.014261 
L 141.552042 290.366279 
L 146.320167 288.993378 
L 151.088293 289.523724 
L 155.856418 289.285667 
L 160.624544 290.136566 
L 165.39267 289.247333 
L 170.160795 289.909386 
L 174.928921 289.096462 
L 179.697046 289.483542 
L 184.465172 289.855907 
L 189.233298 289.254758 
L 194.001423 289.527962 
L 198.769549 289.86395 
L 203.537674 289.577634 
L 208.3058 289.101802 
L 213.073925 289.317173 
L 217.842051 289.174393 
L 222.610177 289.679252 
L 227.378302 290.146913 
L 232.146428 289.915216 
L 236.914553 289.744177 
L 241.682679 289.22504 
L 246.450805 289.34661 
L 251.21893 289.963926 
L 255.987056 289.883767 
L 260.755181 289.23502 
L 265.523307 289.290308 
L 270.291433 289.098108 
L 275.059558 289.801562 
L 279.827684 288.957902 
L 284.595809 288.51798 
L 289.363935 289.363621 
L 294.13206 288.824555 
L 298.900186 288.746454 
L 303.668312 289.641543 
L 308.436437 288.957279 
L 313.204563 289.405461 
L 317.972688 289.081363 
L 322.740814 288.67733 
L 327.50894 289.370991 
L 332.277065 289.586127 
L 337.045191 289.564691 
L 341.813316 288.914525 
L 346.581442 289.317957 
L 351.349567 289.29538 
L 356.117693 289.045969 
L 360.885819 289.936032 
L 365.653944 289.544545 
L 370.42207 289.457192 
L 375.190195 289.422908 
L 379.958321 289.211736 
L 384.726447 289.006215 
L 389.494572 289.10426 
L 394.262698 289.432842 
L 399.030823 289.107236 
L 403.798949 289.226552 
L 408.567075 289.005957 
L 413.3352 289.92123 
L 418.103326 289.405281 
L 422.871451 289.489816 
L 427.639577 289.154718 
L 432.407702 288.828659 
L 437.175828 289.344725 
L 441.943954 289.426086 
L 446.712079 289.429822 
L 451.480205 289.782077 
L 456.24833 289.519114 
L 461.016456 289.111198 
L 465.784582 289.194485 
L 470.552707 289.35074 
L 475.320833 289.174833 
L 480.088958 289.168269 
L 484.857084 289.176988 
L 489.625209 289.422538 
L 494.393335 289.259865 
L 499.161461 289.586017 
L 503.929586 289.124581 
L 508.697712 289.46848 
L 513.465837 289.40445 
L 518.233963 289.146138 
L 523.002089 288.995679 
L 527.770214 289.080841 
L 532.53834 289.498314 
L 537.306465 289.209 
L 542.074591 289.283358 
" clip-path="url(#p94a7d72e6e)" style="fill: none; stroke: #0000ff; stroke-width: 2; stroke-linecap: square"/>
   </g>
   <g id="line2d_24">
    <path d="M 79.566409 291.670871 
L 84.334535 290.994968 
L 89.10266 287.253138 
L 93.870786 287.35365 
L 98.638911 289.016453 
L 103.407037 288.262227 
L 108.175163 288.164051 
L 112.943288 287.380046 
L 117.711414 286.870599 
L 122.479539 289.665029 
L 127.247665 288.847501 
L 132.015791 287.624777 
L 136.783916 288.506026 
L 141.552042 288.695079 
L 146.320167 286.721241 
L 151.088293 288.288596 
L 155.856418 287.502749 
L 160.624544 288.998857 
L 165.39267 288.421736 
L 170.160795 288.33654 
L 174.928921 287.863858 
L 179.697046 287.747824 
L 184.465172 288.526066 
L 189.233298 287.866652 
L 194.001423 287.951327 
L 198.769549 288.123076 
L 203.537674 288.394702 
L 208.3058 287.674804 
L 213.073925 287.80506 
L 217.842051 287.954565 
L 222.610177 288.33664 
L 227.378302 289.158239 
L 232.146428 288.803058 
L 236.914553 288.013677 
L 241.682679 288.050511 
L 246.450805 288.179083 
L 251.21893 288.734644 
L 255.987056 288.622534 
L 260.755181 288.068577 
L 265.523307 288.146967 
L 270.291433 287.41222 
L 275.059558 288.853487 
L 279.827684 287.28546 
L 284.595809 287.08265 
L 289.363935 288.213092 
L 294.13206 287.227156 
L 298.900186 287.372229 
L 303.668312 288.858332 
L 308.436437 287.805511 
L 313.204563 288.16105 
L 317.972688 288.13229 
L 322.740814 287.10075 
L 327.50894 288.545375 
L 332.277065 288.404495 
L 337.045191 288.362419 
L 341.813316 288.121426 
L 346.581442 288.366005 
L 351.349567 288.083123 
L 356.117693 288.055789 
L 360.885819 289.115976 
L 365.653944 288.532639 
L 370.42207 288.652917 
L 375.190195 288.245075 
L 379.958321 288.218663 
L 384.726447 287.965385 
L 389.494572 287.987843 
L 394.262698 288.368613 
L 399.030823 288.244488 
L 403.798949 288.182912 
L 408.567075 288.329275 
L 413.3352 288.798959 
L 418.103326 288.537521 
L 422.871451 288.710356 
L 427.639577 288.287536 
L 432.407702 287.808935 
L 437.175828 288.567315 
L 441.943954 288.472402 
L 446.712079 288.829248 
L 451.480205 289.188823 
L 456.24833 288.8301 
L 461.016456 288.07695 
L 465.784582 288.350726 
L 470.552707 288.417356 
L 475.320833 288.312471 
L 480.088958 288.007972 
L 484.857084 288.58414 
L 489.625209 289.049982 
L 494.393335 288.459529 
L 499.161461 288.633926 
L 503.929586 288.552906 
L 508.697712 288.757142 
L 513.465837 289.054864 
L 518.233963 288.20435 
L 523.002089 288.097171 
L 527.770214 288.104312 
L 532.53834 289.046874 
L 537.306465 288.540634 
L 542.074591 288.451004 
" clip-path="url(#p94a7d72e6e)" style="fill: none; stroke-dasharray: 3.7,1.6; stroke-dashoffset: 0; stroke: #0000ff"/>
   </g>
   <g id="line2d_25">
    <path d="M 79.566409 296.419562 
L 84.334535 297.477057 
L 89.10266 296.969331 
L 93.870786 295.137375 
L 98.638911 292.978638 
L 103.407037 292.462013 
L 108.175163 291.87933 
L 112.943288 292.055048 
L 117.711414 292.929887 
L 122.479539 292.515431 
L 127.247665 292.098682 
L 132.015791 290.544821 
L 136.783916 291.522496 
L 141.552042 292.037479 
L 146.320167 291.265516 
L 151.088293 290.758851 
L 155.856418 291.068586 
L 160.624544 291.274275 
L 165.39267 290.072929 
L 170.160795 291.482231 
L 174.928921 290.329067 
L 179.697046 291.219259 
L 184.465172 291.185748 
L 189.233298 290.642863 
L 194.001423 291.104597 
L 198.769549 291.604824 
L 203.537674 290.760567 
L 208.3058 290.5288 
L 213.073925 290.829286 
L 217.842051 290.394221 
L 222.610177 291.021863 
L 227.378302 291.135588 
L 232.146428 291.027374 
L 236.914553 291.474676 
L 241.682679 290.39957 
L 246.450805 290.514136 
L 251.21893 291.193208 
L 255.987056 291.145 
L 260.755181 290.401464 
L 265.523307 290.433648 
L 270.291433 290.783996 
L 275.059558 290.749637 
L 279.827684 290.630345 
L 284.595809 289.95331 
L 289.363935 290.514149 
L 294.13206 290.421954 
L 298.900186 290.120679 
L 303.668312 290.424753 
L 308.436437 290.109048 
L 313.204563 290.649872 
L 317.972688 290.030437 
L 322.740814 290.253911 
L 327.50894 290.196608 
L 332.277065 290.76776 
L 337.045191 290.766962 
L 341.813316 289.707624 
L 346.581442 290.26991 
L 351.349567 290.507638 
L 356.117693 290.036148 
L 360.885819 290.756089 
L 365.653944 290.556451 
L 370.42207 290.261467 
L 375.190195 290.600742 
L 379.958321 290.20481 
L 384.726447 290.047044 
L 389.494572 290.220677 
L 394.262698 290.497072 
L 399.030823 289.969985 
L 403.798949 290.270192 
L 408.567075 289.682638 
L 413.3352 291.043501 
L 418.103326 290.273041 
L 422.871451 290.269276 
L 427.639577 290.021899 
L 432.407702 289.848383 
L 437.175828 290.122134 
L 441.943954 290.37977 
L 446.712079 290.030396 
L 451.480205 290.375332 
L 456.24833 290.208127 
L 461.016456 290.145446 
L 465.784582 290.038244 
L 470.552707 290.284123 
L 475.320833 290.037196 
L 480.088958 290.328566 
L 484.857084 289.769836 
L 489.625209 289.795095 
L 494.393335 290.060202 
L 499.161461 290.538108 
L 503.929586 289.696255 
L 508.697712 290.179818 
L 513.465837 289.754035 
L 518.233963 290.087926 
L 523.002089 289.894187 
L 527.770214 290.057371 
L 532.53834 289.949753 
L 537.306465 289.877367 
L 542.074591 290.115712 
" clip-path="url(#p94a7d72e6e)" style="fill: none; stroke-dasharray: 3.7,1.6; stroke-dashoffset: 0; stroke: #0000ff"/>
   </g>
   <g id="line2d_26">
    <path d="M 79.566409 283.566992 
L 84.334535 263.741711 
L 89.10266 252.569978 
L 93.870786 250.144162 
L 98.638911 215.304658 
L 103.407037 217.209665 
L 108.175163 217.451402 
L 112.943288 215.083469 
L 117.711414 215.490697 
L 122.479539 166.033225 
L 127.247665 162.610392 
L 132.015791 165.749436 
L 136.783916 164.6139 
L 141.552042 161.978947 
L 146.320167 164.665376 
L 151.088293 165.752056 
L 155.856418 166.031718 
L 160.624544 160.84304 
L 165.39267 164.865484 
L 170.160795 28.708518 
L 174.928921 28.291847 
L 179.697046 27.742211 
L 184.465172 28.343589 
L 189.233298 28.730647 
L 194.001423 28.233328 
L 198.769549 28.662633 
L 203.537674 27.362106 
L 208.3058 27.934458 
L 213.073925 27.861037 
L 217.842051 27.949134 
L 222.610177 27.035553 
L 227.378302 26.972888 
L 232.146428 27.80571 
L 236.914553 28.003301 
L 241.682679 28.422994 
L 246.450805 27.945989 
L 251.21893 27.897285 
L 255.987056 27.569994 
L 260.755181 28.749973 
L 265.523307 26.871501 
L 270.291433 28.300926 
L 275.059558 28.588427 
L 279.827684 27.241299 
L 284.595809 28.132871 
L 289.363935 27.27561 
L 294.13206 28.448117 
L 298.900186 27.915742 
L 303.668312 27.641173 
L 308.436437 28.208663 
L 313.204563 27.353647 
L 317.972688 28.537783 
L 322.740814 27.664763 
L 327.50894 27.733839 
L 332.277065 28.487093 
L 337.045191 27.847741 
L 341.813316 28.580838 
L 346.581442 28.818693 
L 351.349567 27.661371 
L 356.117693 28.856573 
L 360.885819 27.905913 
L 365.653944 27.704835 
L 370.42207 27.960822 
L 375.190195 27.260423 
L 379.958321 28.024623 
L 384.726447 28.047461 
L 389.494572 27.352165 
L 394.262698 27.695097 
L 399.030823 28.212791 
L 403.798949 27.143412 
L 408.567075 28.324289 
L 413.3352 28.013362 
L 418.103326 27.752811 
L 422.871451 27.834367 
L 427.639577 27.93307 
L 432.407702 28.068091 
L 437.175828 28.271444 
L 441.943954 27.652685 
L 446.712079 28.178014 
L 451.480205 27.267457 
L 456.24833 28.114484 
L 461.016456 27.894439 
L 465.784582 27.839115 
L 470.552707 28.224676 
L 475.320833 27.943136 
L 480.088958 28.027405 
L 484.857084 28.15544 
L 489.625209 27.463139 
L 494.393335 27.945577 
L 499.161461 27.935444 
L 503.929586 27.807074 
L 508.697712 27.769774 
L 513.465837 28.128936 
L 518.233963 27.867106 
L 523.002089 28.052192 
L 527.770214 27.870498 
L 532.53834 27.636199 
L 537.306465 28.387283 
L 542.074591 27.897878 
" clip-path="url(#p94a7d72e6e)" style="fill: none; stroke: #ff0000; stroke-width: 2; stroke-linecap: square"/>
   </g>
   <g id="line2d_27">
    <path d="M 79.566409 282.040731 
L 84.334535 262.557522 
L 89.10266 248.411405 
L 93.870786 247.667278 
L 98.638911 210.020511 
L 103.407037 211.494753 
L 108.175163 212.970512 
L 112.943288 210.363012 
L 117.711414 211.513579 
L 122.479539 161.021082 
L 127.247665 156.324063 
L 132.015791 159.470293 
L 136.783916 159.226778 
L 141.552042 156.923687 
L 146.320167 158.753143 
L 151.088293 161.731759 
L 155.856418 162.765653 
L 160.624544 158.098696 
L 165.39267 160.519148 
L 170.160795 26.769812 
L 174.928921 26.347045 
L 179.697046 26.393422 
L 184.465172 26.273035 
L 189.233298 26.801401 
L 194.001423 26.080769 
L 198.769549 26.502633 
L 203.537674 26.033586 
L 208.3058 26.561993 
L 213.073925 26.090288 
L 217.842051 26.373214 
L 222.610177 24.718202 
L 227.378302 25.70184 
L 232.146428 26.262779 
L 236.914553 26.207876 
L 241.682679 27.193999 
L 246.450805 26.451373 
L 251.21893 26.288518 
L 255.987056 25.735796 
L 260.755181 26.875985 
L 265.523307 25.596417 
L 270.291433 27.022569 
L 275.059558 27.191773 
L 279.827684 25.943028 
L 284.595809 26.638938 
L 289.363935 25.905092 
L 294.13206 27.151851 
L 298.900186 27.034539 
L 303.668312 26.058383 
L 308.436437 27.136001 
L 313.204563 26.070891 
L 317.972688 27.358345 
L 322.740814 26.720501 
L 327.50894 26.058076 
L 332.277065 27.037357 
L 337.045191 27.029431 
L 341.813316 26.777876 
L 346.581442 27.366375 
L 351.349567 26.499133 
L 356.117693 27.258909 
L 360.885819 26.949548 
L 365.653944 26.795806 
L 370.42207 26.631609 
L 375.190195 26.614789 
L 379.958321 26.384011 
L 384.726447 26.902433 
L 389.494572 26.339953 
L 394.262698 26.560315 
L 399.030823 26.671039 
L 403.798949 25.846718 
L 408.567075 27.118016 
L 413.3352 27.276023 
L 418.103326 27.145661 
L 422.871451 26.764884 
L 427.639577 26.837352 
L 432.407702 26.763327 
L 437.175828 27.370218 
L 441.943954 26.816233 
L 446.712079 27.159963 
L 451.480205 26.579306 
L 456.24833 27.260687 
L 461.016456 26.955923 
L 465.784582 26.612611 
L 470.552707 27.083265 
L 475.320833 27.120361 
L 480.088958 27.411103 
L 484.857084 27.074881 
L 489.625209 26.820761 
L 494.393335 27.202142 
L 499.161461 26.991456 
L 503.929586 26.792878 
L 508.697712 26.913823 
L 513.465837 27.021128 
L 518.233963 26.889115 
L 523.002089 27.362062 
L 527.770214 26.646146 
L 532.53834 26.839381 
L 537.306465 27.12782 
L 542.074591 27.255469 
" clip-path="url(#p94a7d72e6e)" style="fill: none; stroke-dasharray: 3.7,1.6; stroke-dashoffset: 0; stroke: #ff0000"/>
   </g>
   <g id="line2d_28">
    <path d="M 79.566409 285.093253 
L 84.334535 264.925901 
L 89.10266 256.728552 
L 93.870786 252.621047 
L 98.638911 220.588806 
L 103.407037 222.924578 
L 108.175163 221.932292 
L 112.943288 219.803925 
L 117.711414 219.467816 
L 122.479539 171.045369 
L 127.247665 168.896721 
L 132.015791 172.02858 
L 136.783916 170.001021 
L 141.552042 167.034207 
L 146.320167 170.57761 
L 151.088293 169.772354 
L 155.856418 169.297783 
L 160.624544 163.587383 
L 165.39267 169.21182 
L 170.160795 30.647224 
L 174.928921 30.236649 
L 179.697046 29.091 
L 184.465172 30.414142 
L 189.233298 30.659894 
L 194.001423 30.385887 
L 198.769549 30.822634 
L 203.537674 28.690625 
L 208.3058 29.306922 
L 213.073925 29.631786 
L 217.842051 29.525055 
L 222.610177 29.352904 
L 227.378302 28.243937 
L 232.146428 29.348642 
L 236.914553 29.798725 
L 241.682679 29.651989 
L 246.450805 29.440605 
L 251.21893 29.506051 
L 255.987056 29.404192 
L 260.755181 30.62396 
L 265.523307 28.146586 
L 270.291433 29.579283 
L 275.059558 29.985081 
L 279.827684 28.539569 
L 284.595809 29.626803 
L 289.363935 28.646129 
L 294.13206 29.744382 
L 298.900186 28.796945 
L 303.668312 29.223964 
L 308.436437 29.281325 
L 313.204563 28.636402 
L 317.972688 29.717221 
L 322.740814 28.609025 
L 327.50894 29.409601 
L 332.277065 29.936829 
L 337.045191 28.666052 
L 341.813316 30.383801 
L 346.581442 30.271012 
L 351.349567 28.823608 
L 356.117693 30.454237 
L 360.885819 28.862279 
L 365.653944 28.613863 
L 370.42207 29.290035 
L 375.190195 27.906056 
L 379.958321 29.665235 
L 384.726447 29.192488 
L 389.494572 28.364376 
L 394.262698 28.829879 
L 399.030823 29.754543 
L 403.798949 28.440106 
L 408.567075 29.530561 
L 413.3352 28.750701 
L 418.103326 28.359961 
L 422.871451 28.90385 
L 427.639577 29.028788 
L 432.407702 29.372854 
L 437.175828 29.17267 
L 441.943954 28.489137 
L 446.712079 29.196064 
L 451.480205 27.955608 
L 456.24833 28.968282 
L 461.016456 28.832955 
L 465.784582 29.065618 
L 470.552707 29.366087 
L 475.320833 28.765911 
L 480.088958 28.643707 
L 484.857084 29.236 
L 489.625209 28.105518 
L 494.393335 28.689011 
L 499.161461 28.879433 
L 503.929586 28.82127 
L 508.697712 28.625726 
L 513.465837 29.236744 
L 518.233963 28.845098 
L 523.002089 28.742323 
L 527.770214 29.09485 
L 532.53834 28.433016 
L 537.306465 29.646746 
L 542.074591 28.540288 
" clip-path="url(#p94a7d72e6e)" style="fill: none; stroke-dasharray: 3.7,1.6; stroke-dashoffset: 0; stroke: #ff0000"/>
   </g>
   <g id="patch_3">
    <path d="M 56.441 311.115 
L 56.441 11.08026 
" style="fill: none; stroke: #000000; stroke-width: 0.8; stroke-linejoin: miter; stroke-linecap: square"/>
   </g>
   <g id="patch_4">
    <path d="M 565.2 311.115 
L 565.2 11.08026 
" style="fill: none; stroke: #000000; stroke-width: 0.8; stroke-linejoin: miter; stroke-linecap: square"/>
   </g>
   <g id="patch_5">
    <path d="M 56.441 311.115 
L 565.2 311.115 
" style="fill: none; stroke: #000000; stroke-width: 0.8; stroke-linejoin: miter; stroke-linecap: square"/>
   </g>
   <g id="patch_6">
    <path d="M 56.441 11.08026 
L 565.2 11.08026 
" style="fill: none; stroke: #000000; stroke-width: 0.8; stroke-linejoin: miter; stroke-linecap: square"/>
   </g>
   <g id="legend_1">
    <g id="patch_7">
     <path d="M 402.565937 183.747005 
L 555.4 183.747005 
Q 558.2 183.747005 558.2 180.947005 
L 558.2 141.248255 
Q 558.2 138.448255 555.4 138.448255 
L 402.565937 138.448255 
Q 399.765937 138.448255 399.765937 141.248255 
L 399.765937 180.947005 
Q 399.765937 183.747005 402.565937 183.747005 
z
" style="fill: #ffffff; opacity: 0.8; stroke: #cccccc; stroke-linejoin: miter"/>
    </g>
    <g id="line2d_29">
     <path d="M 405.365937 149.786067 
L 419.365937 149.786067 
L 433.365937 149.786067 
" style="fill: none; stroke: #0000ff; stroke-width: 2; stroke-linecap: square"/>
    </g>
    <g id="text_14">
     <!-- Multi-Grid -->
     <g transform="translate(444.565937 154.686067) scale(0.14 -0.14)">
      <defs>
       <path id="DejaVuSans-75" d="M 544 1381 
L 544 3500 
L 1119 3500 
L 1119 1403 
Q 1119 906 1312 657 
Q 1506 409 1894 409 
Q 2359 409 2629 706 
Q 2900 1003 2900 1516 
L 2900 3500 
L 3475 3500 
L 3475 0 
L 2900 0 
L 2900 538 
Q 2691 219 2414 64 
Q 2138 -91 1772 -91 
Q 1169 -91 856 284 
Q 544 659 544 1381 
z
M 1991 3584 
L 1991 3584 
z
" transform="scale(0.015625)"/>
       <path id="DejaVuSans-6c" d="M 603 4863 
L 1178 4863 
L 1178 0 
L 603 0 
L 603 4863 
z
" transform="scale(0.015625)"/>
       <path id="DejaVuSans-74" d="M 1172 4494 
L 1172 3500 
L 2356 3500 
L 2356 3053 
L 1172 3053 
L 1172 1153 
Q 1172 725 1289 603 
Q 1406 481 1766 481 
L 2356 481 
L 2356 0 
L 1766 0 
Q 1100 0 847 248 
Q 594 497 594 1153 
L 594 3053 
L 172 3053 
L 172 3500 
L 594 3500 
L 594 4494 
L 1172 4494 
z
" transform="scale(0.015625)"/>
       <path id="DejaVuSans-2d" d="M 313 2009 
L 1997 2009 
L 1997 1497 
L 313 1497 
L 313 2009 
z
" transform="scale(0.015625)"/>
       <path id="DejaVuSans-72" d="M 2631 2963 
Q 2534 3019 2420 3045 
Q 2306 3072 2169 3072 
Q 1681 3072 1420 2755 
Q 1159 2438 1159 1844 
L 1159 0 
L 581 0 
L 581 3500 
L 1159 3500 
L 1159 2956 
Q 1341 3275 1631 3429 
Q 1922 3584 2338 3584 
Q 2397 3584 2469 3576 
Q 2541 3569 2628 3553 
L 2631 2963 
z
" transform="scale(0.015625)"/>
       <path id="DejaVuSans-64" d="M 2906 2969 
L 2906 4863 
L 3481 4863 
L 3481 0 
L 2906 0 
L 2906 525 
Q 2725 213 2448 61 
Q 2172 -91 1784 -91 
Q 1150 -91 751 415 
Q 353 922 353 1747 
Q 353 2572 751 3078 
Q 1150 3584 1784 3584 
Q 2172 3584 2448 3432 
Q 2725 3281 2906 2969 
z
M 947 1747 
Q 947 1113 1208 752 
Q 1469 391 1925 391 
Q 2381 391 2643 752 
Q 2906 1113 2906 1747 
Q 2906 2381 2643 2742 
Q 2381 3103 1925 3103 
Q 1469 3103 1208 2742 
Q 947 2381 947 1747 
z
" transform="scale(0.015625)"/>
      </defs>
      <use xlink:href="#DejaVuSans-4d"/>
      <use xlink:href="#DejaVuSans-75" x="86.279297"/>
      <use xlink:href="#DejaVuSans-6c" x="149.658203"/>
      <use xlink:href="#DejaVuSans-74" x="177.441406"/>
      <use xlink:href="#DejaVuSans-69" x="216.650391"/>
      <use xlink:href="#DejaVuSans-2d" x="244.433594"/>
      <use xlink:href="#DejaVuSans-47" x="284.142578"/>
      <use xlink:href="#DejaVuSans-72" x="361.632812"/>
      <use xlink:href="#DejaVuSans-69" x="402.746094"/>
      <use xlink:href="#DejaVuSans-64" x="430.529297"/>
     </g>
    </g>
    <g id="line2d_30">
     <path d="M 405.365937 170.335442 
L 419.365937 170.335442 
L 433.365937 170.335442 
" style="fill: none; stroke: #ff0000; stroke-width: 2; stroke-linecap: square"/>
    </g>
    <g id="text_15">
     <!-- Per Component -->
     <g transform="translate(444.565937 175.235442) scale(0.14 -0.14)">
      <defs>
       <path id="DejaVuSans-50" d="M 1259 4147 
L 1259 2394 
L 2053 2394 
Q 2494 2394 2734 2622 
Q 2975 2850 2975 3272 
Q 2975 3691 2734 3919 
Q 2494 4147 2053 4147 
L 1259 4147 
z
M 628 4666 
L 2053 4666 
Q 2838 4666 3239 4311 
Q 3641 3956 3641 3272 
Q 3641 2581 3239 2228 
Q 2838 1875 2053 1875 
L 1259 1875 
L 1259 0 
L 628 0 
L 628 4666 
z
" transform="scale(0.015625)"/>
       <path id="DejaVuSans-43" d="M 4122 4306 
L 4122 3641 
Q 3803 3938 3442 4084 
Q 3081 4231 2675 4231 
Q 1875 4231 1450 3742 
Q 1025 3253 1025 2328 
Q 1025 1406 1450 917 
Q 1875 428 2675 428 
Q 3081 428 3442 575 
Q 3803 722 4122 1019 
L 4122 359 
Q 3791 134 3420 21 
Q 3050 -91 2638 -91 
Q 1578 -91 968 557 
Q 359 1206 359 2328 
Q 359 3453 968 4101 
Q 1578 4750 2638 4750 
Q 3056 4750 3426 4639 
Q 3797 4528 4122 4306 
z
" transform="scale(0.015625)"/>
       <path id="DejaVuSans-6f" d="M 1959 3097 
Q 1497 3097 1228 2736 
Q 959 2375 959 1747 
Q 959 1119 1226 758 
Q 1494 397 1959 397 
Q 2419 397 2687 759 
Q 2956 1122 2956 1747 
Q 2956 2369 2687 2733 
Q 2419 3097 1959 3097 
z
M 1959 3584 
Q 2709 3584 3137 3096 
Q 3566 2609 3566 1747 
Q 3566 888 3137 398 
Q 2709 -91 1959 -91 
Q 1206 -91 779 398 
Q 353 888 353 1747 
Q 353 2609 779 3096 
Q 1206 3584 1959 3584 
z
" transform="scale(0.015625)"/>
       <path id="DejaVuSans-6d" d="M 3328 2828 
Q 3544 3216 3844 3400 
Q 4144 3584 4550 3584 
Q 5097 3584 5394 3201 
Q 5691 2819 5691 2113 
L 5691 0 
L 5113 0 
L 5113 2094 
Q 5113 2597 4934 2840 
Q 4756 3084 4391 3084 
Q 3944 3084 3684 2787 
Q 3425 2491 3425 1978 
L 3425 0 
L 2847 0 
L 2847 2094 
Q 2847 2600 2669 2842 
Q 2491 3084 2119 3084 
Q 1678 3084 1418 2786 
Q 1159 2488 1159 1978 
L 1159 0 
L 581 0 
L 581 3500 
L 1159 3500 
L 1159 2956 
Q 1356 3278 1631 3431 
Q 1906 3584 2284 3584 
Q 2666 3584 2933 3390 
Q 3200 3197 3328 2828 
z
" transform="scale(0.015625)"/>
       <path id="DejaVuSans-70" d="M 1159 525 
L 1159 -1331 
L 581 -1331 
L 581 3500 
L 1159 3500 
L 1159 2969 
Q 1341 3281 1617 3432 
Q 1894 3584 2278 3584 
Q 2916 3584 3314 3078 
Q 3713 2572 3713 1747 
Q 3713 922 3314 415 
Q 2916 -91 2278 -91 
Q 1894 -91 1617 61 
Q 1341 213 1159 525 
z
M 3116 1747 
Q 3116 2381 2855 2742 
Q 2594 3103 2138 3103 
Q 1681 3103 1420 2742 
Q 1159 2381 1159 1747 
Q 1159 1113 1420 752 
Q 1681 391 2138 391 
Q 2594 391 2855 752 
Q 3116 1113 3116 1747 
z
" transform="scale(0.015625)"/>
       <path id="DejaVuSans-6e" d="M 3513 2113 
L 3513 0 
L 2938 0 
L 2938 2094 
Q 2938 2591 2744 2837 
Q 2550 3084 2163 3084 
Q 1697 3084 1428 2787 
Q 1159 2491 1159 1978 
L 1159 0 
L 581 0 
L 581 3500 
L 1159 3500 
L 1159 2956 
Q 1366 3272 1645 3428 
Q 1925 3584 2291 3584 
Q 2894 3584 3203 3211 
Q 3513 2838 3513 2113 
z
" transform="scale(0.015625)"/>
      </defs>
      <use xlink:href="#DejaVuSans-50"/>
      <use xlink:href="#DejaVuSans-65" x="56.677734"/>
      <use xlink:href="#DejaVuSans-72" x="118.201172"/>
      <use xlink:href="#DejaVuSans-20" x="159.314453"/>
      <use xlink:href="#DejaVuSans-43" x="191.101562"/>
      <use xlink:href="#DejaVuSans-6f" x="260.925781"/>
      <use xlink:href="#DejaVuSans-6d" x="322.107422"/>
      <use xlink:href="#DejaVuSans-70" x="419.519531"/>
      <use xlink:href="#DejaVuSans-6f" x="482.996094"/>
      <use xlink:href="#DejaVuSans-6e" x="544.177734"/>
      <use xlink:href="#DejaVuSans-65" x="607.556641"/>
      <use xlink:href="#DejaVuSans-6e" x="669.080078"/>
      <use xlink:href="#DejaVuSans-74" x="732.458984"/>
     </g>
    </g>
   </g>
  </g>
 </g>
 <defs>
  <clipPath id="p94a7d72e6e">
   <rect x="56.441" y="11.08026" width="508.759" height="300.03474"/>
  </clipPath>
 </defs>
</svg>
