<?xml version="1.0" encoding="utf-8" standalone="no"?>
<!DOCTYPE svg PUBLIC "-//W3C//DTD SVG 1.1//EN"
  "http://www.w3.org/Graphics/SVG/1.1/DTD/svg11.dtd">
<svg xmlns:xlink="http://www.w3.org/1999/xlink" width="576pt" height="360pt" viewBox="0 0 576 360" xmlns="http://www.w3.org/2000/svg" version="1.1">
 <metadata>
  <rdf:RDF xmlns:dc="http://purl.org/dc/elements/1.1/" xmlns:cc="http://creativecommons.org/ns#" xmlns:rdf="http://www.w3.org/1999/02/22-rdf-syntax-ns#">
   <cc:Work>
    <dc:type rdf:resource="http://purl.org/dc/dcmitype/StillImage"/>
    <dc:date>2025-07-08T14:09:52.327900</dc:date>
    <dc:format>image/svg+xml</dc:format>
    <dc:creator>
     <cc:Agent>
      <dc:title>Matplotlib v3.9.4, https://matplotlib.org/</dc:title>
     </cc:Agent>
    </dc:creator>
   </cc:Work>
  </rdf:RDF>
 </metadata>
 <defs>
  <style type="text/css">*{stroke-linejoin: round; stroke-linecap: butt}</style>
 </defs>
 <g id="figure_1">
  <g id="patch_1">
   <path d="M 0 360 
L 576 360 
L 576 0 
L 0 0 
z
" style="fill: #ffffff"/>
  </g>
  <g id="axes_1">
   <g id="patch_2">
    <path d="M 57.35 311.115 
L 565.2 311.115 
L 565.2 10.8 
L 57.35 10.8 
z
" style="fill: #ffffff"/>
   </g>
   <g id="PolyCollection_1">
    <defs>
     <path id="mbe41efb937" d="M 80.434091 -332.507539 
L 80.434091 -328.87468 
L 85.193697 -331.22974 
L 89.953304 -329.549285 
L 94.71291 -330.14021 
L 99.472516 -331.399789 
L 104.232123 -330.14021 
L 108.991729 -331.028412 
L 113.751336 -331.843815 
L 118.510942 -333.052226 
L 123.270548 -329.549285 
L 128.030155 -331.399789 
L 132.789761 -331.843815 
L 137.549367 -331.399789 
L 142.308974 -332.377622 
L 147.06858 -334.401436 
L 151.828187 -332.377622 
L 156.587793 -334.401436 
L 161.347399 -334.401436 
L 166.107006 -332.377622 
L 170.866612 -332.377622 
L 175.626218 -331.843815 
L 180.385825 -332.377622 
L 185.145431 -332.377622 
L 189.905037 -331.399789 
L 194.664644 -331.399789 
L 199.42425 -331.843815 
L 204.183857 -333.052226 
L 208.943463 -333.052226 
L 213.703069 -333.052226 
L 218.462676 -333.052226 
L 223.222282 -333.052226 
L 227.981888 -333.052226 
L 232.741495 -334.401436 
L 237.501101 -334.401436 
L 242.260708 -333.052226 
L 247.020314 -334.401436 
L 251.77992 -333.052226 
L 256.539527 -334.401436 
L 261.299133 -334.401436 
L 266.058739 -334.401436 
L 270.818346 -332.377622 
L 275.577952 -334.401436 
L 280.337559 -334.401436 
L 285.097165 -334.401436 
L 289.856771 -334.401436 
L 294.616378 -334.401436 
L 299.375984 -333.052226 
L 304.13559 -334.401436 
L 308.895197 -334.401436 
L 313.654803 -334.401436 
L 318.41441 -333.052226 
L 323.174016 -334.401436 
L 327.933622 -334.401436 
L 332.693229 -334.401436 
L 337.452835 -333.052226 
L 342.212441 -334.401436 
L 346.972048 -334.401436 
L 351.731654 -334.401436 
L 356.491261 -334.401436 
L 361.250867 -333.052226 
L 366.010473 -334.401436 
L 370.77008 -333.052226 
L 375.529686 -334.401436 
L 380.289292 -334.401436 
L 385.048899 -334.401436 
L 389.808505 -334.401436 
L 394.568112 -334.401436 
L 399.327718 -334.401436 
L 404.087324 -334.401436 
L 408.846931 -334.401436 
L 413.606537 -334.401436 
L 418.366143 -334.401436 
L 423.12575 -334.401436 
L 427.885356 -334.401436 
L 432.644963 -334.401436 
L 437.404569 -334.401436 
L 442.164175 -334.401436 
L 446.923782 -334.401436 
L 451.683388 -334.401436 
L 456.442994 -334.401436 
L 461.202601 -334.401436 
L 465.962207 -334.401436 
L 470.721813 -333.052226 
L 475.48142 -334.401436 
L 480.241026 -334.401436 
L 485.000633 -334.401436 
L 489.760239 -334.401436 
L 494.519845 -334.401436 
L 499.279452 -334.401436 
L 504.039058 -334.401436 
L 508.798664 -334.401436 
L 513.558271 -334.401436 
L 518.317877 -334.401436 
L 523.077484 -334.401436 
L 527.83709 -334.401436 
L 532.596696 -334.401436 
L 537.356303 -334.401436 
L 542.115909 -334.401436 
L 542.115909 -334.401436 
L 542.115909 -334.401436 
L 537.356303 -334.401436 
L 532.596696 -334.401436 
L 527.83709 -334.401436 
L 523.077484 -334.401436 
L 518.317877 -334.401436 
L 513.558271 -334.401436 
L 508.798664 -334.401436 
L 504.039058 -334.401436 
L 499.279452 -334.401436 
L 494.519845 -334.401436 
L 489.760239 -334.401436 
L 485.000633 -334.401436 
L 480.241026 -334.401436 
L 475.48142 -334.401436 
L 470.721813 -335.076041 
L 465.962207 -334.401436 
L 461.202601 -334.401436 
L 456.442994 -334.401436 
L 451.683388 -334.401436 
L 446.923782 -334.401436 
L 442.164175 -334.401436 
L 437.404569 -334.401436 
L 432.644963 -334.401436 
L 427.885356 -334.401436 
L 423.12575 -334.401436 
L 418.366143 -334.401436 
L 413.606537 -334.401436 
L 408.846931 -334.401436 
L 404.087324 -334.401436 
L 399.327718 -334.401436 
L 394.568112 -334.401436 
L 389.808505 -334.401436 
L 385.048899 -334.401436 
L 380.289292 -334.401436 
L 375.529686 -334.401436 
L 370.77008 -335.076041 
L 366.010473 -334.401436 
L 361.250867 -335.076041 
L 356.491261 -334.401436 
L 351.731654 -334.401436 
L 346.972048 -334.401436 
L 342.212441 -334.401436 
L 337.452835 -335.076041 
L 332.693229 -334.401436 
L 327.933622 -334.401436 
L 323.174016 -334.401436 
L 318.41441 -335.076041 
L 313.654803 -334.401436 
L 308.895197 -334.401436 
L 304.13559 -334.401436 
L 299.375984 -335.076041 
L 294.616378 -334.401436 
L 289.856771 -334.401436 
L 285.097165 -334.401436 
L 280.337559 -334.401436 
L 275.577952 -334.401436 
L 270.818346 -335.076041 
L 266.058739 -334.401436 
L 261.299133 -334.401436 
L 256.539527 -334.401436 
L 251.77992 -335.076041 
L 247.020314 -334.401436 
L 242.260708 -335.076041 
L 237.501101 -334.401436 
L 232.741495 -334.401436 
L 227.981888 -335.076041 
L 223.222282 -335.076041 
L 218.462676 -335.076041 
L 213.703069 -335.076041 
L 208.943463 -335.076041 
L 204.183857 -335.076041 
L 199.42425 -334.935243 
L 194.664644 -334.704664 
L 189.905037 -334.704664 
L 185.145431 -335.076041 
L 180.385825 -335.076041 
L 175.626218 -334.935243 
L 170.866612 -335.076041 
L 166.107006 -335.076041 
L 161.347399 -334.401436 
L 156.587793 -334.401436 
L 151.828187 -335.076041 
L 147.06858 -334.401436 
L 142.308974 -335.076041 
L 137.549367 -334.704664 
L 132.789761 -334.935243 
L 128.030155 -334.704664 
L 123.270548 -333.182143 
L 118.510942 -335.076041 
L 113.751336 -334.935243 
L 108.991729 -334.401436 
L 104.232123 -334.615033 
L 99.472516 -334.704664 
L 94.71291 -334.615033 
L 89.953304 -333.182143 
L 85.193697 -335.549318 
L 80.434091 -332.507539 
z
" style="stroke: #0000ff; stroke-opacity: 0.2"/>
    </defs>
    <g clip-path="url(#p95dbca51c4)">
     <use xlink:href="#mbe41efb937" x="0" y="360" style="fill: #0000ff; fill-opacity: 0.2; stroke: #0000ff; stroke-opacity: 0.2"/>
    </g>
   </g>
   <g id="PolyCollection_2">
    <defs>
     <path id="mfaef8e3638" d="M 80.434091 -329.299515 
L 80.434091 -321.289026 
L 85.193697 -289.484508 
L 89.953304 -256.821878 
L 94.71291 -321.583944 
L 99.472516 -184.959639 
L 104.232123 -218.204125 
L 108.991729 -251.706636 
L 113.751336 -280.835703 
L 118.510942 -317.214376 
L 123.270548 -153.417146 
L 128.030155 -168.6287 
L 132.789761 -184.63916 
L 137.549367 -196.182867 
L 142.308974 -207.886453 
L 147.06858 -224.970158 
L 151.828187 -239.525408 
L 156.587793 -258.171088 
L 161.347399 -267.016376 
L 166.107006 -289.908244 
L 170.866612 -62.535682 
L 175.626218 -65.908706 
L 180.385825 -71.305545 
L 185.145431 -75.7927 
L 189.905037 -76.027779 
L 194.664644 -81.424618 
L 199.42425 -84.797642 
L 204.183857 -88.170666 
L 208.943463 -91.54369 
L 213.703069 -94.916715 
L 218.462676 -98.289739 
L 223.222282 -101.662763 
L 227.981888 -105.035787 
L 232.741495 -108.408812 
L 237.501101 -111.781836 
L 242.260708 -115.15486 
L 247.020314 -118.527884 
L 251.77992 -121.900909 
L 256.539527 -125.273933 
L 261.299133 -128.646957 
L 266.058739 -132.019981 
L 270.818346 -135.393006 
L 275.577952 -138.76603 
L 280.337559 -142.139054 
L 285.097165 -145.512078 
L 289.856771 -148.885103 
L 294.616378 -152.258127 
L 299.375984 -155.631151 
L 304.13559 -159.004175 
L 308.895197 -162.3772 
L 313.654803 -165.750224 
L 318.41441 -169.123248 
L 323.174016 -172.496272 
L 327.933622 -175.869297 
L 332.693229 -179.242321 
L 337.452835 -182.615345 
L 342.212441 -185.988369 
L 346.972048 -189.361394 
L 351.731654 -192.734418 
L 356.491261 -196.107442 
L 361.250867 -199.480466 
L 366.010473 -202.85349 
L 370.77008 -206.226515 
L 375.529686 -209.599539 
L 380.289292 -212.972563 
L 385.048899 -216.345587 
L 389.808505 -219.718612 
L 394.568112 -223.091636 
L 399.327718 -226.46466 
L 404.087324 -229.837684 
L 408.846931 -233.210709 
L 413.606537 -236.583733 
L 418.366143 -239.956757 
L 423.12575 -243.329781 
L 427.885356 -246.702806 
L 432.644963 -250.07583 
L 437.404569 -253.448854 
L 442.164175 -256.821878 
L 446.923782 -260.194903 
L 451.683388 -263.567927 
L 456.442994 -266.940951 
L 461.202601 -270.313975 
L 465.962207 -273.687 
L 470.721813 -277.060024 
L 475.48142 -280.433048 
L 480.241026 -283.806072 
L 485.000633 -287.179097 
L 489.760239 -290.552121 
L 494.519845 -293.925145 
L 499.279452 -297.298169 
L 504.039058 -300.671194 
L 508.798664 -304.044218 
L 513.558271 -307.417242 
L 518.317877 -310.790266 
L 523.077484 -314.163291 
L 527.83709 -317.536315 
L 532.596696 -320.909339 
L 537.356303 -324.282363 
L 542.115909 -327.655388 
L 542.115909 -327.655388 
L 542.115909 -327.655388 
L 537.356303 -324.282363 
L 532.596696 -320.909339 
L 527.83709 -317.536315 
L 523.077484 -314.163291 
L 518.317877 -310.790266 
L 513.558271 -307.417242 
L 508.798664 -304.044218 
L 504.039058 -300.671194 
L 499.279452 -297.298169 
L 494.519845 -293.925145 
L 489.760239 -290.552121 
L 485.000633 -287.179097 
L 480.241026 -283.806072 
L 475.48142 -280.433048 
L 470.721813 -277.060024 
L 465.962207 -273.687 
L 461.202601 -270.313975 
L 456.442994 -266.940951 
L 451.683388 -263.567927 
L 446.923782 -260.194903 
L 442.164175 -256.821878 
L 437.404569 -253.448854 
L 432.644963 -250.07583 
L 427.885356 -246.702806 
L 423.12575 -243.329781 
L 418.366143 -239.956757 
L 413.606537 -236.583733 
L 408.846931 -233.210709 
L 404.087324 -229.837684 
L 399.327718 -226.46466 
L 394.568112 -223.091636 
L 389.808505 -219.718612 
L 385.048899 -216.345587 
L 380.289292 -212.972563 
L 375.529686 -209.599539 
L 370.77008 -206.226515 
L 366.010473 -202.85349 
L 361.250867 -199.480466 
L 356.491261 -196.107442 
L 351.731654 -192.734418 
L 346.972048 -189.361394 
L 342.212441 -185.988369 
L 337.452835 -182.615345 
L 332.693229 -179.242321 
L 327.933622 -175.869297 
L 323.174016 -172.496272 
L 318.41441 -169.123248 
L 313.654803 -165.750224 
L 308.895197 -162.3772 
L 304.13559 -159.004175 
L 299.375984 -155.631151 
L 294.616378 -152.258127 
L 289.856771 -148.885103 
L 285.097165 -145.512078 
L 280.337559 -142.139054 
L 275.577952 -138.76603 
L 270.818346 -135.393006 
L 266.058739 -132.019981 
L 261.299133 -128.646957 
L 256.539527 -125.273933 
L 251.77992 -121.900909 
L 247.020314 -118.527884 
L 242.260708 -115.15486 
L 237.501101 -111.781836 
L 232.741495 -108.408812 
L 227.981888 -105.035787 
L 223.222282 -101.662763 
L 218.462676 -98.289739 
L 213.703069 -94.916715 
L 208.943463 -91.54369 
L 204.183857 -88.170666 
L 199.42425 -84.797642 
L 194.664644 -81.424618 
L 189.905037 -82.099222 
L 185.145431 -85.707326 
L 180.385825 -71.305545 
L 175.626218 -74.003964 
L 170.866612 -70.63094 
L 166.107006 -304.688095 
L 161.347399 -279.008414 
L 156.587793 -269.639371 
L 151.828187 -250.507179 
L 147.06858 -240.776655 
L 142.308974 -220.757093 
L 137.549367 -208.174905 
L 132.789761 -193.409023 
L 128.030155 -181.086078 
L 123.270548 -167.964229 
L 118.510942 -324.604302 
L 113.751336 -289.474861 
L 108.991729 -257.889492 
L 104.232123 -226.629937 
L 99.472516 -191.739334 
L 94.71291 -332.377622 
L 89.953304 -263.567927 
L 85.193697 -295.667363 
L 80.434091 -329.299515 
z
" style="stroke: #ff0000; stroke-opacity: 0.2"/>
    </defs>
    <g clip-path="url(#p95dbca51c4)">
     <use xlink:href="#mfaef8e3638" x="0" y="360" style="fill: #ff0000; fill-opacity: 0.2; stroke: #ff0000; stroke-opacity: 0.2"/>
    </g>
   </g>
   <g id="matplotlib.axis_1">
    <g id="xtick_1">
     <g id="line2d_1">
      <path d="M 70.914878 311.115 
L 70.914878 10.8 
" clip-path="url(#p95dbca51c4)" style="fill: none; stroke: #b0b0b0; stroke-width: 0.8; stroke-linecap: square"/>
     </g>
     <g id="line2d_2">
      <defs>
       <path id="ma2268b8310" d="M 0 0 
L 0 3.5 
" style="stroke: #000000; stroke-width: 0.8"/>
      </defs>
      <g>
       <use xlink:href="#ma2268b8310" x="70.914878" y="311.115" style="stroke: #000000; stroke-width: 0.8"/>
      </g>
     </g>
     <g id="text_1">
      <!-- 0 -->
      <g transform="translate(67.733628 325.713437) scale(0.1 -0.1)">
       <defs>
        <path id="DejaVuSans-30" d="M 2034 4250 
Q 1547 4250 1301 3770 
Q 1056 3291 1056 2328 
Q 1056 1369 1301 889 
Q 1547 409 2034 409 
Q 2525 409 2770 889 
Q 3016 1369 3016 2328 
Q 3016 3291 2770 3770 
Q 2525 4250 2034 4250 
z
M 2034 4750 
Q 2819 4750 3233 4129 
Q 3647 3509 3647 2328 
Q 3647 1150 3233 529 
Q 2819 -91 2034 -91 
Q 1250 -91 836 529 
Q 422 1150 422 2328 
Q 422 3509 836 4129 
Q 1250 4750 2034 4750 
z
" transform="scale(0.015625)"/>
       </defs>
       <use xlink:href="#DejaVuSans-30"/>
      </g>
     </g>
    </g>
    <g id="xtick_2">
     <g id="line2d_3">
      <path d="M 166.107006 311.115 
L 166.107006 10.8 
" clip-path="url(#p95dbca51c4)" style="fill: none; stroke: #b0b0b0; stroke-width: 0.8; stroke-linecap: square"/>
     </g>
     <g id="line2d_4">
      <g>
       <use xlink:href="#ma2268b8310" x="166.107006" y="311.115" style="stroke: #000000; stroke-width: 0.8"/>
      </g>
     </g>
     <g id="text_2">
      <!-- 20 -->
      <g transform="translate(159.744506 325.713437) scale(0.1 -0.1)">
       <defs>
        <path id="DejaVuSans-32" d="M 1228 531 
L 3431 531 
L 3431 0 
L 469 0 
L 469 531 
Q 828 903 1448 1529 
Q 2069 2156 2228 2338 
Q 2531 2678 2651 2914 
Q 2772 3150 2772 3378 
Q 2772 3750 2511 3984 
Q 2250 4219 1831 4219 
Q 1534 4219 1204 4116 
Q 875 4013 500 3803 
L 500 4441 
Q 881 4594 1212 4672 
Q 1544 4750 1819 4750 
Q 2544 4750 2975 4387 
Q 3406 4025 3406 3419 
Q 3406 3131 3298 2873 
Q 3191 2616 2906 2266 
Q 2828 2175 2409 1742 
Q 1991 1309 1228 531 
z
" transform="scale(0.015625)"/>
       </defs>
       <use xlink:href="#DejaVuSans-32"/>
       <use xlink:href="#DejaVuSans-30" x="63.623047"/>
      </g>
     </g>
    </g>
    <g id="xtick_3">
     <g id="line2d_5">
      <path d="M 261.299133 311.115 
L 261.299133 10.8 
" clip-path="url(#p95dbca51c4)" style="fill: none; stroke: #b0b0b0; stroke-width: 0.8; stroke-linecap: square"/>
     </g>
     <g id="line2d_6">
      <g>
       <use xlink:href="#ma2268b8310" x="261.299133" y="311.115" style="stroke: #000000; stroke-width: 0.8"/>
      </g>
     </g>
     <g id="text_3">
      <!-- 40 -->
      <g transform="translate(254.936633 325.713437) scale(0.1 -0.1)">
       <defs>
        <path id="DejaVuSans-34" d="M 2419 4116 
L 825 1625 
L 2419 1625 
L 2419 4116 
z
M 2253 4666 
L 3047 4666 
L 3047 1625 
L 3713 1625 
L 3713 1100 
L 3047 1100 
L 3047 0 
L 2419 0 
L 2419 1100 
L 313 1100 
L 313 1709 
L 2253 4666 
z
" transform="scale(0.015625)"/>
       </defs>
       <use xlink:href="#DejaVuSans-34"/>
       <use xlink:href="#DejaVuSans-30" x="63.623047"/>
      </g>
     </g>
    </g>
    <g id="xtick_4">
     <g id="line2d_7">
      <path d="M 356.491261 311.115 
L 356.491261 10.8 
" clip-path="url(#p95dbca51c4)" style="fill: none; stroke: #b0b0b0; stroke-width: 0.8; stroke-linecap: square"/>
     </g>
     <g id="line2d_8">
      <g>
       <use xlink:href="#ma2268b8310" x="356.491261" y="311.115" style="stroke: #000000; stroke-width: 0.8"/>
      </g>
     </g>
     <g id="text_4">
      <!-- 60 -->
      <g transform="translate(350.128761 325.713437) scale(0.1 -0.1)">
       <defs>
        <path id="DejaVuSans-36" d="M 2113 2584 
Q 1688 2584 1439 2293 
Q 1191 2003 1191 1497 
Q 1191 994 1439 701 
Q 1688 409 2113 409 
Q 2538 409 2786 701 
Q 3034 994 3034 1497 
Q 3034 2003 2786 2293 
Q 2538 2584 2113 2584 
z
M 3366 4563 
L 3366 3988 
Q 3128 4100 2886 4159 
Q 2644 4219 2406 4219 
Q 1781 4219 1451 3797 
Q 1122 3375 1075 2522 
Q 1259 2794 1537 2939 
Q 1816 3084 2150 3084 
Q 2853 3084 3261 2657 
Q 3669 2231 3669 1497 
Q 3669 778 3244 343 
Q 2819 -91 2113 -91 
Q 1303 -91 875 529 
Q 447 1150 447 2328 
Q 447 3434 972 4092 
Q 1497 4750 2381 4750 
Q 2619 4750 2861 4703 
Q 3103 4656 3366 4563 
z
" transform="scale(0.015625)"/>
       </defs>
       <use xlink:href="#DejaVuSans-36"/>
       <use xlink:href="#DejaVuSans-30" x="63.623047"/>
      </g>
     </g>
    </g>
    <g id="xtick_5">
     <g id="line2d_9">
      <path d="M 451.683388 311.115 
L 451.683388 10.8 
" clip-path="url(#p95dbca51c4)" style="fill: none; stroke: #b0b0b0; stroke-width: 0.8; stroke-linecap: square"/>
     </g>
     <g id="line2d_10">
      <g>
       <use xlink:href="#ma2268b8310" x="451.683388" y="311.115" style="stroke: #000000; stroke-width: 0.8"/>
      </g>
     </g>
     <g id="text_5">
      <!-- 80 -->
      <g transform="translate(445.320888 325.713437) scale(0.1 -0.1)">
       <defs>
        <path id="DejaVuSans-38" d="M 2034 2216 
Q 1584 2216 1326 1975 
Q 1069 1734 1069 1313 
Q 1069 891 1326 650 
Q 1584 409 2034 409 
Q 2484 409 2743 651 
Q 3003 894 3003 1313 
Q 3003 1734 2745 1975 
Q 2488 2216 2034 2216 
z
M 1403 2484 
Q 997 2584 770 2862 
Q 544 3141 544 3541 
Q 544 4100 942 4425 
Q 1341 4750 2034 4750 
Q 2731 4750 3128 4425 
Q 3525 4100 3525 3541 
Q 3525 3141 3298 2862 
Q 3072 2584 2669 2484 
Q 3125 2378 3379 2068 
Q 3634 1759 3634 1313 
Q 3634 634 3220 271 
Q 2806 -91 2034 -91 
Q 1263 -91 848 271 
Q 434 634 434 1313 
Q 434 1759 690 2068 
Q 947 2378 1403 2484 
z
M 1172 3481 
Q 1172 3119 1398 2916 
Q 1625 2713 2034 2713 
Q 2441 2713 2670 2916 
Q 2900 3119 2900 3481 
Q 2900 3844 2670 4047 
Q 2441 4250 2034 4250 
Q 1625 4250 1398 4047 
Q 1172 3844 1172 3481 
z
" transform="scale(0.015625)"/>
       </defs>
       <use xlink:href="#DejaVuSans-38"/>
       <use xlink:href="#DejaVuSans-30" x="63.623047"/>
      </g>
     </g>
    </g>
    <g id="xtick_6">
     <g id="line2d_11">
      <path d="M 546.875515 311.115 
L 546.875515 10.8 
" clip-path="url(#p95dbca51c4)" style="fill: none; stroke: #b0b0b0; stroke-width: 0.8; stroke-linecap: square"/>
     </g>
     <g id="line2d_12">
      <g>
       <use xlink:href="#ma2268b8310" x="546.875515" y="311.115" style="stroke: #000000; stroke-width: 0.8"/>
      </g>
     </g>
     <g id="text_6">
      <!-- 100 -->
      <g transform="translate(537.331765 325.713437) scale(0.1 -0.1)">
       <defs>
        <path id="DejaVuSans-31" d="M 794 531 
L 1825 531 
L 1825 4091 
L 703 3866 
L 703 4441 
L 1819 4666 
L 2450 4666 
L 2450 531 
L 3481 531 
L 3481 0 
L 794 0 
L 794 531 
z
" transform="scale(0.015625)"/>
       </defs>
       <use xlink:href="#DejaVuSans-31"/>
       <use xlink:href="#DejaVuSans-30" x="63.623047"/>
       <use xlink:href="#DejaVuSans-30" x="127.246094"/>
      </g>
     </g>
    </g>
    <g id="text_7">
     <!-- Size GMM $\overline{M}$ -->
     <g transform="translate(268.855 342.881563) scale(0.14 -0.14)">
      <defs>
       <path id="DejaVuSans-53" d="M 3425 4513 
L 3425 3897 
Q 3066 4069 2747 4153 
Q 2428 4238 2131 4238 
Q 1616 4238 1336 4038 
Q 1056 3838 1056 3469 
Q 1056 3159 1242 3001 
Q 1428 2844 1947 2747 
L 2328 2669 
Q 3034 2534 3370 2195 
Q 3706 1856 3706 1288 
Q 3706 609 3251 259 
Q 2797 -91 1919 -91 
Q 1588 -91 1214 -16 
Q 841 59 441 206 
L 441 856 
Q 825 641 1194 531 
Q 1563 422 1919 422 
Q 2459 422 2753 634 
Q 3047 847 3047 1241 
Q 3047 1584 2836 1778 
Q 2625 1972 2144 2069 
L 1759 2144 
Q 1053 2284 737 2584 
Q 422 2884 422 3419 
Q 422 4038 858 4394 
Q 1294 4750 2059 4750 
Q 2388 4750 2728 4690 
Q 3069 4631 3425 4513 
z
" transform="scale(0.015625)"/>
       <path id="DejaVuSans-69" d="M 603 3500 
L 1178 3500 
L 1178 0 
L 603 0 
L 603 3500 
z
M 603 4863 
L 1178 4863 
L 1178 4134 
L 603 4134 
L 603 4863 
z
" transform="scale(0.015625)"/>
       <path id="DejaVuSans-7a" d="M 353 3500 
L 3084 3500 
L 3084 2975 
L 922 459 
L 3084 459 
L 3084 0 
L 275 0 
L 275 525 
L 2438 3041 
L 353 3041 
L 353 3500 
z
" transform="scale(0.015625)"/>
       <path id="DejaVuSans-65" d="M 3597 1894 
L 3597 1613 
L 953 1613 
Q 991 1019 1311 708 
Q 1631 397 2203 397 
Q 2534 397 2845 478 
Q 3156 559 3463 722 
L 3463 178 
Q 3153 47 2828 -22 
Q 2503 -91 2169 -91 
Q 1331 -91 842 396 
Q 353 884 353 1716 
Q 353 2575 817 3079 
Q 1281 3584 2069 3584 
Q 2775 3584 3186 3129 
Q 3597 2675 3597 1894 
z
M 3022 2063 
Q 3016 2534 2758 2815 
Q 2500 3097 2075 3097 
Q 1594 3097 1305 2825 
Q 1016 2553 972 2059 
L 3022 2063 
z
" transform="scale(0.015625)"/>
       <path id="DejaVuSans-20" transform="scale(0.015625)"/>
       <path id="DejaVuSans-47" d="M 3809 666 
L 3809 1919 
L 2778 1919 
L 2778 2438 
L 4434 2438 
L 4434 434 
Q 4069 175 3628 42 
Q 3188 -91 2688 -91 
Q 1594 -91 976 548 
Q 359 1188 359 2328 
Q 359 3472 976 4111 
Q 1594 4750 2688 4750 
Q 3144 4750 3555 4637 
Q 3966 4525 4313 4306 
L 4313 3634 
Q 3963 3931 3569 4081 
Q 3175 4231 2741 4231 
Q 1884 4231 1454 3753 
Q 1025 3275 1025 2328 
Q 1025 1384 1454 906 
Q 1884 428 2741 428 
Q 3075 428 3337 486 
Q 3600 544 3809 666 
z
" transform="scale(0.015625)"/>
       <path id="DejaVuSans-4d" d="M 628 4666 
L 1569 4666 
L 2759 1491 
L 3956 4666 
L 4897 4666 
L 4897 0 
L 4281 0 
L 4281 4097 
L 3078 897 
L 2444 897 
L 1241 4097 
L 1241 0 
L 628 0 
L 628 4666 
z
" transform="scale(0.015625)"/>
       <path id="DejaVuSans-Oblique-4d" d="M 1081 4666 
L 2028 4666 
L 2572 1522 
L 4378 4666 
L 5350 4666 
L 4441 0 
L 3828 0 
L 4622 4091 
L 2791 897 
L 2175 897 
L 1581 4103 
L 788 0 
L 172 0 
L 1081 4666 
z
" transform="scale(0.015625)"/>
      </defs>
      <use xlink:href="#DejaVuSans-53" transform="translate(0 0.34375)"/>
      <use xlink:href="#DejaVuSans-69" transform="translate(63.476562 0.34375)"/>
      <use xlink:href="#DejaVuSans-7a" transform="translate(91.259766 0.34375)"/>
      <use xlink:href="#DejaVuSans-65" transform="translate(143.75 0.34375)"/>
      <use xlink:href="#DejaVuSans-20" transform="translate(205.273438 0.34375)"/>
      <use xlink:href="#DejaVuSans-47" transform="translate(237.060547 0.34375)"/>
      <use xlink:href="#DejaVuSans-4d" transform="translate(314.550781 0.34375)"/>
      <use xlink:href="#DejaVuSans-4d" transform="translate(400.830078 0.34375)"/>
      <use xlink:href="#DejaVuSans-20" transform="translate(487.109375 0.34375)"/>
      <use xlink:href="#DejaVuSans-Oblique-4d" transform="translate(518.896484 0.84375)"/>
      <path d="M 518.896484 85.5 
L 518.896484 91.75 
L 605.175781 91.75 
L 605.175781 85.5 
L 518.896484 85.5 
z
"/>
     </g>
    </g>
   </g>
   <g id="matplotlib.axis_2">
    <g id="ytick_1">
     <g id="line2d_13">
      <path d="M 57.35 298.813528 
L 565.2 298.813528 
" clip-path="url(#p95dbca51c4)" style="fill: none; stroke: #b0b0b0; stroke-width: 0.8; stroke-linecap: square"/>
     </g>
     <g id="line2d_14">
      <defs>
       <path id="m7c3ed100ab" d="M 0 0 
L -3.5 0 
" style="stroke: #000000; stroke-width: 0.8"/>
      </defs>
      <g>
       <use xlink:href="#m7c3ed100ab" x="57.35" y="298.813528" style="stroke: #000000; stroke-width: 0.8"/>
      </g>
     </g>
     <g id="text_8">
      <!-- 20 -->
      <g transform="translate(37.625 302.612747) scale(0.1 -0.1)">
       <use xlink:href="#DejaVuSans-32"/>
       <use xlink:href="#DejaVuSans-30" x="63.623047"/>
      </g>
     </g>
    </g>
    <g id="ytick_2">
     <g id="line2d_15">
      <path d="M 57.35 265.083285 
L 565.2 265.083285 
" clip-path="url(#p95dbca51c4)" style="fill: none; stroke: #b0b0b0; stroke-width: 0.8; stroke-linecap: square"/>
     </g>
     <g id="line2d_16">
      <g>
       <use xlink:href="#m7c3ed100ab" x="57.35" y="265.083285" style="stroke: #000000; stroke-width: 0.8"/>
      </g>
     </g>
     <g id="text_9">
      <!-- 30 -->
      <g transform="translate(37.625 268.882504) scale(0.1 -0.1)">
       <defs>
        <path id="DejaVuSans-33" d="M 2597 2516 
Q 3050 2419 3304 2112 
Q 3559 1806 3559 1356 
Q 3559 666 3084 287 
Q 2609 -91 1734 -91 
Q 1441 -91 1130 -33 
Q 819 25 488 141 
L 488 750 
Q 750 597 1062 519 
Q 1375 441 1716 441 
Q 2309 441 2620 675 
Q 2931 909 2931 1356 
Q 2931 1769 2642 2001 
Q 2353 2234 1838 2234 
L 1294 2234 
L 1294 2753 
L 1863 2753 
Q 2328 2753 2575 2939 
Q 2822 3125 2822 3475 
Q 2822 3834 2567 4026 
Q 2313 4219 1838 4219 
Q 1578 4219 1281 4162 
Q 984 4106 628 3988 
L 628 4550 
Q 988 4650 1302 4700 
Q 1616 4750 1894 4750 
Q 2613 4750 3031 4423 
Q 3450 4097 3450 3541 
Q 3450 3153 3228 2886 
Q 3006 2619 2597 2516 
z
" transform="scale(0.015625)"/>
       </defs>
       <use xlink:href="#DejaVuSans-33"/>
       <use xlink:href="#DejaVuSans-30" x="63.623047"/>
      </g>
     </g>
    </g>
    <g id="ytick_3">
     <g id="line2d_17">
      <path d="M 57.35 231.353043 
L 565.2 231.353043 
" clip-path="url(#p95dbca51c4)" style="fill: none; stroke: #b0b0b0; stroke-width: 0.8; stroke-linecap: square"/>
     </g>
     <g id="line2d_18">
      <g>
       <use xlink:href="#m7c3ed100ab" x="57.35" y="231.353043" style="stroke: #000000; stroke-width: 0.8"/>
      </g>
     </g>
     <g id="text_10">
      <!-- 40 -->
      <g transform="translate(37.625 235.152262) scale(0.1 -0.1)">
       <use xlink:href="#DejaVuSans-34"/>
       <use xlink:href="#DejaVuSans-30" x="63.623047"/>
      </g>
     </g>
    </g>
    <g id="ytick_4">
     <g id="line2d_19">
      <path d="M 57.35 197.6228 
L 565.2 197.6228 
" clip-path="url(#p95dbca51c4)" style="fill: none; stroke: #b0b0b0; stroke-width: 0.8; stroke-linecap: square"/>
     </g>
     <g id="line2d_20">
      <g>
       <use xlink:href="#m7c3ed100ab" x="57.35" y="197.6228" style="stroke: #000000; stroke-width: 0.8"/>
      </g>
     </g>
     <g id="text_11">
      <!-- 50 -->
      <g transform="translate(37.625 201.422019) scale(0.1 -0.1)">
       <defs>
        <path id="DejaVuSans-35" d="M 691 4666 
L 3169 4666 
L 3169 4134 
L 1269 4134 
L 1269 2991 
Q 1406 3038 1543 3061 
Q 1681 3084 1819 3084 
Q 2600 3084 3056 2656 
Q 3513 2228 3513 1497 
Q 3513 744 3044 326 
Q 2575 -91 1722 -91 
Q 1428 -91 1123 -41 
Q 819 9 494 109 
L 494 744 
Q 775 591 1075 516 
Q 1375 441 1709 441 
Q 2250 441 2565 725 
Q 2881 1009 2881 1497 
Q 2881 1984 2565 2268 
Q 2250 2553 1709 2553 
Q 1456 2553 1204 2497 
Q 953 2441 691 2322 
L 691 4666 
z
" transform="scale(0.015625)"/>
       </defs>
       <use xlink:href="#DejaVuSans-35"/>
       <use xlink:href="#DejaVuSans-30" x="63.623047"/>
      </g>
     </g>
    </g>
    <g id="ytick_5">
     <g id="line2d_21">
      <path d="M 57.35 163.892558 
L 565.2 163.892558 
" clip-path="url(#p95dbca51c4)" style="fill: none; stroke: #b0b0b0; stroke-width: 0.8; stroke-linecap: square"/>
     </g>
     <g id="line2d_22">
      <g>
       <use xlink:href="#m7c3ed100ab" x="57.35" y="163.892558" style="stroke: #000000; stroke-width: 0.8"/>
      </g>
     </g>
     <g id="text_12">
      <!-- 60 -->
      <g transform="translate(37.625 167.691777) scale(0.1 -0.1)">
       <use xlink:href="#DejaVuSans-36"/>
       <use xlink:href="#DejaVuSans-30" x="63.623047"/>
      </g>
     </g>
    </g>
    <g id="ytick_6">
     <g id="line2d_23">
      <path d="M 57.35 130.162316 
L 565.2 130.162316 
" clip-path="url(#p95dbca51c4)" style="fill: none; stroke: #b0b0b0; stroke-width: 0.8; stroke-linecap: square"/>
     </g>
     <g id="line2d_24">
      <g>
       <use xlink:href="#m7c3ed100ab" x="57.35" y="130.162316" style="stroke: #000000; stroke-width: 0.8"/>
      </g>
     </g>
     <g id="text_13">
      <!-- 70 -->
      <g transform="translate(37.625 133.961534) scale(0.1 -0.1)">
       <defs>
        <path id="DejaVuSans-37" d="M 525 4666 
L 3525 4666 
L 3525 4397 
L 1831 0 
L 1172 0 
L 2766 4134 
L 525 4134 
L 525 4666 
z
" transform="scale(0.015625)"/>
       </defs>
       <use xlink:href="#DejaVuSans-37"/>
       <use xlink:href="#DejaVuSans-30" x="63.623047"/>
      </g>
     </g>
    </g>
    <g id="ytick_7">
     <g id="line2d_25">
      <path d="M 57.35 96.432073 
L 565.2 96.432073 
" clip-path="url(#p95dbca51c4)" style="fill: none; stroke: #b0b0b0; stroke-width: 0.8; stroke-linecap: square"/>
     </g>
     <g id="line2d_26">
      <g>
       <use xlink:href="#m7c3ed100ab" x="57.35" y="96.432073" style="stroke: #000000; stroke-width: 0.8"/>
      </g>
     </g>
     <g id="text_14">
      <!-- 80 -->
      <g transform="translate(37.625 100.231292) scale(0.1 -0.1)">
       <use xlink:href="#DejaVuSans-38"/>
       <use xlink:href="#DejaVuSans-30" x="63.623047"/>
      </g>
     </g>
    </g>
    <g id="ytick_8">
     <g id="line2d_27">
      <path d="M 57.35 62.701831 
L 565.2 62.701831 
" clip-path="url(#p95dbca51c4)" style="fill: none; stroke: #b0b0b0; stroke-width: 0.8; stroke-linecap: square"/>
     </g>
     <g id="line2d_28">
      <g>
       <use xlink:href="#m7c3ed100ab" x="57.35" y="62.701831" style="stroke: #000000; stroke-width: 0.8"/>
      </g>
     </g>
     <g id="text_15">
      <!-- 90 -->
      <g transform="translate(37.625 66.501049) scale(0.1 -0.1)">
       <defs>
        <path id="DejaVuSans-39" d="M 703 97 
L 703 672 
Q 941 559 1184 500 
Q 1428 441 1663 441 
Q 2288 441 2617 861 
Q 2947 1281 2994 2138 
Q 2813 1869 2534 1725 
Q 2256 1581 1919 1581 
Q 1219 1581 811 2004 
Q 403 2428 403 3163 
Q 403 3881 828 4315 
Q 1253 4750 1959 4750 
Q 2769 4750 3195 4129 
Q 3622 3509 3622 2328 
Q 3622 1225 3098 567 
Q 2575 -91 1691 -91 
Q 1453 -91 1209 -44 
Q 966 3 703 97 
z
M 1959 2075 
Q 2384 2075 2632 2365 
Q 2881 2656 2881 3163 
Q 2881 3666 2632 3958 
Q 2384 4250 1959 4250 
Q 1534 4250 1286 3958 
Q 1038 3666 1038 3163 
Q 1038 2656 1286 2365 
Q 1534 2075 1959 2075 
z
" transform="scale(0.015625)"/>
       </defs>
       <use xlink:href="#DejaVuSans-39"/>
       <use xlink:href="#DejaVuSans-30" x="63.623047"/>
      </g>
     </g>
    </g>
    <g id="ytick_9">
     <g id="line2d_29">
      <path d="M 57.35 28.971588 
L 565.2 28.971588 
" clip-path="url(#p95dbca51c4)" style="fill: none; stroke: #b0b0b0; stroke-width: 0.8; stroke-linecap: square"/>
     </g>
     <g id="line2d_30">
      <g>
       <use xlink:href="#m7c3ed100ab" x="57.35" y="28.971588" style="stroke: #000000; stroke-width: 0.8"/>
      </g>
     </g>
     <g id="text_16">
      <!-- 100 -->
      <g transform="translate(31.2625 32.770807) scale(0.1 -0.1)">
       <use xlink:href="#DejaVuSans-31"/>
       <use xlink:href="#DejaVuSans-30" x="63.623047"/>
       <use xlink:href="#DejaVuSans-30" x="127.246094"/>
      </g>
     </g>
    </g>
    <g id="text_17">
     <!-- Total number of grid locations $M$ -->
     <g transform="translate(24.3225 274.9175) rotate(-90) scale(0.14 -0.14)">
      <defs>
       <path id="DejaVuSans-54" d="M -19 4666 
L 3928 4666 
L 3928 4134 
L 2272 4134 
L 2272 0 
L 1638 0 
L 1638 4134 
L -19 4134 
L -19 4666 
z
" transform="scale(0.015625)"/>
       <path id="DejaVuSans-6f" d="M 1959 3097 
Q 1497 3097 1228 2736 
Q 959 2375 959 1747 
Q 959 1119 1226 758 
Q 1494 397 1959 397 
Q 2419 397 2687 759 
Q 2956 1122 2956 1747 
Q 2956 2369 2687 2733 
Q 2419 3097 1959 3097 
z
M 1959 3584 
Q 2709 3584 3137 3096 
Q 3566 2609 3566 1747 
Q 3566 888 3137 398 
Q 2709 -91 1959 -91 
Q 1206 -91 779 398 
Q 353 888 353 1747 
Q 353 2609 779 3096 
Q 1206 3584 1959 3584 
z
" transform="scale(0.015625)"/>
       <path id="DejaVuSans-74" d="M 1172 4494 
L 1172 3500 
L 2356 3500 
L 2356 3053 
L 1172 3053 
L 1172 1153 
Q 1172 725 1289 603 
Q 1406 481 1766 481 
L 2356 481 
L 2356 0 
L 1766 0 
Q 1100 0 847 248 
Q 594 497 594 1153 
L 594 3053 
L 172 3053 
L 172 3500 
L 594 3500 
L 594 4494 
L 1172 4494 
z
" transform="scale(0.015625)"/>
       <path id="DejaVuSans-61" d="M 2194 1759 
Q 1497 1759 1228 1600 
Q 959 1441 959 1056 
Q 959 750 1161 570 
Q 1363 391 1709 391 
Q 2188 391 2477 730 
Q 2766 1069 2766 1631 
L 2766 1759 
L 2194 1759 
z
M 3341 1997 
L 3341 0 
L 2766 0 
L 2766 531 
Q 2569 213 2275 61 
Q 1981 -91 1556 -91 
Q 1019 -91 701 211 
Q 384 513 384 1019 
Q 384 1609 779 1909 
Q 1175 2209 1959 2209 
L 2766 2209 
L 2766 2266 
Q 2766 2663 2505 2880 
Q 2244 3097 1772 3097 
Q 1472 3097 1187 3025 
Q 903 2953 641 2809 
L 641 3341 
Q 956 3463 1253 3523 
Q 1550 3584 1831 3584 
Q 2591 3584 2966 3190 
Q 3341 2797 3341 1997 
z
" transform="scale(0.015625)"/>
       <path id="DejaVuSans-6c" d="M 603 4863 
L 1178 4863 
L 1178 0 
L 603 0 
L 603 4863 
z
" transform="scale(0.015625)"/>
       <path id="DejaVuSans-6e" d="M 3513 2113 
L 3513 0 
L 2938 0 
L 2938 2094 
Q 2938 2591 2744 2837 
Q 2550 3084 2163 3084 
Q 1697 3084 1428 2787 
Q 1159 2491 1159 1978 
L 1159 0 
L 581 0 
L 581 3500 
L 1159 3500 
L 1159 2956 
Q 1366 3272 1645 3428 
Q 1925 3584 2291 3584 
Q 2894 3584 3203 3211 
Q 3513 2838 3513 2113 
z
" transform="scale(0.015625)"/>
       <path id="DejaVuSans-75" d="M 544 1381 
L 544 3500 
L 1119 3500 
L 1119 1403 
Q 1119 906 1312 657 
Q 1506 409 1894 409 
Q 2359 409 2629 706 
Q 2900 1003 2900 1516 
L 2900 3500 
L 3475 3500 
L 3475 0 
L 2900 0 
L 2900 538 
Q 2691 219 2414 64 
Q 2138 -91 1772 -91 
Q 1169 -91 856 284 
Q 544 659 544 1381 
z
M 1991 3584 
L 1991 3584 
z
" transform="scale(0.015625)"/>
       <path id="DejaVuSans-6d" d="M 3328 2828 
Q 3544 3216 3844 3400 
Q 4144 3584 4550 3584 
Q 5097 3584 5394 3201 
Q 5691 2819 5691 2113 
L 5691 0 
L 5113 0 
L 5113 2094 
Q 5113 2597 4934 2840 
Q 4756 3084 4391 3084 
Q 3944 3084 3684 2787 
Q 3425 2491 3425 1978 
L 3425 0 
L 2847 0 
L 2847 2094 
Q 2847 2600 2669 2842 
Q 2491 3084 2119 3084 
Q 1678 3084 1418 2786 
Q 1159 2488 1159 1978 
L 1159 0 
L 581 0 
L 581 3500 
L 1159 3500 
L 1159 2956 
Q 1356 3278 1631 3431 
Q 1906 3584 2284 3584 
Q 2666 3584 2933 3390 
Q 3200 3197 3328 2828 
z
" transform="scale(0.015625)"/>
       <path id="DejaVuSans-62" d="M 3116 1747 
Q 3116 2381 2855 2742 
Q 2594 3103 2138 3103 
Q 1681 3103 1420 2742 
Q 1159 2381 1159 1747 
Q 1159 1113 1420 752 
Q 1681 391 2138 391 
Q 2594 391 2855 752 
Q 3116 1113 3116 1747 
z
M 1159 2969 
Q 1341 3281 1617 3432 
Q 1894 3584 2278 3584 
Q 2916 3584 3314 3078 
Q 3713 2572 3713 1747 
Q 3713 922 3314 415 
Q 2916 -91 2278 -91 
Q 1894 -91 1617 61 
Q 1341 213 1159 525 
L 1159 0 
L 581 0 
L 581 4863 
L 1159 4863 
L 1159 2969 
z
" transform="scale(0.015625)"/>
       <path id="DejaVuSans-72" d="M 2631 2963 
Q 2534 3019 2420 3045 
Q 2306 3072 2169 3072 
Q 1681 3072 1420 2755 
Q 1159 2438 1159 1844 
L 1159 0 
L 581 0 
L 581 3500 
L 1159 3500 
L 1159 2956 
Q 1341 3275 1631 3429 
Q 1922 3584 2338 3584 
Q 2397 3584 2469 3576 
Q 2541 3569 2628 3553 
L 2631 2963 
z
" transform="scale(0.015625)"/>
       <path id="DejaVuSans-66" d="M 2375 4863 
L 2375 4384 
L 1825 4384 
Q 1516 4384 1395 4259 
Q 1275 4134 1275 3809 
L 1275 3500 
L 2222 3500 
L 2222 3053 
L 1275 3053 
L 1275 0 
L 697 0 
L 697 3053 
L 147 3053 
L 147 3500 
L 697 3500 
L 697 3744 
Q 697 4328 969 4595 
Q 1241 4863 1831 4863 
L 2375 4863 
z
" transform="scale(0.015625)"/>
       <path id="DejaVuSans-67" d="M 2906 1791 
Q 2906 2416 2648 2759 
Q 2391 3103 1925 3103 
Q 1463 3103 1205 2759 
Q 947 2416 947 1791 
Q 947 1169 1205 825 
Q 1463 481 1925 481 
Q 2391 481 2648 825 
Q 2906 1169 2906 1791 
z
M 3481 434 
Q 3481 -459 3084 -895 
Q 2688 -1331 1869 -1331 
Q 1566 -1331 1297 -1286 
Q 1028 -1241 775 -1147 
L 775 -588 
Q 1028 -725 1275 -790 
Q 1522 -856 1778 -856 
Q 2344 -856 2625 -561 
Q 2906 -266 2906 331 
L 2906 616 
Q 2728 306 2450 153 
Q 2172 0 1784 0 
Q 1141 0 747 490 
Q 353 981 353 1791 
Q 353 2603 747 3093 
Q 1141 3584 1784 3584 
Q 2172 3584 2450 3431 
Q 2728 3278 2906 2969 
L 2906 3500 
L 3481 3500 
L 3481 434 
z
" transform="scale(0.015625)"/>
       <path id="DejaVuSans-64" d="M 2906 2969 
L 2906 4863 
L 3481 4863 
L 3481 0 
L 2906 0 
L 2906 525 
Q 2725 213 2448 61 
Q 2172 -91 1784 -91 
Q 1150 -91 751 415 
Q 353 922 353 1747 
Q 353 2572 751 3078 
Q 1150 3584 1784 3584 
Q 2172 3584 2448 3432 
Q 2725 3281 2906 2969 
z
M 947 1747 
Q 947 1113 1208 752 
Q 1469 391 1925 391 
Q 2381 391 2643 752 
Q 2906 1113 2906 1747 
Q 2906 2381 2643 2742 
Q 2381 3103 1925 3103 
Q 1469 3103 1208 2742 
Q 947 2381 947 1747 
z
" transform="scale(0.015625)"/>
       <path id="DejaVuSans-63" d="M 3122 3366 
L 3122 2828 
Q 2878 2963 2633 3030 
Q 2388 3097 2138 3097 
Q 1578 3097 1268 2742 
Q 959 2388 959 1747 
Q 959 1106 1268 751 
Q 1578 397 2138 397 
Q 2388 397 2633 464 
Q 2878 531 3122 666 
L 3122 134 
Q 2881 22 2623 -34 
Q 2366 -91 2075 -91 
Q 1284 -91 818 406 
Q 353 903 353 1747 
Q 353 2603 823 3093 
Q 1294 3584 2113 3584 
Q 2378 3584 2631 3529 
Q 2884 3475 3122 3366 
z
" transform="scale(0.015625)"/>
       <path id="DejaVuSans-73" d="M 2834 3397 
L 2834 2853 
Q 2591 2978 2328 3040 
Q 2066 3103 1784 3103 
Q 1356 3103 1142 2972 
Q 928 2841 928 2578 
Q 928 2378 1081 2264 
Q 1234 2150 1697 2047 
L 1894 2003 
Q 2506 1872 2764 1633 
Q 3022 1394 3022 966 
Q 3022 478 2636 193 
Q 2250 -91 1575 -91 
Q 1294 -91 989 -36 
Q 684 19 347 128 
L 347 722 
Q 666 556 975 473 
Q 1284 391 1588 391 
Q 1994 391 2212 530 
Q 2431 669 2431 922 
Q 2431 1156 2273 1281 
Q 2116 1406 1581 1522 
L 1381 1569 
Q 847 1681 609 1914 
Q 372 2147 372 2553 
Q 372 3047 722 3315 
Q 1072 3584 1716 3584 
Q 2034 3584 2315 3537 
Q 2597 3491 2834 3397 
z
" transform="scale(0.015625)"/>
      </defs>
      <use xlink:href="#DejaVuSans-54" transform="translate(0 0.015625)"/>
      <use xlink:href="#DejaVuSans-6f" transform="translate(61.083984 0.015625)"/>
      <use xlink:href="#DejaVuSans-74" transform="translate(122.265625 0.015625)"/>
      <use xlink:href="#DejaVuSans-61" transform="translate(161.474609 0.015625)"/>
      <use xlink:href="#DejaVuSans-6c" transform="translate(222.753906 0.015625)"/>
      <use xlink:href="#DejaVuSans-20" transform="translate(250.537109 0.015625)"/>
      <use xlink:href="#DejaVuSans-6e" transform="translate(282.324219 0.015625)"/>
      <use xlink:href="#DejaVuSans-75" transform="translate(345.703125 0.015625)"/>
      <use xlink:href="#DejaVuSans-6d" transform="translate(409.082031 0.015625)"/>
      <use xlink:href="#DejaVuSans-62" transform="translate(506.494141 0.015625)"/>
      <use xlink:href="#DejaVuSans-65" transform="translate(569.970703 0.015625)"/>
      <use xlink:href="#DejaVuSans-72" transform="translate(631.494141 0.015625)"/>
      <use xlink:href="#DejaVuSans-20" transform="translate(672.607422 0.015625)"/>
      <use xlink:href="#DejaVuSans-6f" transform="translate(704.394531 0.015625)"/>
      <use xlink:href="#DejaVuSans-66" transform="translate(765.576172 0.015625)"/>
      <use xlink:href="#DejaVuSans-20" transform="translate(800.78125 0.015625)"/>
      <use xlink:href="#DejaVuSans-67" transform="translate(832.568359 0.015625)"/>
      <use xlink:href="#DejaVuSans-72" transform="translate(896.044922 0.015625)"/>
      <use xlink:href="#DejaVuSans-69" transform="translate(937.158203 0.015625)"/>
      <use xlink:href="#DejaVuSans-64" transform="translate(964.941406 0.015625)"/>
      <use xlink:href="#DejaVuSans-20" transform="translate(1028.417969 0.015625)"/>
      <use xlink:href="#DejaVuSans-6c" transform="translate(1060.205078 0.015625)"/>
      <use xlink:href="#DejaVuSans-6f" transform="translate(1087.988281 0.015625)"/>
      <use xlink:href="#DejaVuSans-63" transform="translate(1149.169922 0.015625)"/>
      <use xlink:href="#DejaVuSans-61" transform="translate(1204.150391 0.015625)"/>
      <use xlink:href="#DejaVuSans-74" transform="translate(1265.429688 0.015625)"/>
      <use xlink:href="#DejaVuSans-69" transform="translate(1304.638672 0.015625)"/>
      <use xlink:href="#DejaVuSans-6f" transform="translate(1332.421875 0.015625)"/>
      <use xlink:href="#DejaVuSans-6e" transform="translate(1393.603516 0.015625)"/>
      <use xlink:href="#DejaVuSans-73" transform="translate(1456.982422 0.015625)"/>
      <use xlink:href="#DejaVuSans-20" transform="translate(1509.082031 0.015625)"/>
      <use xlink:href="#DejaVuSans-Oblique-4d" transform="translate(1540.869141 0.015625)"/>
     </g>
    </g>
   </g>
   <g id="line2d_31">
    <path d="M 80.434091 29.308891 
L 85.193697 26.610471 
L 89.953304 28.634286 
L 94.71291 27.622378 
L 99.472516 26.947774 
L 104.232123 27.622378 
L 108.991729 27.285076 
L 113.751336 26.610471 
L 118.510942 25.935866 
L 123.270548 28.634286 
L 128.030155 26.947774 
L 132.789761 26.610471 
L 137.549367 26.947774 
L 142.308974 26.273169 
L 147.06858 25.598564 
L 151.828187 26.273169 
L 156.587793 25.598564 
L 161.347399 25.598564 
L 166.107006 26.273169 
L 170.866612 26.273169 
L 175.626218 26.610471 
L 180.385825 26.273169 
L 185.145431 26.273169 
L 189.905037 26.947774 
L 194.664644 26.947774 
L 199.42425 26.610471 
L 204.183857 25.935866 
L 208.943463 25.935866 
L 213.703069 25.935866 
L 218.462676 25.935866 
L 223.222282 25.935866 
L 227.981888 25.935866 
L 232.741495 25.598564 
L 237.501101 25.598564 
L 242.260708 25.935866 
L 247.020314 25.598564 
L 251.77992 25.935866 
L 256.539527 25.598564 
L 261.299133 25.598564 
L 266.058739 25.598564 
L 270.818346 26.273169 
L 275.577952 25.598564 
L 280.337559 25.598564 
L 285.097165 25.598564 
L 289.856771 25.598564 
L 294.616378 25.598564 
L 299.375984 25.935866 
L 304.13559 25.598564 
L 308.895197 25.598564 
L 313.654803 25.598564 
L 318.41441 25.935866 
L 323.174016 25.598564 
L 327.933622 25.598564 
L 332.693229 25.598564 
L 337.452835 25.935866 
L 342.212441 25.598564 
L 346.972048 25.598564 
L 351.731654 25.598564 
L 356.491261 25.598564 
L 361.250867 25.935866 
L 366.010473 25.598564 
L 370.77008 25.935866 
L 375.529686 25.598564 
L 380.289292 25.598564 
L 385.048899 25.598564 
L 389.808505 25.598564 
L 394.568112 25.598564 
L 399.327718 25.598564 
L 404.087324 25.598564 
L 408.846931 25.598564 
L 413.606537 25.598564 
L 418.366143 25.598564 
L 423.12575 25.598564 
L 427.885356 25.598564 
L 432.644963 25.598564 
L 437.404569 25.598564 
L 442.164175 25.598564 
L 446.923782 25.598564 
L 451.683388 25.598564 
L 456.442994 25.598564 
L 461.202601 25.598564 
L 465.962207 25.598564 
L 470.721813 25.935866 
L 475.48142 25.598564 
L 480.241026 25.598564 
L 485.000633 25.598564 
L 489.760239 25.598564 
L 494.519845 25.598564 
L 499.279452 25.598564 
L 504.039058 25.598564 
L 508.798664 25.598564 
L 513.558271 25.598564 
L 518.317877 25.598564 
L 523.077484 25.598564 
L 527.83709 25.598564 
L 532.596696 25.598564 
L 537.356303 25.598564 
L 542.115909 25.598564 
" clip-path="url(#p95dbca51c4)" style="fill: none; stroke: #0000ff; stroke-width: 2; stroke-linecap: square"/>
   </g>
   <g id="line2d_32">
    <path d="M 80.434091 27.492461 
L 85.193697 24.450682 
L 89.953304 26.817857 
L 94.71291 25.384967 
L 99.472516 25.295336 
L 104.232123 25.384967 
L 108.991729 25.598564 
L 113.751336 25.064757 
L 118.510942 24.923959 
L 123.270548 26.817857 
L 128.030155 25.295336 
L 132.789761 25.064757 
L 137.549367 25.295336 
L 142.308974 24.923959 
L 147.06858 25.598564 
L 151.828187 24.923959 
L 156.587793 25.598564 
L 161.347399 25.598564 
L 166.107006 24.923959 
L 170.866612 24.923959 
L 175.626218 25.064757 
L 180.385825 24.923959 
L 185.145431 24.923959 
L 189.905037 25.295336 
L 194.664644 25.295336 
L 199.42425 25.064757 
L 204.183857 24.923959 
L 208.943463 24.923959 
L 213.703069 24.923959 
L 218.462676 24.923959 
L 223.222282 24.923959 
L 227.981888 24.923959 
L 232.741495 25.598564 
L 237.501101 25.598564 
L 242.260708 24.923959 
L 247.020314 25.598564 
L 251.77992 24.923959 
L 256.539527 25.598564 
L 261.299133 25.598564 
L 266.058739 25.598564 
L 270.818346 24.923959 
L 275.577952 25.598564 
L 280.337559 25.598564 
L 285.097165 25.598564 
L 289.856771 25.598564 
L 294.616378 25.598564 
L 299.375984 24.923959 
L 304.13559 25.598564 
L 308.895197 25.598564 
L 313.654803 25.598564 
L 318.41441 24.923959 
L 323.174016 25.598564 
L 327.933622 25.598564 
L 332.693229 25.598564 
L 337.452835 24.923959 
L 342.212441 25.598564 
L 346.972048 25.598564 
L 351.731654 25.598564 
L 356.491261 25.598564 
L 361.250867 24.923959 
L 366.010473 25.598564 
L 370.77008 24.923959 
L 375.529686 25.598564 
L 380.289292 25.598564 
L 385.048899 25.598564 
L 389.808505 25.598564 
L 394.568112 25.598564 
L 399.327718 25.598564 
L 404.087324 25.598564 
L 408.846931 25.598564 
L 413.606537 25.598564 
L 418.366143 25.598564 
L 423.12575 25.598564 
L 427.885356 25.598564 
L 432.644963 25.598564 
L 437.404569 25.598564 
L 442.164175 25.598564 
L 446.923782 25.598564 
L 451.683388 25.598564 
L 456.442994 25.598564 
L 461.202601 25.598564 
L 465.962207 25.598564 
L 470.721813 24.923959 
L 475.48142 25.598564 
L 480.241026 25.598564 
L 485.000633 25.598564 
L 489.760239 25.598564 
L 494.519845 25.598564 
L 499.279452 25.598564 
L 504.039058 25.598564 
L 508.798664 25.598564 
L 513.558271 25.598564 
L 518.317877 25.598564 
L 523.077484 25.598564 
L 527.83709 25.598564 
L 532.596696 25.598564 
L 537.356303 25.598564 
L 542.115909 25.598564 
" clip-path="url(#p95dbca51c4)" style="fill: none; stroke-dasharray: 3.7,1.6; stroke-dashoffset: 0; stroke: #0000ff"/>
   </g>
   <g id="line2d_33">
    <path d="M 80.434091 31.12532 
L 85.193697 28.77026 
L 89.953304 30.450715 
L 94.71291 29.85979 
L 99.472516 28.600211 
L 104.232123 29.85979 
L 108.991729 28.971588 
L 113.751336 28.156185 
L 118.510942 26.947774 
L 123.270548 30.450715 
L 128.030155 28.600211 
L 132.789761 28.156185 
L 137.549367 28.600211 
L 142.308974 27.622378 
L 147.06858 25.598564 
L 151.828187 27.622378 
L 156.587793 25.598564 
L 161.347399 25.598564 
L 166.107006 27.622378 
L 170.866612 27.622378 
L 175.626218 28.156185 
L 180.385825 27.622378 
L 185.145431 27.622378 
L 189.905037 28.600211 
L 194.664644 28.600211 
L 199.42425 28.156185 
L 204.183857 26.947774 
L 208.943463 26.947774 
L 213.703069 26.947774 
L 218.462676 26.947774 
L 223.222282 26.947774 
L 227.981888 26.947774 
L 232.741495 25.598564 
L 237.501101 25.598564 
L 242.260708 26.947774 
L 247.020314 25.598564 
L 251.77992 26.947774 
L 256.539527 25.598564 
L 261.299133 25.598564 
L 266.058739 25.598564 
L 270.818346 27.622378 
L 275.577952 25.598564 
L 280.337559 25.598564 
L 285.097165 25.598564 
L 289.856771 25.598564 
L 294.616378 25.598564 
L 299.375984 26.947774 
L 304.13559 25.598564 
L 308.895197 25.598564 
L 313.654803 25.598564 
L 318.41441 26.947774 
L 323.174016 25.598564 
L 327.933622 25.598564 
L 332.693229 25.598564 
L 337.452835 26.947774 
L 342.212441 25.598564 
L 346.972048 25.598564 
L 351.731654 25.598564 
L 356.491261 25.598564 
L 361.250867 26.947774 
L 366.010473 25.598564 
L 370.77008 26.947774 
L 375.529686 25.598564 
L 380.289292 25.598564 
L 385.048899 25.598564 
L 389.808505 25.598564 
L 394.568112 25.598564 
L 399.327718 25.598564 
L 404.087324 25.598564 
L 408.846931 25.598564 
L 413.606537 25.598564 
L 418.366143 25.598564 
L 423.12575 25.598564 
L 427.885356 25.598564 
L 432.644963 25.598564 
L 437.404569 25.598564 
L 442.164175 25.598564 
L 446.923782 25.598564 
L 451.683388 25.598564 
L 456.442994 25.598564 
L 461.202601 25.598564 
L 465.962207 25.598564 
L 470.721813 26.947774 
L 475.48142 25.598564 
L 480.241026 25.598564 
L 485.000633 25.598564 
L 489.760239 25.598564 
L 494.519845 25.598564 
L 499.279452 25.598564 
L 504.039058 25.598564 
L 508.798664 25.598564 
L 513.558271 25.598564 
L 518.317877 25.598564 
L 523.077484 25.598564 
L 527.83709 25.598564 
L 532.596696 25.598564 
L 537.356303 25.598564 
L 542.115909 25.598564 
" clip-path="url(#p95dbca51c4)" style="fill: none; stroke-dasharray: 3.7,1.6; stroke-dashoffset: 0; stroke: #0000ff"/>
   </g>
   <g id="line2d_34">
    <path d="M 80.434091 34.705729 
L 85.193697 67.424065 
L 89.953304 99.805097 
L 94.71291 33.019217 
L 99.472516 171.650514 
L 104.232123 137.582969 
L 108.991729 105.201936 
L 113.751336 74.844718 
L 118.510942 39.090661 
L 123.270548 199.309313 
L 128.030155 185.142611 
L 132.789761 170.975909 
L 137.549367 157.821114 
L 142.308974 145.678227 
L 147.06858 127.126594 
L 151.828187 114.983706 
L 156.587793 96.094771 
L 161.347399 86.987605 
L 166.107006 62.701831 
L 170.866612 293.416689 
L 175.626218 290.043665 
L 180.385825 288.694455 
L 185.145431 279.249987 
L 189.905037 280.936499 
L 194.664644 278.575382 
L 199.42425 275.202358 
L 204.183857 271.829334 
L 208.943463 268.45631 
L 213.703069 265.083285 
L 218.462676 261.710261 
L 223.222282 258.337237 
L 227.981888 254.964213 
L 232.741495 251.591188 
L 237.501101 248.218164 
L 242.260708 244.84514 
L 247.020314 241.472116 
L 251.77992 238.099091 
L 256.539527 234.726067 
L 261.299133 231.353043 
L 266.058739 227.980019 
L 270.818346 224.606994 
L 275.577952 221.23397 
L 280.337559 217.860946 
L 285.097165 214.487922 
L 289.856771 211.114897 
L 294.616378 207.741873 
L 299.375984 204.368849 
L 304.13559 200.995825 
L 308.895197 197.6228 
L 313.654803 194.249776 
L 318.41441 190.876752 
L 323.174016 187.503728 
L 327.933622 184.130703 
L 332.693229 180.757679 
L 337.452835 177.384655 
L 342.212441 174.011631 
L 346.972048 170.638606 
L 351.731654 167.265582 
L 356.491261 163.892558 
L 361.250867 160.519534 
L 366.010473 157.14651 
L 370.77008 153.773485 
L 375.529686 150.400461 
L 380.289292 147.027437 
L 385.048899 143.654413 
L 389.808505 140.281388 
L 394.568112 136.908364 
L 399.327718 133.53534 
L 404.087324 130.162316 
L 408.846931 126.789291 
L 413.606537 123.416267 
L 418.366143 120.043243 
L 423.12575 116.670219 
L 427.885356 113.297194 
L 432.644963 109.92417 
L 437.404569 106.551146 
L 442.164175 103.178122 
L 446.923782 99.805097 
L 451.683388 96.432073 
L 456.442994 93.059049 
L 461.202601 89.686025 
L 465.962207 86.313 
L 470.721813 82.939976 
L 475.48142 79.566952 
L 480.241026 76.193928 
L 485.000633 72.820903 
L 489.760239 69.447879 
L 494.519845 66.074855 
L 499.279452 62.701831 
L 504.039058 59.328806 
L 508.798664 55.955782 
L 513.558271 52.582758 
L 518.317877 49.209734 
L 523.077484 45.836709 
L 527.83709 42.463685 
L 532.596696 39.090661 
L 537.356303 35.717637 
L 542.115909 32.344612 
" clip-path="url(#p95dbca51c4)" style="fill: none; stroke: #ff0000; stroke-width: 2; stroke-linecap: square"/>
   </g>
   <g id="line2d_35">
    <path d="M 80.434091 30.700485 
L 85.193697 64.332637 
L 89.953304 96.432073 
L 94.71291 27.622378 
L 99.472516 168.260666 
L 104.232123 133.370063 
L 108.991729 102.110508 
L 113.751336 70.525139 
L 118.510942 35.395698 
L 123.270548 192.035771 
L 128.030155 178.913922 
L 132.789761 166.590977 
L 137.549367 151.825095 
L 142.308974 139.242907 
L 147.06858 119.223345 
L 151.828187 109.492821 
L 156.587793 90.360629 
L 161.347399 80.991586 
L 166.107006 55.311905 
L 170.866612 289.36906 
L 175.626218 285.996036 
L 180.385825 288.694455 
L 185.145431 274.292674 
L 189.905037 277.900778 
L 194.664644 278.575382 
L 199.42425 275.202358 
L 204.183857 271.829334 
L 208.943463 268.45631 
L 213.703069 265.083285 
L 218.462676 261.710261 
L 223.222282 258.337237 
L 227.981888 254.964213 
L 232.741495 251.591188 
L 237.501101 248.218164 
L 242.260708 244.84514 
L 247.020314 241.472116 
L 251.77992 238.099091 
L 256.539527 234.726067 
L 261.299133 231.353043 
L 266.058739 227.980019 
L 270.818346 224.606994 
L 275.577952 221.23397 
L 280.337559 217.860946 
L 285.097165 214.487922 
L 289.856771 211.114897 
L 294.616378 207.741873 
L 299.375984 204.368849 
L 304.13559 200.995825 
L 308.895197 197.6228 
L 313.654803 194.249776 
L 318.41441 190.876752 
L 323.174016 187.503728 
L 327.933622 184.130703 
L 332.693229 180.757679 
L 337.452835 177.384655 
L 342.212441 174.011631 
L 346.972048 170.638606 
L 351.731654 167.265582 
L 356.491261 163.892558 
L 361.250867 160.519534 
L 366.010473 157.14651 
L 370.77008 153.773485 
L 375.529686 150.400461 
L 380.289292 147.027437 
L 385.048899 143.654413 
L 389.808505 140.281388 
L 394.568112 136.908364 
L 399.327718 133.53534 
L 404.087324 130.162316 
L 408.846931 126.789291 
L 413.606537 123.416267 
L 418.366143 120.043243 
L 423.12575 116.670219 
L 427.885356 113.297194 
L 432.644963 109.92417 
L 437.404569 106.551146 
L 442.164175 103.178122 
L 446.923782 99.805097 
L 451.683388 96.432073 
L 456.442994 93.059049 
L 461.202601 89.686025 
L 465.962207 86.313 
L 470.721813 82.939976 
L 475.48142 79.566952 
L 480.241026 76.193928 
L 485.000633 72.820903 
L 489.760239 69.447879 
L 494.519845 66.074855 
L 499.279452 62.701831 
L 504.039058 59.328806 
L 508.798664 55.955782 
L 513.558271 52.582758 
L 518.317877 49.209734 
L 523.077484 45.836709 
L 527.83709 42.463685 
L 532.596696 39.090661 
L 537.356303 35.717637 
L 542.115909 32.344612 
" clip-path="url(#p95dbca51c4)" style="fill: none; stroke-dasharray: 3.7,1.6; stroke-dashoffset: 0; stroke: #ff0000"/>
   </g>
   <g id="line2d_36">
    <path d="M 80.434091 38.710974 
L 85.193697 70.515492 
L 89.953304 103.178122 
L 94.71291 38.416056 
L 99.472516 175.040361 
L 104.232123 141.795875 
L 108.991729 108.293364 
L 113.751336 79.164297 
L 118.510942 42.785624 
L 123.270548 206.582854 
L 128.030155 191.3713 
L 132.789761 175.36084 
L 137.549367 163.817133 
L 142.308974 152.113547 
L 147.06858 135.029842 
L 151.828187 120.474592 
L 156.587793 101.828912 
L 161.347399 92.983624 
L 166.107006 70.091756 
L 170.866612 297.464318 
L 175.626218 294.091294 
L 180.385825 288.694455 
L 185.145431 284.2073 
L 189.905037 283.972221 
L 194.664644 278.575382 
L 199.42425 275.202358 
L 204.183857 271.829334 
L 208.943463 268.45631 
L 213.703069 265.083285 
L 218.462676 261.710261 
L 223.222282 258.337237 
L 227.981888 254.964213 
L 232.741495 251.591188 
L 237.501101 248.218164 
L 242.260708 244.84514 
L 247.020314 241.472116 
L 251.77992 238.099091 
L 256.539527 234.726067 
L 261.299133 231.353043 
L 266.058739 227.980019 
L 270.818346 224.606994 
L 275.577952 221.23397 
L 280.337559 217.860946 
L 285.097165 214.487922 
L 289.856771 211.114897 
L 294.616378 207.741873 
L 299.375984 204.368849 
L 304.13559 200.995825 
L 308.895197 197.6228 
L 313.654803 194.249776 
L 318.41441 190.876752 
L 323.174016 187.503728 
L 327.933622 184.130703 
L 332.693229 180.757679 
L 337.452835 177.384655 
L 342.212441 174.011631 
L 346.972048 170.638606 
L 351.731654 167.265582 
L 356.491261 163.892558 
L 361.250867 160.519534 
L 366.010473 157.14651 
L 370.77008 153.773485 
L 375.529686 150.400461 
L 380.289292 147.027437 
L 385.048899 143.654413 
L 389.808505 140.281388 
L 394.568112 136.908364 
L 399.327718 133.53534 
L 404.087324 130.162316 
L 408.846931 126.789291 
L 413.606537 123.416267 
L 418.366143 120.043243 
L 423.12575 116.670219 
L 427.885356 113.297194 
L 432.644963 109.92417 
L 437.404569 106.551146 
L 442.164175 103.178122 
L 446.923782 99.805097 
L 451.683388 96.432073 
L 456.442994 93.059049 
L 461.202601 89.686025 
L 465.962207 86.313 
L 470.721813 82.939976 
L 475.48142 79.566952 
L 480.241026 76.193928 
L 485.000633 72.820903 
L 489.760239 69.447879 
L 494.519845 66.074855 
L 499.279452 62.701831 
L 504.039058 59.328806 
L 508.798664 55.955782 
L 513.558271 52.582758 
L 518.317877 49.209734 
L 523.077484 45.836709 
L 527.83709 42.463685 
L 532.596696 39.090661 
L 537.356303 35.717637 
L 542.115909 32.344612 
" clip-path="url(#p95dbca51c4)" style="fill: none; stroke-dasharray: 3.7,1.6; stroke-dashoffset: 0; stroke: #ff0000"/>
   </g>
   <g id="patch_3">
    <path d="M 57.35 311.115 
L 57.35 10.8 
" style="fill: none; stroke: #000000; stroke-width: 0.8; stroke-linejoin: miter; stroke-linecap: square"/>
   </g>
   <g id="patch_4">
    <path d="M 565.2 311.115 
L 565.2 10.8 
" style="fill: none; stroke: #000000; stroke-width: 0.8; stroke-linejoin: miter; stroke-linecap: square"/>
   </g>
   <g id="patch_5">
    <path d="M 57.35 311.115 
L 565.2 311.115 
" style="fill: none; stroke: #000000; stroke-width: 0.8; stroke-linejoin: miter; stroke-linecap: square"/>
   </g>
   <g id="patch_6">
    <path d="M 57.35 10.8 
L 565.2 10.8 
" style="fill: none; stroke: #000000; stroke-width: 0.8; stroke-linejoin: miter; stroke-linecap: square"/>
   </g>
   <g id="legend_1">
    <g id="patch_7">
     <path d="M 402.565937 304.115 
L 555.4 304.115 
Q 558.2 304.115 558.2 301.315 
L 558.2 261.61625 
Q 558.2 258.81625 555.4 258.81625 
L 402.565937 258.81625 
Q 399.765937 258.81625 399.765937 261.61625 
L 399.765937 301.315 
Q 399.765937 304.115 402.565937 304.115 
z
" style="fill: #ffffff; opacity: 0.8; stroke: #cccccc; stroke-linejoin: miter"/>
    </g>
    <g id="line2d_37">
     <path d="M 405.365937 270.154063 
L 419.365937 270.154063 
L 433.365937 270.154063 
" style="fill: none; stroke: #0000ff; stroke-width: 2; stroke-linecap: square"/>
    </g>
    <g id="text_18">
     <!-- Multi-Grid -->
     <g transform="translate(444.565937 275.054062) scale(0.14 -0.14)">
      <defs>
       <path id="DejaVuSans-2d" d="M 313 2009 
L 1997 2009 
L 1997 1497 
L 313 1497 
L 313 2009 
z
" transform="scale(0.015625)"/>
      </defs>
      <use xlink:href="#DejaVuSans-4d"/>
      <use xlink:href="#DejaVuSans-75" x="86.279297"/>
      <use xlink:href="#DejaVuSans-6c" x="149.658203"/>
      <use xlink:href="#DejaVuSans-74" x="177.441406"/>
      <use xlink:href="#DejaVuSans-69" x="216.650391"/>
      <use xlink:href="#DejaVuSans-2d" x="244.433594"/>
      <use xlink:href="#DejaVuSans-47" x="284.142578"/>
      <use xlink:href="#DejaVuSans-72" x="361.632812"/>
      <use xlink:href="#DejaVuSans-69" x="402.746094"/>
      <use xlink:href="#DejaVuSans-64" x="430.529297"/>
     </g>
    </g>
    <g id="line2d_38">
     <path d="M 405.365937 290.703438 
L 419.365937 290.703438 
L 433.365937 290.703438 
" style="fill: none; stroke: #ff0000; stroke-width: 2; stroke-linecap: square"/>
    </g>
    <g id="text_19">
     <!-- Per Component -->
     <g transform="translate(444.565937 295.603438) scale(0.14 -0.14)">
      <defs>
       <path id="DejaVuSans-50" d="M 1259 4147 
L 1259 2394 
L 2053 2394 
Q 2494 2394 2734 2622 
Q 2975 2850 2975 3272 
Q 2975 3691 2734 3919 
Q 2494 4147 2053 4147 
L 1259 4147 
z
M 628 4666 
L 2053 4666 
Q 2838 4666 3239 4311 
Q 3641 3956 3641 3272 
Q 3641 2581 3239 2228 
Q 2838 1875 2053 1875 
L 1259 1875 
L 1259 0 
L 628 0 
L 628 4666 
z
" transform="scale(0.015625)"/>
       <path id="DejaVuSans-43" d="M 4122 4306 
L 4122 3641 
Q 3803 3938 3442 4084 
Q 3081 4231 2675 4231 
Q 1875 4231 1450 3742 
Q 1025 3253 1025 2328 
Q 1025 1406 1450 917 
Q 1875 428 2675 428 
Q 3081 428 3442 575 
Q 3803 722 4122 1019 
L 4122 359 
Q 3791 134 3420 21 
Q 3050 -91 2638 -91 
Q 1578 -91 968 557 
Q 359 1206 359 2328 
Q 359 3453 968 4101 
Q 1578 4750 2638 4750 
Q 3056 4750 3426 4639 
Q 3797 4528 4122 4306 
z
" transform="scale(0.015625)"/>
       <path id="DejaVuSans-70" d="M 1159 525 
L 1159 -1331 
L 581 -1331 
L 581 3500 
L 1159 3500 
L 1159 2969 
Q 1341 3281 1617 3432 
Q 1894 3584 2278 3584 
Q 2916 3584 3314 3078 
Q 3713 2572 3713 1747 
Q 3713 922 3314 415 
Q 2916 -91 2278 -91 
Q 1894 -91 1617 61 
Q 1341 213 1159 525 
z
M 3116 1747 
Q 3116 2381 2855 2742 
Q 2594 3103 2138 3103 
Q 1681 3103 1420 2742 
Q 1159 2381 1159 1747 
Q 1159 1113 1420 752 
Q 1681 391 2138 391 
Q 2594 391 2855 752 
Q 3116 1113 3116 1747 
z
" transform="scale(0.015625)"/>
      </defs>
      <use xlink:href="#DejaVuSans-50"/>
      <use xlink:href="#DejaVuSans-65" x="56.677734"/>
      <use xlink:href="#DejaVuSans-72" x="118.201172"/>
      <use xlink:href="#DejaVuSans-20" x="159.314453"/>
      <use xlink:href="#DejaVuSans-43" x="191.101562"/>
      <use xlink:href="#DejaVuSans-6f" x="260.925781"/>
      <use xlink:href="#DejaVuSans-6d" x="322.107422"/>
      <use xlink:href="#DejaVuSans-70" x="419.519531"/>
      <use xlink:href="#DejaVuSans-6f" x="482.996094"/>
      <use xlink:href="#DejaVuSans-6e" x="544.177734"/>
      <use xlink:href="#DejaVuSans-65" x="607.556641"/>
      <use xlink:href="#DejaVuSans-6e" x="669.080078"/>
      <use xlink:href="#DejaVuSans-74" x="732.458984"/>
     </g>
    </g>
   </g>
  </g>
 </g>
 <defs>
  <clipPath id="p95dbca51c4">
   <rect x="57.35" y="10.8" width="507.85" height="300.315"/>
  </clipPath>
 </defs>
</svg>
