<?xml version="1.0" encoding="utf-8" standalone="no"?>
<!DOCTYPE svg PUBLIC "-//W3C//DTD SVG 1.1//EN"
  "http://www.w3.org/Graphics/SVG/1.1/DTD/svg11.dtd">
<svg xmlns:xlink="http://www.w3.org/1999/xlink" width="576pt" height="360pt" viewBox="0 0 576 360" xmlns="http://www.w3.org/2000/svg" version="1.1">
 <metadata>
  <rdf:RDF xmlns:dc="http://purl.org/dc/elements/1.1/" xmlns:cc="http://creativecommons.org/ns#" xmlns:rdf="http://www.w3.org/1999/02/22-rdf-syntax-ns#">
   <cc:Work>
    <dc:type rdf:resource="http://purl.org/dc/dcmitype/StillImage"/>
    <dc:date>2025-07-08T14:09:52.470616</dc:date>
    <dc:format>image/svg+xml</dc:format>
    <dc:creator>
     <cc:Agent>
      <dc:title>Matplotlib v3.9.4, https://matplotlib.org/</dc:title>
     </cc:Agent>
    </dc:creator>
   </cc:Work>
  </rdf:RDF>
 </metadata>
 <defs>
  <style type="text/css">*{stroke-linejoin: round; stroke-linecap: butt}</style>
 </defs>
 <g id="figure_1">
  <g id="patch_1">
   <path d="M 0 360 
L 576 360 
L 576 0 
L 0 0 
z
" style="fill: #ffffff"/>
  </g>
  <g id="axes_1">
   <g id="patch_2">
    <path d="M 62.741 314.44 
L 565.2 314.44 
L 565.2 10.8 
L 62.741 10.8 
z
" style="fill: #ffffff"/>
   </g>
   <g id="PolyCollection_1">
    <defs>
     <path id="m8428615c08" d="M 85.580045 -70.588908 
L 85.580045 -59.361818 
L 94.715664 -63.52615 
L 103.851282 -68.455775 
L 112.9869 -72.828823 
L 122.122518 -76.937653 
L 131.258136 -80.742749 
L 140.393755 -84.549239 
L 149.529373 -88.338321 
L 158.664991 -91.965342 
L 167.800609 -95.520443 
L 176.936227 -99.025135 
L 186.071845 -102.305991 
L 195.207464 -105.462257 
L 204.343082 -108.570196 
L 213.4787 -111.567317 
L 222.614318 -114.476171 
L 231.749936 -117.29681 
L 240.885555 -120.03058 
L 250.021173 -122.690698 
L 259.156791 -125.250214 
L 268.292409 -127.738053 
L 277.428027 -130.155548 
L 286.563645 -132.504099 
L 295.699264 -134.76525 
L 304.834882 -136.979089 
L 313.9705 -139.121736 
L 323.106118 -141.211975 
L 332.241736 -143.236481 
L 341.377355 -145.208522 
L 350.512973 -147.129505 
L 359.648591 -148.996448 
L 368.784209 -150.817551 
L 377.919827 -152.594872 
L 387.055445 -154.327952 
L 396.191064 -156.019831 
L 405.326682 -157.669714 
L 414.4623 -159.282605 
L 423.597918 -160.856429 
L 432.733536 -162.39541 
L 441.869155 -163.900418 
L 451.004773 -165.371756 
L 460.140391 -166.81096 
L 469.276009 -168.219664 
L 478.411627 -169.597535 
L 487.547245 -170.946491 
L 496.682864 -172.266979 
L 505.818482 -173.561681 
L 514.9541 -174.829834 
L 524.089718 -176.072908 
L 533.225336 -177.291296 
L 542.360955 -178.486347 
L 542.360955 -299.222191 
L 542.360955 -299.222191 
L 533.225336 -297.990024 
L 524.089718 -296.712679 
L 514.9541 -295.413995 
L 505.818482 -294.061326 
L 496.682864 -292.690002 
L 487.547245 -291.221601 
L 478.411627 -289.7371 
L 469.276009 -288.204017 
L 460.140391 -286.641758 
L 451.004773 -285.00124 
L 441.869155 -283.30191 
L 432.733536 -281.545913 
L 423.597918 -279.710372 
L 414.4623 -277.795473 
L 405.326682 -275.837855 
L 396.191064 -273.773051 
L 387.055445 -271.663989 
L 377.919827 -269.455752 
L 368.784209 -267.157071 
L 359.648591 -264.741508 
L 350.512973 -262.208165 
L 341.377355 -259.634018 
L 332.241736 -256.926712 
L 323.106118 -254.069441 
L 313.9705 -251.181309 
L 304.834882 -248.057294 
L 295.699264 -244.874902 
L 286.563645 -241.354522 
L 277.428027 -237.839826 
L 268.292409 -234.088646 
L 259.156791 -230.09929 
L 250.021173 -225.810511 
L 240.885555 -221.432215 
L 231.749936 -216.671756 
L 222.614318 -211.60206 
L 213.4787 -206.185491 
L 204.343082 -200.394449 
L 195.207464 -194.285524 
L 186.071845 -187.470004 
L 176.936227 -180.378625 
L 167.800609 -173.369808 
L 158.664991 -165.34582 
L 149.529373 -156.419525 
L 140.393755 -147.086294 
L 131.258136 -136.621826 
L 122.122518 -125.139433 
L 112.9869 -113.646122 
L 103.851282 -101.274525 
L 94.715664 -88.309631 
L 85.580045 -70.588908 
z
" style="stroke: #0000ff; stroke-opacity: 0.2"/>
    </defs>
    <g clip-path="url(#p583ca16442)">
     <use xlink:href="#m8428615c08" x="0" y="360" style="fill: #0000ff; fill-opacity: 0.2; stroke: #0000ff; stroke-opacity: 0.2"/>
    </g>
   </g>
   <g id="PolyCollection_2">
    <defs>
     <path id="m4028b2a4b5" d="M 85.580045 -248.015911 
L 85.580045 -237.660374 
L 94.715664 -241.497416 
L 103.851282 -244.159907 
L 112.9869 -246.276254 
L 122.122518 -248.146029 
L 131.258136 -249.951669 
L 140.393755 -251.600575 
L 149.529373 -253.273419 
L 158.664991 -254.866469 
L 167.800609 -256.413451 
L 176.936227 -257.918828 
L 186.071845 -259.342004 
L 195.207464 -260.690451 
L 204.343082 -262.008779 
L 213.4787 -263.292286 
L 222.614318 -264.514358 
L 231.749936 -265.688677 
L 240.885555 -266.812635 
L 250.021173 -267.892107 
L 259.156791 -268.925475 
L 268.292409 -269.921865 
L 277.428027 -270.885724 
L 286.563645 -271.816509 
L 295.699264 -272.710294 
L 304.834882 -273.581939 
L 313.9705 -274.421439 
L 323.106118 -275.238151 
L 332.241736 -276.026746 
L 341.377355 -276.793798 
L 350.512973 -277.538898 
L 359.648591 -278.262344 
L 368.784209 -278.966762 
L 377.919827 -279.653133 
L 387.055445 -280.320829 
L 396.191064 -280.972154 
L 405.326682 -281.606658 
L 414.4623 -282.226032 
L 423.597918 -282.829791 
L 432.733536 -283.419567 
L 441.869155 -283.995582 
L 451.004773 -284.558274 
L 460.140391 -285.108229 
L 469.276009 -285.645907 
L 478.411627 -286.171471 
L 487.547245 -286.685657 
L 496.682864 -287.188772 
L 505.818482 -287.68158 
L 514.9541 -288.16407 
L 524.089718 -288.636672 
L 533.225336 -289.099704 
L 542.360955 -289.553599 
L 542.360955 -335.398182 
L 542.360955 -335.398182 
L 533.225336 -334.950486 
L 524.089718 -334.483281 
L 514.9541 -334.011339 
L 505.818482 -333.518985 
L 496.682864 -333.019544 
L 487.547245 -332.482433 
L 478.411627 -331.94057 
L 469.276009 -331.383498 
L 460.140391 -330.816211 
L 451.004773 -330.220985 
L 441.869155 -329.603394 
L 432.733536 -328.962533 
L 423.597918 -328.297759 
L 414.4623 -327.601164 
L 405.326682 -326.890752 
L 396.191064 -326.139385 
L 387.055445 -325.373924 
L 377.919827 -324.561873 
L 368.784209 -323.733144 
L 359.648591 -322.857577 
L 350.512973 -321.935985 
L 341.377355 -320.996607 
L 332.241736 -320.018247 
L 323.106118 -318.972426 
L 313.9705 -317.937753 
L 304.834882 -316.803923 
L 295.699264 -315.683606 
L 286.563645 -314.41545 
L 277.428027 -313.161561 
L 268.292409 -311.829491 
L 259.156791 -310.400297 
L 250.021173 -308.871092 
L 240.885555 -307.323811 
L 231.749936 -305.664601 
L 222.614318 -303.913923 
L 213.4787 -301.998979 
L 204.343082 -300.014184 
L 195.207464 -297.674602 
L 186.071845 -295.011558 
L 176.936227 -292.287993 
L 167.800609 -289.461168 
L 158.664991 -286.216269 
L 149.529373 -282.5897 
L 140.393755 -278.742885 
L 131.258136 -274.202697 
L 122.122518 -269.766101 
L 112.9869 -264.660415 
L 103.851282 -259.809678 
L 94.715664 -254.706332 
L 85.580045 -248.015911 
z
" style="stroke: #ff0000; stroke-opacity: 0.2"/>
    </defs>
    <g clip-path="url(#p583ca16442)">
     <use xlink:href="#m4028b2a4b5" x="0" y="360" style="fill: #ff0000; fill-opacity: 0.2; stroke: #ff0000; stroke-opacity: 0.2"/>
    </g>
   </g>
   <g id="matplotlib.axis_1">
    <g id="xtick_1">
     <g id="line2d_1">
      <path d="M 85.580045 314.44 
L 85.580045 10.8 
" clip-path="url(#p583ca16442)" style="fill: none; stroke: #b0b0b0; stroke-width: 0.8; stroke-linecap: square"/>
     </g>
     <g id="line2d_2">
      <defs>
       <path id="mcc64ee9c80" d="M 0 0 
L 0 3.5 
" style="stroke: #000000; stroke-width: 0.8"/>
      </defs>
      <g>
       <use xlink:href="#mcc64ee9c80" x="85.580045" y="314.44" style="stroke: #000000; stroke-width: 0.8"/>
      </g>
     </g>
     <g id="text_1">
      <!-- 10 -->
      <g transform="translate(79.217545 329.038437) scale(0.1 -0.1)">
       <defs>
        <path id="DejaVuSans-31" d="M 794 531 
L 1825 531 
L 1825 4091 
L 703 3866 
L 703 4441 
L 1819 4666 
L 2450 4666 
L 2450 531 
L 3481 531 
L 3481 0 
L 794 0 
L 794 531 
z
" transform="scale(0.015625)"/>
        <path id="DejaVuSans-30" d="M 2034 4250 
Q 1547 4250 1301 3770 
Q 1056 3291 1056 2328 
Q 1056 1369 1301 889 
Q 1547 409 2034 409 
Q 2525 409 2770 889 
Q 3016 1369 3016 2328 
Q 3016 3291 2770 3770 
Q 2525 4250 2034 4250 
z
M 2034 4750 
Q 2819 4750 3233 4129 
Q 3647 3509 3647 2328 
Q 3647 1150 3233 529 
Q 2819 -91 2034 -91 
Q 1250 -91 836 529 
Q 422 1150 422 2328 
Q 422 3509 836 4129 
Q 1250 4750 2034 4750 
z
" transform="scale(0.015625)"/>
       </defs>
       <use xlink:href="#DejaVuSans-31"/>
       <use xlink:href="#DejaVuSans-30" x="63.623047"/>
      </g>
     </g>
    </g>
    <g id="xtick_2">
     <g id="line2d_3">
      <path d="M 176.936227 314.44 
L 176.936227 10.8 
" clip-path="url(#p583ca16442)" style="fill: none; stroke: #b0b0b0; stroke-width: 0.8; stroke-linecap: square"/>
     </g>
     <g id="line2d_4">
      <g>
       <use xlink:href="#mcc64ee9c80" x="176.936227" y="314.44" style="stroke: #000000; stroke-width: 0.8"/>
      </g>
     </g>
     <g id="text_2">
      <!-- 20 -->
      <g transform="translate(170.573727 329.038437) scale(0.1 -0.1)">
       <defs>
        <path id="DejaVuSans-32" d="M 1228 531 
L 3431 531 
L 3431 0 
L 469 0 
L 469 531 
Q 828 903 1448 1529 
Q 2069 2156 2228 2338 
Q 2531 2678 2651 2914 
Q 2772 3150 2772 3378 
Q 2772 3750 2511 3984 
Q 2250 4219 1831 4219 
Q 1534 4219 1204 4116 
Q 875 4013 500 3803 
L 500 4441 
Q 881 4594 1212 4672 
Q 1544 4750 1819 4750 
Q 2544 4750 2975 4387 
Q 3406 4025 3406 3419 
Q 3406 3131 3298 2873 
Q 3191 2616 2906 2266 
Q 2828 2175 2409 1742 
Q 1991 1309 1228 531 
z
" transform="scale(0.015625)"/>
       </defs>
       <use xlink:href="#DejaVuSans-32"/>
       <use xlink:href="#DejaVuSans-30" x="63.623047"/>
      </g>
     </g>
    </g>
    <g id="xtick_3">
     <g id="line2d_5">
      <path d="M 268.292409 314.44 
L 268.292409 10.8 
" clip-path="url(#p583ca16442)" style="fill: none; stroke: #b0b0b0; stroke-width: 0.8; stroke-linecap: square"/>
     </g>
     <g id="line2d_6">
      <g>
       <use xlink:href="#mcc64ee9c80" x="268.292409" y="314.44" style="stroke: #000000; stroke-width: 0.8"/>
      </g>
     </g>
     <g id="text_3">
      <!-- 30 -->
      <g transform="translate(261.929909 329.038437) scale(0.1 -0.1)">
       <defs>
        <path id="DejaVuSans-33" d="M 2597 2516 
Q 3050 2419 3304 2112 
Q 3559 1806 3559 1356 
Q 3559 666 3084 287 
Q 2609 -91 1734 -91 
Q 1441 -91 1130 -33 
Q 819 25 488 141 
L 488 750 
Q 750 597 1062 519 
Q 1375 441 1716 441 
Q 2309 441 2620 675 
Q 2931 909 2931 1356 
Q 2931 1769 2642 2001 
Q 2353 2234 1838 2234 
L 1294 2234 
L 1294 2753 
L 1863 2753 
Q 2328 2753 2575 2939 
Q 2822 3125 2822 3475 
Q 2822 3834 2567 4026 
Q 2313 4219 1838 4219 
Q 1578 4219 1281 4162 
Q 984 4106 628 3988 
L 628 4550 
Q 988 4650 1302 4700 
Q 1616 4750 1894 4750 
Q 2613 4750 3031 4423 
Q 3450 4097 3450 3541 
Q 3450 3153 3228 2886 
Q 3006 2619 2597 2516 
z
" transform="scale(0.015625)"/>
       </defs>
       <use xlink:href="#DejaVuSans-33"/>
       <use xlink:href="#DejaVuSans-30" x="63.623047"/>
      </g>
     </g>
    </g>
    <g id="xtick_4">
     <g id="line2d_7">
      <path d="M 359.648591 314.44 
L 359.648591 10.8 
" clip-path="url(#p583ca16442)" style="fill: none; stroke: #b0b0b0; stroke-width: 0.8; stroke-linecap: square"/>
     </g>
     <g id="line2d_8">
      <g>
       <use xlink:href="#mcc64ee9c80" x="359.648591" y="314.44" style="stroke: #000000; stroke-width: 0.8"/>
      </g>
     </g>
     <g id="text_4">
      <!-- 40 -->
      <g transform="translate(353.286091 329.038437) scale(0.1 -0.1)">
       <defs>
        <path id="DejaVuSans-34" d="M 2419 4116 
L 825 1625 
L 2419 1625 
L 2419 4116 
z
M 2253 4666 
L 3047 4666 
L 3047 1625 
L 3713 1625 
L 3713 1100 
L 3047 1100 
L 3047 0 
L 2419 0 
L 2419 1100 
L 313 1100 
L 313 1709 
L 2253 4666 
z
" transform="scale(0.015625)"/>
       </defs>
       <use xlink:href="#DejaVuSans-34"/>
       <use xlink:href="#DejaVuSans-30" x="63.623047"/>
      </g>
     </g>
    </g>
    <g id="xtick_5">
     <g id="line2d_9">
      <path d="M 451.004773 314.44 
L 451.004773 10.8 
" clip-path="url(#p583ca16442)" style="fill: none; stroke: #b0b0b0; stroke-width: 0.8; stroke-linecap: square"/>
     </g>
     <g id="line2d_10">
      <g>
       <use xlink:href="#mcc64ee9c80" x="451.004773" y="314.44" style="stroke: #000000; stroke-width: 0.8"/>
      </g>
     </g>
     <g id="text_5">
      <!-- 50 -->
      <g transform="translate(444.642273 329.038437) scale(0.1 -0.1)">
       <defs>
        <path id="DejaVuSans-35" d="M 691 4666 
L 3169 4666 
L 3169 4134 
L 1269 4134 
L 1269 2991 
Q 1406 3038 1543 3061 
Q 1681 3084 1819 3084 
Q 2600 3084 3056 2656 
Q 3513 2228 3513 1497 
Q 3513 744 3044 326 
Q 2575 -91 1722 -91 
Q 1428 -91 1123 -41 
Q 819 9 494 109 
L 494 744 
Q 775 591 1075 516 
Q 1375 441 1709 441 
Q 2250 441 2565 725 
Q 2881 1009 2881 1497 
Q 2881 1984 2565 2268 
Q 2250 2553 1709 2553 
Q 1456 2553 1204 2497 
Q 953 2441 691 2322 
L 691 4666 
z
" transform="scale(0.015625)"/>
       </defs>
       <use xlink:href="#DejaVuSans-35"/>
       <use xlink:href="#DejaVuSans-30" x="63.623047"/>
      </g>
     </g>
    </g>
    <g id="xtick_6">
     <g id="line2d_11">
      <path d="M 542.360955 314.44 
L 542.360955 10.8 
" clip-path="url(#p583ca16442)" style="fill: none; stroke: #b0b0b0; stroke-width: 0.8; stroke-linecap: square"/>
     </g>
     <g id="line2d_12">
      <g>
       <use xlink:href="#mcc64ee9c80" x="542.360955" y="314.44" style="stroke: #000000; stroke-width: 0.8"/>
      </g>
     </g>
     <g id="text_6">
      <!-- 60 -->
      <g transform="translate(535.998455 329.038437) scale(0.1 -0.1)">
       <defs>
        <path id="DejaVuSans-36" d="M 2113 2584 
Q 1688 2584 1439 2293 
Q 1191 2003 1191 1497 
Q 1191 994 1439 701 
Q 1688 409 2113 409 
Q 2538 409 2786 701 
Q 3034 994 3034 1497 
Q 3034 2003 2786 2293 
Q 2538 2584 2113 2584 
z
M 3366 4563 
L 3366 3988 
Q 3128 4100 2886 4159 
Q 2644 4219 2406 4219 
Q 1781 4219 1451 3797 
Q 1122 3375 1075 2522 
Q 1259 2794 1537 2939 
Q 1816 3084 2150 3084 
Q 2853 3084 3261 2657 
Q 3669 2231 3669 1497 
Q 3669 778 3244 343 
Q 2819 -91 2113 -91 
Q 1303 -91 875 529 
Q 447 1150 447 2328 
Q 447 3434 972 4092 
Q 1497 4750 2381 4750 
Q 2619 4750 2861 4703 
Q 3103 4656 3366 4563 
z
" transform="scale(0.015625)"/>
       </defs>
       <use xlink:href="#DejaVuSans-36"/>
       <use xlink:href="#DejaVuSans-30" x="63.623047"/>
      </g>
     </g>
    </g>
    <g id="text_7">
     <!-- Dimensions $d$ -->
     <g transform="translate(266.4405 345.755938) scale(0.14 -0.14)">
      <defs>
       <path id="DejaVuSans-44" d="M 1259 4147 
L 1259 519 
L 2022 519 
Q 2988 519 3436 956 
Q 3884 1394 3884 2338 
Q 3884 3275 3436 3711 
Q 2988 4147 2022 4147 
L 1259 4147 
z
M 628 4666 
L 1925 4666 
Q 3281 4666 3915 4102 
Q 4550 3538 4550 2338 
Q 4550 1131 3912 565 
Q 3275 0 1925 0 
L 628 0 
L 628 4666 
z
" transform="scale(0.015625)"/>
       <path id="DejaVuSans-69" d="M 603 3500 
L 1178 3500 
L 1178 0 
L 603 0 
L 603 3500 
z
M 603 4863 
L 1178 4863 
L 1178 4134 
L 603 4134 
L 603 4863 
z
" transform="scale(0.015625)"/>
       <path id="DejaVuSans-6d" d="M 3328 2828 
Q 3544 3216 3844 3400 
Q 4144 3584 4550 3584 
Q 5097 3584 5394 3201 
Q 5691 2819 5691 2113 
L 5691 0 
L 5113 0 
L 5113 2094 
Q 5113 2597 4934 2840 
Q 4756 3084 4391 3084 
Q 3944 3084 3684 2787 
Q 3425 2491 3425 1978 
L 3425 0 
L 2847 0 
L 2847 2094 
Q 2847 2600 2669 2842 
Q 2491 3084 2119 3084 
Q 1678 3084 1418 2786 
Q 1159 2488 1159 1978 
L 1159 0 
L 581 0 
L 581 3500 
L 1159 3500 
L 1159 2956 
Q 1356 3278 1631 3431 
Q 1906 3584 2284 3584 
Q 2666 3584 2933 3390 
Q 3200 3197 3328 2828 
z
" transform="scale(0.015625)"/>
       <path id="DejaVuSans-65" d="M 3597 1894 
L 3597 1613 
L 953 1613 
Q 991 1019 1311 708 
Q 1631 397 2203 397 
Q 2534 397 2845 478 
Q 3156 559 3463 722 
L 3463 178 
Q 3153 47 2828 -22 
Q 2503 -91 2169 -91 
Q 1331 -91 842 396 
Q 353 884 353 1716 
Q 353 2575 817 3079 
Q 1281 3584 2069 3584 
Q 2775 3584 3186 3129 
Q 3597 2675 3597 1894 
z
M 3022 2063 
Q 3016 2534 2758 2815 
Q 2500 3097 2075 3097 
Q 1594 3097 1305 2825 
Q 1016 2553 972 2059 
L 3022 2063 
z
" transform="scale(0.015625)"/>
       <path id="DejaVuSans-6e" d="M 3513 2113 
L 3513 0 
L 2938 0 
L 2938 2094 
Q 2938 2591 2744 2837 
Q 2550 3084 2163 3084 
Q 1697 3084 1428 2787 
Q 1159 2491 1159 1978 
L 1159 0 
L 581 0 
L 581 3500 
L 1159 3500 
L 1159 2956 
Q 1366 3272 1645 3428 
Q 1925 3584 2291 3584 
Q 2894 3584 3203 3211 
Q 3513 2838 3513 2113 
z
" transform="scale(0.015625)"/>
       <path id="DejaVuSans-73" d="M 2834 3397 
L 2834 2853 
Q 2591 2978 2328 3040 
Q 2066 3103 1784 3103 
Q 1356 3103 1142 2972 
Q 928 2841 928 2578 
Q 928 2378 1081 2264 
Q 1234 2150 1697 2047 
L 1894 2003 
Q 2506 1872 2764 1633 
Q 3022 1394 3022 966 
Q 3022 478 2636 193 
Q 2250 -91 1575 -91 
Q 1294 -91 989 -36 
Q 684 19 347 128 
L 347 722 
Q 666 556 975 473 
Q 1284 391 1588 391 
Q 1994 391 2212 530 
Q 2431 669 2431 922 
Q 2431 1156 2273 1281 
Q 2116 1406 1581 1522 
L 1381 1569 
Q 847 1681 609 1914 
Q 372 2147 372 2553 
Q 372 3047 722 3315 
Q 1072 3584 1716 3584 
Q 2034 3584 2315 3537 
Q 2597 3491 2834 3397 
z
" transform="scale(0.015625)"/>
       <path id="DejaVuSans-6f" d="M 1959 3097 
Q 1497 3097 1228 2736 
Q 959 2375 959 1747 
Q 959 1119 1226 758 
Q 1494 397 1959 397 
Q 2419 397 2687 759 
Q 2956 1122 2956 1747 
Q 2956 2369 2687 2733 
Q 2419 3097 1959 3097 
z
M 1959 3584 
Q 2709 3584 3137 3096 
Q 3566 2609 3566 1747 
Q 3566 888 3137 398 
Q 2709 -91 1959 -91 
Q 1206 -91 779 398 
Q 353 888 353 1747 
Q 353 2609 779 3096 
Q 1206 3584 1959 3584 
z
" transform="scale(0.015625)"/>
       <path id="DejaVuSans-20" transform="scale(0.015625)"/>
       <path id="DejaVuSans-Oblique-64" d="M 2675 525 
Q 2444 222 2128 65 
Q 1813 -91 1428 -91 
Q 903 -91 598 267 
Q 294 625 294 1247 
Q 294 1766 478 2236 
Q 663 2706 1013 3078 
Q 1244 3325 1534 3454 
Q 1825 3584 2144 3584 
Q 2481 3584 2739 3421 
Q 2997 3259 3138 2956 
L 3513 4863 
L 4091 4863 
L 3144 0 
L 2566 0 
L 2675 525 
z
M 891 1350 
Q 891 897 1095 644 
Q 1300 391 1663 391 
Q 1931 391 2161 520 
Q 2391 650 2566 903 
Q 2750 1166 2856 1509 
Q 2963 1853 2963 2188 
Q 2963 2622 2758 2865 
Q 2553 3109 2194 3109 
Q 1922 3109 1687 2981 
Q 1453 2853 1288 2613 
Q 1106 2353 998 2009 
Q 891 1666 891 1350 
z
" transform="scale(0.015625)"/>
      </defs>
      <use xlink:href="#DejaVuSans-44" transform="translate(0 0.015625)"/>
      <use xlink:href="#DejaVuSans-69" transform="translate(77.001953 0.015625)"/>
      <use xlink:href="#DejaVuSans-6d" transform="translate(104.785156 0.015625)"/>
      <use xlink:href="#DejaVuSans-65" transform="translate(202.197266 0.015625)"/>
      <use xlink:href="#DejaVuSans-6e" transform="translate(263.720703 0.015625)"/>
      <use xlink:href="#DejaVuSans-73" transform="translate(327.099609 0.015625)"/>
      <use xlink:href="#DejaVuSans-69" transform="translate(379.199219 0.015625)"/>
      <use xlink:href="#DejaVuSans-6f" transform="translate(406.982422 0.015625)"/>
      <use xlink:href="#DejaVuSans-6e" transform="translate(468.164062 0.015625)"/>
      <use xlink:href="#DejaVuSans-73" transform="translate(531.542969 0.015625)"/>
      <use xlink:href="#DejaVuSans-20" transform="translate(583.642578 0.015625)"/>
      <use xlink:href="#DejaVuSans-Oblique-64" transform="translate(615.429688 0.015625)"/>
     </g>
    </g>
   </g>
   <g id="matplotlib.axis_2">
    <g id="ytick_1">
     <g id="line2d_13">
      <path d="M 62.741 284.704584 
L 565.2 284.704584 
" clip-path="url(#p583ca16442)" style="fill: none; stroke: #b0b0b0; stroke-width: 0.8; stroke-linecap: square"/>
     </g>
     <g id="line2d_14">
      <defs>
       <path id="m7f75ab23da" d="M 0 0 
L -3.5 0 
" style="stroke: #000000; stroke-width: 0.8"/>
      </defs>
      <g>
       <use xlink:href="#m7f75ab23da" x="62.741" y="284.704584" style="stroke: #000000; stroke-width: 0.8"/>
      </g>
     </g>
     <g id="text_8">
      <!-- 0.70 -->
      <g transform="translate(33.475375 288.503803) scale(0.1 -0.1)">
       <defs>
        <path id="DejaVuSans-2e" d="M 684 794 
L 1344 794 
L 1344 0 
L 684 0 
L 684 794 
z
" transform="scale(0.015625)"/>
        <path id="DejaVuSans-37" d="M 525 4666 
L 3525 4666 
L 3525 4397 
L 1831 0 
L 1172 0 
L 2766 4134 
L 525 4134 
L 525 4666 
z
" transform="scale(0.015625)"/>
       </defs>
       <use xlink:href="#DejaVuSans-30"/>
       <use xlink:href="#DejaVuSans-2e" x="63.623047"/>
       <use xlink:href="#DejaVuSans-37" x="95.410156"/>
       <use xlink:href="#DejaVuSans-30" x="159.033203"/>
      </g>
     </g>
    </g>
    <g id="ytick_2">
     <g id="line2d_15">
      <path d="M 62.741 237.977359 
L 565.2 237.977359 
" clip-path="url(#p583ca16442)" style="fill: none; stroke: #b0b0b0; stroke-width: 0.8; stroke-linecap: square"/>
     </g>
     <g id="line2d_16">
      <g>
       <use xlink:href="#m7f75ab23da" x="62.741" y="237.977359" style="stroke: #000000; stroke-width: 0.8"/>
      </g>
     </g>
     <g id="text_9">
      <!-- 0.75 -->
      <g transform="translate(33.475375 241.776578) scale(0.1 -0.1)">
       <use xlink:href="#DejaVuSans-30"/>
       <use xlink:href="#DejaVuSans-2e" x="63.623047"/>
       <use xlink:href="#DejaVuSans-37" x="95.410156"/>
       <use xlink:href="#DejaVuSans-35" x="159.033203"/>
      </g>
     </g>
    </g>
    <g id="ytick_3">
     <g id="line2d_17">
      <path d="M 62.741 191.250134 
L 565.2 191.250134 
" clip-path="url(#p583ca16442)" style="fill: none; stroke: #b0b0b0; stroke-width: 0.8; stroke-linecap: square"/>
     </g>
     <g id="line2d_18">
      <g>
       <use xlink:href="#m7f75ab23da" x="62.741" y="191.250134" style="stroke: #000000; stroke-width: 0.8"/>
      </g>
     </g>
     <g id="text_10">
      <!-- 0.80 -->
      <g transform="translate(33.475375 195.049353) scale(0.1 -0.1)">
       <defs>
        <path id="DejaVuSans-38" d="M 2034 2216 
Q 1584 2216 1326 1975 
Q 1069 1734 1069 1313 
Q 1069 891 1326 650 
Q 1584 409 2034 409 
Q 2484 409 2743 651 
Q 3003 894 3003 1313 
Q 3003 1734 2745 1975 
Q 2488 2216 2034 2216 
z
M 1403 2484 
Q 997 2584 770 2862 
Q 544 3141 544 3541 
Q 544 4100 942 4425 
Q 1341 4750 2034 4750 
Q 2731 4750 3128 4425 
Q 3525 4100 3525 3541 
Q 3525 3141 3298 2862 
Q 3072 2584 2669 2484 
Q 3125 2378 3379 2068 
Q 3634 1759 3634 1313 
Q 3634 634 3220 271 
Q 2806 -91 2034 -91 
Q 1263 -91 848 271 
Q 434 634 434 1313 
Q 434 1759 690 2068 
Q 947 2378 1403 2484 
z
M 1172 3481 
Q 1172 3119 1398 2916 
Q 1625 2713 2034 2713 
Q 2441 2713 2670 2916 
Q 2900 3119 2900 3481 
Q 2900 3844 2670 4047 
Q 2441 4250 2034 4250 
Q 1625 4250 1398 4047 
Q 1172 3844 1172 3481 
z
" transform="scale(0.015625)"/>
       </defs>
       <use xlink:href="#DejaVuSans-30"/>
       <use xlink:href="#DejaVuSans-2e" x="63.623047"/>
       <use xlink:href="#DejaVuSans-38" x="95.410156"/>
       <use xlink:href="#DejaVuSans-30" x="159.033203"/>
      </g>
     </g>
    </g>
    <g id="ytick_4">
     <g id="line2d_19">
      <path d="M 62.741 144.522909 
L 565.2 144.522909 
" clip-path="url(#p583ca16442)" style="fill: none; stroke: #b0b0b0; stroke-width: 0.8; stroke-linecap: square"/>
     </g>
     <g id="line2d_20">
      <g>
       <use xlink:href="#m7f75ab23da" x="62.741" y="144.522909" style="stroke: #000000; stroke-width: 0.8"/>
      </g>
     </g>
     <g id="text_11">
      <!-- 0.85 -->
      <g transform="translate(33.475375 148.322128) scale(0.1 -0.1)">
       <use xlink:href="#DejaVuSans-30"/>
       <use xlink:href="#DejaVuSans-2e" x="63.623047"/>
       <use xlink:href="#DejaVuSans-38" x="95.410156"/>
       <use xlink:href="#DejaVuSans-35" x="159.033203"/>
      </g>
     </g>
    </g>
    <g id="ytick_5">
     <g id="line2d_21">
      <path d="M 62.741 97.795684 
L 565.2 97.795684 
" clip-path="url(#p583ca16442)" style="fill: none; stroke: #b0b0b0; stroke-width: 0.8; stroke-linecap: square"/>
     </g>
     <g id="line2d_22">
      <g>
       <use xlink:href="#m7f75ab23da" x="62.741" y="97.795684" style="stroke: #000000; stroke-width: 0.8"/>
      </g>
     </g>
     <g id="text_12">
      <!-- 0.90 -->
      <g transform="translate(33.475375 101.594903) scale(0.1 -0.1)">
       <defs>
        <path id="DejaVuSans-39" d="M 703 97 
L 703 672 
Q 941 559 1184 500 
Q 1428 441 1663 441 
Q 2288 441 2617 861 
Q 2947 1281 2994 2138 
Q 2813 1869 2534 1725 
Q 2256 1581 1919 1581 
Q 1219 1581 811 2004 
Q 403 2428 403 3163 
Q 403 3881 828 4315 
Q 1253 4750 1959 4750 
Q 2769 4750 3195 4129 
Q 3622 3509 3622 2328 
Q 3622 1225 3098 567 
Q 2575 -91 1691 -91 
Q 1453 -91 1209 -44 
Q 966 3 703 97 
z
M 1959 2075 
Q 2384 2075 2632 2365 
Q 2881 2656 2881 3163 
Q 2881 3666 2632 3958 
Q 2384 4250 1959 4250 
Q 1534 4250 1286 3958 
Q 1038 3666 1038 3163 
Q 1038 2656 1286 2365 
Q 1534 2075 1959 2075 
z
" transform="scale(0.015625)"/>
       </defs>
       <use xlink:href="#DejaVuSans-30"/>
       <use xlink:href="#DejaVuSans-2e" x="63.623047"/>
       <use xlink:href="#DejaVuSans-39" x="95.410156"/>
       <use xlink:href="#DejaVuSans-30" x="159.033203"/>
      </g>
     </g>
    </g>
    <g id="ytick_6">
     <g id="line2d_23">
      <path d="M 62.741 51.068459 
L 565.2 51.068459 
" clip-path="url(#p583ca16442)" style="fill: none; stroke: #b0b0b0; stroke-width: 0.8; stroke-linecap: square"/>
     </g>
     <g id="line2d_24">
      <g>
       <use xlink:href="#m7f75ab23da" x="62.741" y="51.068459" style="stroke: #000000; stroke-width: 0.8"/>
      </g>
     </g>
     <g id="text_13">
      <!-- 0.95 -->
      <g transform="translate(33.475375 54.867678) scale(0.1 -0.1)">
       <use xlink:href="#DejaVuSans-30"/>
       <use xlink:href="#DejaVuSans-2e" x="63.623047"/>
       <use xlink:href="#DejaVuSans-39" x="95.410156"/>
       <use xlink:href="#DejaVuSans-35" x="159.033203"/>
      </g>
     </g>
    </g>
    <g id="text_14">
     <!-- $\overline{W}_2$ -->
     <g transform="translate(26.563813 172.98) rotate(-90) scale(0.14 -0.14)">
      <defs>
       <path id="DejaVuSans-Oblique-57" d="M 616 4666 
L 1228 4666 
L 1453 697 
L 3213 4666 
L 3916 4666 
L 4147 697 
L 5888 4666 
L 6528 4666 
L 4453 0 
L 3659 0 
L 3444 3891 
L 1697 0 
L 903 0 
L 616 4666 
z
" transform="scale(0.015625)"/>
      </defs>
      <use xlink:href="#DejaVuSans-Oblique-57" transform="translate(0 0.84375)"/>
      <use xlink:href="#DejaVuSans-32" transform="translate(99.833984 -16.0625) scale(0.7)"/>
      <path d="M 0 85.5 
L 0 91.75 
L 98.876953 91.75 
L 98.876953 85.5 
L 0 85.5 
z
"/>
     </g>
    </g>
   </g>
   <g id="line2d_25">
    <path d="M 85.580045 295.024637 
L 94.715664 284.08211 
L 103.851282 275.13485 
L 112.9869 266.762527 
L 122.122518 258.961457 
L 131.258136 251.317712 
L 140.393755 244.182234 
L 149.529373 237.621077 
L 158.664991 231.344419 
L 167.800609 225.554874 
L 176.936227 220.29812 
L 186.071845 215.112003 
L 195.207464 210.126109 
L 204.343082 205.517677 
L 213.4787 201.123596 
L 222.614318 196.960885 
L 231.749936 193.015717 
L 240.885555 189.268602 
L 250.021173 185.749395 
L 259.156791 182.325248 
L 268.292409 179.08665 
L 277.428027 176.002313 
L 286.563645 173.07069 
L 295.699264 170.179924 
L 304.834882 167.481808 
L 313.9705 164.848478 
L 323.106118 162.359292 
L 332.241736 159.918404 
L 341.377355 157.57873 
L 350.512973 155.331165 
L 359.648591 153.131022 
L 368.784209 151.012689 
L 377.919827 148.974688 
L 387.055445 147.00403 
L 396.191064 145.103559 
L 405.326682 143.246215 
L 414.4623 141.460961 
L 423.597918 139.716599 
L 432.733536 138.029338 
L 441.869155 136.398836 
L 451.004773 134.813502 
L 460.140391 133.273641 
L 469.276009 131.788159 
L 478.411627 130.332683 
L 487.547245 128.915954 
L 496.682864 127.521509 
L 505.818482 126.188496 
L 514.9541 124.878085 
L 524.089718 123.607206 
L 533.225336 122.35934 
L 542.360955 121.145731 
" clip-path="url(#p583ca16442)" style="fill: none; stroke: #0000ff; stroke-width: 2; stroke-linecap: square"/>
   </g>
   <g id="line2d_26">
    <path d="M 85.580045 289.411092 
L 94.715664 271.690369 
L 103.851282 258.725475 
L 112.9869 246.353878 
L 122.122518 234.860567 
L 131.258136 223.378174 
L 140.393755 212.913706 
L 149.529373 203.580475 
L 158.664991 194.65418 
L 167.800609 186.630192 
L 176.936227 179.621375 
L 186.071845 172.529996 
L 195.207464 165.714476 
L 204.343082 159.605551 
L 213.4787 153.814509 
L 222.614318 148.39794 
L 231.749936 143.328244 
L 240.885555 138.567785 
L 250.021173 134.189489 
L 259.156791 129.90071 
L 268.292409 125.911354 
L 277.428027 122.160174 
L 286.563645 118.645478 
L 295.699264 115.125098 
L 304.834882 111.942706 
L 313.9705 108.818691 
L 323.106118 105.930559 
L 332.241736 103.073288 
L 341.377355 100.365982 
L 350.512973 97.791835 
L 359.648591 95.258492 
L 368.784209 92.842929 
L 377.919827 90.544248 
L 387.055445 88.336011 
L 396.191064 86.226949 
L 405.326682 84.162145 
L 414.4623 82.204527 
L 423.597918 80.289628 
L 432.733536 78.454087 
L 441.869155 76.69809 
L 451.004773 74.99876 
L 460.140391 73.358242 
L 469.276009 71.795983 
L 478.411627 70.2629 
L 487.547245 68.778399 
L 496.682864 67.309998 
L 505.818482 65.938674 
L 514.9541 64.586005 
L 524.089718 63.287321 
L 533.225336 62.009976 
L 542.360955 60.777809 
" clip-path="url(#p583ca16442)" style="fill: none; stroke-dasharray: 3.7,1.6; stroke-dashoffset: 0; stroke: #0000ff"/>
   </g>
   <g id="line2d_27">
    <path d="M 85.580045 300.638182 
L 94.715664 296.47385 
L 103.851282 291.544225 
L 112.9869 287.171177 
L 122.122518 283.062347 
L 131.258136 279.257251 
L 140.393755 275.450761 
L 149.529373 271.661679 
L 158.664991 268.034658 
L 167.800609 264.479557 
L 176.936227 260.974865 
L 186.071845 257.694009 
L 195.207464 254.537743 
L 204.343082 251.429804 
L 213.4787 248.432683 
L 222.614318 245.523829 
L 231.749936 242.70319 
L 240.885555 239.96942 
L 250.021173 237.309302 
L 259.156791 234.749786 
L 268.292409 232.261947 
L 277.428027 229.844452 
L 286.563645 227.495901 
L 295.699264 225.23475 
L 304.834882 223.020911 
L 313.9705 220.878264 
L 323.106118 218.788025 
L 332.241736 216.763519 
L 341.377355 214.791478 
L 350.512973 212.870495 
L 359.648591 211.003552 
L 368.784209 209.182449 
L 377.919827 207.405128 
L 387.055445 205.672048 
L 396.191064 203.980169 
L 405.326682 202.330286 
L 414.4623 200.717395 
L 423.597918 199.143571 
L 432.733536 197.60459 
L 441.869155 196.099582 
L 451.004773 194.628244 
L 460.140391 193.18904 
L 469.276009 191.780336 
L 478.411627 190.402465 
L 487.547245 189.053509 
L 496.682864 187.733021 
L 505.818482 186.438319 
L 514.9541 185.170166 
L 524.089718 183.927092 
L 533.225336 182.708704 
L 542.360955 181.513653 
" clip-path="url(#p583ca16442)" style="fill: none; stroke-dasharray: 3.7,1.6; stroke-dashoffset: 0; stroke: #0000ff"/>
   </g>
   <g id="line2d_28">
    <path d="M 85.580045 117.161858 
L 94.715664 111.898126 
L 103.851282 108.015208 
L 112.9869 104.531665 
L 122.122518 101.043935 
L 131.258136 97.922817 
L 140.393755 94.82827 
L 149.529373 92.06844 
L 158.664991 89.458631 
L 167.800609 87.062691 
L 176.936227 84.896589 
L 186.071845 82.823219 
L 195.207464 80.817473 
L 204.343082 78.988519 
L 213.4787 77.354368 
L 222.614318 75.785859 
L 231.749936 74.323361 
L 240.885555 72.931777 
L 250.021173 71.618401 
L 259.156791 70.337114 
L 268.292409 69.124322 
L 277.428027 67.976358 
L 286.563645 66.884021 
L 295.699264 65.80305 
L 304.834882 64.807069 
L 313.9705 63.820404 
L 323.106118 62.894712 
L 332.241736 61.977504 
L 341.377355 61.104798 
L 350.512973 60.262559 
L 359.648591 59.440039 
L 368.784209 58.650047 
L 377.919827 57.892497 
L 387.055445 57.152623 
L 396.191064 56.444231 
L 405.326682 55.751295 
L 414.4623 55.086402 
L 423.597918 54.436225 
L 432.733536 53.80895 
L 441.869155 53.200512 
L 451.004773 52.610371 
L 460.140391 52.03778 
L 469.276009 51.485298 
L 478.411627 50.943979 
L 487.547245 50.415955 
L 496.682864 49.895842 
L 505.818482 49.399718 
L 514.9541 48.912296 
L 524.089718 48.440023 
L 533.225336 47.974905 
L 542.360955 47.52411 
" clip-path="url(#p583ca16442)" style="fill: none; stroke: #ff0000; stroke-width: 2; stroke-linecap: square"/>
   </g>
   <g id="line2d_29">
    <path d="M 85.580045 111.984089 
L 94.715664 105.293668 
L 103.851282 100.190322 
L 112.9869 95.339585 
L 122.122518 90.233899 
L 131.258136 85.797303 
L 140.393755 81.257115 
L 149.529373 77.4103 
L 158.664991 73.783731 
L 167.800609 70.538832 
L 176.936227 67.712007 
L 186.071845 64.988442 
L 195.207464 62.325398 
L 204.343082 59.985816 
L 213.4787 58.001021 
L 222.614318 56.086077 
L 231.749936 54.335399 
L 240.885555 52.676189 
L 250.021173 51.128908 
L 259.156791 49.599703 
L 268.292409 48.170509 
L 277.428027 46.838439 
L 286.563645 45.58455 
L 295.699264 44.316394 
L 304.834882 43.196077 
L 313.9705 42.062247 
L 323.106118 41.027574 
L 332.241736 39.981753 
L 341.377355 39.003393 
L 350.512973 38.064015 
L 359.648591 37.142423 
L 368.784209 36.266856 
L 377.919827 35.438127 
L 387.055445 34.626076 
L 396.191064 33.860615 
L 405.326682 33.109248 
L 414.4623 32.398836 
L 423.597918 31.702241 
L 432.733536 31.037467 
L 441.869155 30.396606 
L 451.004773 29.779015 
L 460.140391 29.183789 
L 469.276009 28.616502 
L 478.411627 28.05943 
L 487.547245 27.517567 
L 496.682864 26.980456 
L 505.818482 26.481015 
L 514.9541 25.988661 
L 524.089718 25.516719 
L 533.225336 25.049514 
L 542.360955 24.601818 
" clip-path="url(#p583ca16442)" style="fill: none; stroke-dasharray: 3.7,1.6; stroke-dashoffset: 0; stroke: #ff0000"/>
   </g>
   <g id="line2d_30">
    <path d="M 85.580045 122.339626 
L 94.715664 118.502584 
L 103.851282 115.840093 
L 112.9869 113.723746 
L 122.122518 111.853971 
L 131.258136 110.048331 
L 140.393755 108.399425 
L 149.529373 106.726581 
L 158.664991 105.133531 
L 167.800609 103.586549 
L 176.936227 102.081172 
L 186.071845 100.657996 
L 195.207464 99.309549 
L 204.343082 97.991221 
L 213.4787 96.707714 
L 222.614318 95.485642 
L 231.749936 94.311323 
L 240.885555 93.187365 
L 250.021173 92.107893 
L 259.156791 91.074525 
L 268.292409 90.078135 
L 277.428027 89.114276 
L 286.563645 88.183491 
L 295.699264 87.289706 
L 304.834882 86.418061 
L 313.9705 85.578561 
L 323.106118 84.761849 
L 332.241736 83.973254 
L 341.377355 83.206202 
L 350.512973 82.461102 
L 359.648591 81.737656 
L 368.784209 81.033238 
L 377.919827 80.346867 
L 387.055445 79.679171 
L 396.191064 79.027846 
L 405.326682 78.393342 
L 414.4623 77.773968 
L 423.597918 77.170209 
L 432.733536 76.580433 
L 441.869155 76.004418 
L 451.004773 75.441726 
L 460.140391 74.891771 
L 469.276009 74.354093 
L 478.411627 73.828529 
L 487.547245 73.314343 
L 496.682864 72.811228 
L 505.818482 72.31842 
L 514.9541 71.83593 
L 524.089718 71.363328 
L 533.225336 70.900296 
L 542.360955 70.446401 
" clip-path="url(#p583ca16442)" style="fill: none; stroke-dasharray: 3.7,1.6; stroke-dashoffset: 0; stroke: #ff0000"/>
   </g>
   <g id="patch_3">
    <path d="M 62.741 314.44 
L 62.741 10.8 
" style="fill: none; stroke: #000000; stroke-width: 0.8; stroke-linejoin: miter; stroke-linecap: square"/>
   </g>
   <g id="patch_4">
    <path d="M 565.2 314.44 
L 565.2 10.8 
" style="fill: none; stroke: #000000; stroke-width: 0.8; stroke-linejoin: miter; stroke-linecap: square"/>
   </g>
   <g id="patch_5">
    <path d="M 62.741 314.44 
L 565.2 314.44 
" style="fill: none; stroke: #000000; stroke-width: 0.8; stroke-linejoin: miter; stroke-linecap: square"/>
   </g>
   <g id="patch_6">
    <path d="M 62.741 10.8 
L 565.2 10.8 
" style="fill: none; stroke: #000000; stroke-width: 0.8; stroke-linejoin: miter; stroke-linecap: square"/>
   </g>
   <g id="legend_1">
    <g id="patch_7">
     <path d="M 402.565937 307.44 
L 555.4 307.44 
Q 558.2 307.44 558.2 304.64 
L 558.2 264.94125 
Q 558.2 262.14125 555.4 262.14125 
L 402.565937 262.14125 
Q 399.765937 262.14125 399.765937 264.94125 
L 399.765937 304.64 
Q 399.765937 307.44 402.565937 307.44 
z
" style="fill: #ffffff; opacity: 0.8; stroke: #cccccc; stroke-linejoin: miter"/>
    </g>
    <g id="line2d_31">
     <path d="M 405.365937 273.479063 
L 419.365937 273.479063 
L 433.365937 273.479063 
" style="fill: none; stroke: #0000ff; stroke-width: 2; stroke-linecap: square"/>
    </g>
    <g id="text_15">
     <!-- Multi-Grid -->
     <g transform="translate(444.565937 278.379063) scale(0.14 -0.14)">
      <defs>
       <path id="DejaVuSans-4d" d="M 628 4666 
L 1569 4666 
L 2759 1491 
L 3956 4666 
L 4897 4666 
L 4897 0 
L 4281 0 
L 4281 4097 
L 3078 897 
L 2444 897 
L 1241 4097 
L 1241 0 
L 628 0 
L 628 4666 
z
" transform="scale(0.015625)"/>
       <path id="DejaVuSans-75" d="M 544 1381 
L 544 3500 
L 1119 3500 
L 1119 1403 
Q 1119 906 1312 657 
Q 1506 409 1894 409 
Q 2359 409 2629 706 
Q 2900 1003 2900 1516 
L 2900 3500 
L 3475 3500 
L 3475 0 
L 2900 0 
L 2900 538 
Q 2691 219 2414 64 
Q 2138 -91 1772 -91 
Q 1169 -91 856 284 
Q 544 659 544 1381 
z
M 1991 3584 
L 1991 3584 
z
" transform="scale(0.015625)"/>
       <path id="DejaVuSans-6c" d="M 603 4863 
L 1178 4863 
L 1178 0 
L 603 0 
L 603 4863 
z
" transform="scale(0.015625)"/>
       <path id="DejaVuSans-74" d="M 1172 4494 
L 1172 3500 
L 2356 3500 
L 2356 3053 
L 1172 3053 
L 1172 1153 
Q 1172 725 1289 603 
Q 1406 481 1766 481 
L 2356 481 
L 2356 0 
L 1766 0 
Q 1100 0 847 248 
Q 594 497 594 1153 
L 594 3053 
L 172 3053 
L 172 3500 
L 594 3500 
L 594 4494 
L 1172 4494 
z
" transform="scale(0.015625)"/>
       <path id="DejaVuSans-2d" d="M 313 2009 
L 1997 2009 
L 1997 1497 
L 313 1497 
L 313 2009 
z
" transform="scale(0.015625)"/>
       <path id="DejaVuSans-47" d="M 3809 666 
L 3809 1919 
L 2778 1919 
L 2778 2438 
L 4434 2438 
L 4434 434 
Q 4069 175 3628 42 
Q 3188 -91 2688 -91 
Q 1594 -91 976 548 
Q 359 1188 359 2328 
Q 359 3472 976 4111 
Q 1594 4750 2688 4750 
Q 3144 4750 3555 4637 
Q 3966 4525 4313 4306 
L 4313 3634 
Q 3963 3931 3569 4081 
Q 3175 4231 2741 4231 
Q 1884 4231 1454 3753 
Q 1025 3275 1025 2328 
Q 1025 1384 1454 906 
Q 1884 428 2741 428 
Q 3075 428 3337 486 
Q 3600 544 3809 666 
z
" transform="scale(0.015625)"/>
       <path id="DejaVuSans-72" d="M 2631 2963 
Q 2534 3019 2420 3045 
Q 2306 3072 2169 3072 
Q 1681 3072 1420 2755 
Q 1159 2438 1159 1844 
L 1159 0 
L 581 0 
L 581 3500 
L 1159 3500 
L 1159 2956 
Q 1341 3275 1631 3429 
Q 1922 3584 2338 3584 
Q 2397 3584 2469 3576 
Q 2541 3569 2628 3553 
L 2631 2963 
z
" transform="scale(0.015625)"/>
       <path id="DejaVuSans-64" d="M 2906 2969 
L 2906 4863 
L 3481 4863 
L 3481 0 
L 2906 0 
L 2906 525 
Q 2725 213 2448 61 
Q 2172 -91 1784 -91 
Q 1150 -91 751 415 
Q 353 922 353 1747 
Q 353 2572 751 3078 
Q 1150 3584 1784 3584 
Q 2172 3584 2448 3432 
Q 2725 3281 2906 2969 
z
M 947 1747 
Q 947 1113 1208 752 
Q 1469 391 1925 391 
Q 2381 391 2643 752 
Q 2906 1113 2906 1747 
Q 2906 2381 2643 2742 
Q 2381 3103 1925 3103 
Q 1469 3103 1208 2742 
Q 947 2381 947 1747 
z
" transform="scale(0.015625)"/>
      </defs>
      <use xlink:href="#DejaVuSans-4d"/>
      <use xlink:href="#DejaVuSans-75" x="86.279297"/>
      <use xlink:href="#DejaVuSans-6c" x="149.658203"/>
      <use xlink:href="#DejaVuSans-74" x="177.441406"/>
      <use xlink:href="#DejaVuSans-69" x="216.650391"/>
      <use xlink:href="#DejaVuSans-2d" x="244.433594"/>
      <use xlink:href="#DejaVuSans-47" x="284.142578"/>
      <use xlink:href="#DejaVuSans-72" x="361.632812"/>
      <use xlink:href="#DejaVuSans-69" x="402.746094"/>
      <use xlink:href="#DejaVuSans-64" x="430.529297"/>
     </g>
    </g>
    <g id="line2d_32">
     <path d="M 405.365937 294.028437 
L 419.365937 294.028437 
L 433.365937 294.028437 
" style="fill: none; stroke: #ff0000; stroke-width: 2; stroke-linecap: square"/>
    </g>
    <g id="text_16">
     <!-- Per Component -->
     <g transform="translate(444.565937 298.928437) scale(0.14 -0.14)">
      <defs>
       <path id="DejaVuSans-50" d="M 1259 4147 
L 1259 2394 
L 2053 2394 
Q 2494 2394 2734 2622 
Q 2975 2850 2975 3272 
Q 2975 3691 2734 3919 
Q 2494 4147 2053 4147 
L 1259 4147 
z
M 628 4666 
L 2053 4666 
Q 2838 4666 3239 4311 
Q 3641 3956 3641 3272 
Q 3641 2581 3239 2228 
Q 2838 1875 2053 1875 
L 1259 1875 
L 1259 0 
L 628 0 
L 628 4666 
z
" transform="scale(0.015625)"/>
       <path id="DejaVuSans-43" d="M 4122 4306 
L 4122 3641 
Q 3803 3938 3442 4084 
Q 3081 4231 2675 4231 
Q 1875 4231 1450 3742 
Q 1025 3253 1025 2328 
Q 1025 1406 1450 917 
Q 1875 428 2675 428 
Q 3081 428 3442 575 
Q 3803 722 4122 1019 
L 4122 359 
Q 3791 134 3420 21 
Q 3050 -91 2638 -91 
Q 1578 -91 968 557 
Q 359 1206 359 2328 
Q 359 3453 968 4101 
Q 1578 4750 2638 4750 
Q 3056 4750 3426 4639 
Q 3797 4528 4122 4306 
z
" transform="scale(0.015625)"/>
       <path id="DejaVuSans-70" d="M 1159 525 
L 1159 -1331 
L 581 -1331 
L 581 3500 
L 1159 3500 
L 1159 2969 
Q 1341 3281 1617 3432 
Q 1894 3584 2278 3584 
Q 2916 3584 3314 3078 
Q 3713 2572 3713 1747 
Q 3713 922 3314 415 
Q 2916 -91 2278 -91 
Q 1894 -91 1617 61 
Q 1341 213 1159 525 
z
M 3116 1747 
Q 3116 2381 2855 2742 
Q 2594 3103 2138 3103 
Q 1681 3103 1420 2742 
Q 1159 2381 1159 1747 
Q 1159 1113 1420 752 
Q 1681 391 2138 391 
Q 2594 391 2855 752 
Q 3116 1113 3116 1747 
z
" transform="scale(0.015625)"/>
      </defs>
      <use xlink:href="#DejaVuSans-50"/>
      <use xlink:href="#DejaVuSans-65" x="56.677734"/>
      <use xlink:href="#DejaVuSans-72" x="118.201172"/>
      <use xlink:href="#DejaVuSans-20" x="159.314453"/>
      <use xlink:href="#DejaVuSans-43" x="191.101562"/>
      <use xlink:href="#DejaVuSans-6f" x="260.925781"/>
      <use xlink:href="#DejaVuSans-6d" x="322.107422"/>
      <use xlink:href="#DejaVuSans-70" x="419.519531"/>
      <use xlink:href="#DejaVuSans-6f" x="482.996094"/>
      <use xlink:href="#DejaVuSans-6e" x="544.177734"/>
      <use xlink:href="#DejaVuSans-65" x="607.556641"/>
      <use xlink:href="#DejaVuSans-6e" x="669.080078"/>
      <use xlink:href="#DejaVuSans-74" x="732.458984"/>
     </g>
    </g>
   </g>
  </g>
 </g>
 <defs>
  <clipPath id="p583ca16442">
   <rect x="62.741" y="10.8" width="502.459" height="303.64"/>
  </clipPath>
 </defs>
</svg>
