<?xml version="1.0" encoding="utf-8" standalone="no"?>
<!DOCTYPE svg PUBLIC "-//W3C//DTD SVG 1.1//EN"
  "http://www.w3.org/Graphics/SVG/1.1/DTD/svg11.dtd">
<svg xmlns:xlink="http://www.w3.org/1999/xlink" width="576pt" height="360pt" viewBox="0 0 576 360" xmlns="http://www.w3.org/2000/svg" version="1.1">
 <metadata>
  <rdf:RDF xmlns:dc="http://purl.org/dc/elements/1.1/" xmlns:cc="http://creativecommons.org/ns#" xmlns:rdf="http://www.w3.org/1999/02/22-rdf-syntax-ns#">
   <cc:Work>
    <dc:type rdf:resource="http://purl.org/dc/dcmitype/StillImage"/>
    <dc:date>2025-07-07T11:01:06.808887</dc:date>
    <dc:format>image/svg+xml</dc:format>
    <dc:creator>
     <cc:Agent>
      <dc:title>Matplotlib v3.9.4, https://matplotlib.org/</dc:title>
     </cc:Agent>
    </dc:creator>
   </cc:Work>
  </rdf:RDF>
 </metadata>
 <defs>
  <style type="text/css">*{stroke-linejoin: round; stroke-linecap: butt}</style>
 </defs>
 <g id="figure_1">
  <g id="patch_1">
   <path d="M 0 360 
L 576 360 
L 576 0 
L 0 0 
z
" style="fill: #ffffff"/>
  </g>
  <g id="axes_1">
   <g id="patch_2">
    <path d="M 41.15 317.32 
L 565.2 317.32 
L 565.2 11.565611 
L 41.15 11.565611 
z
" style="fill: #ffffff"/>
   </g>
   <g id="PolyCollection_1">
    <defs>
     <path id="mdda2a8a48b" d="M 64.970455 -197.219569 
L 64.970455 -79.296714 
L 74.498636 -93.736436 
L 84.026818 -89.549982 
L 93.555 -88.237849 
L 103.083182 -92.846546 
L 112.611364 -91.694141 
L 122.139545 -82.476628 
L 131.667727 -77.800793 
L 141.195909 -80.256743 
L 150.724091 -85.428434 
L 160.252273 -80.008143 
L 169.780455 -80.650901 
L 179.308636 -84.06609 
L 188.836818 -87.638274 
L 198.365 -89.517507 
L 207.893182 -89.831649 
L 217.421364 -91.158358 
L 226.949545 -91.453842 
L 236.477727 -91.43852 
L 246.005909 -91.003863 
L 255.534091 -88.384553 
L 265.062273 -88.348421 
L 274.590455 -86.864664 
L 284.118636 -88.854883 
L 293.646818 -88.187223 
L 303.175 -86.445771 
L 312.703182 -86.037086 
L 322.231364 -85.080335 
L 331.759545 -86.057971 
L 341.287727 -87.863101 
L 350.815909 -88.355544 
L 360.344091 -89.100402 
L 369.872273 -90.172467 
L 379.400455 -90.622478 
L 388.928636 -90.797443 
L 398.456818 -89.732564 
L 407.985 -91.066204 
L 417.513182 -90.487416 
L 427.041364 -89.572811 
L 436.569545 -89.982742 
L 446.097727 -90.472681 
L 455.625909 -90.693214 
L 465.154091 -91.312975 
L 474.682273 -89.250018 
L 484.210455 -89.737591 
L 493.738636 -89.358609 
L 503.266818 -88.162328 
L 512.795 -88.907628 
L 522.323182 -88.319313 
L 531.851364 -89.244205 
L 541.379545 -88.496149 
L 541.379545 -333.799868 
L 541.379545 -333.799868 
L 531.851364 -334.536462 
L 522.323182 -330.931452 
L 512.795 -327.816159 
L 503.266818 -324.237341 
L 493.738636 -318.086977 
L 484.210455 -315.653738 
L 474.682273 -313.920636 
L 465.154091 -302.046491 
L 455.625909 -301.075563 
L 446.097727 -298.334647 
L 436.569545 -295.224222 
L 427.041364 -293.960077 
L 417.513182 -289.434004 
L 407.985 -280.185612 
L 398.456818 -275.379589 
L 388.928636 -269.372292 
L 379.400455 -266.420865 
L 369.872273 -266.182964 
L 360.344091 -266.390097 
L 350.815909 -259.168898 
L 341.287727 -252.577039 
L 331.759545 -245.985537 
L 322.231364 -247.17904 
L 312.703182 -246.656766 
L 303.175 -246.065373 
L 293.646818 -244.919552 
L 284.118636 -246.705219 
L 274.590455 -242.164479 
L 265.062273 -235.931753 
L 255.534091 -233.588264 
L 246.005909 -236.307003 
L 236.477727 -235.776911 
L 226.949545 -235.873261 
L 217.421364 -232.53733 
L 207.893182 -230.629195 
L 198.365 -227.185239 
L 188.836818 -225.884844 
L 179.308636 -223.742461 
L 169.780455 -224.202175 
L 160.252273 -222.79213 
L 150.724091 -228.748123 
L 141.195909 -228.965226 
L 131.667727 -232.894053 
L 122.139545 -238.954124 
L 112.611364 -247.247352 
L 103.083182 -245.906762 
L 93.555 -242.372211 
L 84.026818 -232.406321 
L 74.498636 -235.064891 
L 64.970455 -197.219569 
z
" style="stroke: #0000ff; stroke-opacity: 0.2"/>
    </defs>
    <g clip-path="url(#p2873a5f6f0)">
     <use xlink:href="#mdda2a8a48b" x="0" y="360" style="fill: #0000ff; fill-opacity: 0.2; stroke: #0000ff; stroke-opacity: 0.2"/>
    </g>
   </g>
   <g id="PolyCollection_2">
    <defs>
     <path id="m8001b8ced9" d="M 64.970455 -64.961159 
L 64.970455 -57.250321 
L 74.498636 -57.712085 
L 84.026818 -57.165357 
L 93.555 -57.502155 
L 103.083182 -58.031354 
L 112.611364 -58.186211 
L 122.139545 -57.138962 
L 131.667727 -56.577927 
L 141.195909 -57.153031 
L 150.724091 -57.704874 
L 160.252273 -57.339512 
L 169.780455 -57.544475 
L 179.308636 -58.092843 
L 188.836818 -58.531765 
L 198.365 -58.909769 
L 207.893182 -58.671444 
L 217.421364 -58.971695 
L 226.949545 -59.069497 
L 236.477727 -59.237085 
L 246.005909 -59.216338 
L 255.534091 -58.962003 
L 265.062273 -59.079424 
L 274.590455 -58.763979 
L 284.118636 -59.051932 
L 293.646818 -59.174434 
L 303.175 -58.859371 
L 312.703182 -58.917006 
L 322.231364 -58.834277 
L 331.759545 -59.182742 
L 341.287727 -59.388522 
L 350.815909 -59.399208 
L 360.344091 -59.339312 
L 369.872273 -59.708724 
L 379.400455 -59.867332 
L 388.928636 -59.919056 
L 398.456818 -59.746285 
L 407.985 -60.027348 
L 417.513182 -60.111261 
L 427.041364 -59.976597 
L 436.569545 -60.102612 
L 446.097727 -60.320007 
L 455.625909 -60.474033 
L 465.154091 -60.694689 
L 474.682273 -60.43942 
L 484.210455 -60.619441 
L 493.738636 -60.354725 
L 503.266818 -60.296136 
L 512.795 -60.544906 
L 522.323182 -60.591945 
L 531.851364 -60.851082 
L 541.379545 -60.82393 
L 541.379545 -107.740407 
L 541.379545 -107.740407 
L 531.851364 -107.825714 
L 522.323182 -107.050449 
L 512.795 -106.477926 
L 503.266818 -105.685525 
L 493.738636 -104.635392 
L 484.210455 -103.460884 
L 474.682273 -102.973182 
L 465.154091 -101.006941 
L 455.625909 -100.621259 
L 446.097727 -99.762939 
L 436.569545 -98.998156 
L 427.041364 -98.566596 
L 417.513182 -97.675154 
L 407.985 -96.091096 
L 398.456818 -94.965035 
L 388.928636 -93.637972 
L 379.400455 -92.762234 
L 369.872273 -92.358837 
L 360.344091 -92.006264 
L 350.815909 -89.933842 
L 341.287727 -88.35281 
L 331.759545 -86.745031 
L 322.231364 -86.497791 
L 312.703182 -85.962829 
L 303.175 -85.513118 
L 293.646818 -85.009731 
L 284.118636 -84.990869 
L 274.590455 -83.651489 
L 265.062273 -82.416279 
L 255.534091 -81.754988 
L 246.005909 -82.039256 
L 236.477727 -81.662279 
L 226.949545 -81.330122 
L 217.421364 -80.480405 
L 207.893182 -79.770994 
L 198.365 -78.148761 
L 188.836818 -77.400189 
L 179.308636 -76.181679 
L 169.780455 -75.22345 
L 160.252273 -73.989784 
L 150.724091 -74.348158 
L 141.195909 -72.442029 
L 131.667727 -71.387513 
L 122.139545 -70.531135 
L 112.611364 -69.604588 
L 103.083182 -69.427902 
L 93.555 -68.521557 
L 84.026818 -67.653298 
L 74.498636 -67.38357 
L 64.970455 -64.961159 
z
" style="stroke: #ff0000; stroke-opacity: 0.2"/>
    </defs>
    <g clip-path="url(#p2873a5f6f0)">
     <use xlink:href="#m8001b8ced9" x="0" y="360" style="fill: #ff0000; fill-opacity: 0.2; stroke: #ff0000; stroke-opacity: 0.2"/>
    </g>
   </g>
   <g id="matplotlib.axis_1">
    <g id="xtick_1">
     <g id="line2d_1">
      <path d="M 64.970455 317.32 
L 64.970455 11.565611 
" clip-path="url(#p2873a5f6f0)" style="fill: none; stroke: #b0b0b0; stroke-width: 0.8; stroke-linecap: square"/>
     </g>
     <g id="line2d_2">
      <defs>
       <path id="mf4fcf3f3cc" d="M 0 0 
L 0 3.5 
" style="stroke: #000000; stroke-width: 0.8"/>
      </defs>
      <g>
       <use xlink:href="#mf4fcf3f3cc" x="64.970455" y="317.32" style="stroke: #000000; stroke-width: 0.8"/>
      </g>
     </g>
     <g id="text_1">
      <!-- 10 -->
      <g transform="translate(58.607955 331.918437) scale(0.1 -0.1)">
       <defs>
        <path id="DejaVuSans-31" d="M 794 531 
L 1825 531 
L 1825 4091 
L 703 3866 
L 703 4441 
L 1819 4666 
L 2450 4666 
L 2450 531 
L 3481 531 
L 3481 0 
L 794 0 
L 794 531 
z
" transform="scale(0.015625)"/>
        <path id="DejaVuSans-30" d="M 2034 4250 
Q 1547 4250 1301 3770 
Q 1056 3291 1056 2328 
Q 1056 1369 1301 889 
Q 1547 409 2034 409 
Q 2525 409 2770 889 
Q 3016 1369 3016 2328 
Q 3016 3291 2770 3770 
Q 2525 4250 2034 4250 
z
M 2034 4750 
Q 2819 4750 3233 4129 
Q 3647 3509 3647 2328 
Q 3647 1150 3233 529 
Q 2819 -91 2034 -91 
Q 1250 -91 836 529 
Q 422 1150 422 2328 
Q 422 3509 836 4129 
Q 1250 4750 2034 4750 
z
" transform="scale(0.015625)"/>
       </defs>
       <use xlink:href="#DejaVuSans-31"/>
       <use xlink:href="#DejaVuSans-30" x="63.623047"/>
      </g>
     </g>
    </g>
    <g id="xtick_2">
     <g id="line2d_3">
      <path d="M 160.252273 317.32 
L 160.252273 11.565611 
" clip-path="url(#p2873a5f6f0)" style="fill: none; stroke: #b0b0b0; stroke-width: 0.8; stroke-linecap: square"/>
     </g>
     <g id="line2d_4">
      <g>
       <use xlink:href="#mf4fcf3f3cc" x="160.252273" y="317.32" style="stroke: #000000; stroke-width: 0.8"/>
      </g>
     </g>
     <g id="text_2">
      <!-- 20 -->
      <g transform="translate(153.889773 331.918437) scale(0.1 -0.1)">
       <defs>
        <path id="DejaVuSans-32" d="M 1228 531 
L 3431 531 
L 3431 0 
L 469 0 
L 469 531 
Q 828 903 1448 1529 
Q 2069 2156 2228 2338 
Q 2531 2678 2651 2914 
Q 2772 3150 2772 3378 
Q 2772 3750 2511 3984 
Q 2250 4219 1831 4219 
Q 1534 4219 1204 4116 
Q 875 4013 500 3803 
L 500 4441 
Q 881 4594 1212 4672 
Q 1544 4750 1819 4750 
Q 2544 4750 2975 4387 
Q 3406 4025 3406 3419 
Q 3406 3131 3298 2873 
Q 3191 2616 2906 2266 
Q 2828 2175 2409 1742 
Q 1991 1309 1228 531 
z
" transform="scale(0.015625)"/>
       </defs>
       <use xlink:href="#DejaVuSans-32"/>
       <use xlink:href="#DejaVuSans-30" x="63.623047"/>
      </g>
     </g>
    </g>
    <g id="xtick_3">
     <g id="line2d_5">
      <path d="M 255.534091 317.32 
L 255.534091 11.565611 
" clip-path="url(#p2873a5f6f0)" style="fill: none; stroke: #b0b0b0; stroke-width: 0.8; stroke-linecap: square"/>
     </g>
     <g id="line2d_6">
      <g>
       <use xlink:href="#mf4fcf3f3cc" x="255.534091" y="317.32" style="stroke: #000000; stroke-width: 0.8"/>
      </g>
     </g>
     <g id="text_3">
      <!-- 30 -->
      <g transform="translate(249.171591 331.918437) scale(0.1 -0.1)">
       <defs>
        <path id="DejaVuSans-33" d="M 2597 2516 
Q 3050 2419 3304 2112 
Q 3559 1806 3559 1356 
Q 3559 666 3084 287 
Q 2609 -91 1734 -91 
Q 1441 -91 1130 -33 
Q 819 25 488 141 
L 488 750 
Q 750 597 1062 519 
Q 1375 441 1716 441 
Q 2309 441 2620 675 
Q 2931 909 2931 1356 
Q 2931 1769 2642 2001 
Q 2353 2234 1838 2234 
L 1294 2234 
L 1294 2753 
L 1863 2753 
Q 2328 2753 2575 2939 
Q 2822 3125 2822 3475 
Q 2822 3834 2567 4026 
Q 2313 4219 1838 4219 
Q 1578 4219 1281 4162 
Q 984 4106 628 3988 
L 628 4550 
Q 988 4650 1302 4700 
Q 1616 4750 1894 4750 
Q 2613 4750 3031 4423 
Q 3450 4097 3450 3541 
Q 3450 3153 3228 2886 
Q 3006 2619 2597 2516 
z
" transform="scale(0.015625)"/>
       </defs>
       <use xlink:href="#DejaVuSans-33"/>
       <use xlink:href="#DejaVuSans-30" x="63.623047"/>
      </g>
     </g>
    </g>
    <g id="xtick_4">
     <g id="line2d_7">
      <path d="M 350.815909 317.32 
L 350.815909 11.565611 
" clip-path="url(#p2873a5f6f0)" style="fill: none; stroke: #b0b0b0; stroke-width: 0.8; stroke-linecap: square"/>
     </g>
     <g id="line2d_8">
      <g>
       <use xlink:href="#mf4fcf3f3cc" x="350.815909" y="317.32" style="stroke: #000000; stroke-width: 0.8"/>
      </g>
     </g>
     <g id="text_4">
      <!-- 40 -->
      <g transform="translate(344.453409 331.918437) scale(0.1 -0.1)">
       <defs>
        <path id="DejaVuSans-34" d="M 2419 4116 
L 825 1625 
L 2419 1625 
L 2419 4116 
z
M 2253 4666 
L 3047 4666 
L 3047 1625 
L 3713 1625 
L 3713 1100 
L 3047 1100 
L 3047 0 
L 2419 0 
L 2419 1100 
L 313 1100 
L 313 1709 
L 2253 4666 
z
" transform="scale(0.015625)"/>
       </defs>
       <use xlink:href="#DejaVuSans-34"/>
       <use xlink:href="#DejaVuSans-30" x="63.623047"/>
      </g>
     </g>
    </g>
    <g id="xtick_5">
     <g id="line2d_9">
      <path d="M 446.097727 317.32 
L 446.097727 11.565611 
" clip-path="url(#p2873a5f6f0)" style="fill: none; stroke: #b0b0b0; stroke-width: 0.8; stroke-linecap: square"/>
     </g>
     <g id="line2d_10">
      <g>
       <use xlink:href="#mf4fcf3f3cc" x="446.097727" y="317.32" style="stroke: #000000; stroke-width: 0.8"/>
      </g>
     </g>
     <g id="text_5">
      <!-- 50 -->
      <g transform="translate(439.735227 331.918437) scale(0.1 -0.1)">
       <defs>
        <path id="DejaVuSans-35" d="M 691 4666 
L 3169 4666 
L 3169 4134 
L 1269 4134 
L 1269 2991 
Q 1406 3038 1543 3061 
Q 1681 3084 1819 3084 
Q 2600 3084 3056 2656 
Q 3513 2228 3513 1497 
Q 3513 744 3044 326 
Q 2575 -91 1722 -91 
Q 1428 -91 1123 -41 
Q 819 9 494 109 
L 494 744 
Q 775 591 1075 516 
Q 1375 441 1709 441 
Q 2250 441 2565 725 
Q 2881 1009 2881 1497 
Q 2881 1984 2565 2268 
Q 2250 2553 1709 2553 
Q 1456 2553 1204 2497 
Q 953 2441 691 2322 
L 691 4666 
z
" transform="scale(0.015625)"/>
       </defs>
       <use xlink:href="#DejaVuSans-35"/>
       <use xlink:href="#DejaVuSans-30" x="63.623047"/>
      </g>
     </g>
    </g>
    <g id="xtick_6">
     <g id="line2d_11">
      <path d="M 541.379545 317.32 
L 541.379545 11.565611 
" clip-path="url(#p2873a5f6f0)" style="fill: none; stroke: #b0b0b0; stroke-width: 0.8; stroke-linecap: square"/>
     </g>
     <g id="line2d_12">
      <g>
       <use xlink:href="#mf4fcf3f3cc" x="541.379545" y="317.32" style="stroke: #000000; stroke-width: 0.8"/>
      </g>
     </g>
     <g id="text_6">
      <!-- 60 -->
      <g transform="translate(535.017045 331.918437) scale(0.1 -0.1)">
       <defs>
        <path id="DejaVuSans-36" d="M 2113 2584 
Q 1688 2584 1439 2293 
Q 1191 2003 1191 1497 
Q 1191 994 1439 701 
Q 1688 409 2113 409 
Q 2538 409 2786 701 
Q 3034 994 3034 1497 
Q 3034 2003 2786 2293 
Q 2538 2584 2113 2584 
z
M 3366 4563 
L 3366 3988 
Q 3128 4100 2886 4159 
Q 2644 4219 2406 4219 
Q 1781 4219 1451 3797 
Q 1122 3375 1075 2522 
Q 1259 2794 1537 2939 
Q 1816 3084 2150 3084 
Q 2853 3084 3261 2657 
Q 3669 2231 3669 1497 
Q 3669 778 3244 343 
Q 2819 -91 2113 -91 
Q 1303 -91 875 529 
Q 447 1150 447 2328 
Q 447 3434 972 4092 
Q 1497 4750 2381 4750 
Q 2619 4750 2861 4703 
Q 3103 4656 3366 4563 
z
" transform="scale(0.015625)"/>
       </defs>
       <use xlink:href="#DejaVuSans-36"/>
       <use xlink:href="#DejaVuSans-30" x="63.623047"/>
      </g>
     </g>
    </g>
    <g id="text_7">
     <!-- Dimensions $d$ -->
     <g transform="translate(269.225 345.596563) scale(0.1 -0.1)">
      <defs>
       <path id="DejaVuSans-44" d="M 1259 4147 
L 1259 519 
L 2022 519 
Q 2988 519 3436 956 
Q 3884 1394 3884 2338 
Q 3884 3275 3436 3711 
Q 2988 4147 2022 4147 
L 1259 4147 
z
M 628 4666 
L 1925 4666 
Q 3281 4666 3915 4102 
Q 4550 3538 4550 2338 
Q 4550 1131 3912 565 
Q 3275 0 1925 0 
L 628 0 
L 628 4666 
z
" transform="scale(0.015625)"/>
       <path id="DejaVuSans-69" d="M 603 3500 
L 1178 3500 
L 1178 0 
L 603 0 
L 603 3500 
z
M 603 4863 
L 1178 4863 
L 1178 4134 
L 603 4134 
L 603 4863 
z
" transform="scale(0.015625)"/>
       <path id="DejaVuSans-6d" d="M 3328 2828 
Q 3544 3216 3844 3400 
Q 4144 3584 4550 3584 
Q 5097 3584 5394 3201 
Q 5691 2819 5691 2113 
L 5691 0 
L 5113 0 
L 5113 2094 
Q 5113 2597 4934 2840 
Q 4756 3084 4391 3084 
Q 3944 3084 3684 2787 
Q 3425 2491 3425 1978 
L 3425 0 
L 2847 0 
L 2847 2094 
Q 2847 2600 2669 2842 
Q 2491 3084 2119 3084 
Q 1678 3084 1418 2786 
Q 1159 2488 1159 1978 
L 1159 0 
L 581 0 
L 581 3500 
L 1159 3500 
L 1159 2956 
Q 1356 3278 1631 3431 
Q 1906 3584 2284 3584 
Q 2666 3584 2933 3390 
Q 3200 3197 3328 2828 
z
" transform="scale(0.015625)"/>
       <path id="DejaVuSans-65" d="M 3597 1894 
L 3597 1613 
L 953 1613 
Q 991 1019 1311 708 
Q 1631 397 2203 397 
Q 2534 397 2845 478 
Q 3156 559 3463 722 
L 3463 178 
Q 3153 47 2828 -22 
Q 2503 -91 2169 -91 
Q 1331 -91 842 396 
Q 353 884 353 1716 
Q 353 2575 817 3079 
Q 1281 3584 2069 3584 
Q 2775 3584 3186 3129 
Q 3597 2675 3597 1894 
z
M 3022 2063 
Q 3016 2534 2758 2815 
Q 2500 3097 2075 3097 
Q 1594 3097 1305 2825 
Q 1016 2553 972 2059 
L 3022 2063 
z
" transform="scale(0.015625)"/>
       <path id="DejaVuSans-6e" d="M 3513 2113 
L 3513 0 
L 2938 0 
L 2938 2094 
Q 2938 2591 2744 2837 
Q 2550 3084 2163 3084 
Q 1697 3084 1428 2787 
Q 1159 2491 1159 1978 
L 1159 0 
L 581 0 
L 581 3500 
L 1159 3500 
L 1159 2956 
Q 1366 3272 1645 3428 
Q 1925 3584 2291 3584 
Q 2894 3584 3203 3211 
Q 3513 2838 3513 2113 
z
" transform="scale(0.015625)"/>
       <path id="DejaVuSans-73" d="M 2834 3397 
L 2834 2853 
Q 2591 2978 2328 3040 
Q 2066 3103 1784 3103 
Q 1356 3103 1142 2972 
Q 928 2841 928 2578 
Q 928 2378 1081 2264 
Q 1234 2150 1697 2047 
L 1894 2003 
Q 2506 1872 2764 1633 
Q 3022 1394 3022 966 
Q 3022 478 2636 193 
Q 2250 -91 1575 -91 
Q 1294 -91 989 -36 
Q 684 19 347 128 
L 347 722 
Q 666 556 975 473 
Q 1284 391 1588 391 
Q 1994 391 2212 530 
Q 2431 669 2431 922 
Q 2431 1156 2273 1281 
Q 2116 1406 1581 1522 
L 1381 1569 
Q 847 1681 609 1914 
Q 372 2147 372 2553 
Q 372 3047 722 3315 
Q 1072 3584 1716 3584 
Q 2034 3584 2315 3537 
Q 2597 3491 2834 3397 
z
" transform="scale(0.015625)"/>
       <path id="DejaVuSans-6f" d="M 1959 3097 
Q 1497 3097 1228 2736 
Q 959 2375 959 1747 
Q 959 1119 1226 758 
Q 1494 397 1959 397 
Q 2419 397 2687 759 
Q 2956 1122 2956 1747 
Q 2956 2369 2687 2733 
Q 2419 3097 1959 3097 
z
M 1959 3584 
Q 2709 3584 3137 3096 
Q 3566 2609 3566 1747 
Q 3566 888 3137 398 
Q 2709 -91 1959 -91 
Q 1206 -91 779 398 
Q 353 888 353 1747 
Q 353 2609 779 3096 
Q 1206 3584 1959 3584 
z
" transform="scale(0.015625)"/>
       <path id="DejaVuSans-20" transform="scale(0.015625)"/>
       <path id="DejaVuSans-Oblique-64" d="M 2675 525 
Q 2444 222 2128 65 
Q 1813 -91 1428 -91 
Q 903 -91 598 267 
Q 294 625 294 1247 
Q 294 1766 478 2236 
Q 663 2706 1013 3078 
Q 1244 3325 1534 3454 
Q 1825 3584 2144 3584 
Q 2481 3584 2739 3421 
Q 2997 3259 3138 2956 
L 3513 4863 
L 4091 4863 
L 3144 0 
L 2566 0 
L 2675 525 
z
M 891 1350 
Q 891 897 1095 644 
Q 1300 391 1663 391 
Q 1931 391 2161 520 
Q 2391 650 2566 903 
Q 2750 1166 2856 1509 
Q 2963 1853 2963 2188 
Q 2963 2622 2758 2865 
Q 2553 3109 2194 3109 
Q 1922 3109 1687 2981 
Q 1453 2853 1288 2613 
Q 1106 2353 998 2009 
Q 891 1666 891 1350 
z
" transform="scale(0.015625)"/>
      </defs>
      <use xlink:href="#DejaVuSans-44" transform="translate(0 0.015625)"/>
      <use xlink:href="#DejaVuSans-69" transform="translate(77.001953 0.015625)"/>
      <use xlink:href="#DejaVuSans-6d" transform="translate(104.785156 0.015625)"/>
      <use xlink:href="#DejaVuSans-65" transform="translate(202.197266 0.015625)"/>
      <use xlink:href="#DejaVuSans-6e" transform="translate(263.720703 0.015625)"/>
      <use xlink:href="#DejaVuSans-73" transform="translate(327.099609 0.015625)"/>
      <use xlink:href="#DejaVuSans-69" transform="translate(379.199219 0.015625)"/>
      <use xlink:href="#DejaVuSans-6f" transform="translate(406.982422 0.015625)"/>
      <use xlink:href="#DejaVuSans-6e" transform="translate(468.164062 0.015625)"/>
      <use xlink:href="#DejaVuSans-73" transform="translate(531.542969 0.015625)"/>
      <use xlink:href="#DejaVuSans-20" transform="translate(583.642578 0.015625)"/>
      <use xlink:href="#DejaVuSans-Oblique-64" transform="translate(615.429688 0.015625)"/>
     </g>
    </g>
   </g>
   <g id="matplotlib.axis_2">
    <g id="ytick_1">
     <g id="line2d_13">
      <path d="M 41.15 308.514764 
L 565.2 308.514764 
" clip-path="url(#p2873a5f6f0)" style="fill: none; stroke: #b0b0b0; stroke-width: 0.8; stroke-linecap: square"/>
     </g>
     <g id="line2d_14">
      <defs>
       <path id="mf1e735a58e" d="M 0 0 
L -3.5 0 
" style="stroke: #000000; stroke-width: 0.8"/>
      </defs>
      <g>
       <use xlink:href="#mf1e735a58e" x="41.15" y="308.514764" style="stroke: #000000; stroke-width: 0.8"/>
      </g>
     </g>
     <g id="text_8">
      <!-- 0 -->
      <g transform="translate(27.7875 312.313982) scale(0.1 -0.1)">
       <use xlink:href="#DejaVuSans-30"/>
      </g>
     </g>
    </g>
    <g id="ytick_2">
     <g id="line2d_15">
      <path d="M 41.15 271.83655 
L 565.2 271.83655 
" clip-path="url(#p2873a5f6f0)" style="fill: none; stroke: #b0b0b0; stroke-width: 0.8; stroke-linecap: square"/>
     </g>
     <g id="line2d_16">
      <g>
       <use xlink:href="#mf1e735a58e" x="41.15" y="271.83655" style="stroke: #000000; stroke-width: 0.8"/>
      </g>
     </g>
     <g id="text_9">
      <!-- 1 -->
      <g transform="translate(27.7875 275.635769) scale(0.1 -0.1)">
       <use xlink:href="#DejaVuSans-31"/>
      </g>
     </g>
    </g>
    <g id="ytick_3">
     <g id="line2d_17">
      <path d="M 41.15 235.158336 
L 565.2 235.158336 
" clip-path="url(#p2873a5f6f0)" style="fill: none; stroke: #b0b0b0; stroke-width: 0.8; stroke-linecap: square"/>
     </g>
     <g id="line2d_18">
      <g>
       <use xlink:href="#mf1e735a58e" x="41.15" y="235.158336" style="stroke: #000000; stroke-width: 0.8"/>
      </g>
     </g>
     <g id="text_10">
      <!-- 2 -->
      <g transform="translate(27.7875 238.957555) scale(0.1 -0.1)">
       <use xlink:href="#DejaVuSans-32"/>
      </g>
     </g>
    </g>
    <g id="ytick_4">
     <g id="line2d_19">
      <path d="M 41.15 198.480123 
L 565.2 198.480123 
" clip-path="url(#p2873a5f6f0)" style="fill: none; stroke: #b0b0b0; stroke-width: 0.8; stroke-linecap: square"/>
     </g>
     <g id="line2d_20">
      <g>
       <use xlink:href="#mf1e735a58e" x="41.15" y="198.480123" style="stroke: #000000; stroke-width: 0.8"/>
      </g>
     </g>
     <g id="text_11">
      <!-- 3 -->
      <g transform="translate(27.7875 202.279341) scale(0.1 -0.1)">
       <use xlink:href="#DejaVuSans-33"/>
      </g>
     </g>
    </g>
    <g id="ytick_5">
     <g id="line2d_21">
      <path d="M 41.15 161.801909 
L 565.2 161.801909 
" clip-path="url(#p2873a5f6f0)" style="fill: none; stroke: #b0b0b0; stroke-width: 0.8; stroke-linecap: square"/>
     </g>
     <g id="line2d_22">
      <g>
       <use xlink:href="#mf1e735a58e" x="41.15" y="161.801909" style="stroke: #000000; stroke-width: 0.8"/>
      </g>
     </g>
     <g id="text_12">
      <!-- 4 -->
      <g transform="translate(27.7875 165.601128) scale(0.1 -0.1)">
       <use xlink:href="#DejaVuSans-34"/>
      </g>
     </g>
    </g>
    <g id="ytick_6">
     <g id="line2d_23">
      <path d="M 41.15 125.123695 
L 565.2 125.123695 
" clip-path="url(#p2873a5f6f0)" style="fill: none; stroke: #b0b0b0; stroke-width: 0.8; stroke-linecap: square"/>
     </g>
     <g id="line2d_24">
      <g>
       <use xlink:href="#mf1e735a58e" x="41.15" y="125.123695" style="stroke: #000000; stroke-width: 0.8"/>
      </g>
     </g>
     <g id="text_13">
      <!-- 5 -->
      <g transform="translate(27.7875 128.922914) scale(0.1 -0.1)">
       <use xlink:href="#DejaVuSans-35"/>
      </g>
     </g>
    </g>
    <g id="ytick_7">
     <g id="line2d_25">
      <path d="M 41.15 88.445482 
L 565.2 88.445482 
" clip-path="url(#p2873a5f6f0)" style="fill: none; stroke: #b0b0b0; stroke-width: 0.8; stroke-linecap: square"/>
     </g>
     <g id="line2d_26">
      <g>
       <use xlink:href="#mf1e735a58e" x="41.15" y="88.445482" style="stroke: #000000; stroke-width: 0.8"/>
      </g>
     </g>
     <g id="text_14">
      <!-- 6 -->
      <g transform="translate(27.7875 92.2447) scale(0.1 -0.1)">
       <use xlink:href="#DejaVuSans-36"/>
      </g>
     </g>
    </g>
    <g id="ytick_8">
     <g id="line2d_27">
      <path d="M 41.15 51.767268 
L 565.2 51.767268 
" clip-path="url(#p2873a5f6f0)" style="fill: none; stroke: #b0b0b0; stroke-width: 0.8; stroke-linecap: square"/>
     </g>
     <g id="line2d_28">
      <g>
       <use xlink:href="#mf1e735a58e" x="41.15" y="51.767268" style="stroke: #000000; stroke-width: 0.8"/>
      </g>
     </g>
     <g id="text_15">
      <!-- 7 -->
      <g transform="translate(27.7875 55.566487) scale(0.1 -0.1)">
       <defs>
        <path id="DejaVuSans-37" d="M 525 4666 
L 3525 4666 
L 3525 4397 
L 1831 0 
L 1172 0 
L 2766 4134 
L 525 4134 
L 525 4666 
z
" transform="scale(0.015625)"/>
       </defs>
       <use xlink:href="#DejaVuSans-37"/>
      </g>
     </g>
    </g>
    <g id="ytick_9">
     <g id="line2d_29">
      <path d="M 41.15 15.089054 
L 565.2 15.089054 
" clip-path="url(#p2873a5f6f0)" style="fill: none; stroke: #b0b0b0; stroke-width: 0.8; stroke-linecap: square"/>
     </g>
     <g id="line2d_30">
      <g>
       <use xlink:href="#mf1e735a58e" x="41.15" y="15.089054" style="stroke: #000000; stroke-width: 0.8"/>
      </g>
     </g>
     <g id="text_16">
      <!-- 8 -->
      <g transform="translate(27.7875 18.888273) scale(0.1 -0.1)">
       <defs>
        <path id="DejaVuSans-38" d="M 2034 2216 
Q 1584 2216 1326 1975 
Q 1069 1734 1069 1313 
Q 1069 891 1326 650 
Q 1584 409 2034 409 
Q 2484 409 2743 651 
Q 3003 894 3003 1313 
Q 3003 1734 2745 1975 
Q 2488 2216 2034 2216 
z
M 1403 2484 
Q 997 2584 770 2862 
Q 544 3141 544 3541 
Q 544 4100 942 4425 
Q 1341 4750 2034 4750 
Q 2731 4750 3128 4425 
Q 3525 4100 3525 3541 
Q 3525 3141 3298 2862 
Q 3072 2584 2669 2484 
Q 3125 2378 3379 2068 
Q 3634 1759 3634 1313 
Q 3634 634 3220 271 
Q 2806 -91 2034 -91 
Q 1263 -91 848 271 
Q 434 634 434 1313 
Q 434 1759 690 2068 
Q 947 2378 1403 2484 
z
M 1172 3481 
Q 1172 3119 1398 2916 
Q 1625 2713 2034 2713 
Q 2441 2713 2670 2916 
Q 2900 3119 2900 3481 
Q 2900 3844 2670 4047 
Q 2441 4250 2034 4250 
Q 1625 4250 1398 4047 
Q 1172 3844 1172 3481 
z
" transform="scale(0.015625)"/>
       </defs>
       <use xlink:href="#DejaVuSans-38"/>
      </g>
     </g>
    </g>
    <g id="text_17">
     <!-- Computation time $T$ (sec) -->
     <g transform="translate(21.6875 228.292806) rotate(-90) scale(0.1 -0.1)">
      <defs>
       <path id="DejaVuSans-43" d="M 4122 4306 
L 4122 3641 
Q 3803 3938 3442 4084 
Q 3081 4231 2675 4231 
Q 1875 4231 1450 3742 
Q 1025 3253 1025 2328 
Q 1025 1406 1450 917 
Q 1875 428 2675 428 
Q 3081 428 3442 575 
Q 3803 722 4122 1019 
L 4122 359 
Q 3791 134 3420 21 
Q 3050 -91 2638 -91 
Q 1578 -91 968 557 
Q 359 1206 359 2328 
Q 359 3453 968 4101 
Q 1578 4750 2638 4750 
Q 3056 4750 3426 4639 
Q 3797 4528 4122 4306 
z
" transform="scale(0.015625)"/>
       <path id="DejaVuSans-70" d="M 1159 525 
L 1159 -1331 
L 581 -1331 
L 581 3500 
L 1159 3500 
L 1159 2969 
Q 1341 3281 1617 3432 
Q 1894 3584 2278 3584 
Q 2916 3584 3314 3078 
Q 3713 2572 3713 1747 
Q 3713 922 3314 415 
Q 2916 -91 2278 -91 
Q 1894 -91 1617 61 
Q 1341 213 1159 525 
z
M 3116 1747 
Q 3116 2381 2855 2742 
Q 2594 3103 2138 3103 
Q 1681 3103 1420 2742 
Q 1159 2381 1159 1747 
Q 1159 1113 1420 752 
Q 1681 391 2138 391 
Q 2594 391 2855 752 
Q 3116 1113 3116 1747 
z
" transform="scale(0.015625)"/>
       <path id="DejaVuSans-75" d="M 544 1381 
L 544 3500 
L 1119 3500 
L 1119 1403 
Q 1119 906 1312 657 
Q 1506 409 1894 409 
Q 2359 409 2629 706 
Q 2900 1003 2900 1516 
L 2900 3500 
L 3475 3500 
L 3475 0 
L 2900 0 
L 2900 538 
Q 2691 219 2414 64 
Q 2138 -91 1772 -91 
Q 1169 -91 856 284 
Q 544 659 544 1381 
z
M 1991 3584 
L 1991 3584 
z
" transform="scale(0.015625)"/>
       <path id="DejaVuSans-74" d="M 1172 4494 
L 1172 3500 
L 2356 3500 
L 2356 3053 
L 1172 3053 
L 1172 1153 
Q 1172 725 1289 603 
Q 1406 481 1766 481 
L 2356 481 
L 2356 0 
L 1766 0 
Q 1100 0 847 248 
Q 594 497 594 1153 
L 594 3053 
L 172 3053 
L 172 3500 
L 594 3500 
L 594 4494 
L 1172 4494 
z
" transform="scale(0.015625)"/>
       <path id="DejaVuSans-61" d="M 2194 1759 
Q 1497 1759 1228 1600 
Q 959 1441 959 1056 
Q 959 750 1161 570 
Q 1363 391 1709 391 
Q 2188 391 2477 730 
Q 2766 1069 2766 1631 
L 2766 1759 
L 2194 1759 
z
M 3341 1997 
L 3341 0 
L 2766 0 
L 2766 531 
Q 2569 213 2275 61 
Q 1981 -91 1556 -91 
Q 1019 -91 701 211 
Q 384 513 384 1019 
Q 384 1609 779 1909 
Q 1175 2209 1959 2209 
L 2766 2209 
L 2766 2266 
Q 2766 2663 2505 2880 
Q 2244 3097 1772 3097 
Q 1472 3097 1187 3025 
Q 903 2953 641 2809 
L 641 3341 
Q 956 3463 1253 3523 
Q 1550 3584 1831 3584 
Q 2591 3584 2966 3190 
Q 3341 2797 3341 1997 
z
" transform="scale(0.015625)"/>
       <path id="DejaVuSans-Oblique-54" d="M 378 4666 
L 4325 4666 
L 4225 4134 
L 2559 4134 
L 1759 0 
L 1125 0 
L 1925 4134 
L 275 4134 
L 378 4666 
z
" transform="scale(0.015625)"/>
       <path id="DejaVuSans-28" d="M 1984 4856 
Q 1566 4138 1362 3434 
Q 1159 2731 1159 2009 
Q 1159 1288 1364 580 
Q 1569 -128 1984 -844 
L 1484 -844 
Q 1016 -109 783 600 
Q 550 1309 550 2009 
Q 550 2706 781 3412 
Q 1013 4119 1484 4856 
L 1984 4856 
z
" transform="scale(0.015625)"/>
       <path id="DejaVuSans-63" d="M 3122 3366 
L 3122 2828 
Q 2878 2963 2633 3030 
Q 2388 3097 2138 3097 
Q 1578 3097 1268 2742 
Q 959 2388 959 1747 
Q 959 1106 1268 751 
Q 1578 397 2138 397 
Q 2388 397 2633 464 
Q 2878 531 3122 666 
L 3122 134 
Q 2881 22 2623 -34 
Q 2366 -91 2075 -91 
Q 1284 -91 818 406 
Q 353 903 353 1747 
Q 353 2603 823 3093 
Q 1294 3584 2113 3584 
Q 2378 3584 2631 3529 
Q 2884 3475 3122 3366 
z
" transform="scale(0.015625)"/>
       <path id="DejaVuSans-29" d="M 513 4856 
L 1013 4856 
Q 1481 4119 1714 3412 
Q 1947 2706 1947 2009 
Q 1947 1309 1714 600 
Q 1481 -109 1013 -844 
L 513 -844 
Q 928 -128 1133 580 
Q 1338 1288 1338 2009 
Q 1338 2731 1133 3434 
Q 928 4138 513 4856 
z
" transform="scale(0.015625)"/>
      </defs>
      <use xlink:href="#DejaVuSans-43" transform="translate(0 0.015625)"/>
      <use xlink:href="#DejaVuSans-6f" transform="translate(69.824219 0.015625)"/>
      <use xlink:href="#DejaVuSans-6d" transform="translate(131.005859 0.015625)"/>
      <use xlink:href="#DejaVuSans-70" transform="translate(228.417969 0.015625)"/>
      <use xlink:href="#DejaVuSans-75" transform="translate(291.894531 0.015625)"/>
      <use xlink:href="#DejaVuSans-74" transform="translate(355.273438 0.015625)"/>
      <use xlink:href="#DejaVuSans-61" transform="translate(394.482422 0.015625)"/>
      <use xlink:href="#DejaVuSans-74" transform="translate(455.761719 0.015625)"/>
      <use xlink:href="#DejaVuSans-69" transform="translate(494.970703 0.015625)"/>
      <use xlink:href="#DejaVuSans-6f" transform="translate(522.753906 0.015625)"/>
      <use xlink:href="#DejaVuSans-6e" transform="translate(583.935547 0.015625)"/>
      <use xlink:href="#DejaVuSans-20" transform="translate(647.314453 0.015625)"/>
      <use xlink:href="#DejaVuSans-74" transform="translate(679.101562 0.015625)"/>
      <use xlink:href="#DejaVuSans-69" transform="translate(718.310547 0.015625)"/>
      <use xlink:href="#DejaVuSans-6d" transform="translate(746.09375 0.015625)"/>
      <use xlink:href="#DejaVuSans-65" transform="translate(843.505859 0.015625)"/>
      <use xlink:href="#DejaVuSans-20" transform="translate(905.029297 0.015625)"/>
      <use xlink:href="#DejaVuSans-Oblique-54" transform="translate(936.816406 0.015625)"/>
      <use xlink:href="#DejaVuSans-20" transform="translate(997.900391 0.015625)"/>
      <use xlink:href="#DejaVuSans-28" transform="translate(1029.6875 0.015625)"/>
      <use xlink:href="#DejaVuSans-73" transform="translate(1068.701172 0.015625)"/>
      <use xlink:href="#DejaVuSans-65" transform="translate(1120.800781 0.015625)"/>
      <use xlink:href="#DejaVuSans-63" transform="translate(1182.324219 0.015625)"/>
      <use xlink:href="#DejaVuSans-29" transform="translate(1237.304688 0.015625)"/>
     </g>
    </g>
   </g>
   <g id="line2d_31">
    <path d="M 64.970455 221.741859 
L 74.498636 195.599336 
L 84.026818 199.021848 
L 93.555 194.69497 
L 103.083182 190.623346 
L 112.611364 190.529253 
L 122.139545 199.284624 
L 131.667727 204.652577 
L 141.195909 205.389015 
L 150.724091 202.911722 
L 160.252273 208.599864 
L 169.780455 207.573462 
L 179.308636 206.095725 
L 188.836818 203.238441 
L 198.365 201.648627 
L 207.893182 199.769578 
L 217.421364 198.152156 
L 226.949545 196.336448 
L 236.477727 196.392284 
L 246.005909 196.344567 
L 255.534091 199.013592 
L 265.062273 197.859913 
L 274.590455 195.485428 
L 284.118636 192.219949 
L 293.646818 193.446612 
L 303.175 193.744428 
L 312.703182 193.653074 
L 322.231364 193.870312 
L 331.759545 193.978246 
L 341.287727 189.77993 
L 350.815909 186.237779 
L 360.344091 182.254751 
L 369.872273 181.822284 
L 379.400455 181.478328 
L 388.928636 179.915133 
L 398.456818 177.443924 
L 407.985 174.374092 
L 417.513182 170.03929 
L 427.041364 168.233556 
L 436.569545 167.396518 
L 446.097727 165.596336 
L 455.625909 164.115611 
L 465.154091 163.320267 
L 474.682273 158.414673 
L 484.210455 157.304335 
L 493.738636 156.277207 
L 503.266818 153.800165 
L 512.795 151.638106 
L 522.323182 150.374618 
L 531.851364 148.109667 
L 541.379545 148.851992 
" clip-path="url(#p2873a5f6f0)" style="fill: none; stroke: #0000ff; stroke-width: 2; stroke-linecap: square"/>
   </g>
   <g id="line2d_32">
    <path d="M 64.970455 162.780431 
L 74.498636 124.935109 
L 84.026818 127.593679 
L 93.555 117.627789 
L 103.083182 114.093238 
L 112.611364 112.752648 
L 122.139545 121.045876 
L 131.667727 127.105947 
L 141.195909 131.034774 
L 150.724091 131.251877 
L 160.252273 137.20787 
L 169.780455 135.797825 
L 179.308636 136.257539 
L 188.836818 134.115156 
L 198.365 132.814761 
L 207.893182 129.370805 
L 217.421364 127.46267 
L 226.949545 124.126739 
L 236.477727 124.223089 
L 246.005909 123.692997 
L 255.534091 126.411736 
L 265.062273 124.068247 
L 274.590455 117.835521 
L 284.118636 113.294781 
L 293.646818 115.080448 
L 303.175 113.934627 
L 312.703182 113.343234 
L 322.231364 112.82096 
L 331.759545 114.014463 
L 341.287727 107.422961 
L 350.815909 100.831102 
L 360.344091 93.609903 
L 369.872273 93.817036 
L 379.400455 93.579135 
L 388.928636 90.627708 
L 398.456818 84.620411 
L 407.985 79.814388 
L 417.513182 70.565996 
L 427.041364 66.039923 
L 436.569545 64.775778 
L 446.097727 61.665353 
L 455.625909 58.924437 
L 465.154091 57.953509 
L 474.682273 46.079364 
L 484.210455 44.346262 
L 493.738636 41.913023 
L 503.266818 35.762659 
L 512.795 32.183841 
L 522.323182 29.068548 
L 531.851364 25.463538 
L 541.379545 26.200132 
" clip-path="url(#p2873a5f6f0)" style="fill: none; stroke-dasharray: 3.7,1.6; stroke-dashoffset: 0; stroke: #0000ff"/>
   </g>
   <g id="line2d_33">
    <path d="M 64.970455 280.703286 
L 74.498636 266.263564 
L 84.026818 270.450018 
L 93.555 271.762151 
L 103.083182 267.153454 
L 112.611364 268.305859 
L 122.139545 277.523372 
L 131.667727 282.199207 
L 141.195909 279.743257 
L 150.724091 274.571566 
L 160.252273 279.991857 
L 169.780455 279.349099 
L 179.308636 275.93391 
L 188.836818 272.361726 
L 198.365 270.482493 
L 207.893182 270.168351 
L 217.421364 268.841642 
L 226.949545 268.546158 
L 236.477727 268.56148 
L 246.005909 268.996137 
L 255.534091 271.615447 
L 265.062273 271.651579 
L 274.590455 273.135336 
L 284.118636 271.145117 
L 293.646818 271.812777 
L 303.175 273.554229 
L 312.703182 273.962914 
L 322.231364 274.919665 
L 331.759545 273.942029 
L 341.287727 272.136899 
L 350.815909 271.644456 
L 360.344091 270.899598 
L 369.872273 269.827533 
L 379.400455 269.377522 
L 388.928636 269.202557 
L 398.456818 270.267436 
L 407.985 268.933796 
L 417.513182 269.512584 
L 427.041364 270.427189 
L 436.569545 270.017258 
L 446.097727 269.527319 
L 455.625909 269.306786 
L 465.154091 268.687025 
L 474.682273 270.749982 
L 484.210455 270.262409 
L 493.738636 270.641391 
L 503.266818 271.837672 
L 512.795 271.092372 
L 522.323182 271.680687 
L 531.851364 270.755795 
L 541.379545 271.503851 
" clip-path="url(#p2873a5f6f0)" style="fill: none; stroke-dasharray: 3.7,1.6; stroke-dashoffset: 0; stroke: #0000ff"/>
   </g>
   <g id="line2d_34">
    <path d="M 64.970455 298.89426 
L 74.498636 297.452173 
L 84.026818 297.590672 
L 93.555 296.988144 
L 103.083182 296.270372 
L 112.611364 296.104601 
L 122.139545 296.164951 
L 131.667727 296.01728 
L 141.195909 295.20247 
L 150.724091 293.973484 
L 160.252273 294.335352 
L 169.780455 293.616038 
L 179.308636 292.862739 
L 188.836818 292.034023 
L 198.365 291.470735 
L 207.893182 290.778781 
L 217.421364 290.27395 
L 226.949545 289.800191 
L 236.477727 289.550318 
L 246.005909 289.372203 
L 255.534091 289.641505 
L 265.062273 289.252148 
L 274.590455 288.792266 
L 284.118636 287.978599 
L 293.646818 287.907917 
L 303.175 287.813755 
L 312.703182 287.560082 
L 322.231364 287.333966 
L 331.759545 287.036114 
L 341.287727 286.129334 
L 350.815909 285.333475 
L 360.344091 284.327212 
L 369.872273 283.96622 
L 379.400455 283.685217 
L 388.928636 283.221486 
L 398.456818 282.64434 
L 407.985 281.940778 
L 417.513182 281.106792 
L 427.041364 280.728404 
L 436.569545 280.449616 
L 446.097727 279.958527 
L 455.625909 279.452354 
L 465.154091 279.149185 
L 474.682273 278.293699 
L 484.210455 277.959838 
L 493.738636 277.504942 
L 503.266818 277.009169 
L 512.795 276.488584 
L 522.323182 276.178803 
L 531.851364 275.661602 
L 541.379545 275.717832 
" clip-path="url(#p2873a5f6f0)" style="fill: none; stroke: #ff0000; stroke-width: 2; stroke-linecap: square"/>
   </g>
   <g id="line2d_35">
    <path d="M 64.970455 295.038841 
L 74.498636 292.61643 
L 84.026818 292.346702 
L 93.555 291.478443 
L 103.083182 290.572098 
L 112.611364 290.395412 
L 122.139545 289.468865 
L 131.667727 288.612487 
L 141.195909 287.557971 
L 150.724091 285.651842 
L 160.252273 286.010216 
L 169.780455 284.77655 
L 179.308636 283.818321 
L 188.836818 282.599811 
L 198.365 281.851239 
L 207.893182 280.229006 
L 217.421364 279.519595 
L 226.949545 278.669878 
L 236.477727 278.337721 
L 246.005909 277.960744 
L 255.534091 278.245012 
L 265.062273 277.583721 
L 274.590455 276.348511 
L 284.118636 275.009131 
L 293.646818 274.990269 
L 303.175 274.486882 
L 312.703182 274.037171 
L 322.231364 273.502209 
L 331.759545 273.254969 
L 341.287727 271.64719 
L 350.815909 270.066158 
L 360.344091 267.993736 
L 369.872273 267.641163 
L 379.400455 267.237766 
L 388.928636 266.362028 
L 398.456818 265.034965 
L 407.985 263.908904 
L 417.513182 262.324846 
L 427.041364 261.433404 
L 436.569545 261.001844 
L 446.097727 260.237061 
L 455.625909 259.378741 
L 465.154091 258.993059 
L 474.682273 257.026818 
L 484.210455 256.539116 
L 493.738636 255.364608 
L 503.266818 254.314475 
L 512.795 253.522074 
L 522.323182 252.949551 
L 531.851364 252.174286 
L 541.379545 252.259593 
" clip-path="url(#p2873a5f6f0)" style="fill: none; stroke-dasharray: 3.7,1.6; stroke-dashoffset: 0; stroke: #ff0000"/>
   </g>
   <g id="line2d_36">
    <path d="M 64.970455 302.749679 
L 74.498636 302.287915 
L 84.026818 302.834643 
L 93.555 302.497845 
L 103.083182 301.968646 
L 112.611364 301.813789 
L 122.139545 302.861038 
L 131.667727 303.422073 
L 141.195909 302.846969 
L 150.724091 302.295126 
L 160.252273 302.660488 
L 169.780455 302.455525 
L 179.308636 301.907157 
L 188.836818 301.468235 
L 198.365 301.090231 
L 207.893182 301.328556 
L 217.421364 301.028305 
L 226.949545 300.930503 
L 236.477727 300.762915 
L 246.005909 300.783662 
L 255.534091 301.037997 
L 265.062273 300.920576 
L 274.590455 301.236021 
L 284.118636 300.948068 
L 293.646818 300.825566 
L 303.175 301.140629 
L 312.703182 301.082994 
L 322.231364 301.165723 
L 331.759545 300.817258 
L 341.287727 300.611478 
L 350.815909 300.600792 
L 360.344091 300.660688 
L 369.872273 300.291276 
L 379.400455 300.132668 
L 388.928636 300.080944 
L 398.456818 300.253715 
L 407.985 299.972652 
L 417.513182 299.888739 
L 427.041364 300.023403 
L 436.569545 299.897388 
L 446.097727 299.679993 
L 455.625909 299.525967 
L 465.154091 299.305311 
L 474.682273 299.56058 
L 484.210455 299.380559 
L 493.738636 299.645275 
L 503.266818 299.703864 
L 512.795 299.455094 
L 522.323182 299.408055 
L 531.851364 299.148918 
L 541.379545 299.17607 
" clip-path="url(#p2873a5f6f0)" style="fill: none; stroke-dasharray: 3.7,1.6; stroke-dashoffset: 0; stroke: #ff0000"/>
   </g>
   <g id="patch_3">
    <path d="M 41.15 317.32 
L 41.15 11.565611 
" style="fill: none; stroke: #000000; stroke-width: 0.8; stroke-linejoin: miter; stroke-linecap: square"/>
   </g>
   <g id="patch_4">
    <path d="M 565.2 317.32 
L 565.2 11.565611 
" style="fill: none; stroke: #000000; stroke-width: 0.8; stroke-linejoin: miter; stroke-linecap: square"/>
   </g>
   <g id="patch_5">
    <path d="M 41.15 317.32 
L 565.2 317.32 
" style="fill: none; stroke: #000000; stroke-width: 0.8; stroke-linejoin: miter; stroke-linecap: square"/>
   </g>
   <g id="patch_6">
    <path d="M 41.15 11.565611 
L 565.2 11.565611 
" style="fill: none; stroke: #000000; stroke-width: 0.8; stroke-linejoin: miter; stroke-linecap: square"/>
   </g>
   <g id="legend_1">
    <g id="patch_7">
     <path d="M 48.15 48.921861 
L 157.317188 48.921861 
Q 159.317188 48.921861 159.317188 46.921861 
L 159.317188 18.565611 
Q 159.317188 16.565611 157.317188 16.565611 
L 48.15 16.565611 
Q 46.15 16.565611 46.15 18.565611 
L 46.15 46.921861 
Q 46.15 48.921861 48.15 48.921861 
z
" style="fill: #ffffff; opacity: 0.8; stroke: #cccccc; stroke-linejoin: miter"/>
    </g>
    <g id="line2d_37">
     <path d="M 50.15 24.664049 
L 60.15 24.664049 
L 70.15 24.664049 
" style="fill: none; stroke: #0000ff; stroke-width: 2; stroke-linecap: square"/>
    </g>
    <g id="text_18">
     <!-- Multi-Grid -->
     <g transform="translate(78.15 28.164049) scale(0.1 -0.1)">
      <defs>
       <path id="DejaVuSans-4d" d="M 628 4666 
L 1569 4666 
L 2759 1491 
L 3956 4666 
L 4897 4666 
L 4897 0 
L 4281 0 
L 4281 4097 
L 3078 897 
L 2444 897 
L 1241 4097 
L 1241 0 
L 628 0 
L 628 4666 
z
" transform="scale(0.015625)"/>
       <path id="DejaVuSans-6c" d="M 603 4863 
L 1178 4863 
L 1178 0 
L 603 0 
L 603 4863 
z
" transform="scale(0.015625)"/>
       <path id="DejaVuSans-2d" d="M 313 2009 
L 1997 2009 
L 1997 1497 
L 313 1497 
L 313 2009 
z
" transform="scale(0.015625)"/>
       <path id="DejaVuSans-47" d="M 3809 666 
L 3809 1919 
L 2778 1919 
L 2778 2438 
L 4434 2438 
L 4434 434 
Q 4069 175 3628 42 
Q 3188 -91 2688 -91 
Q 1594 -91 976 548 
Q 359 1188 359 2328 
Q 359 3472 976 4111 
Q 1594 4750 2688 4750 
Q 3144 4750 3555 4637 
Q 3966 4525 4313 4306 
L 4313 3634 
Q 3963 3931 3569 4081 
Q 3175 4231 2741 4231 
Q 1884 4231 1454 3753 
Q 1025 3275 1025 2328 
Q 1025 1384 1454 906 
Q 1884 428 2741 428 
Q 3075 428 3337 486 
Q 3600 544 3809 666 
z
" transform="scale(0.015625)"/>
       <path id="DejaVuSans-72" d="M 2631 2963 
Q 2534 3019 2420 3045 
Q 2306 3072 2169 3072 
Q 1681 3072 1420 2755 
Q 1159 2438 1159 1844 
L 1159 0 
L 581 0 
L 581 3500 
L 1159 3500 
L 1159 2956 
Q 1341 3275 1631 3429 
Q 1922 3584 2338 3584 
Q 2397 3584 2469 3576 
Q 2541 3569 2628 3553 
L 2631 2963 
z
" transform="scale(0.015625)"/>
       <path id="DejaVuSans-64" d="M 2906 2969 
L 2906 4863 
L 3481 4863 
L 3481 0 
L 2906 0 
L 2906 525 
Q 2725 213 2448 61 
Q 2172 -91 1784 -91 
Q 1150 -91 751 415 
Q 353 922 353 1747 
Q 353 2572 751 3078 
Q 1150 3584 1784 3584 
Q 2172 3584 2448 3432 
Q 2725 3281 2906 2969 
z
M 947 1747 
Q 947 1113 1208 752 
Q 1469 391 1925 391 
Q 2381 391 2643 752 
Q 2906 1113 2906 1747 
Q 2906 2381 2643 2742 
Q 2381 3103 1925 3103 
Q 1469 3103 1208 2742 
Q 947 2381 947 1747 
z
" transform="scale(0.015625)"/>
      </defs>
      <use xlink:href="#DejaVuSans-4d"/>
      <use xlink:href="#DejaVuSans-75" x="86.279297"/>
      <use xlink:href="#DejaVuSans-6c" x="149.658203"/>
      <use xlink:href="#DejaVuSans-74" x="177.441406"/>
      <use xlink:href="#DejaVuSans-69" x="216.650391"/>
      <use xlink:href="#DejaVuSans-2d" x="244.433594"/>
      <use xlink:href="#DejaVuSans-47" x="284.142578"/>
      <use xlink:href="#DejaVuSans-72" x="361.632812"/>
      <use xlink:href="#DejaVuSans-69" x="402.746094"/>
      <use xlink:href="#DejaVuSans-64" x="430.529297"/>
     </g>
    </g>
    <g id="line2d_38">
     <path d="M 50.15 39.342174 
L 60.15 39.342174 
L 70.15 39.342174 
" style="fill: none; stroke: #ff0000; stroke-width: 2; stroke-linecap: square"/>
    </g>
    <g id="text_19">
     <!-- Per Component -->
     <g transform="translate(78.15 42.842174) scale(0.1 -0.1)">
      <defs>
       <path id="DejaVuSans-50" d="M 1259 4147 
L 1259 2394 
L 2053 2394 
Q 2494 2394 2734 2622 
Q 2975 2850 2975 3272 
Q 2975 3691 2734 3919 
Q 2494 4147 2053 4147 
L 1259 4147 
z
M 628 4666 
L 2053 4666 
Q 2838 4666 3239 4311 
Q 3641 3956 3641 3272 
Q 3641 2581 3239 2228 
Q 2838 1875 2053 1875 
L 1259 1875 
L 1259 0 
L 628 0 
L 628 4666 
z
" transform="scale(0.015625)"/>
      </defs>
      <use xlink:href="#DejaVuSans-50"/>
      <use xlink:href="#DejaVuSans-65" x="56.677734"/>
      <use xlink:href="#DejaVuSans-72" x="118.201172"/>
      <use xlink:href="#DejaVuSans-20" x="159.314453"/>
      <use xlink:href="#DejaVuSans-43" x="191.101562"/>
      <use xlink:href="#DejaVuSans-6f" x="260.925781"/>
      <use xlink:href="#DejaVuSans-6d" x="322.107422"/>
      <use xlink:href="#DejaVuSans-70" x="419.519531"/>
      <use xlink:href="#DejaVuSans-6f" x="482.996094"/>
      <use xlink:href="#DejaVuSans-6e" x="544.177734"/>
      <use xlink:href="#DejaVuSans-65" x="607.556641"/>
      <use xlink:href="#DejaVuSans-6e" x="669.080078"/>
      <use xlink:href="#DejaVuSans-74" x="732.458984"/>
     </g>
    </g>
   </g>
  </g>
 </g>
 <defs>
  <clipPath id="p2873a5f6f0">
   <rect x="41.15" y="11.565611" width="524.05" height="305.754389"/>
  </clipPath>
 </defs>
</svg>
