<?xml version="1.0" encoding="utf-8" standalone="no"?>
<!DOCTYPE svg PUBLIC "-//W3C//DTD SVG 1.1//EN"
  "http://www.w3.org/Graphics/SVG/1.1/DTD/svg11.dtd">
<svg xmlns:xlink="http://www.w3.org/1999/xlink" width="576pt" height="360pt" viewBox="0 0 576 360" xmlns="http://www.w3.org/2000/svg" version="1.1">
 <metadata>
  <rdf:RDF xmlns:dc="http://purl.org/dc/elements/1.1/" xmlns:cc="http://creativecommons.org/ns#" xmlns:rdf="http://www.w3.org/1999/02/22-rdf-syntax-ns#">
   <cc:Work>
    <dc:type rdf:resource="http://purl.org/dc/dcmitype/StillImage"/>
    <dc:date>2025-07-07T11:01:06.680227</dc:date>
    <dc:format>image/svg+xml</dc:format>
    <dc:creator>
     <cc:Agent>
      <dc:title>Matplotlib v3.9.4, https://matplotlib.org/</dc:title>
     </cc:Agent>
    </dc:creator>
   </cc:Work>
  </rdf:RDF>
 </metadata>
 <defs>
  <style type="text/css">*{stroke-linejoin: round; stroke-linecap: butt}</style>
 </defs>
 <g id="figure_1">
  <g id="patch_1">
   <path d="M 0 360 
L 576 360 
L 576 0 
L 0 0 
z
" style="fill: #ffffff"/>
  </g>
  <g id="axes_1">
   <g id="patch_2">
    <path d="M 58.223 317.32 
L 565.2 317.32 
L 565.2 10.8 
L 58.223 10.8 
z
" style="fill: #ffffff"/>
   </g>
   <g id="PolyCollection_1">
    <defs>
     <path id="me2b7beff62" d="M 81.267409 -95.629957 
L 81.267409 -56.612727 
L 90.485173 -67.638355 
L 99.702936 -69.799121 
L 108.9207 -76.421858 
L 118.138464 -81.206913 
L 127.356227 -84.902982 
L 136.573991 -88.460812 
L 145.791755 -91.731385 
L 155.009518 -95.589259 
L 164.227282 -98.491617 
L 173.445045 -100.976752 
L 182.662809 -103.374369 
L 191.880573 -105.589665 
L 201.098336 -108.162186 
L 210.3161 -110.163657 
L 219.533864 -112.552225 
L 228.751627 -114.854964 
L 237.969391 -116.85021 
L 247.187155 -118.955405 
L 256.404918 -121.147629 
L 265.622682 -123.149558 
L 274.840445 -125.088308 
L 284.058209 -127.090707 
L 293.275973 -128.987349 
L 302.493736 -130.793984 
L 311.7115 -132.518792 
L 320.929264 -134.23823 
L 330.147027 -135.725094 
L 339.364791 -137.285924 
L 348.582555 -138.842699 
L 357.800318 -140.32363 
L 367.018082 -141.803936 
L 376.235845 -143.128115 
L 385.453609 -144.421787 
L 394.671373 -145.746869 
L 403.889136 -146.980649 
L 413.1069 -148.135716 
L 422.324664 -149.322503 
L 431.542427 -150.451154 
L 440.760191 -151.586908 
L 449.977955 -152.678056 
L 459.195718 -153.725556 
L 468.413482 -154.819017 
L 477.631245 -155.750055 
L 486.849009 -156.725807 
L 496.066773 -157.747284 
L 505.284536 -158.669353 
L 514.5023 -159.649309 
L 523.720064 -160.550311 
L 532.937827 -161.423589 
L 542.155591 -162.194163 
L 542.155591 -256.706312 
L 542.155591 -256.706312 
L 532.937827 -256.274095 
L 523.720064 -255.753437 
L 514.5023 -255.070376 
L 505.284536 -254.022352 
L 496.066773 -253.436697 
L 486.849009 -252.274417 
L 477.631245 -250.799413 
L 468.413482 -249.245532 
L 459.195718 -248.331292 
L 449.977955 -246.714732 
L 440.760191 -246.225942 
L 431.542427 -244.918997 
L 422.324664 -243.813851 
L 413.1069 -242.848234 
L 403.889136 -241.185279 
L 394.671373 -239.520606 
L 385.453609 -238.642591 
L 376.235845 -237.434944 
L 367.018082 -236.114737 
L 357.800318 -235.014448 
L 348.582555 -233.662296 
L 339.364791 -232.094595 
L 330.147027 -230.358796 
L 320.929264 -227.942853 
L 311.7115 -226.200732 
L 302.493736 -223.640895 
L 293.275973 -222.099398 
L 284.058209 -219.930047 
L 274.840445 -217.590134 
L 265.622682 -213.790672 
L 256.404918 -209.718128 
L 247.187155 -206.839532 
L 237.969391 -204.176879 
L 228.751627 -199.149659 
L 219.533864 -196.931589 
L 210.3161 -193.78355 
L 201.098336 -186.310944 
L 191.880573 -182.010345 
L 182.662809 -174.610851 
L 173.445045 -171.458401 
L 164.227282 -168.499352 
L 155.009518 -168.019114 
L 145.791755 -160.515949 
L 136.573991 -153.513429 
L 127.356227 -148.29546 
L 118.138464 -139.291676 
L 108.9207 -136.676745 
L 99.702936 -137.326595 
L 90.485173 -118.467489 
L 81.267409 -95.629957 
z
" style="stroke: #0000ff; stroke-opacity: 0.2"/>
    </defs>
    <g clip-path="url(#pa7e89bb430)">
     <use xlink:href="#me2b7beff62" x="0" y="360" style="fill: #0000ff; fill-opacity: 0.2; stroke: #0000ff; stroke-opacity: 0.2"/>
    </g>
   </g>
   <g id="PolyCollection_2">
    <defs>
     <path id="m579ac59852" d="M 81.267409 -311.999214 
L 81.267409 -208.019062 
L 90.485173 -220.847263 
L 99.702936 -211.125471 
L 108.9207 -220.233009 
L 118.138464 -225.673038 
L 127.356227 -230.885853 
L 136.573991 -225.299498 
L 145.791755 -223.256413 
L 155.009518 -228.505693 
L 164.227282 -229.106444 
L 173.445045 -226.875332 
L 182.662809 -227.734139 
L 191.880573 -230.944972 
L 201.098336 -233.258996 
L 210.3161 -236.028504 
L 219.533864 -236.084644 
L 228.751627 -237.136775 
L 237.969391 -238.729321 
L 247.187155 -239.75752 
L 256.404918 -240.619604 
L 265.622682 -241.629382 
L 274.840445 -243.123499 
L 284.058209 -243.618205 
L 293.275973 -244.704335 
L 302.493736 -244.958133 
L 311.7115 -245.043303 
L 320.929264 -245.676579 
L 330.147027 -246.253398 
L 339.364791 -246.900758 
L 348.582555 -247.683876 
L 357.800318 -248.144877 
L 367.018082 -248.757739 
L 376.235845 -249.229075 
L 385.453609 -249.336808 
L 394.671373 -249.505088 
L 403.889136 -249.845539 
L 413.1069 -250.374815 
L 422.324664 -250.770753 
L 431.542427 -250.719951 
L 440.760191 -251.047196 
L 449.977955 -251.264672 
L 459.195718 -251.844117 
L 468.413482 -252.228545 
L 477.631245 -252.688674 
L 486.849009 -253.140949 
L 496.066773 -253.659836 
L 505.284536 -253.636763 
L 514.5023 -254.121391 
L 523.720064 -254.330691 
L 532.937827 -254.510535 
L 542.155591 -254.344366 
L 542.155591 -313.738386 
L 542.155591 -313.738386 
L 532.937827 -314.102404 
L 523.720064 -314.352834 
L 514.5023 -314.60057 
L 505.284536 -314.56374 
L 496.066773 -314.869868 
L 486.849009 -314.794932 
L 477.631245 -314.540225 
L 468.413482 -314.463882 
L 459.195718 -314.720581 
L 449.977955 -314.36482 
L 440.760191 -314.860523 
L 431.542427 -314.943512 
L 422.324664 -315.195643 
L 413.1069 -315.448296 
L 403.889136 -315.190277 
L 394.671373 -315.226238 
L 385.453609 -315.803451 
L 376.235845 -316.123469 
L 367.018082 -316.264388 
L 357.800318 -316.712278 
L 348.582555 -317.074357 
L 339.364791 -317.238583 
L 330.147027 -317.47278 
L 320.929264 -317.233125 
L 311.7115 -317.655123 
L 302.493736 -317.935205 
L 293.275973 -318.478342 
L 284.058209 -318.596395 
L 274.840445 -319.293274 
L 265.622682 -318.694923 
L 256.404918 -318.846447 
L 247.187155 -319.777992 
L 237.969391 -320.635533 
L 228.751627 -319.695718 
L 219.533864 -320.520884 
L 210.3161 -320.974005 
L 201.098336 -318.261732 
L 191.880573 -318.110519 
L 182.662809 -316.022285 
L 173.445045 -317.613764 
L 164.227282 -320.490093 
L 155.009518 -323.726162 
L 145.791755 -321.993419 
L 136.573991 -323.359801 
L 127.356227 -326.003289 
L 118.138464 -324.667291 
L 108.9207 -328.639824 
L 99.702936 -335.267273 
L 90.485173 -320.696338 
L 81.267409 -311.999214 
z
" style="stroke: #ff0000; stroke-opacity: 0.2"/>
    </defs>
    <g clip-path="url(#pa7e89bb430)">
     <use xlink:href="#m579ac59852" x="0" y="360" style="fill: #ff0000; fill-opacity: 0.2; stroke: #ff0000; stroke-opacity: 0.2"/>
    </g>
   </g>
   <g id="matplotlib.axis_1">
    <g id="xtick_1">
     <g id="line2d_1">
      <path d="M 81.267409 317.32 
L 81.267409 10.8 
" clip-path="url(#pa7e89bb430)" style="fill: none; stroke: #b0b0b0; stroke-width: 0.8; stroke-linecap: square"/>
     </g>
     <g id="line2d_2">
      <defs>
       <path id="md8edba0a0c" d="M 0 0 
L 0 3.5 
" style="stroke: #000000; stroke-width: 0.8"/>
      </defs>
      <g>
       <use xlink:href="#md8edba0a0c" x="81.267409" y="317.32" style="stroke: #000000; stroke-width: 0.8"/>
      </g>
     </g>
     <g id="text_1">
      <!-- 10 -->
      <g transform="translate(74.904909 331.918437) scale(0.1 -0.1)">
       <defs>
        <path id="DejaVuSans-31" d="M 794 531 
L 1825 531 
L 1825 4091 
L 703 3866 
L 703 4441 
L 1819 4666 
L 2450 4666 
L 2450 531 
L 3481 531 
L 3481 0 
L 794 0 
L 794 531 
z
" transform="scale(0.015625)"/>
        <path id="DejaVuSans-30" d="M 2034 4250 
Q 1547 4250 1301 3770 
Q 1056 3291 1056 2328 
Q 1056 1369 1301 889 
Q 1547 409 2034 409 
Q 2525 409 2770 889 
Q 3016 1369 3016 2328 
Q 3016 3291 2770 3770 
Q 2525 4250 2034 4250 
z
M 2034 4750 
Q 2819 4750 3233 4129 
Q 3647 3509 3647 2328 
Q 3647 1150 3233 529 
Q 2819 -91 2034 -91 
Q 1250 -91 836 529 
Q 422 1150 422 2328 
Q 422 3509 836 4129 
Q 1250 4750 2034 4750 
z
" transform="scale(0.015625)"/>
       </defs>
       <use xlink:href="#DejaVuSans-31"/>
       <use xlink:href="#DejaVuSans-30" x="63.623047"/>
      </g>
     </g>
    </g>
    <g id="xtick_2">
     <g id="line2d_3">
      <path d="M 173.445045 317.32 
L 173.445045 10.8 
" clip-path="url(#pa7e89bb430)" style="fill: none; stroke: #b0b0b0; stroke-width: 0.8; stroke-linecap: square"/>
     </g>
     <g id="line2d_4">
      <g>
       <use xlink:href="#md8edba0a0c" x="173.445045" y="317.32" style="stroke: #000000; stroke-width: 0.8"/>
      </g>
     </g>
     <g id="text_2">
      <!-- 20 -->
      <g transform="translate(167.082545 331.918437) scale(0.1 -0.1)">
       <defs>
        <path id="DejaVuSans-32" d="M 1228 531 
L 3431 531 
L 3431 0 
L 469 0 
L 469 531 
Q 828 903 1448 1529 
Q 2069 2156 2228 2338 
Q 2531 2678 2651 2914 
Q 2772 3150 2772 3378 
Q 2772 3750 2511 3984 
Q 2250 4219 1831 4219 
Q 1534 4219 1204 4116 
Q 875 4013 500 3803 
L 500 4441 
Q 881 4594 1212 4672 
Q 1544 4750 1819 4750 
Q 2544 4750 2975 4387 
Q 3406 4025 3406 3419 
Q 3406 3131 3298 2873 
Q 3191 2616 2906 2266 
Q 2828 2175 2409 1742 
Q 1991 1309 1228 531 
z
" transform="scale(0.015625)"/>
       </defs>
       <use xlink:href="#DejaVuSans-32"/>
       <use xlink:href="#DejaVuSans-30" x="63.623047"/>
      </g>
     </g>
    </g>
    <g id="xtick_3">
     <g id="line2d_5">
      <path d="M 265.622682 317.32 
L 265.622682 10.8 
" clip-path="url(#pa7e89bb430)" style="fill: none; stroke: #b0b0b0; stroke-width: 0.8; stroke-linecap: square"/>
     </g>
     <g id="line2d_6">
      <g>
       <use xlink:href="#md8edba0a0c" x="265.622682" y="317.32" style="stroke: #000000; stroke-width: 0.8"/>
      </g>
     </g>
     <g id="text_3">
      <!-- 30 -->
      <g transform="translate(259.260182 331.918437) scale(0.1 -0.1)">
       <defs>
        <path id="DejaVuSans-33" d="M 2597 2516 
Q 3050 2419 3304 2112 
Q 3559 1806 3559 1356 
Q 3559 666 3084 287 
Q 2609 -91 1734 -91 
Q 1441 -91 1130 -33 
Q 819 25 488 141 
L 488 750 
Q 750 597 1062 519 
Q 1375 441 1716 441 
Q 2309 441 2620 675 
Q 2931 909 2931 1356 
Q 2931 1769 2642 2001 
Q 2353 2234 1838 2234 
L 1294 2234 
L 1294 2753 
L 1863 2753 
Q 2328 2753 2575 2939 
Q 2822 3125 2822 3475 
Q 2822 3834 2567 4026 
Q 2313 4219 1838 4219 
Q 1578 4219 1281 4162 
Q 984 4106 628 3988 
L 628 4550 
Q 988 4650 1302 4700 
Q 1616 4750 1894 4750 
Q 2613 4750 3031 4423 
Q 3450 4097 3450 3541 
Q 3450 3153 3228 2886 
Q 3006 2619 2597 2516 
z
" transform="scale(0.015625)"/>
       </defs>
       <use xlink:href="#DejaVuSans-33"/>
       <use xlink:href="#DejaVuSans-30" x="63.623047"/>
      </g>
     </g>
    </g>
    <g id="xtick_4">
     <g id="line2d_7">
      <path d="M 357.800318 317.32 
L 357.800318 10.8 
" clip-path="url(#pa7e89bb430)" style="fill: none; stroke: #b0b0b0; stroke-width: 0.8; stroke-linecap: square"/>
     </g>
     <g id="line2d_8">
      <g>
       <use xlink:href="#md8edba0a0c" x="357.800318" y="317.32" style="stroke: #000000; stroke-width: 0.8"/>
      </g>
     </g>
     <g id="text_4">
      <!-- 40 -->
      <g transform="translate(351.437818 331.918437) scale(0.1 -0.1)">
       <defs>
        <path id="DejaVuSans-34" d="M 2419 4116 
L 825 1625 
L 2419 1625 
L 2419 4116 
z
M 2253 4666 
L 3047 4666 
L 3047 1625 
L 3713 1625 
L 3713 1100 
L 3047 1100 
L 3047 0 
L 2419 0 
L 2419 1100 
L 313 1100 
L 313 1709 
L 2253 4666 
z
" transform="scale(0.015625)"/>
       </defs>
       <use xlink:href="#DejaVuSans-34"/>
       <use xlink:href="#DejaVuSans-30" x="63.623047"/>
      </g>
     </g>
    </g>
    <g id="xtick_5">
     <g id="line2d_9">
      <path d="M 449.977955 317.32 
L 449.977955 10.8 
" clip-path="url(#pa7e89bb430)" style="fill: none; stroke: #b0b0b0; stroke-width: 0.8; stroke-linecap: square"/>
     </g>
     <g id="line2d_10">
      <g>
       <use xlink:href="#md8edba0a0c" x="449.977955" y="317.32" style="stroke: #000000; stroke-width: 0.8"/>
      </g>
     </g>
     <g id="text_5">
      <!-- 50 -->
      <g transform="translate(443.615455 331.918437) scale(0.1 -0.1)">
       <defs>
        <path id="DejaVuSans-35" d="M 691 4666 
L 3169 4666 
L 3169 4134 
L 1269 4134 
L 1269 2991 
Q 1406 3038 1543 3061 
Q 1681 3084 1819 3084 
Q 2600 3084 3056 2656 
Q 3513 2228 3513 1497 
Q 3513 744 3044 326 
Q 2575 -91 1722 -91 
Q 1428 -91 1123 -41 
Q 819 9 494 109 
L 494 744 
Q 775 591 1075 516 
Q 1375 441 1709 441 
Q 2250 441 2565 725 
Q 2881 1009 2881 1497 
Q 2881 1984 2565 2268 
Q 2250 2553 1709 2553 
Q 1456 2553 1204 2497 
Q 953 2441 691 2322 
L 691 4666 
z
" transform="scale(0.015625)"/>
       </defs>
       <use xlink:href="#DejaVuSans-35"/>
       <use xlink:href="#DejaVuSans-30" x="63.623047"/>
      </g>
     </g>
    </g>
    <g id="xtick_6">
     <g id="line2d_11">
      <path d="M 542.155591 317.32 
L 542.155591 10.8 
" clip-path="url(#pa7e89bb430)" style="fill: none; stroke: #b0b0b0; stroke-width: 0.8; stroke-linecap: square"/>
     </g>
     <g id="line2d_12">
      <g>
       <use xlink:href="#md8edba0a0c" x="542.155591" y="317.32" style="stroke: #000000; stroke-width: 0.8"/>
      </g>
     </g>
     <g id="text_6">
      <!-- 60 -->
      <g transform="translate(535.793091 331.918437) scale(0.1 -0.1)">
       <defs>
        <path id="DejaVuSans-36" d="M 2113 2584 
Q 1688 2584 1439 2293 
Q 1191 2003 1191 1497 
Q 1191 994 1439 701 
Q 1688 409 2113 409 
Q 2538 409 2786 701 
Q 3034 994 3034 1497 
Q 3034 2003 2786 2293 
Q 2538 2584 2113 2584 
z
M 3366 4563 
L 3366 3988 
Q 3128 4100 2886 4159 
Q 2644 4219 2406 4219 
Q 1781 4219 1451 3797 
Q 1122 3375 1075 2522 
Q 1259 2794 1537 2939 
Q 1816 3084 2150 3084 
Q 2853 3084 3261 2657 
Q 3669 2231 3669 1497 
Q 3669 778 3244 343 
Q 2819 -91 2113 -91 
Q 1303 -91 875 529 
Q 447 1150 447 2328 
Q 447 3434 972 4092 
Q 1497 4750 2381 4750 
Q 2619 4750 2861 4703 
Q 3103 4656 3366 4563 
z
" transform="scale(0.015625)"/>
       </defs>
       <use xlink:href="#DejaVuSans-36"/>
       <use xlink:href="#DejaVuSans-30" x="63.623047"/>
      </g>
     </g>
    </g>
    <g id="text_7">
     <!-- Dimensions $d$ -->
     <g transform="translate(277.7615 345.596563) scale(0.1 -0.1)">
      <defs>
       <path id="DejaVuSans-44" d="M 1259 4147 
L 1259 519 
L 2022 519 
Q 2988 519 3436 956 
Q 3884 1394 3884 2338 
Q 3884 3275 3436 3711 
Q 2988 4147 2022 4147 
L 1259 4147 
z
M 628 4666 
L 1925 4666 
Q 3281 4666 3915 4102 
Q 4550 3538 4550 2338 
Q 4550 1131 3912 565 
Q 3275 0 1925 0 
L 628 0 
L 628 4666 
z
" transform="scale(0.015625)"/>
       <path id="DejaVuSans-69" d="M 603 3500 
L 1178 3500 
L 1178 0 
L 603 0 
L 603 3500 
z
M 603 4863 
L 1178 4863 
L 1178 4134 
L 603 4134 
L 603 4863 
z
" transform="scale(0.015625)"/>
       <path id="DejaVuSans-6d" d="M 3328 2828 
Q 3544 3216 3844 3400 
Q 4144 3584 4550 3584 
Q 5097 3584 5394 3201 
Q 5691 2819 5691 2113 
L 5691 0 
L 5113 0 
L 5113 2094 
Q 5113 2597 4934 2840 
Q 4756 3084 4391 3084 
Q 3944 3084 3684 2787 
Q 3425 2491 3425 1978 
L 3425 0 
L 2847 0 
L 2847 2094 
Q 2847 2600 2669 2842 
Q 2491 3084 2119 3084 
Q 1678 3084 1418 2786 
Q 1159 2488 1159 1978 
L 1159 0 
L 581 0 
L 581 3500 
L 1159 3500 
L 1159 2956 
Q 1356 3278 1631 3431 
Q 1906 3584 2284 3584 
Q 2666 3584 2933 3390 
Q 3200 3197 3328 2828 
z
" transform="scale(0.015625)"/>
       <path id="DejaVuSans-65" d="M 3597 1894 
L 3597 1613 
L 953 1613 
Q 991 1019 1311 708 
Q 1631 397 2203 397 
Q 2534 397 2845 478 
Q 3156 559 3463 722 
L 3463 178 
Q 3153 47 2828 -22 
Q 2503 -91 2169 -91 
Q 1331 -91 842 396 
Q 353 884 353 1716 
Q 353 2575 817 3079 
Q 1281 3584 2069 3584 
Q 2775 3584 3186 3129 
Q 3597 2675 3597 1894 
z
M 3022 2063 
Q 3016 2534 2758 2815 
Q 2500 3097 2075 3097 
Q 1594 3097 1305 2825 
Q 1016 2553 972 2059 
L 3022 2063 
z
" transform="scale(0.015625)"/>
       <path id="DejaVuSans-6e" d="M 3513 2113 
L 3513 0 
L 2938 0 
L 2938 2094 
Q 2938 2591 2744 2837 
Q 2550 3084 2163 3084 
Q 1697 3084 1428 2787 
Q 1159 2491 1159 1978 
L 1159 0 
L 581 0 
L 581 3500 
L 1159 3500 
L 1159 2956 
Q 1366 3272 1645 3428 
Q 1925 3584 2291 3584 
Q 2894 3584 3203 3211 
Q 3513 2838 3513 2113 
z
" transform="scale(0.015625)"/>
       <path id="DejaVuSans-73" d="M 2834 3397 
L 2834 2853 
Q 2591 2978 2328 3040 
Q 2066 3103 1784 3103 
Q 1356 3103 1142 2972 
Q 928 2841 928 2578 
Q 928 2378 1081 2264 
Q 1234 2150 1697 2047 
L 1894 2003 
Q 2506 1872 2764 1633 
Q 3022 1394 3022 966 
Q 3022 478 2636 193 
Q 2250 -91 1575 -91 
Q 1294 -91 989 -36 
Q 684 19 347 128 
L 347 722 
Q 666 556 975 473 
Q 1284 391 1588 391 
Q 1994 391 2212 530 
Q 2431 669 2431 922 
Q 2431 1156 2273 1281 
Q 2116 1406 1581 1522 
L 1381 1569 
Q 847 1681 609 1914 
Q 372 2147 372 2553 
Q 372 3047 722 3315 
Q 1072 3584 1716 3584 
Q 2034 3584 2315 3537 
Q 2597 3491 2834 3397 
z
" transform="scale(0.015625)"/>
       <path id="DejaVuSans-6f" d="M 1959 3097 
Q 1497 3097 1228 2736 
Q 959 2375 959 1747 
Q 959 1119 1226 758 
Q 1494 397 1959 397 
Q 2419 397 2687 759 
Q 2956 1122 2956 1747 
Q 2956 2369 2687 2733 
Q 2419 3097 1959 3097 
z
M 1959 3584 
Q 2709 3584 3137 3096 
Q 3566 2609 3566 1747 
Q 3566 888 3137 398 
Q 2709 -91 1959 -91 
Q 1206 -91 779 398 
Q 353 888 353 1747 
Q 353 2609 779 3096 
Q 1206 3584 1959 3584 
z
" transform="scale(0.015625)"/>
       <path id="DejaVuSans-20" transform="scale(0.015625)"/>
       <path id="DejaVuSans-Oblique-64" d="M 2675 525 
Q 2444 222 2128 65 
Q 1813 -91 1428 -91 
Q 903 -91 598 267 
Q 294 625 294 1247 
Q 294 1766 478 2236 
Q 663 2706 1013 3078 
Q 1244 3325 1534 3454 
Q 1825 3584 2144 3584 
Q 2481 3584 2739 3421 
Q 2997 3259 3138 2956 
L 3513 4863 
L 4091 4863 
L 3144 0 
L 2566 0 
L 2675 525 
z
M 891 1350 
Q 891 897 1095 644 
Q 1300 391 1663 391 
Q 1931 391 2161 520 
Q 2391 650 2566 903 
Q 2750 1166 2856 1509 
Q 2963 1853 2963 2188 
Q 2963 2622 2758 2865 
Q 2553 3109 2194 3109 
Q 1922 3109 1687 2981 
Q 1453 2853 1288 2613 
Q 1106 2353 998 2009 
Q 891 1666 891 1350 
z
" transform="scale(0.015625)"/>
      </defs>
      <use xlink:href="#DejaVuSans-44" transform="translate(0 0.015625)"/>
      <use xlink:href="#DejaVuSans-69" transform="translate(77.001953 0.015625)"/>
      <use xlink:href="#DejaVuSans-6d" transform="translate(104.785156 0.015625)"/>
      <use xlink:href="#DejaVuSans-65" transform="translate(202.197266 0.015625)"/>
      <use xlink:href="#DejaVuSans-6e" transform="translate(263.720703 0.015625)"/>
      <use xlink:href="#DejaVuSans-73" transform="translate(327.099609 0.015625)"/>
      <use xlink:href="#DejaVuSans-69" transform="translate(379.199219 0.015625)"/>
      <use xlink:href="#DejaVuSans-6f" transform="translate(406.982422 0.015625)"/>
      <use xlink:href="#DejaVuSans-6e" transform="translate(468.164062 0.015625)"/>
      <use xlink:href="#DejaVuSans-73" transform="translate(531.542969 0.015625)"/>
      <use xlink:href="#DejaVuSans-20" transform="translate(583.642578 0.015625)"/>
      <use xlink:href="#DejaVuSans-Oblique-64" transform="translate(615.429688 0.015625)"/>
     </g>
    </g>
   </g>
   <g id="matplotlib.axis_2">
    <g id="ytick_1">
     <g id="line2d_13">
      <path d="M 58.223 306.221762 
L 565.2 306.221762 
" clip-path="url(#pa7e89bb430)" style="fill: none; stroke: #b0b0b0; stroke-width: 0.8; stroke-linecap: square"/>
     </g>
     <g id="line2d_14">
      <defs>
       <path id="mb3afd41c87" d="M 0 0 
L -3.5 0 
" style="stroke: #000000; stroke-width: 0.8"/>
      </defs>
      <g>
       <use xlink:href="#mb3afd41c87" x="58.223" y="306.221762" style="stroke: #000000; stroke-width: 0.8"/>
      </g>
     </g>
     <g id="text_8">
      <!-- 0.50 -->
      <g transform="translate(28.957375 310.020981) scale(0.1 -0.1)">
       <defs>
        <path id="DejaVuSans-2e" d="M 684 794 
L 1344 794 
L 1344 0 
L 684 0 
L 684 794 
z
" transform="scale(0.015625)"/>
       </defs>
       <use xlink:href="#DejaVuSans-30"/>
       <use xlink:href="#DejaVuSans-2e" x="63.623047"/>
       <use xlink:href="#DejaVuSans-35" x="95.410156"/>
       <use xlink:href="#DejaVuSans-30" x="159.033203"/>
      </g>
     </g>
    </g>
    <g id="ytick_2">
     <g id="line2d_15">
      <path d="M 58.223 263.143299 
L 565.2 263.143299 
" clip-path="url(#pa7e89bb430)" style="fill: none; stroke: #b0b0b0; stroke-width: 0.8; stroke-linecap: square"/>
     </g>
     <g id="line2d_16">
      <g>
       <use xlink:href="#mb3afd41c87" x="58.223" y="263.143299" style="stroke: #000000; stroke-width: 0.8"/>
      </g>
     </g>
     <g id="text_9">
      <!-- 0.55 -->
      <g transform="translate(28.957375 266.942517) scale(0.1 -0.1)">
       <use xlink:href="#DejaVuSans-30"/>
       <use xlink:href="#DejaVuSans-2e" x="63.623047"/>
       <use xlink:href="#DejaVuSans-35" x="95.410156"/>
       <use xlink:href="#DejaVuSans-35" x="159.033203"/>
      </g>
     </g>
    </g>
    <g id="ytick_3">
     <g id="line2d_17">
      <path d="M 58.223 220.064835 
L 565.2 220.064835 
" clip-path="url(#pa7e89bb430)" style="fill: none; stroke: #b0b0b0; stroke-width: 0.8; stroke-linecap: square"/>
     </g>
     <g id="line2d_18">
      <g>
       <use xlink:href="#mb3afd41c87" x="58.223" y="220.064835" style="stroke: #000000; stroke-width: 0.8"/>
      </g>
     </g>
     <g id="text_10">
      <!-- 0.60 -->
      <g transform="translate(28.957375 223.864054) scale(0.1 -0.1)">
       <use xlink:href="#DejaVuSans-30"/>
       <use xlink:href="#DejaVuSans-2e" x="63.623047"/>
       <use xlink:href="#DejaVuSans-36" x="95.410156"/>
       <use xlink:href="#DejaVuSans-30" x="159.033203"/>
      </g>
     </g>
    </g>
    <g id="ytick_4">
     <g id="line2d_19">
      <path d="M 58.223 176.986371 
L 565.2 176.986371 
" clip-path="url(#pa7e89bb430)" style="fill: none; stroke: #b0b0b0; stroke-width: 0.8; stroke-linecap: square"/>
     </g>
     <g id="line2d_20">
      <g>
       <use xlink:href="#mb3afd41c87" x="58.223" y="176.986371" style="stroke: #000000; stroke-width: 0.8"/>
      </g>
     </g>
     <g id="text_11">
      <!-- 0.65 -->
      <g transform="translate(28.957375 180.78559) scale(0.1 -0.1)">
       <use xlink:href="#DejaVuSans-30"/>
       <use xlink:href="#DejaVuSans-2e" x="63.623047"/>
       <use xlink:href="#DejaVuSans-36" x="95.410156"/>
       <use xlink:href="#DejaVuSans-35" x="159.033203"/>
      </g>
     </g>
    </g>
    <g id="ytick_5">
     <g id="line2d_21">
      <path d="M 58.223 133.907907 
L 565.2 133.907907 
" clip-path="url(#pa7e89bb430)" style="fill: none; stroke: #b0b0b0; stroke-width: 0.8; stroke-linecap: square"/>
     </g>
     <g id="line2d_22">
      <g>
       <use xlink:href="#mb3afd41c87" x="58.223" y="133.907907" style="stroke: #000000; stroke-width: 0.8"/>
      </g>
     </g>
     <g id="text_12">
      <!-- 0.70 -->
      <g transform="translate(28.957375 137.707126) scale(0.1 -0.1)">
       <defs>
        <path id="DejaVuSans-37" d="M 525 4666 
L 3525 4666 
L 3525 4397 
L 1831 0 
L 1172 0 
L 2766 4134 
L 525 4134 
L 525 4666 
z
" transform="scale(0.015625)"/>
       </defs>
       <use xlink:href="#DejaVuSans-30"/>
       <use xlink:href="#DejaVuSans-2e" x="63.623047"/>
       <use xlink:href="#DejaVuSans-37" x="95.410156"/>
       <use xlink:href="#DejaVuSans-30" x="159.033203"/>
      </g>
     </g>
    </g>
    <g id="ytick_6">
     <g id="line2d_23">
      <path d="M 58.223 90.829444 
L 565.2 90.829444 
" clip-path="url(#pa7e89bb430)" style="fill: none; stroke: #b0b0b0; stroke-width: 0.8; stroke-linecap: square"/>
     </g>
     <g id="line2d_24">
      <g>
       <use xlink:href="#mb3afd41c87" x="58.223" y="90.829444" style="stroke: #000000; stroke-width: 0.8"/>
      </g>
     </g>
     <g id="text_13">
      <!-- 0.75 -->
      <g transform="translate(28.957375 94.628662) scale(0.1 -0.1)">
       <use xlink:href="#DejaVuSans-30"/>
       <use xlink:href="#DejaVuSans-2e" x="63.623047"/>
       <use xlink:href="#DejaVuSans-37" x="95.410156"/>
       <use xlink:href="#DejaVuSans-35" x="159.033203"/>
      </g>
     </g>
    </g>
    <g id="ytick_7">
     <g id="line2d_25">
      <path d="M 58.223 47.75098 
L 565.2 47.75098 
" clip-path="url(#pa7e89bb430)" style="fill: none; stroke: #b0b0b0; stroke-width: 0.8; stroke-linecap: square"/>
     </g>
     <g id="line2d_26">
      <g>
       <use xlink:href="#mb3afd41c87" x="58.223" y="47.75098" style="stroke: #000000; stroke-width: 0.8"/>
      </g>
     </g>
     <g id="text_14">
      <!-- 0.80 -->
      <g transform="translate(28.957375 51.550199) scale(0.1 -0.1)">
       <defs>
        <path id="DejaVuSans-38" d="M 2034 2216 
Q 1584 2216 1326 1975 
Q 1069 1734 1069 1313 
Q 1069 891 1326 650 
Q 1584 409 2034 409 
Q 2484 409 2743 651 
Q 3003 894 3003 1313 
Q 3003 1734 2745 1975 
Q 2488 2216 2034 2216 
z
M 1403 2484 
Q 997 2584 770 2862 
Q 544 3141 544 3541 
Q 544 4100 942 4425 
Q 1341 4750 2034 4750 
Q 2731 4750 3128 4425 
Q 3525 4100 3525 3541 
Q 3525 3141 3298 2862 
Q 3072 2584 2669 2484 
Q 3125 2378 3379 2068 
Q 3634 1759 3634 1313 
Q 3634 634 3220 271 
Q 2806 -91 2034 -91 
Q 1263 -91 848 271 
Q 434 634 434 1313 
Q 434 1759 690 2068 
Q 947 2378 1403 2484 
z
M 1172 3481 
Q 1172 3119 1398 2916 
Q 1625 2713 2034 2713 
Q 2441 2713 2670 2916 
Q 2900 3119 2900 3481 
Q 2900 3844 2670 4047 
Q 2441 4250 2034 4250 
Q 1625 4250 1398 4047 
Q 1172 3844 1172 3481 
z
" transform="scale(0.015625)"/>
       </defs>
       <use xlink:href="#DejaVuSans-30"/>
       <use xlink:href="#DejaVuSans-2e" x="63.623047"/>
       <use xlink:href="#DejaVuSans-38" x="95.410156"/>
       <use xlink:href="#DejaVuSans-30" x="159.033203"/>
      </g>
     </g>
    </g>
    <g id="text_15">
     <!-- $\overline{W}_2$ -->
     <g transform="translate(22.877688 171.46) rotate(-90) scale(0.1 -0.1)">
      <defs>
       <path id="DejaVuSans-Oblique-57" d="M 616 4666 
L 1228 4666 
L 1453 697 
L 3213 4666 
L 3916 4666 
L 4147 697 
L 5888 4666 
L 6528 4666 
L 4453 0 
L 3659 0 
L 3444 3891 
L 1697 0 
L 903 0 
L 616 4666 
z
" transform="scale(0.015625)"/>
      </defs>
      <use xlink:href="#DejaVuSans-Oblique-57" transform="translate(0 0.84375)"/>
      <use xlink:href="#DejaVuSans-32" transform="translate(99.833984 -16.0625) scale(0.7)"/>
      <path d="M 0 85.5 
L 0 91.75 
L 98.876953 91.75 
L 98.876953 85.5 
L 0 85.5 
z
"/>
     </g>
    </g>
   </g>
   <g id="line2d_27">
    <path d="M 81.267409 283.878658 
L 90.485173 266.947078 
L 99.702936 256.437142 
L 108.9207 253.450698 
L 118.138464 249.750706 
L 127.356227 243.400779 
L 136.573991 239.01288 
L 145.791755 233.876333 
L 155.009518 228.195813 
L 164.227282 226.504516 
L 173.445045 223.782424 
L 182.662809 221.00739 
L 191.880573 216.199995 
L 201.098336 212.763435 
L 210.3161 208.026397 
L 219.533864 205.258093 
L 228.751627 202.997688 
L 237.969391 199.486455 
L 247.187155 197.102532 
L 256.404918 194.567122 
L 265.622682 191.529885 
L 274.840445 188.660779 
L 284.058209 186.489623 
L 293.275973 184.456627 
L 302.493736 182.782561 
L 311.7115 180.640238 
L 320.929264 178.909459 
L 330.147027 176.958055 
L 339.364791 175.309741 
L 348.582555 173.747502 
L 357.800318 172.330961 
L 367.018082 171.040663 
L 376.235845 169.71847 
L 385.453609 168.467811 
L 394.671373 167.366263 
L 403.889136 165.917036 
L 413.1069 164.508025 
L 422.324664 163.431823 
L 431.542427 162.314924 
L 440.760191 161.093575 
L 449.977955 160.303606 
L 459.195718 158.971576 
L 468.413482 157.967725 
L 477.631245 156.725266 
L 486.849009 155.499888 
L 496.066773 154.408009 
L 505.284536 153.654148 
L 514.5023 152.640157 
L 523.720064 151.848126 
L 532.937827 151.151158 
L 542.155591 150.549763 
" clip-path="url(#pa7e89bb430)" style="fill: none; stroke: #0000ff; stroke-width: 2; stroke-linecap: square"/>
   </g>
   <g id="line2d_28">
    <path d="M 81.267409 264.370043 
L 90.485173 241.532511 
L 99.702936 222.673405 
L 108.9207 223.323255 
L 118.138464 220.708324 
L 127.356227 211.70454 
L 136.573991 206.486571 
L 145.791755 199.484051 
L 155.009518 191.980886 
L 164.227282 191.500648 
L 173.445045 188.541599 
L 182.662809 185.389149 
L 191.880573 177.989655 
L 201.098336 173.689056 
L 210.3161 166.21645 
L 219.533864 163.068411 
L 228.751627 160.850341 
L 237.969391 155.823121 
L 247.187155 153.160468 
L 256.404918 150.281872 
L 265.622682 146.209328 
L 274.840445 142.409866 
L 284.058209 140.069953 
L 293.275973 137.900602 
L 302.493736 136.359105 
L 311.7115 133.799268 
L 320.929264 132.057147 
L 330.147027 129.641204 
L 339.364791 127.905405 
L 348.582555 126.337704 
L 357.800318 124.985552 
L 367.018082 123.885263 
L 376.235845 122.565056 
L 385.453609 121.357409 
L 394.671373 120.479394 
L 403.889136 118.814721 
L 413.1069 117.151766 
L 422.324664 116.186149 
L 431.542427 115.081003 
L 440.760191 113.774058 
L 449.977955 113.285268 
L 459.195718 111.668708 
L 468.413482 110.754468 
L 477.631245 109.200587 
L 486.849009 107.725583 
L 496.066773 106.563303 
L 505.284536 105.977648 
L 514.5023 104.929624 
L 523.720064 104.246563 
L 532.937827 103.725905 
L 542.155591 103.293688 
" clip-path="url(#pa7e89bb430)" style="fill: none; stroke-dasharray: 3.7,1.6; stroke-dashoffset: 0; stroke: #0000ff"/>
   </g>
   <g id="line2d_29">
    <path d="M 81.267409 303.387273 
L 90.485173 292.361645 
L 99.702936 290.200879 
L 108.9207 283.578142 
L 118.138464 278.793087 
L 127.356227 275.097018 
L 136.573991 271.539188 
L 145.791755 268.268615 
L 155.009518 264.410741 
L 164.227282 261.508383 
L 173.445045 259.023248 
L 182.662809 256.625631 
L 191.880573 254.410335 
L 201.098336 251.837814 
L 210.3161 249.836343 
L 219.533864 247.447775 
L 228.751627 245.145036 
L 237.969391 243.14979 
L 247.187155 241.044595 
L 256.404918 238.852371 
L 265.622682 236.850442 
L 274.840445 234.911692 
L 284.058209 232.909293 
L 293.275973 231.012651 
L 302.493736 229.206016 
L 311.7115 227.481208 
L 320.929264 225.76177 
L 330.147027 224.274906 
L 339.364791 222.714076 
L 348.582555 221.157301 
L 357.800318 219.67637 
L 367.018082 218.196064 
L 376.235845 216.871885 
L 385.453609 215.578213 
L 394.671373 214.253131 
L 403.889136 213.019351 
L 413.1069 211.864284 
L 422.324664 210.677497 
L 431.542427 209.548846 
L 440.760191 208.413092 
L 449.977955 207.321944 
L 459.195718 206.274444 
L 468.413482 205.180983 
L 477.631245 204.249945 
L 486.849009 203.274193 
L 496.066773 202.252716 
L 505.284536 201.330647 
L 514.5023 200.350691 
L 523.720064 199.449689 
L 532.937827 198.576411 
L 542.155591 197.805837 
" clip-path="url(#pa7e89bb430)" style="fill: none; stroke-dasharray: 3.7,1.6; stroke-dashoffset: 0; stroke: #0000ff"/>
   </g>
   <g id="line2d_30">
    <path d="M 81.267409 99.990862 
L 90.485173 89.2282 
L 99.702936 86.803628 
L 108.9207 85.563583 
L 118.138464 84.829835 
L 127.356227 81.555429 
L 136.573991 85.670351 
L 145.791755 87.375084 
L 155.009518 83.884073 
L 164.227282 85.201732 
L 173.445045 87.755452 
L 182.662809 88.121788 
L 191.880573 85.472254 
L 201.098336 84.239636 
L 210.3161 81.498746 
L 219.533864 81.697236 
L 228.751627 81.583753 
L 237.969391 80.317573 
L 247.187155 80.232244 
L 256.404918 80.266975 
L 265.622682 79.837848 
L 274.840445 78.791613 
L 284.058209 78.8927 
L 293.275973 78.408662 
L 302.493736 78.553331 
L 311.7115 78.650787 
L 320.929264 78.545148 
L 330.147027 78.136911 
L 339.364791 77.930329 
L 348.582555 77.620884 
L 357.800318 77.571422 
L 367.018082 77.488937 
L 376.235845 77.323728 
L 385.453609 77.42987 
L 394.671373 77.634337 
L 403.889136 77.482092 
L 413.1069 77.088445 
L 422.324664 77.016802 
L 431.542427 77.168269 
L 440.760191 77.046141 
L 449.977955 77.185254 
L 459.195718 76.717651 
L 468.413482 76.653787 
L 477.631245 76.385551 
L 486.849009 76.03206 
L 496.066773 75.735148 
L 505.284536 75.899749 
L 514.5023 75.63902 
L 523.720064 75.658237 
L 532.937827 75.693531 
L 542.155591 75.958624 
" clip-path="url(#pa7e89bb430)" style="fill: none; stroke: #ff0000; stroke-width: 2; stroke-linecap: square"/>
   </g>
   <g id="line2d_31">
    <path d="M 81.267409 48.000786 
L 90.485173 39.303662 
L 99.702936 24.732727 
L 108.9207 31.360176 
L 118.138464 35.332709 
L 127.356227 33.996711 
L 136.573991 36.640199 
L 145.791755 38.006581 
L 155.009518 36.273838 
L 164.227282 39.509907 
L 173.445045 42.386236 
L 182.662809 43.977715 
L 191.880573 41.889481 
L 201.098336 41.738268 
L 210.3161 39.025995 
L 219.533864 39.479116 
L 228.751627 40.304282 
L 237.969391 39.364467 
L 247.187155 40.222008 
L 256.404918 41.153553 
L 265.622682 41.305077 
L 274.840445 40.706726 
L 284.058209 41.403605 
L 293.275973 41.521658 
L 302.493736 42.064795 
L 311.7115 42.344877 
L 320.929264 42.766875 
L 330.147027 42.52722 
L 339.364791 42.761417 
L 348.582555 42.925643 
L 357.800318 43.287722 
L 367.018082 43.735612 
L 376.235845 43.876531 
L 385.453609 44.196549 
L 394.671373 44.773762 
L 403.889136 44.809723 
L 413.1069 44.551704 
L 422.324664 44.804357 
L 431.542427 45.056488 
L 440.760191 45.139477 
L 449.977955 45.63518 
L 459.195718 45.279419 
L 468.413482 45.536118 
L 477.631245 45.459775 
L 486.849009 45.205068 
L 496.066773 45.130132 
L 505.284536 45.43626 
L 514.5023 45.39943 
L 523.720064 45.647166 
L 532.937827 45.897596 
L 542.155591 46.261614 
" clip-path="url(#pa7e89bb430)" style="fill: none; stroke-dasharray: 3.7,1.6; stroke-dashoffset: 0; stroke: #ff0000"/>
   </g>
   <g id="line2d_32">
    <path d="M 81.267409 151.980938 
L 90.485173 139.152737 
L 99.702936 148.874529 
L 108.9207 139.766991 
L 118.138464 134.326962 
L 127.356227 129.114147 
L 136.573991 134.700502 
L 145.791755 136.743587 
L 155.009518 131.494307 
L 164.227282 130.893556 
L 173.445045 133.124668 
L 182.662809 132.265861 
L 191.880573 129.055028 
L 201.098336 126.741004 
L 210.3161 123.971496 
L 219.533864 123.915356 
L 228.751627 122.863225 
L 237.969391 121.270679 
L 247.187155 120.24248 
L 256.404918 119.380396 
L 265.622682 118.370618 
L 274.840445 116.876501 
L 284.058209 116.381795 
L 293.275973 115.295665 
L 302.493736 115.041867 
L 311.7115 114.956697 
L 320.929264 114.323421 
L 330.147027 113.746602 
L 339.364791 113.099242 
L 348.582555 112.316124 
L 357.800318 111.855123 
L 367.018082 111.242261 
L 376.235845 110.770925 
L 385.453609 110.663192 
L 394.671373 110.494912 
L 403.889136 110.154461 
L 413.1069 109.625185 
L 422.324664 109.229247 
L 431.542427 109.280049 
L 440.760191 108.952804 
L 449.977955 108.735328 
L 459.195718 108.155883 
L 468.413482 107.771455 
L 477.631245 107.311326 
L 486.849009 106.859051 
L 496.066773 106.340164 
L 505.284536 106.363237 
L 514.5023 105.878609 
L 523.720064 105.669309 
L 532.937827 105.489465 
L 542.155591 105.655634 
" clip-path="url(#pa7e89bb430)" style="fill: none; stroke-dasharray: 3.7,1.6; stroke-dashoffset: 0; stroke: #ff0000"/>
   </g>
   <g id="patch_3">
    <path d="M 58.223 317.32 
L 58.223 10.8 
" style="fill: none; stroke: #000000; stroke-width: 0.8; stroke-linejoin: miter; stroke-linecap: square"/>
   </g>
   <g id="patch_4">
    <path d="M 565.2 317.32 
L 565.2 10.8 
" style="fill: none; stroke: #000000; stroke-width: 0.8; stroke-linejoin: miter; stroke-linecap: square"/>
   </g>
   <g id="patch_5">
    <path d="M 58.223 317.32 
L 565.2 317.32 
" style="fill: none; stroke: #000000; stroke-width: 0.8; stroke-linejoin: miter; stroke-linecap: square"/>
   </g>
   <g id="patch_6">
    <path d="M 58.223 10.8 
L 565.2 10.8 
" style="fill: none; stroke: #000000; stroke-width: 0.8; stroke-linejoin: miter; stroke-linecap: square"/>
   </g>
   <g id="legend_1">
    <g id="patch_7">
     <path d="M 449.032812 312.32 
L 558.2 312.32 
Q 560.2 312.32 560.2 310.32 
L 560.2 281.96375 
Q 560.2 279.96375 558.2 279.96375 
L 449.032812 279.96375 
Q 447.032812 279.96375 447.032812 281.96375 
L 447.032812 310.32 
Q 447.032812 312.32 449.032812 312.32 
z
" style="fill: #ffffff; opacity: 0.8; stroke: #cccccc; stroke-linejoin: miter"/>
    </g>
    <g id="line2d_33">
     <path d="M 451.032812 288.062187 
L 461.032812 288.062187 
L 471.032812 288.062187 
" style="fill: none; stroke: #0000ff; stroke-width: 2; stroke-linecap: square"/>
    </g>
    <g id="text_16">
     <!-- Multi-Grid -->
     <g transform="translate(479.032812 291.562187) scale(0.1 -0.1)">
      <defs>
       <path id="DejaVuSans-4d" d="M 628 4666 
L 1569 4666 
L 2759 1491 
L 3956 4666 
L 4897 4666 
L 4897 0 
L 4281 0 
L 4281 4097 
L 3078 897 
L 2444 897 
L 1241 4097 
L 1241 0 
L 628 0 
L 628 4666 
z
" transform="scale(0.015625)"/>
       <path id="DejaVuSans-75" d="M 544 1381 
L 544 3500 
L 1119 3500 
L 1119 1403 
Q 1119 906 1312 657 
Q 1506 409 1894 409 
Q 2359 409 2629 706 
Q 2900 1003 2900 1516 
L 2900 3500 
L 3475 3500 
L 3475 0 
L 2900 0 
L 2900 538 
Q 2691 219 2414 64 
Q 2138 -91 1772 -91 
Q 1169 -91 856 284 
Q 544 659 544 1381 
z
M 1991 3584 
L 1991 3584 
z
" transform="scale(0.015625)"/>
       <path id="DejaVuSans-6c" d="M 603 4863 
L 1178 4863 
L 1178 0 
L 603 0 
L 603 4863 
z
" transform="scale(0.015625)"/>
       <path id="DejaVuSans-74" d="M 1172 4494 
L 1172 3500 
L 2356 3500 
L 2356 3053 
L 1172 3053 
L 1172 1153 
Q 1172 725 1289 603 
Q 1406 481 1766 481 
L 2356 481 
L 2356 0 
L 1766 0 
Q 1100 0 847 248 
Q 594 497 594 1153 
L 594 3053 
L 172 3053 
L 172 3500 
L 594 3500 
L 594 4494 
L 1172 4494 
z
" transform="scale(0.015625)"/>
       <path id="DejaVuSans-2d" d="M 313 2009 
L 1997 2009 
L 1997 1497 
L 313 1497 
L 313 2009 
z
" transform="scale(0.015625)"/>
       <path id="DejaVuSans-47" d="M 3809 666 
L 3809 1919 
L 2778 1919 
L 2778 2438 
L 4434 2438 
L 4434 434 
Q 4069 175 3628 42 
Q 3188 -91 2688 -91 
Q 1594 -91 976 548 
Q 359 1188 359 2328 
Q 359 3472 976 4111 
Q 1594 4750 2688 4750 
Q 3144 4750 3555 4637 
Q 3966 4525 4313 4306 
L 4313 3634 
Q 3963 3931 3569 4081 
Q 3175 4231 2741 4231 
Q 1884 4231 1454 3753 
Q 1025 3275 1025 2328 
Q 1025 1384 1454 906 
Q 1884 428 2741 428 
Q 3075 428 3337 486 
Q 3600 544 3809 666 
z
" transform="scale(0.015625)"/>
       <path id="DejaVuSans-72" d="M 2631 2963 
Q 2534 3019 2420 3045 
Q 2306 3072 2169 3072 
Q 1681 3072 1420 2755 
Q 1159 2438 1159 1844 
L 1159 0 
L 581 0 
L 581 3500 
L 1159 3500 
L 1159 2956 
Q 1341 3275 1631 3429 
Q 1922 3584 2338 3584 
Q 2397 3584 2469 3576 
Q 2541 3569 2628 3553 
L 2631 2963 
z
" transform="scale(0.015625)"/>
       <path id="DejaVuSans-64" d="M 2906 2969 
L 2906 4863 
L 3481 4863 
L 3481 0 
L 2906 0 
L 2906 525 
Q 2725 213 2448 61 
Q 2172 -91 1784 -91 
Q 1150 -91 751 415 
Q 353 922 353 1747 
Q 353 2572 751 3078 
Q 1150 3584 1784 3584 
Q 2172 3584 2448 3432 
Q 2725 3281 2906 2969 
z
M 947 1747 
Q 947 1113 1208 752 
Q 1469 391 1925 391 
Q 2381 391 2643 752 
Q 2906 1113 2906 1747 
Q 2906 2381 2643 2742 
Q 2381 3103 1925 3103 
Q 1469 3103 1208 2742 
Q 947 2381 947 1747 
z
" transform="scale(0.015625)"/>
      </defs>
      <use xlink:href="#DejaVuSans-4d"/>
      <use xlink:href="#DejaVuSans-75" x="86.279297"/>
      <use xlink:href="#DejaVuSans-6c" x="149.658203"/>
      <use xlink:href="#DejaVuSans-74" x="177.441406"/>
      <use xlink:href="#DejaVuSans-69" x="216.650391"/>
      <use xlink:href="#DejaVuSans-2d" x="244.433594"/>
      <use xlink:href="#DejaVuSans-47" x="284.142578"/>
      <use xlink:href="#DejaVuSans-72" x="361.632812"/>
      <use xlink:href="#DejaVuSans-69" x="402.746094"/>
      <use xlink:href="#DejaVuSans-64" x="430.529297"/>
     </g>
    </g>
    <g id="line2d_34">
     <path d="M 451.032812 302.740313 
L 461.032812 302.740313 
L 471.032812 302.740313 
" style="fill: none; stroke: #ff0000; stroke-width: 2; stroke-linecap: square"/>
    </g>
    <g id="text_17">
     <!-- Per Component -->
     <g transform="translate(479.032812 306.240313) scale(0.1 -0.1)">
      <defs>
       <path id="DejaVuSans-50" d="M 1259 4147 
L 1259 2394 
L 2053 2394 
Q 2494 2394 2734 2622 
Q 2975 2850 2975 3272 
Q 2975 3691 2734 3919 
Q 2494 4147 2053 4147 
L 1259 4147 
z
M 628 4666 
L 2053 4666 
Q 2838 4666 3239 4311 
Q 3641 3956 3641 3272 
Q 3641 2581 3239 2228 
Q 2838 1875 2053 1875 
L 1259 1875 
L 1259 0 
L 628 0 
L 628 4666 
z
" transform="scale(0.015625)"/>
       <path id="DejaVuSans-43" d="M 4122 4306 
L 4122 3641 
Q 3803 3938 3442 4084 
Q 3081 4231 2675 4231 
Q 1875 4231 1450 3742 
Q 1025 3253 1025 2328 
Q 1025 1406 1450 917 
Q 1875 428 2675 428 
Q 3081 428 3442 575 
Q 3803 722 4122 1019 
L 4122 359 
Q 3791 134 3420 21 
Q 3050 -91 2638 -91 
Q 1578 -91 968 557 
Q 359 1206 359 2328 
Q 359 3453 968 4101 
Q 1578 4750 2638 4750 
Q 3056 4750 3426 4639 
Q 3797 4528 4122 4306 
z
" transform="scale(0.015625)"/>
       <path id="DejaVuSans-70" d="M 1159 525 
L 1159 -1331 
L 581 -1331 
L 581 3500 
L 1159 3500 
L 1159 2969 
Q 1341 3281 1617 3432 
Q 1894 3584 2278 3584 
Q 2916 3584 3314 3078 
Q 3713 2572 3713 1747 
Q 3713 922 3314 415 
Q 2916 -91 2278 -91 
Q 1894 -91 1617 61 
Q 1341 213 1159 525 
z
M 3116 1747 
Q 3116 2381 2855 2742 
Q 2594 3103 2138 3103 
Q 1681 3103 1420 2742 
Q 1159 2381 1159 1747 
Q 1159 1113 1420 752 
Q 1681 391 2138 391 
Q 2594 391 2855 752 
Q 3116 1113 3116 1747 
z
" transform="scale(0.015625)"/>
      </defs>
      <use xlink:href="#DejaVuSans-50"/>
      <use xlink:href="#DejaVuSans-65" x="56.677734"/>
      <use xlink:href="#DejaVuSans-72" x="118.201172"/>
      <use xlink:href="#DejaVuSans-20" x="159.314453"/>
      <use xlink:href="#DejaVuSans-43" x="191.101562"/>
      <use xlink:href="#DejaVuSans-6f" x="260.925781"/>
      <use xlink:href="#DejaVuSans-6d" x="322.107422"/>
      <use xlink:href="#DejaVuSans-70" x="419.519531"/>
      <use xlink:href="#DejaVuSans-6f" x="482.996094"/>
      <use xlink:href="#DejaVuSans-6e" x="544.177734"/>
      <use xlink:href="#DejaVuSans-65" x="607.556641"/>
      <use xlink:href="#DejaVuSans-6e" x="669.080078"/>
      <use xlink:href="#DejaVuSans-74" x="732.458984"/>
     </g>
    </g>
   </g>
  </g>
 </g>
 <defs>
  <clipPath id="pa7e89bb430">
   <rect x="58.223" y="10.8" width="506.977" height="306.52"/>
  </clipPath>
 </defs>
</svg>
