<?xml version="1.0" encoding="utf-8" standalone="no"?>
<!DOCTYPE svg PUBLIC "-//W3C//DTD SVG 1.1//EN"
  "http://www.w3.org/Graphics/SVG/1.1/DTD/svg11.dtd">
<svg xmlns:xlink="http://www.w3.org/1999/xlink" width="576pt" height="576pt" viewBox="0 0 576 576" xmlns="http://www.w3.org/2000/svg" version="1.1">
 <metadata>
  <rdf:RDF xmlns:dc="http://purl.org/dc/elements/1.1/" xmlns:cc="http://creativecommons.org/ns#" xmlns:rdf="http://www.w3.org/1999/02/22-rdf-syntax-ns#">
   <cc:Work>
    <dc:type rdf:resource="http://purl.org/dc/dcmitype/StillImage"/>
    <dc:date>2025-06-21T15:01:43.230809</dc:date>
    <dc:format>image/svg+xml</dc:format>
    <dc:creator>
     <cc:Agent>
      <dc:title>Matplotlib v3.9.4, https://matplotlib.org/</dc:title>
     </cc:Agent>
    </dc:creator>
   </cc:Work>
  </rdf:RDF>
 </metadata>
 <defs>
  <style type="text/css">*{stroke-linejoin: round; stroke-linecap: butt}</style>
 </defs>
 <g id="figure_1">
  <g id="patch_1">
   <path d="M 0 576 
L 576 576 
L 576 0 
L 0 0 
z
" style="fill: #ffffff"/>
  </g>
  <g id="axes_1">
   <g id="patch_2">
    <path d="M 72 512.64 
L 518.4 512.64 
L 518.4 69.12 
L 72 69.12 
z
" style="fill: #ffffff"/>
   </g>
   <g id="PathCollection_1">
    <defs>
     <path id="m96e792bcef" d="M 0 2.236068 
C 0.593012 2.236068 1.161816 2.000462 1.581139 1.581139 
C 2.000462 1.161816 2.236068 0.593012 2.236068 0 
C 2.236068 -0.593012 2.000462 -1.161816 1.581139 -1.581139 
C 1.161816 -2.000462 0.593012 -2.236068 0 -2.236068 
C -0.593012 -2.236068 -1.161816 -2.000462 -1.581139 -1.581139 
C -2.000462 -1.161816 -2.236068 -0.593012 -2.236068 0 
C -2.236068 0.593012 -2.000462 1.161816 -1.581139 1.581139 
C -1.161816 2.000462 -0.593012 2.236068 0 2.236068 
z
" style="stroke: #000000; stroke-opacity: 0.8"/>
    </defs>
    <g clip-path="url(#pf6a466b3b2)">
     <use xlink:href="#m96e792bcef" x="339.238354" y="303.500723" style="fill: #00ffff; fill-opacity: 0.8; stroke: #000000; stroke-opacity: 0.8"/>
     <use xlink:href="#m96e792bcef" x="339.238354" y="280.476956" style="fill: #00ffff; fill-opacity: 0.8; stroke: #000000; stroke-opacity: 0.8"/>
     <use xlink:href="#m96e792bcef" x="339.238354" y="264.368795" style="fill: #00ffff; fill-opacity: 0.8; stroke: #000000; stroke-opacity: 0.8"/>
     <use xlink:href="#m96e792bcef" x="339.238354" y="251.008144" style="fill: #00ffff; fill-opacity: 0.8; stroke: #000000; stroke-opacity: 0.8"/>
     <use xlink:href="#m96e792bcef" x="339.238354" y="238.952644" style="fill: #00ffff; fill-opacity: 0.8; stroke: #000000; stroke-opacity: 0.8"/>
     <use xlink:href="#m96e792bcef" x="339.238354" y="227.444981" style="fill: #00ffff; fill-opacity: 0.8; stroke: #000000; stroke-opacity: 0.8"/>
     <use xlink:href="#m96e792bcef" x="339.238354" y="215.93732" style="fill: #00ffff; fill-opacity: 0.8; stroke: #000000; stroke-opacity: 0.8"/>
     <use xlink:href="#m96e792bcef" x="339.238354" y="203.881817" style="fill: #00ffff; fill-opacity: 0.8; stroke: #000000; stroke-opacity: 0.8"/>
     <use xlink:href="#m96e792bcef" x="339.238354" y="190.521166" style="fill: #00ffff; fill-opacity: 0.8; stroke: #000000; stroke-opacity: 0.8"/>
     <use xlink:href="#m96e792bcef" x="339.238354" y="174.413005" style="fill: #00ffff; fill-opacity: 0.8; stroke: #000000; stroke-opacity: 0.8"/>
     <use xlink:href="#m96e792bcef" x="358.582747" y="303.500723" style="fill: #00ffff; fill-opacity: 0.8; stroke: #000000; stroke-opacity: 0.8"/>
     <use xlink:href="#m96e792bcef" x="358.582747" y="280.476956" style="fill: #00ffff; fill-opacity: 0.8; stroke: #000000; stroke-opacity: 0.8"/>
     <use xlink:href="#m96e792bcef" x="358.582747" y="264.368795" style="fill: #00ffff; fill-opacity: 0.8; stroke: #000000; stroke-opacity: 0.8"/>
     <use xlink:href="#m96e792bcef" x="358.582747" y="251.008144" style="fill: #00ffff; fill-opacity: 0.8; stroke: #000000; stroke-opacity: 0.8"/>
     <use xlink:href="#m96e792bcef" x="358.582747" y="238.952644" style="fill: #00ffff; fill-opacity: 0.8; stroke: #000000; stroke-opacity: 0.8"/>
     <use xlink:href="#m96e792bcef" x="358.582747" y="227.444981" style="fill: #00ffff; fill-opacity: 0.8; stroke: #000000; stroke-opacity: 0.8"/>
     <use xlink:href="#m96e792bcef" x="358.582747" y="215.93732" style="fill: #00ffff; fill-opacity: 0.8; stroke: #000000; stroke-opacity: 0.8"/>
     <use xlink:href="#m96e792bcef" x="358.582747" y="203.881817" style="fill: #00ffff; fill-opacity: 0.8; stroke: #000000; stroke-opacity: 0.8"/>
     <use xlink:href="#m96e792bcef" x="358.582747" y="190.521166" style="fill: #00ffff; fill-opacity: 0.8; stroke: #000000; stroke-opacity: 0.8"/>
     <use xlink:href="#m96e792bcef" x="358.582747" y="174.413005" style="fill: #00ffff; fill-opacity: 0.8; stroke: #000000; stroke-opacity: 0.8"/>
     <use xlink:href="#m96e792bcef" x="372.42506" y="303.500723" style="fill: #00ffff; fill-opacity: 0.8; stroke: #000000; stroke-opacity: 0.8"/>
     <use xlink:href="#m96e792bcef" x="372.42506" y="280.476956" style="fill: #00ffff; fill-opacity: 0.8; stroke: #000000; stroke-opacity: 0.8"/>
     <use xlink:href="#m96e792bcef" x="372.42506" y="264.368795" style="fill: #00ffff; fill-opacity: 0.8; stroke: #000000; stroke-opacity: 0.8"/>
     <use xlink:href="#m96e792bcef" x="372.42506" y="251.008144" style="fill: #00ffff; fill-opacity: 0.8; stroke: #000000; stroke-opacity: 0.8"/>
     <use xlink:href="#m96e792bcef" x="372.42506" y="238.952644" style="fill: #00ffff; fill-opacity: 0.8; stroke: #000000; stroke-opacity: 0.8"/>
     <use xlink:href="#m96e792bcef" x="372.42506" y="227.444981" style="fill: #00ffff; fill-opacity: 0.8; stroke: #000000; stroke-opacity: 0.8"/>
     <use xlink:href="#m96e792bcef" x="372.42506" y="215.93732" style="fill: #00ffff; fill-opacity: 0.8; stroke: #000000; stroke-opacity: 0.8"/>
     <use xlink:href="#m96e792bcef" x="372.42506" y="203.881817" style="fill: #00ffff; fill-opacity: 0.8; stroke: #000000; stroke-opacity: 0.8"/>
     <use xlink:href="#m96e792bcef" x="372.42506" y="190.521166" style="fill: #00ffff; fill-opacity: 0.8; stroke: #000000; stroke-opacity: 0.8"/>
     <use xlink:href="#m96e792bcef" x="372.42506" y="174.413005" style="fill: #00ffff; fill-opacity: 0.8; stroke: #000000; stroke-opacity: 0.8"/>
     <use xlink:href="#m96e792bcef" x="384.216296" y="303.500723" style="fill: #00ffff; fill-opacity: 0.8; stroke: #000000; stroke-opacity: 0.8"/>
     <use xlink:href="#m96e792bcef" x="384.216296" y="280.476956" style="fill: #00ffff; fill-opacity: 0.8; stroke: #000000; stroke-opacity: 0.8"/>
     <use xlink:href="#m96e792bcef" x="384.216296" y="264.368795" style="fill: #00ffff; fill-opacity: 0.8; stroke: #000000; stroke-opacity: 0.8"/>
     <use xlink:href="#m96e792bcef" x="384.216296" y="251.008144" style="fill: #00ffff; fill-opacity: 0.8; stroke: #000000; stroke-opacity: 0.8"/>
     <use xlink:href="#m96e792bcef" x="384.216296" y="238.952644" style="fill: #00ffff; fill-opacity: 0.8; stroke: #000000; stroke-opacity: 0.8"/>
     <use xlink:href="#m96e792bcef" x="384.216296" y="227.444981" style="fill: #00ffff; fill-opacity: 0.8; stroke: #000000; stroke-opacity: 0.8"/>
     <use xlink:href="#m96e792bcef" x="384.216296" y="215.93732" style="fill: #00ffff; fill-opacity: 0.8; stroke: #000000; stroke-opacity: 0.8"/>
     <use xlink:href="#m96e792bcef" x="384.216296" y="203.881817" style="fill: #00ffff; fill-opacity: 0.8; stroke: #000000; stroke-opacity: 0.8"/>
     <use xlink:href="#m96e792bcef" x="384.216296" y="190.521166" style="fill: #00ffff; fill-opacity: 0.8; stroke: #000000; stroke-opacity: 0.8"/>
     <use xlink:href="#m96e792bcef" x="384.216296" y="174.413005" style="fill: #00ffff; fill-opacity: 0.8; stroke: #000000; stroke-opacity: 0.8"/>
     <use xlink:href="#m96e792bcef" x="395.223761" y="303.500723" style="fill: #00ffff; fill-opacity: 0.8; stroke: #000000; stroke-opacity: 0.8"/>
     <use xlink:href="#m96e792bcef" x="395.223761" y="280.476956" style="fill: #00ffff; fill-opacity: 0.8; stroke: #000000; stroke-opacity: 0.8"/>
     <use xlink:href="#m96e792bcef" x="395.223761" y="264.368795" style="fill: #00ffff; fill-opacity: 0.8; stroke: #000000; stroke-opacity: 0.8"/>
     <use xlink:href="#m96e792bcef" x="395.223761" y="251.008144" style="fill: #00ffff; fill-opacity: 0.8; stroke: #000000; stroke-opacity: 0.8"/>
     <use xlink:href="#m96e792bcef" x="395.223761" y="238.952644" style="fill: #00ffff; fill-opacity: 0.8; stroke: #000000; stroke-opacity: 0.8"/>
     <use xlink:href="#m96e792bcef" x="395.223761" y="227.444981" style="fill: #00ffff; fill-opacity: 0.8; stroke: #000000; stroke-opacity: 0.8"/>
     <use xlink:href="#m96e792bcef" x="395.223761" y="215.93732" style="fill: #00ffff; fill-opacity: 0.8; stroke: #000000; stroke-opacity: 0.8"/>
     <use xlink:href="#m96e792bcef" x="395.223761" y="203.881817" style="fill: #00ffff; fill-opacity: 0.8; stroke: #000000; stroke-opacity: 0.8"/>
     <use xlink:href="#m96e792bcef" x="395.223761" y="190.521166" style="fill: #00ffff; fill-opacity: 0.8; stroke: #000000; stroke-opacity: 0.8"/>
     <use xlink:href="#m96e792bcef" x="395.223761" y="174.413005" style="fill: #00ffff; fill-opacity: 0.8; stroke: #000000; stroke-opacity: 0.8"/>
     <use xlink:href="#m96e792bcef" x="406.231227" y="303.500723" style="fill: #00ffff; fill-opacity: 0.8; stroke: #000000; stroke-opacity: 0.8"/>
     <use xlink:href="#m96e792bcef" x="406.231227" y="280.476956" style="fill: #00ffff; fill-opacity: 0.8; stroke: #000000; stroke-opacity: 0.8"/>
     <use xlink:href="#m96e792bcef" x="406.231227" y="264.368795" style="fill: #00ffff; fill-opacity: 0.8; stroke: #000000; stroke-opacity: 0.8"/>
     <use xlink:href="#m96e792bcef" x="406.231227" y="251.008144" style="fill: #00ffff; fill-opacity: 0.8; stroke: #000000; stroke-opacity: 0.8"/>
     <use xlink:href="#m96e792bcef" x="406.231227" y="238.952644" style="fill: #00ffff; fill-opacity: 0.8; stroke: #000000; stroke-opacity: 0.8"/>
     <use xlink:href="#m96e792bcef" x="406.231227" y="227.444981" style="fill: #00ffff; fill-opacity: 0.8; stroke: #000000; stroke-opacity: 0.8"/>
     <use xlink:href="#m96e792bcef" x="406.231227" y="215.93732" style="fill: #00ffff; fill-opacity: 0.8; stroke: #000000; stroke-opacity: 0.8"/>
     <use xlink:href="#m96e792bcef" x="406.231227" y="203.881817" style="fill: #00ffff; fill-opacity: 0.8; stroke: #000000; stroke-opacity: 0.8"/>
     <use xlink:href="#m96e792bcef" x="406.231227" y="190.521166" style="fill: #00ffff; fill-opacity: 0.8; stroke: #000000; stroke-opacity: 0.8"/>
     <use xlink:href="#m96e792bcef" x="406.231227" y="174.413005" style="fill: #00ffff; fill-opacity: 0.8; stroke: #000000; stroke-opacity: 0.8"/>
     <use xlink:href="#m96e792bcef" x="418.022463" y="303.500723" style="fill: #00ffff; fill-opacity: 0.8; stroke: #000000; stroke-opacity: 0.8"/>
     <use xlink:href="#m96e792bcef" x="418.022463" y="280.476956" style="fill: #00ffff; fill-opacity: 0.8; stroke: #000000; stroke-opacity: 0.8"/>
     <use xlink:href="#m96e792bcef" x="418.022463" y="264.368795" style="fill: #00ffff; fill-opacity: 0.8; stroke: #000000; stroke-opacity: 0.8"/>
     <use xlink:href="#m96e792bcef" x="418.022463" y="251.008144" style="fill: #00ffff; fill-opacity: 0.8; stroke: #000000; stroke-opacity: 0.8"/>
     <use xlink:href="#m96e792bcef" x="418.022463" y="238.952644" style="fill: #00ffff; fill-opacity: 0.8; stroke: #000000; stroke-opacity: 0.8"/>
     <use xlink:href="#m96e792bcef" x="418.022463" y="227.444981" style="fill: #00ffff; fill-opacity: 0.8; stroke: #000000; stroke-opacity: 0.8"/>
     <use xlink:href="#m96e792bcef" x="418.022463" y="215.93732" style="fill: #00ffff; fill-opacity: 0.8; stroke: #000000; stroke-opacity: 0.8"/>
     <use xlink:href="#m96e792bcef" x="418.022463" y="203.881817" style="fill: #00ffff; fill-opacity: 0.8; stroke: #000000; stroke-opacity: 0.8"/>
     <use xlink:href="#m96e792bcef" x="418.022463" y="190.521166" style="fill: #00ffff; fill-opacity: 0.8; stroke: #000000; stroke-opacity: 0.8"/>
     <use xlink:href="#m96e792bcef" x="418.022463" y="174.413005" style="fill: #00ffff; fill-opacity: 0.8; stroke: #000000; stroke-opacity: 0.8"/>
     <use xlink:href="#m96e792bcef" x="431.864783" y="303.500723" style="fill: #00ffff; fill-opacity: 0.8; stroke: #000000; stroke-opacity: 0.8"/>
     <use xlink:href="#m96e792bcef" x="431.864783" y="280.476956" style="fill: #00ffff; fill-opacity: 0.8; stroke: #000000; stroke-opacity: 0.8"/>
     <use xlink:href="#m96e792bcef" x="431.864783" y="264.368795" style="fill: #00ffff; fill-opacity: 0.8; stroke: #000000; stroke-opacity: 0.8"/>
     <use xlink:href="#m96e792bcef" x="431.864783" y="251.008144" style="fill: #00ffff; fill-opacity: 0.8; stroke: #000000; stroke-opacity: 0.8"/>
     <use xlink:href="#m96e792bcef" x="431.864783" y="238.952644" style="fill: #00ffff; fill-opacity: 0.8; stroke: #000000; stroke-opacity: 0.8"/>
     <use xlink:href="#m96e792bcef" x="431.864783" y="227.444981" style="fill: #00ffff; fill-opacity: 0.8; stroke: #000000; stroke-opacity: 0.8"/>
     <use xlink:href="#m96e792bcef" x="431.864783" y="215.93732" style="fill: #00ffff; fill-opacity: 0.8; stroke: #000000; stroke-opacity: 0.8"/>
     <use xlink:href="#m96e792bcef" x="431.864783" y="203.881817" style="fill: #00ffff; fill-opacity: 0.8; stroke: #000000; stroke-opacity: 0.8"/>
     <use xlink:href="#m96e792bcef" x="431.864783" y="190.521166" style="fill: #00ffff; fill-opacity: 0.8; stroke: #000000; stroke-opacity: 0.8"/>
     <use xlink:href="#m96e792bcef" x="431.864783" y="174.413005" style="fill: #00ffff; fill-opacity: 0.8; stroke: #000000; stroke-opacity: 0.8"/>
     <use xlink:href="#m96e792bcef" x="451.209172" y="303.500723" style="fill: #00ffff; fill-opacity: 0.8; stroke: #000000; stroke-opacity: 0.8"/>
     <use xlink:href="#m96e792bcef" x="451.209172" y="280.476956" style="fill: #00ffff; fill-opacity: 0.8; stroke: #000000; stroke-opacity: 0.8"/>
     <use xlink:href="#m96e792bcef" x="451.209172" y="264.368795" style="fill: #00ffff; fill-opacity: 0.8; stroke: #000000; stroke-opacity: 0.8"/>
     <use xlink:href="#m96e792bcef" x="451.209172" y="251.008144" style="fill: #00ffff; fill-opacity: 0.8; stroke: #000000; stroke-opacity: 0.8"/>
     <use xlink:href="#m96e792bcef" x="451.209172" y="238.952644" style="fill: #00ffff; fill-opacity: 0.8; stroke: #000000; stroke-opacity: 0.8"/>
     <use xlink:href="#m96e792bcef" x="451.209172" y="227.444981" style="fill: #00ffff; fill-opacity: 0.8; stroke: #000000; stroke-opacity: 0.8"/>
     <use xlink:href="#m96e792bcef" x="451.209172" y="215.93732" style="fill: #00ffff; fill-opacity: 0.8; stroke: #000000; stroke-opacity: 0.8"/>
     <use xlink:href="#m96e792bcef" x="451.209172" y="203.881817" style="fill: #00ffff; fill-opacity: 0.8; stroke: #000000; stroke-opacity: 0.8"/>
     <use xlink:href="#m96e792bcef" x="451.209172" y="190.521166" style="fill: #00ffff; fill-opacity: 0.8; stroke: #000000; stroke-opacity: 0.8"/>
     <use xlink:href="#m96e792bcef" x="451.209172" y="174.413005" style="fill: #00ffff; fill-opacity: 0.8; stroke: #000000; stroke-opacity: 0.8"/>
     <use xlink:href="#m96e792bcef" x="136.750101" y="452.750233" style="fill: #00ffff; fill-opacity: 0.8; stroke: #000000; stroke-opacity: 0.8"/>
     <use xlink:href="#m96e792bcef" x="136.750101" y="437.608397" style="fill: #00ffff; fill-opacity: 0.8; stroke: #000000; stroke-opacity: 0.8"/>
     <use xlink:href="#m96e792bcef" x="136.750101" y="423.945714" style="fill: #00ffff; fill-opacity: 0.8; stroke: #000000; stroke-opacity: 0.8"/>
     <use xlink:href="#m96e792bcef" x="136.750101" y="410.9039" style="fill: #00ffff; fill-opacity: 0.8; stroke: #000000; stroke-opacity: 0.8"/>
     <use xlink:href="#m96e792bcef" x="136.750101" y="397.862086" style="fill: #00ffff; fill-opacity: 0.8; stroke: #000000; stroke-opacity: 0.8"/>
     <use xlink:href="#m96e792bcef" x="136.750101" y="384.199404" style="fill: #00ffff; fill-opacity: 0.8; stroke: #000000; stroke-opacity: 0.8"/>
     <use xlink:href="#m96e792bcef" x="136.750101" y="369.057561" style="fill: #00ffff; fill-opacity: 0.8; stroke: #000000; stroke-opacity: 0.8"/>
     <use xlink:href="#m96e792bcef" x="136.750101" y="350.801927" style="fill: #00ffff; fill-opacity: 0.8; stroke: #000000; stroke-opacity: 0.8"/>
     <use xlink:href="#m96e792bcef" x="136.750101" y="324.708726" style="fill: #00ffff; fill-opacity: 0.8; stroke: #000000; stroke-opacity: 0.8"/>
     <use xlink:href="#m96e792bcef" x="158.28696" y="452.750233" style="fill: #00ffff; fill-opacity: 0.8; stroke: #000000; stroke-opacity: 0.8"/>
     <use xlink:href="#m96e792bcef" x="158.28696" y="437.608397" style="fill: #00ffff; fill-opacity: 0.8; stroke: #000000; stroke-opacity: 0.8"/>
     <use xlink:href="#m96e792bcef" x="158.28696" y="423.945714" style="fill: #00ffff; fill-opacity: 0.8; stroke: #000000; stroke-opacity: 0.8"/>
     <use xlink:href="#m96e792bcef" x="158.28696" y="410.9039" style="fill: #00ffff; fill-opacity: 0.8; stroke: #000000; stroke-opacity: 0.8"/>
     <use xlink:href="#m96e792bcef" x="158.28696" y="397.862086" style="fill: #00ffff; fill-opacity: 0.8; stroke: #000000; stroke-opacity: 0.8"/>
     <use xlink:href="#m96e792bcef" x="158.28696" y="384.199404" style="fill: #00ffff; fill-opacity: 0.8; stroke: #000000; stroke-opacity: 0.8"/>
     <use xlink:href="#m96e792bcef" x="158.28696" y="369.057561" style="fill: #00ffff; fill-opacity: 0.8; stroke: #000000; stroke-opacity: 0.8"/>
     <use xlink:href="#m96e792bcef" x="158.28696" y="350.801927" style="fill: #00ffff; fill-opacity: 0.8; stroke: #000000; stroke-opacity: 0.8"/>
     <use xlink:href="#m96e792bcef" x="158.28696" y="324.708726" style="fill: #00ffff; fill-opacity: 0.8; stroke: #000000; stroke-opacity: 0.8"/>
     <use xlink:href="#m96e792bcef" x="173.698145" y="452.750233" style="fill: #00ffff; fill-opacity: 0.8; stroke: #000000; stroke-opacity: 0.8"/>
     <use xlink:href="#m96e792bcef" x="173.698145" y="437.608397" style="fill: #00ffff; fill-opacity: 0.8; stroke: #000000; stroke-opacity: 0.8"/>
     <use xlink:href="#m96e792bcef" x="173.698145" y="423.945714" style="fill: #00ffff; fill-opacity: 0.8; stroke: #000000; stroke-opacity: 0.8"/>
     <use xlink:href="#m96e792bcef" x="173.698145" y="410.9039" style="fill: #00ffff; fill-opacity: 0.8; stroke: #000000; stroke-opacity: 0.8"/>
     <use xlink:href="#m96e792bcef" x="173.698145" y="397.862086" style="fill: #00ffff; fill-opacity: 0.8; stroke: #000000; stroke-opacity: 0.8"/>
     <use xlink:href="#m96e792bcef" x="173.698145" y="384.199404" style="fill: #00ffff; fill-opacity: 0.8; stroke: #000000; stroke-opacity: 0.8"/>
     <use xlink:href="#m96e792bcef" x="173.698145" y="369.057561" style="fill: #00ffff; fill-opacity: 0.8; stroke: #000000; stroke-opacity: 0.8"/>
     <use xlink:href="#m96e792bcef" x="173.698145" y="350.801927" style="fill: #00ffff; fill-opacity: 0.8; stroke: #000000; stroke-opacity: 0.8"/>
     <use xlink:href="#m96e792bcef" x="173.698145" y="324.708726" style="fill: #00ffff; fill-opacity: 0.8; stroke: #000000; stroke-opacity: 0.8"/>
     <use xlink:href="#m96e792bcef" x="186.825794" y="452.750233" style="fill: #00ffff; fill-opacity: 0.8; stroke: #000000; stroke-opacity: 0.8"/>
     <use xlink:href="#m96e792bcef" x="186.825794" y="437.608397" style="fill: #00ffff; fill-opacity: 0.8; stroke: #000000; stroke-opacity: 0.8"/>
     <use xlink:href="#m96e792bcef" x="186.825794" y="423.945714" style="fill: #00ffff; fill-opacity: 0.8; stroke: #000000; stroke-opacity: 0.8"/>
     <use xlink:href="#m96e792bcef" x="186.825794" y="410.9039" style="fill: #00ffff; fill-opacity: 0.8; stroke: #000000; stroke-opacity: 0.8"/>
     <use xlink:href="#m96e792bcef" x="186.825794" y="397.862086" style="fill: #00ffff; fill-opacity: 0.8; stroke: #000000; stroke-opacity: 0.8"/>
     <use xlink:href="#m96e792bcef" x="186.825794" y="384.199404" style="fill: #00ffff; fill-opacity: 0.8; stroke: #000000; stroke-opacity: 0.8"/>
     <use xlink:href="#m96e792bcef" x="186.825794" y="369.057561" style="fill: #00ffff; fill-opacity: 0.8; stroke: #000000; stroke-opacity: 0.8"/>
     <use xlink:href="#m96e792bcef" x="186.825794" y="350.801927" style="fill: #00ffff; fill-opacity: 0.8; stroke: #000000; stroke-opacity: 0.8"/>
     <use xlink:href="#m96e792bcef" x="186.825794" y="324.708726" style="fill: #00ffff; fill-opacity: 0.8; stroke: #000000; stroke-opacity: 0.8"/>
     <use xlink:href="#m96e792bcef" x="199.080828" y="452.750233" style="fill: #00ffff; fill-opacity: 0.8; stroke: #000000; stroke-opacity: 0.8"/>
     <use xlink:href="#m96e792bcef" x="199.080828" y="437.608397" style="fill: #00ffff; fill-opacity: 0.8; stroke: #000000; stroke-opacity: 0.8"/>
     <use xlink:href="#m96e792bcef" x="199.080828" y="423.945714" style="fill: #00ffff; fill-opacity: 0.8; stroke: #000000; stroke-opacity: 0.8"/>
     <use xlink:href="#m96e792bcef" x="199.080828" y="410.9039" style="fill: #00ffff; fill-opacity: 0.8; stroke: #000000; stroke-opacity: 0.8"/>
     <use xlink:href="#m96e792bcef" x="199.080828" y="397.862086" style="fill: #00ffff; fill-opacity: 0.8; stroke: #000000; stroke-opacity: 0.8"/>
     <use xlink:href="#m96e792bcef" x="199.080828" y="384.199404" style="fill: #00ffff; fill-opacity: 0.8; stroke: #000000; stroke-opacity: 0.8"/>
     <use xlink:href="#m96e792bcef" x="199.080828" y="369.057561" style="fill: #00ffff; fill-opacity: 0.8; stroke: #000000; stroke-opacity: 0.8"/>
     <use xlink:href="#m96e792bcef" x="199.080828" y="350.801927" style="fill: #00ffff; fill-opacity: 0.8; stroke: #000000; stroke-opacity: 0.8"/>
     <use xlink:href="#m96e792bcef" x="199.080828" y="324.708726" style="fill: #00ffff; fill-opacity: 0.8; stroke: #000000; stroke-opacity: 0.8"/>
     <use xlink:href="#m96e792bcef" x="211.335862" y="452.750233" style="fill: #00ffff; fill-opacity: 0.8; stroke: #000000; stroke-opacity: 0.8"/>
     <use xlink:href="#m96e792bcef" x="211.335862" y="437.608397" style="fill: #00ffff; fill-opacity: 0.8; stroke: #000000; stroke-opacity: 0.8"/>
     <use xlink:href="#m96e792bcef" x="211.335862" y="423.945714" style="fill: #00ffff; fill-opacity: 0.8; stroke: #000000; stroke-opacity: 0.8"/>
     <use xlink:href="#m96e792bcef" x="211.335862" y="410.9039" style="fill: #00ffff; fill-opacity: 0.8; stroke: #000000; stroke-opacity: 0.8"/>
     <use xlink:href="#m96e792bcef" x="211.335862" y="397.862086" style="fill: #00ffff; fill-opacity: 0.8; stroke: #000000; stroke-opacity: 0.8"/>
     <use xlink:href="#m96e792bcef" x="211.335862" y="384.199404" style="fill: #00ffff; fill-opacity: 0.8; stroke: #000000; stroke-opacity: 0.8"/>
     <use xlink:href="#m96e792bcef" x="211.335862" y="369.057561" style="fill: #00ffff; fill-opacity: 0.8; stroke: #000000; stroke-opacity: 0.8"/>
     <use xlink:href="#m96e792bcef" x="211.335862" y="350.801927" style="fill: #00ffff; fill-opacity: 0.8; stroke: #000000; stroke-opacity: 0.8"/>
     <use xlink:href="#m96e792bcef" x="211.335862" y="324.708726" style="fill: #00ffff; fill-opacity: 0.8; stroke: #000000; stroke-opacity: 0.8"/>
     <use xlink:href="#m96e792bcef" x="224.463511" y="452.750233" style="fill: #00ffff; fill-opacity: 0.8; stroke: #000000; stroke-opacity: 0.8"/>
     <use xlink:href="#m96e792bcef" x="224.463511" y="437.608397" style="fill: #00ffff; fill-opacity: 0.8; stroke: #000000; stroke-opacity: 0.8"/>
     <use xlink:href="#m96e792bcef" x="224.463511" y="423.945714" style="fill: #00ffff; fill-opacity: 0.8; stroke: #000000; stroke-opacity: 0.8"/>
     <use xlink:href="#m96e792bcef" x="224.463511" y="410.9039" style="fill: #00ffff; fill-opacity: 0.8; stroke: #000000; stroke-opacity: 0.8"/>
     <use xlink:href="#m96e792bcef" x="224.463511" y="397.862086" style="fill: #00ffff; fill-opacity: 0.8; stroke: #000000; stroke-opacity: 0.8"/>
     <use xlink:href="#m96e792bcef" x="224.463511" y="384.199404" style="fill: #00ffff; fill-opacity: 0.8; stroke: #000000; stroke-opacity: 0.8"/>
     <use xlink:href="#m96e792bcef" x="224.463511" y="369.057561" style="fill: #00ffff; fill-opacity: 0.8; stroke: #000000; stroke-opacity: 0.8"/>
     <use xlink:href="#m96e792bcef" x="224.463511" y="350.801927" style="fill: #00ffff; fill-opacity: 0.8; stroke: #000000; stroke-opacity: 0.8"/>
     <use xlink:href="#m96e792bcef" x="224.463511" y="324.708726" style="fill: #00ffff; fill-opacity: 0.8; stroke: #000000; stroke-opacity: 0.8"/>
     <use xlink:href="#m96e792bcef" x="239.874696" y="452.750233" style="fill: #00ffff; fill-opacity: 0.8; stroke: #000000; stroke-opacity: 0.8"/>
     <use xlink:href="#m96e792bcef" x="239.874696" y="437.608397" style="fill: #00ffff; fill-opacity: 0.8; stroke: #000000; stroke-opacity: 0.8"/>
     <use xlink:href="#m96e792bcef" x="239.874696" y="423.945714" style="fill: #00ffff; fill-opacity: 0.8; stroke: #000000; stroke-opacity: 0.8"/>
     <use xlink:href="#m96e792bcef" x="239.874696" y="410.9039" style="fill: #00ffff; fill-opacity: 0.8; stroke: #000000; stroke-opacity: 0.8"/>
     <use xlink:href="#m96e792bcef" x="239.874696" y="397.862086" style="fill: #00ffff; fill-opacity: 0.8; stroke: #000000; stroke-opacity: 0.8"/>
     <use xlink:href="#m96e792bcef" x="239.874696" y="384.199404" style="fill: #00ffff; fill-opacity: 0.8; stroke: #000000; stroke-opacity: 0.8"/>
     <use xlink:href="#m96e792bcef" x="239.874696" y="369.057561" style="fill: #00ffff; fill-opacity: 0.8; stroke: #000000; stroke-opacity: 0.8"/>
     <use xlink:href="#m96e792bcef" x="239.874696" y="350.801927" style="fill: #00ffff; fill-opacity: 0.8; stroke: #000000; stroke-opacity: 0.8"/>
     <use xlink:href="#m96e792bcef" x="239.874696" y="324.708726" style="fill: #00ffff; fill-opacity: 0.8; stroke: #000000; stroke-opacity: 0.8"/>
     <use xlink:href="#m96e792bcef" x="261.411562" y="452.750233" style="fill: #00ffff; fill-opacity: 0.8; stroke: #000000; stroke-opacity: 0.8"/>
     <use xlink:href="#m96e792bcef" x="261.411562" y="437.608397" style="fill: #00ffff; fill-opacity: 0.8; stroke: #000000; stroke-opacity: 0.8"/>
     <use xlink:href="#m96e792bcef" x="261.411562" y="423.945714" style="fill: #00ffff; fill-opacity: 0.8; stroke: #000000; stroke-opacity: 0.8"/>
     <use xlink:href="#m96e792bcef" x="261.411562" y="410.9039" style="fill: #00ffff; fill-opacity: 0.8; stroke: #000000; stroke-opacity: 0.8"/>
     <use xlink:href="#m96e792bcef" x="261.411562" y="397.862086" style="fill: #00ffff; fill-opacity: 0.8; stroke: #000000; stroke-opacity: 0.8"/>
     <use xlink:href="#m96e792bcef" x="261.411562" y="384.199404" style="fill: #00ffff; fill-opacity: 0.8; stroke: #000000; stroke-opacity: 0.8"/>
     <use xlink:href="#m96e792bcef" x="261.411562" y="369.057561" style="fill: #00ffff; fill-opacity: 0.8; stroke: #000000; stroke-opacity: 0.8"/>
     <use xlink:href="#m96e792bcef" x="261.411562" y="350.801927" style="fill: #00ffff; fill-opacity: 0.8; stroke: #000000; stroke-opacity: 0.8"/>
     <use xlink:href="#m96e792bcef" x="261.411562" y="324.708726" style="fill: #00ffff; fill-opacity: 0.8; stroke: #000000; stroke-opacity: 0.8"/>
     <use xlink:href="#m96e792bcef" x="295.2" y="316.752" style="fill: #00ffff; fill-opacity: 0.8; stroke: #000000; stroke-opacity: 0.8"/>
    </g>
   </g>
   <g id="PathCollection_2">
    <defs>
     <path id="m44149792b6" d="M 0 5 
C 1.326016 5 2.597899 4.473168 3.535534 3.535534 
C 4.473168 2.597899 5 1.326016 5 0 
C 5 -1.326016 4.473168 -2.597899 3.535534 -3.535534 
C 2.597899 -4.473168 1.326016 -5 0 -5 
C -1.326016 -5 -2.597899 -4.473168 -3.535534 -3.535534 
C -4.473168 -2.597899 -5 -1.326016 -5 0 
C -5 1.326016 -4.473168 2.597899 -3.535534 3.535534 
C -2.597899 4.473168 -1.326016 5 0 5 
z
" style="stroke: #ff0000"/>
    </defs>
    <g clip-path="url(#pf6a466b3b2)">
     <use xlink:href="#m44149792b6" x="295.2" y="316.752" style="fill: #ff0000; stroke: #ff0000"/>
    </g>
   </g>
   <g id="patch_3">
    <path d="M 286.871854 319.788528 
L 462.296298 319.788528 
L 462.296298 151.521214 
L 286.871854 151.521214 
L 286.871854 319.788528 
z
" clip-path="url(#pf6a466b3b2)" style="fill: none; stroke-dasharray: 7.4,3.2; stroke-dashoffset: 0; stroke: #00ffff; stroke-width: 2; stroke-linejoin: miter"/>
   </g>
   <g id="patch_4">
    <path d="M 96.469589 467.782631 
L 270.328192 467.782631 
L 270.328192 319.788528 
L 96.469589 319.788528 
L 96.469589 467.782631 
z
" clip-path="url(#pf6a466b3b2)" style="fill: none; stroke-dasharray: 7.4,3.2; stroke-dashoffset: 0; stroke: #00ffff; stroke-width: 2; stroke-linejoin: miter"/>
   </g>
   <g id="matplotlib.axis_1">
    <g id="xtick_1">
     <g id="line2d_1">
      <defs>
       <path id="m1924d56342" d="M 0 0 
L 0 3.5 
" style="stroke: #000000; stroke-width: 0.8"/>
      </defs>
      <g>
       <use xlink:href="#m1924d56342" x="73.44" y="512.64" style="stroke: #000000; stroke-width: 0.8"/>
      </g>
     </g>
     <g id="text_1">
      <!-- −15 -->
      <g transform="translate(62.887656 527.238438) scale(0.1 -0.1)">
       <defs>
        <path id="DejaVuSans-2212" d="M 678 2272 
L 4684 2272 
L 4684 1741 
L 678 1741 
L 678 2272 
z
" transform="scale(0.015625)"/>
        <path id="DejaVuSans-31" d="M 794 531 
L 1825 531 
L 1825 4091 
L 703 3866 
L 703 4441 
L 1819 4666 
L 2450 4666 
L 2450 531 
L 3481 531 
L 3481 0 
L 794 0 
L 794 531 
z
" transform="scale(0.015625)"/>
        <path id="DejaVuSans-35" d="M 691 4666 
L 3169 4666 
L 3169 4134 
L 1269 4134 
L 1269 2991 
Q 1406 3038 1543 3061 
Q 1681 3084 1819 3084 
Q 2600 3084 3056 2656 
Q 3513 2228 3513 1497 
Q 3513 744 3044 326 
Q 2575 -91 1722 -91 
Q 1428 -91 1123 -41 
Q 819 9 494 109 
L 494 744 
Q 775 591 1075 516 
Q 1375 441 1709 441 
Q 2250 441 2565 725 
Q 2881 1009 2881 1497 
Q 2881 1984 2565 2268 
Q 2250 2553 1709 2553 
Q 1456 2553 1204 2497 
Q 953 2441 691 2322 
L 691 4666 
z
" transform="scale(0.015625)"/>
       </defs>
       <use xlink:href="#DejaVuSans-2212"/>
       <use xlink:href="#DejaVuSans-31" x="83.789062"/>
       <use xlink:href="#DejaVuSans-35" x="147.412109"/>
      </g>
     </g>
    </g>
    <g id="xtick_2">
     <g id="line2d_2">
      <g>
       <use xlink:href="#m1924d56342" x="147.36" y="512.64" style="stroke: #000000; stroke-width: 0.8"/>
      </g>
     </g>
     <g id="text_2">
      <!-- −10 -->
      <g transform="translate(136.807656 527.238438) scale(0.1 -0.1)">
       <defs>
        <path id="DejaVuSans-30" d="M 2034 4250 
Q 1547 4250 1301 3770 
Q 1056 3291 1056 2328 
Q 1056 1369 1301 889 
Q 1547 409 2034 409 
Q 2525 409 2770 889 
Q 3016 1369 3016 2328 
Q 3016 3291 2770 3770 
Q 2525 4250 2034 4250 
z
M 2034 4750 
Q 2819 4750 3233 4129 
Q 3647 3509 3647 2328 
Q 3647 1150 3233 529 
Q 2819 -91 2034 -91 
Q 1250 -91 836 529 
Q 422 1150 422 2328 
Q 422 3509 836 4129 
Q 1250 4750 2034 4750 
z
" transform="scale(0.015625)"/>
       </defs>
       <use xlink:href="#DejaVuSans-2212"/>
       <use xlink:href="#DejaVuSans-31" x="83.789062"/>
       <use xlink:href="#DejaVuSans-30" x="147.412109"/>
      </g>
     </g>
    </g>
    <g id="xtick_3">
     <g id="line2d_3">
      <g>
       <use xlink:href="#m1924d56342" x="221.28" y="512.64" style="stroke: #000000; stroke-width: 0.8"/>
      </g>
     </g>
     <g id="text_3">
      <!-- −5 -->
      <g transform="translate(213.908906 527.238438) scale(0.1 -0.1)">
       <use xlink:href="#DejaVuSans-2212"/>
       <use xlink:href="#DejaVuSans-35" x="83.789062"/>
      </g>
     </g>
    </g>
    <g id="xtick_4">
     <g id="line2d_4">
      <g>
       <use xlink:href="#m1924d56342" x="295.2" y="512.64" style="stroke: #000000; stroke-width: 0.8"/>
      </g>
     </g>
     <g id="text_4">
      <!-- 0 -->
      <g transform="translate(292.01875 527.238438) scale(0.1 -0.1)">
       <use xlink:href="#DejaVuSans-30"/>
      </g>
     </g>
    </g>
    <g id="xtick_5">
     <g id="line2d_5">
      <g>
       <use xlink:href="#m1924d56342" x="369.12" y="512.64" style="stroke: #000000; stroke-width: 0.8"/>
      </g>
     </g>
     <g id="text_5">
      <!-- 5 -->
      <g transform="translate(365.93875 527.238438) scale(0.1 -0.1)">
       <use xlink:href="#DejaVuSans-35"/>
      </g>
     </g>
    </g>
    <g id="xtick_6">
     <g id="line2d_6">
      <g>
       <use xlink:href="#m1924d56342" x="443.04" y="512.64" style="stroke: #000000; stroke-width: 0.8"/>
      </g>
     </g>
     <g id="text_6">
      <!-- 10 -->
      <g transform="translate(436.6775 527.238438) scale(0.1 -0.1)">
       <use xlink:href="#DejaVuSans-31"/>
       <use xlink:href="#DejaVuSans-30" x="63.623047"/>
      </g>
     </g>
    </g>
    <g id="xtick_7">
     <g id="line2d_7">
      <g>
       <use xlink:href="#m1924d56342" x="516.96" y="512.64" style="stroke: #000000; stroke-width: 0.8"/>
      </g>
     </g>
     <g id="text_7">
      <!-- 15 -->
      <g transform="translate(510.5975 527.238438) scale(0.1 -0.1)">
       <use xlink:href="#DejaVuSans-31"/>
       <use xlink:href="#DejaVuSans-35" x="63.623047"/>
      </g>
     </g>
    </g>
    <g id="text_8">
     <!-- x -->
     <g transform="translate(292.240625 540.916563) scale(0.1 -0.1)">
      <defs>
       <path id="DejaVuSans-78" d="M 3513 3500 
L 2247 1797 
L 3578 0 
L 2900 0 
L 1881 1375 
L 863 0 
L 184 0 
L 1544 1831 
L 300 3500 
L 978 3500 
L 1906 2253 
L 2834 3500 
L 3513 3500 
z
" transform="scale(0.015625)"/>
      </defs>
      <use xlink:href="#DejaVuSans-78"/>
     </g>
    </g>
   </g>
   <g id="matplotlib.axis_2">
    <g id="ytick_1">
     <g id="line2d_8">
      <defs>
       <path id="me0b2c897d5" d="M 0 0 
L -3.5 0 
" style="stroke: #000000; stroke-width: 0.8"/>
      </defs>
      <g>
       <use xlink:href="#me0b2c897d5" x="72" y="512.64" style="stroke: #000000; stroke-width: 0.8"/>
      </g>
     </g>
     <g id="text_9">
      <!-- −15 -->
      <g transform="translate(43.895313 516.439219) scale(0.1 -0.1)">
       <use xlink:href="#DejaVuSans-2212"/>
       <use xlink:href="#DejaVuSans-31" x="83.789062"/>
       <use xlink:href="#DejaVuSans-35" x="147.412109"/>
      </g>
     </g>
    </g>
    <g id="ytick_2">
     <g id="line2d_9">
      <g>
       <use xlink:href="#me0b2c897d5" x="72" y="438.72" style="stroke: #000000; stroke-width: 0.8"/>
      </g>
     </g>
     <g id="text_10">
      <!-- −10 -->
      <g transform="translate(43.895313 442.519219) scale(0.1 -0.1)">
       <use xlink:href="#DejaVuSans-2212"/>
       <use xlink:href="#DejaVuSans-31" x="83.789062"/>
       <use xlink:href="#DejaVuSans-30" x="147.412109"/>
      </g>
     </g>
    </g>
    <g id="ytick_3">
     <g id="line2d_10">
      <g>
       <use xlink:href="#me0b2c897d5" x="72" y="364.8" style="stroke: #000000; stroke-width: 0.8"/>
      </g>
     </g>
     <g id="text_11">
      <!-- −5 -->
      <g transform="translate(50.257812 368.599219) scale(0.1 -0.1)">
       <use xlink:href="#DejaVuSans-2212"/>
       <use xlink:href="#DejaVuSans-35" x="83.789062"/>
      </g>
     </g>
    </g>
    <g id="ytick_4">
     <g id="line2d_11">
      <g>
       <use xlink:href="#me0b2c897d5" x="72" y="290.88" style="stroke: #000000; stroke-width: 0.8"/>
      </g>
     </g>
     <g id="text_12">
      <!-- 0 -->
      <g transform="translate(58.6375 294.679219) scale(0.1 -0.1)">
       <use xlink:href="#DejaVuSans-30"/>
      </g>
     </g>
    </g>
    <g id="ytick_5">
     <g id="line2d_12">
      <g>
       <use xlink:href="#me0b2c897d5" x="72" y="216.96" style="stroke: #000000; stroke-width: 0.8"/>
      </g>
     </g>
     <g id="text_13">
      <!-- 5 -->
      <g transform="translate(58.6375 220.759219) scale(0.1 -0.1)">
       <use xlink:href="#DejaVuSans-35"/>
      </g>
     </g>
    </g>
    <g id="ytick_6">
     <g id="line2d_13">
      <g>
       <use xlink:href="#me0b2c897d5" x="72" y="143.04" style="stroke: #000000; stroke-width: 0.8"/>
      </g>
     </g>
     <g id="text_14">
      <!-- 10 -->
      <g transform="translate(52.275 146.839219) scale(0.1 -0.1)">
       <use xlink:href="#DejaVuSans-31"/>
       <use xlink:href="#DejaVuSans-30" x="63.623047"/>
      </g>
     </g>
    </g>
    <g id="ytick_7">
     <g id="line2d_14">
      <g>
       <use xlink:href="#me0b2c897d5" x="72" y="69.12" style="stroke: #000000; stroke-width: 0.8"/>
      </g>
     </g>
     <g id="text_15">
      <!-- 15 -->
      <g transform="translate(52.275 72.919219) scale(0.1 -0.1)">
       <use xlink:href="#DejaVuSans-31"/>
       <use xlink:href="#DejaVuSans-35" x="63.623047"/>
      </g>
     </g>
    </g>
    <g id="text_16">
     <!-- y -->
     <g transform="translate(37.815625 293.839375) rotate(-90) scale(0.1 -0.1)">
      <defs>
       <path id="DejaVuSans-79" d="M 2059 -325 
Q 1816 -950 1584 -1140 
Q 1353 -1331 966 -1331 
L 506 -1331 
L 506 -850 
L 844 -850 
Q 1081 -850 1212 -737 
Q 1344 -625 1503 -206 
L 1606 56 
L 191 3500 
L 800 3500 
L 1894 763 
L 2988 3500 
L 3597 3500 
L 2059 -325 
z
" transform="scale(0.015625)"/>
      </defs>
      <use xlink:href="#DejaVuSans-79"/>
     </g>
    </g>
   </g>
   <g id="QuadContourSet_1">
    <path clip-path="url(#pf6a466b3b2)" style="fill: none; stroke: #440154; stroke-width: 1.5"/>
    <path d="M 200.16 432.719543 
L 209.211429 433.820725 
L 214.712548 431.177143 
L 218.262857 429.820336 
L 225.755391 422.125714 
L 227.314286 419.949235 
L 231.633576 413.074286 
L 234.800045 404.022857 
L 236.348192 394.971429 
L 236.365714 394.770336 
L 237.988559 385.92 
L 238.242692 376.868571 
L 237.186922 367.817143 
L 236.365714 364.72104 
L 235.556641 358.765714 
L 233.175474 349.714286 
L 228.273778 340.662857 
L 227.314286 339.280347 
L 220.774176 331.611429 
L 218.262857 329.221059 
L 209.211429 325.291406 
L 200.16 326.166253 
L 192.410853 331.611429 
L 191.108571 332.511699 
L 184.562106 340.662857 
L 182.057143 345.943621 
L 180.017108 349.714286 
L 176.794762 358.765714 
L 175.245299 367.817143 
L 174.660884 376.868571 
L 174.801558 385.92 
L 175.723586 394.971429 
L 177.818636 404.022857 
L 182.057143 413.008113 
L 182.082534 413.074286 
L 186.975796 422.125714 
L 191.108571 426.983319 
L 197.864414 431.177143 
L 200.16 432.719543 
z
" clip-path="url(#pf6a466b3b2)" style="fill: none; stroke: #482878; stroke-width: 1.5"/>
    <path d="M 200.16 423.102732 
L 209.211429 424.400404 
L 213.406416 422.125714 
L 218.262857 419.664801 
L 223.746872 413.074286 
L 227.314286 406.082215 
L 228.358584 404.022857 
L 231.454877 394.971429 
L 232.81755 385.92 
L 233.025453 376.868571 
L 232.161741 367.817143 
L 229.871775 358.765714 
L 227.314286 353.135347 
L 225.827024 349.714286 
L 219.214215 340.662857 
L 218.262857 339.627871 
L 209.211429 334.696776 
L 200.16 335.794571 
L 194.098351 340.662857 
L 191.108571 343.457427 
L 186.897423 349.714286 
L 183.382764 358.765714 
L 182.057143 365.499312 
L 181.388957 367.817143 
L 180.220127 376.868571 
L 180.501474 385.92 
L 182.057143 393.725873 
L 182.214417 394.971429 
L 184.499517 404.022857 
L 189.1733 413.074286 
L 191.108571 415.736141 
L 198.871308 422.125714 
L 200.16 423.102732 
z
" clip-path="url(#pf6a466b3b2)" style="fill: none; stroke: #3e4989; stroke-width: 1.5"/>
    <path d="M 200.16 416.582277 
L 209.211429 417.930025 
L 216.863899 413.074286 
L 218.262857 412.079116 
L 223.673668 404.022857 
L 226.806541 394.971429 
L 227.314286 391.947214 
L 228.605572 385.92 
L 228.917426 376.868571 
L 227.621858 367.817143 
L 227.314286 366.824663 
L 225.204737 358.765714 
L 220.38614 349.714286 
L 218.262857 346.957889 
L 209.211429 341.467868 
L 200.16 342.690095 
L 192.830614 349.714286 
L 191.108571 352.049553 
L 187.578262 358.765714 
L 185.04323 367.817143 
L 184.087086 376.868571 
L 184.317238 385.92 
L 185.825741 394.971429 
L 189.253392 404.022857 
L 191.108571 407.184252 
L 196.205943 413.074286 
L 200.16 416.582277 
z
" clip-path="url(#pf6a466b3b2)" style="fill: none; stroke: #31688e; stroke-width: 1.5"/>
    <path d="M 200.16 410.821693 
L 209.211429 412.314323 
L 218.262857 405.609701 
L 219.328626 404.022857 
L 223.505791 394.971429 
L 225.344154 385.92 
L 225.624632 376.868571 
L 224.459411 367.817143 
L 221.370051 358.765714 
L 218.262857 353.600897 
L 213.607454 349.714286 
L 209.211429 346.701092 
L 200.16 348.330729 
L 198.716328 349.714286 
L 191.766261 358.765714 
L 191.108571 360.246966 
L 188.393717 367.817143 
L 187.118858 376.868571 
L 187.425727 385.92 
L 189.437065 394.971429 
L 191.108571 398.877306 
L 193.974586 404.022857 
L 200.16 410.821693 
z
" clip-path="url(#pf6a466b3b2)" style="fill: none; stroke: #26828e; stroke-width: 1.5"/>
    <path d="M 200.16 405.655276 
L 209.211429 407.521064 
L 213.661239 404.022857 
L 218.262857 398.936755 
L 220.20504 394.971429 
L 222.502994 385.92 
L 222.853592 376.868571 
L 221.397066 367.817143 
L 218.262857 360.18115 
L 217.24201 358.765714 
L 209.211429 351.717706 
L 200.16 353.555994 
L 195.914458 358.765714 
L 191.737038 367.817143 
L 191.108571 371.212917 
L 190.15063 376.868571 
L 190.534217 385.92 
L 191.108571 388.236647 
L 193.026519 394.971429 
L 198.674865 404.022857 
L 200.16 405.655276 
z
" clip-path="url(#pf6a466b3b2)" style="fill: none; stroke: #1f9e89; stroke-width: 1.5"/>
    <path d="M 200.16 400.341544 
L 209.211429 402.67382 
L 216.356456 394.971429 
L 218.262857 390.850244 
L 219.661834 385.92 
L 220.082552 376.868571 
L 218.33472 367.817143 
L 218.262857 367.642061 
L 211.861012 358.765714 
L 209.211429 356.440317 
L 200.16 358.646263 
L 200.062656 358.765714 
L 195.049751 367.817143 
L 193.159022 376.868571 
L 193.614136 385.92 
L 196.597129 394.971429 
L 200.16 400.341544 
z
" clip-path="url(#pf6a466b3b2)" style="fill: none; stroke: #35b779; stroke-width: 1.5"/>
    <path d="M 209.211429 397.680753 
L 211.724699 394.971429 
L 216.239123 385.92 
L 216.927888 376.868571 
L 214.066482 367.817143 
L 209.211429 361.571681 
L 200.16 364.584112 
L 198.362465 367.817143 
L 196.156614 376.868571 
L 196.687581 385.92 
L 200.16 394.954098 
L 200.196011 394.971429 
L 209.211429 397.680753 
z
" clip-path="url(#pf6a466b3b2)" style="fill: none; stroke: #6ece58; stroke-width: 1.5"/>
    <path d="M 200.16 386.958002 
L 209.211429 391.578308 
L 212.252284 385.92 
L 213.039444 376.868571 
L 209.769266 367.817143 
L 209.211429 367.09955 
L 207.210397 367.817143 
L 200.16 373.038331 
L 199.154206 376.868571 
L 199.761025 385.92 
L 200.16 386.958002 
z
" clip-path="url(#pf6a466b3b2)" style="fill: none; stroke: #b5de2b; stroke-width: 1.5"/>
    <path clip-path="url(#pf6a466b3b2)" style="fill: none; stroke: #fde725; stroke-width: 1.5"/>
   </g>
   <g id="QuadContourSet_2">
    <path clip-path="url(#pf6a466b3b2)" style="fill: none; stroke: #440154; stroke-width: 1.5"/>
    <path d="M 173.005714 469.030845 
L 182.057143 470.190955 
L 191.108571 470.578127 
L 200.16 470.28354 
L 209.211429 469.238056 
L 217.522345 467.382857 
L 218.262857 467.296555 
L 227.314286 465.723846 
L 236.365714 462.991566 
L 245.168072 458.331429 
L 245.417143 458.187111 
L 254.468571 451.632716 
L 257.027087 449.28 
L 261.146051 440.228571 
L 259.215066 431.177143 
L 254.468571 426.021755 
L 250.392852 422.125714 
L 245.417143 418.859953 
L 236.365714 414.757983 
L 230.395466 413.074286 
L 227.314286 411.852899 
L 218.262857 409.25056 
L 209.211429 407.772309 
L 200.16 407.019726 
L 191.108571 406.80767 
L 182.057143 407.086372 
L 173.005714 407.921468 
L 163.954286 409.520424 
L 154.902857 412.320689 
L 153.048547 413.074286 
L 145.851429 415.176087 
L 136.8 419.617757 
L 133.03923 422.125714 
L 127.748571 427.315913 
L 124.240371 431.177143 
L 122.196685 440.228571 
L 126.556049 449.28 
L 127.748571 450.391221 
L 136.8 457.533463 
L 138.137026 458.331429 
L 145.851429 462.496371 
L 154.902857 465.441139 
L 163.954286 467.133464 
L 165.972603 467.382857 
L 173.005714 469.030845 
z
" clip-path="url(#pf6a466b3b2)" style="fill: none; stroke: #482878; stroke-width: 1.5"/>
    <path d="M 163.954286 461.612878 
L 173.005714 463.54552 
L 182.057143 464.55489 
L 191.108571 464.891755 
L 200.16 464.635445 
L 209.211429 463.725806 
L 218.262857 461.93906 
L 227.314286 458.793642 
L 228.347287 458.331429 
L 236.365714 454.688347 
L 243.875866 449.28 
L 245.417143 446.550246 
L 249.070304 440.228571 
L 246.408223 431.177143 
L 245.417143 430.213037 
L 236.365714 422.836503 
L 235.196781 422.125714 
L 227.314286 418.302382 
L 218.262857 415.646637 
L 209.211429 414.138048 
L 200.16 413.37002 
L 191.108571 413.153611 
L 182.057143 413.438034 
L 173.005714 414.290268 
L 163.954286 415.922039 
L 154.902857 418.779773 
L 148.174333 422.125714 
L 145.851429 423.588375 
L 137.102772 431.177143 
L 136.8 432.355333 
L 134.421346 440.228571 
L 136.8 444.410807 
L 139.469107 449.28 
L 145.851429 453.967071 
L 154.902857 458.25627 
L 155.115611 458.331429 
L 163.954286 461.612878 
z
" clip-path="url(#pf6a466b3b2)" style="fill: none; stroke: #3e4989; stroke-width: 1.5"/>
    <path d="M 173.005714 458.991255 
L 182.057143 460.505311 
L 191.108571 461.010608 
L 200.16 460.626143 
L 209.211429 459.261685 
L 212.736971 458.331429 
L 218.262857 457.057048 
L 227.314286 453.620956 
L 234.446549 449.28 
L 236.365714 446.614745 
L 240.586281 440.228571 
L 237.547463 431.177143 
L 236.365714 430.171953 
L 227.314286 423.949173 
L 223.286767 422.125714 
L 218.262857 420.170087 
L 209.211429 417.907204 
L 200.16 416.755162 
L 191.108571 416.430549 
L 182.057143 416.857183 
L 173.005714 418.135533 
L 163.954286 420.583191 
L 160.121481 422.125714 
L 154.902857 424.593039 
L 145.969565 431.177143 
L 145.851429 431.539538 
L 142.8602 440.228571 
L 145.851429 444.844155 
L 148.935956 449.28 
L 154.902857 453.003291 
L 163.954286 456.700722 
L 170.623461 458.331429 
L 173.005714 458.991255 
z
" clip-path="url(#pf6a466b3b2)" style="fill: none; stroke: #31688e; stroke-width: 1.5"/>
    <path d="M 163.954286 452.68022 
L 173.005714 455.495208 
L 182.057143 456.965406 
L 191.108571 457.456066 
L 200.16 457.082737 
L 209.211429 455.757804 
L 218.262857 453.15532 
L 226.196702 449.28 
L 227.314286 448.124383 
L 233.488542 440.228571 
L 230.050126 431.177143 
L 227.314286 429.210363 
L 218.262857 424.434561 
L 210.782429 422.125714 
L 209.211429 421.676359 
L 200.16 420.140304 
L 191.108571 419.707487 
L 182.057143 420.276332 
L 173.005714 421.980799 
L 172.523061 422.125714 
L 163.954286 424.929815 
L 154.902857 430.068851 
L 153.39913 431.177143 
L 149.908508 440.228571 
L 154.902857 446.776609 
L 157.221228 449.28 
L 163.954286 452.68022 
z
" clip-path="url(#pf6a466b3b2)" style="fill: none; stroke: #26828e; stroke-width: 1.5"/>
    <path d="M 173.005714 452.178452 
L 182.057143 454.0162 
L 191.108571 454.629525 
L 200.16 454.162864 
L 209.211429 452.506698 
L 218.201552 449.28 
L 218.262857 449.236784 
L 227.04015 440.228571 
L 222.899979 431.177143 
L 218.262857 428.5018 
L 209.211429 425.110698 
L 200.16 423.384276 
L 191.108571 422.89782 
L 182.057143 423.537163 
L 173.005714 425.452868 
L 163.954286 429.120868 
L 160.506982 431.177143 
L 156.380586 440.228571 
L 163.954286 448.264886 
L 165.312489 449.28 
L 173.005714 452.178452 
z
" clip-path="url(#pf6a466b3b2)" style="fill: none; stroke: #1f9e89; stroke-width: 1.5"/>
    <path d="M 182.057143 451.066994 
L 191.108571 451.802984 
L 200.16 451.242991 
L 209.111463 449.28 
L 209.211429 449.240054 
L 218.262857 442.851464 
L 220.818514 440.228571 
L 218.262857 435.290863 
L 215.527075 431.177143 
L 209.211429 428.499717 
L 200.16 426.428011 
L 191.108571 425.844263 
L 182.057143 426.611474 
L 173.005714 428.910321 
L 167.911787 431.177143 
L 163.954286 437.486432 
L 162.581522 440.228571 
L 163.954286 441.685186 
L 173.005714 448.595432 
L 174.565119 449.28 
L 182.057143 451.066994 
z
" clip-path="url(#pf6a466b3b2)" style="fill: none; stroke: #35b779; stroke-width: 1.5"/>
    <path d="M 173.005714 443.16744 
L 182.057143 447.377997 
L 191.108571 448.783218 
L 200.16 447.714028 
L 209.211429 443.9195 
L 214.105709 440.228571 
L 209.211429 433.280241 
L 206.744065 431.177143 
L 200.16 429.471746 
L 191.108571 428.790707 
L 182.057143 429.685786 
L 176.76355 431.177143 
L 173.005714 434.696026 
L 169.293199 440.228571 
L 173.005714 443.16744 
z
" clip-path="url(#pf6a466b3b2)" style="fill: none; stroke: #6ece58; stroke-width: 1.5"/>
    <path d="M 182.057143 442.551514 
L 191.108571 444.15748 
L 200.16 442.935549 
L 206.034976 440.228571 
L 200.16 435.13257 
L 191.108571 432.832232 
L 182.057143 435.855533 
L 177.42203 440.228571 
L 182.057143 442.551514 
z
" clip-path="url(#pf6a466b3b2)" style="fill: none; stroke: #b5de2b; stroke-width: 1.5"/>
    <path clip-path="url(#pf6a466b3b2)" style="fill: none; stroke: #fde725; stroke-width: 1.5"/>
   </g>
   <g id="QuadContourSet_3">
    <path clip-path="url(#pf6a466b3b2)" style="fill: none; stroke: #440154; stroke-width: 1.5"/>
    <path d="M 399.291429 306.097969 
L 402.834484 304.457143 
L 408.342857 302.288154 
L 414.15991 295.405714 
L 417.394286 290.278457 
L 419.5226 286.354286 
L 423.181833 277.302857 
L 425.367309 268.251429 
L 426.445714 261.190806 
L 426.980507 259.2 
L 428.699105 250.148571 
L 429.614615 241.097143 
L 429.913045 232.045714 
L 429.652465 222.994286 
L 428.782242 213.942857 
L 427.126293 204.891429 
L 426.445714 202.314379 
L 425.477599 195.84 
L 423.36445 186.788571 
L 419.831596 177.737143 
L 417.394286 173.205725 
L 414.578335 168.685714 
L 408.342857 161.256626 
L 404.268371 159.634286 
L 399.291429 157.31567 
L 392.938789 159.634286 
L 390.24 160.435117 
L 382.840406 168.685714 
L 381.188571 171.046122 
L 377.471894 177.737143 
L 374.170479 186.788571 
L 372.195764 195.84 
L 372.137143 196.201105 
L 369.799422 204.891429 
L 368.34754 213.942857 
L 367.584557 222.994286 
L 367.356089 232.045714 
L 367.617743 241.097143 
L 368.420431 250.148571 
L 369.927242 259.2 
L 372.137143 267.276346 
L 372.298829 268.251429 
L 374.341133 277.302857 
L 377.760648 286.354286 
L 381.188571 292.474374 
L 383.26571 295.405714 
L 390.24 303.128093 
L 394.769023 304.457143 
L 399.291429 306.097969 
z
" clip-path="url(#pf6a466b3b2)" style="fill: none; stroke: #482878; stroke-width: 1.5"/>
    <path d="M 390.24 288.950971 
L 399.291429 292.610982 
L 408.342857 287.699873 
L 409.358161 286.354286 
L 415.017617 277.302857 
L 417.394286 271.502262 
L 418.691875 268.251429 
L 421.336361 259.2 
L 422.903545 250.148571 
L 423.738395 241.097143 
L 424.010533 232.045714 
L 423.77291 222.994286 
L 422.979357 213.942857 
L 421.469303 204.891429 
L 418.912455 195.84 
L 417.394286 191.987439 
L 415.300057 186.788571 
L 409.836062 177.737143 
L 408.342857 175.741668 
L 399.291429 170.911773 
L 390.24 174.511259 
L 387.660651 177.737143 
L 382.106817 186.788571 
L 381.188571 188.817887 
L 378.330822 195.84 
L 375.941474 204.891429 
L 374.530345 213.942857 
L 373.788777 222.994286 
L 373.566722 232.045714 
L 373.821031 241.097143 
L 374.60119 250.148571 
L 376.065707 259.2 
L 378.536951 268.251429 
L 381.188571 274.683976 
L 382.393901 277.302857 
L 388.14641 286.354286 
L 390.24 288.950971 
z
" clip-path="url(#pf6a466b3b2)" style="fill: none; stroke: #3e4989; stroke-width: 1.5"/>
    <path d="M 390.24 278.55608 
L 399.291429 283.011357 
L 408.009756 277.302857 
L 408.342857 277.062073 
L 413.235535 268.251429 
L 416.303053 259.2 
L 417.394286 254.115175 
L 418.333946 250.148571 
L 419.586221 241.097143 
L 419.994427 232.045714 
L 419.637994 222.994286 
L 418.447664 213.942857 
L 417.394286 209.385287 
L 416.457261 204.891429 
L 413.4914 195.84 
L 408.589031 186.788571 
L 408.342857 186.41065 
L 399.291429 180.495859 
L 390.24 184.903865 
L 388.928186 186.788571 
L 383.945212 195.84 
L 381.188571 203.949017 
L 380.881859 204.891429 
L 378.765164 213.942857 
L 377.652813 222.994286 
L 377.31973 232.045714 
L 377.701194 241.097143 
L 378.871432 250.148571 
L 381.068208 259.2 
L 381.188571 259.563583 
L 384.205284 268.251429 
L 389.358812 277.302857 
L 390.24 278.55608 
z
" clip-path="url(#pf6a466b3b2)" style="fill: none; stroke: #31688e; stroke-width: 1.5"/>
    <path d="M 390.24 269.578837 
L 399.291429 274.88191 
L 407.837043 268.251429 
L 408.342857 267.766797 
L 412.163367 259.2 
L 414.587211 250.148571 
L 415.87841 241.097143 
L 416.299304 232.045714 
L 415.931792 222.994286 
L 414.704464 213.942857 
L 412.368978 204.891429 
L 408.414496 195.84 
L 408.342857 195.709328 
L 399.291429 188.62071 
L 390.24 193.903512 
L 389.10559 195.84 
L 385.086089 204.891429 
L 382.712203 213.942857 
L 381.464695 222.994286 
L 381.188571 229.633682 
L 381.072738 232.045714 
L 381.188571 234.160619 
L 381.518955 241.097143 
L 382.831384 250.148571 
L 385.29508 259.2 
L 389.452352 268.251429 
L 390.24 269.578837 
z
" clip-path="url(#pf6a466b3b2)" style="fill: none; stroke: #26828e; stroke-width: 1.5"/>
    <path d="M 390.24 260.746949 
L 399.291429 267.36617 
L 407.743839 259.2 
L 408.342857 258.373302 
L 411.053486 250.148571 
L 412.667485 241.097143 
L 413.193603 232.045714 
L 412.734212 222.994286 
L 411.200052 213.942857 
L 408.342857 205.05714 
L 408.226193 204.891429 
L 399.291429 196.110872 
L 390.24 202.760258 
L 389.241591 204.891429 
L 386.274234 213.942857 
L 384.714849 222.994286 
L 384.247906 232.045714 
L 384.782674 241.097143 
L 386.42321 250.148571 
L 389.502831 259.2 
L 390.24 260.746949 
z
" clip-path="url(#pf6a466b3b2)" style="fill: none; stroke: #1f9e89; stroke-width: 1.5"/>
    <path d="M 399.291429 259.860052 
L 399.974617 259.2 
L 406.798099 250.148571 
L 408.342857 246.512133 
L 409.45656 241.097143 
L 410.087901 232.045714 
L 409.536633 222.994286 
L 408.342857 216.938563 
L 407.128183 213.942857 
L 400.553442 204.891429 
L 399.291429 203.651196 
L 397.680577 204.891429 
L 390.24 212.767796 
L 389.836265 213.942857 
L 387.965004 222.994286 
L 387.404671 232.045714 
L 388.046393 241.097143 
L 390.015036 250.148571 
L 390.24 250.787388 
L 398.419397 259.2 
L 399.291429 259.860052 
z
" clip-path="url(#pf6a466b3b2)" style="fill: none; stroke: #35b779; stroke-width: 1.5"/>
    <path d="M 399.291429 251.292106 
L 400.166124 250.148571 
L 404.406861 241.097143 
L 405.789221 232.045714 
L 404.582186 222.994286 
L 400.551222 213.942857 
L 399.291429 212.254778 
L 397.68341 213.942857 
L 392.538233 222.994286 
L 390.997556 232.045714 
L 392.762019 241.097143 
L 398.174955 250.148571 
L 399.291429 251.292106 
z
" clip-path="url(#pf6a466b3b2)" style="fill: none; stroke: #6ece58; stroke-width: 1.5"/>
    <path d="M 399.291429 235.953125 
L 399.960546 232.045714 
L 399.291429 227.589344 
L 398.437358 232.045714 
L 399.291429 235.953125 
z
" clip-path="url(#pf6a466b3b2)" style="fill: none; stroke: #b5de2b; stroke-width: 1.5"/>
    <path clip-path="url(#pf6a466b3b2)" style="fill: none; stroke: #fde725; stroke-width: 1.5"/>
   </g>
   <g id="QuadContourSet_4">
    <path clip-path="url(#pf6a466b3b2)" style="fill: none; stroke: #440154; stroke-width: 1.5"/>
    <path d="M 372.137143 259.52696 
L 381.188571 260.357371 
L 390.24 260.154414 
L 397.121109 259.2 
L 399.291429 259.027376 
L 408.342857 257.625029 
L 417.394286 255.124456 
L 426.445714 250.785782 
L 427.515553 250.148571 
L 435.497143 245.4527 
L 440.74161 241.097143 
L 444.548571 236.600249 
L 448.192714 232.045714 
L 451.738918 222.994286 
L 452.185143 213.942857 
L 449.807865 204.891429 
L 444.548571 197.34735 
L 443.504049 195.84 
L 435.497143 188.615457 
L 432.812112 186.788571 
L 426.445714 182.778206 
L 417.394286 179.090807 
L 412.145568 177.737143 
L 408.342857 176.375816 
L 399.291429 174.272923 
L 390.24 173.263948 
L 381.188571 173.104435 
L 372.137143 173.757091 
L 363.085714 175.376876 
L 355.65867 177.737143 
L 354.034286 178.098053 
L 344.982857 181.054948 
L 335.931429 186.221112 
L 335.106687 186.788571 
L 326.88 193.18369 
L 324.13973 195.84 
L 318.346098 204.891429 
L 317.828571 206.927149 
L 315.537334 213.942857 
L 316.113298 222.994286 
L 317.828571 226.861065 
L 319.734259 232.045714 
L 326.88 240.596719 
L 327.340221 241.097143 
L 335.931429 247.865107 
L 340.203585 250.148571 
L 344.982857 252.813406 
L 354.034286 256.292552 
L 363.085714 258.291187 
L 370.530534 259.2 
L 372.137143 259.52696 
z
" clip-path="url(#pf6a466b3b2)" style="fill: none; stroke: #482878; stroke-width: 1.5"/>
    <path d="M 372.137143 251.894652 
L 381.188571 252.76512 
L 390.24 252.552372 
L 399.291429 251.206671 
L 403.063318 250.148571 
L 408.342857 248.980284 
L 417.394286 245.635044 
L 424.914088 241.097143 
L 426.445714 239.965586 
L 434.633248 232.045714 
L 435.497143 230.360596 
L 439.389008 222.994286 
L 440.018137 213.942857 
L 436.666431 204.891429 
L 435.497143 203.396633 
L 428.998011 195.84 
L 426.445714 193.840084 
L 417.394286 188.445999 
L 413.110872 186.788571 
L 408.342857 184.80418 
L 399.291429 182.420497 
L 390.24 181.276797 
L 381.188571 181.095985 
L 372.137143 181.835788 
L 363.085714 183.671857 
L 354.649813 186.788571 
L 354.034286 186.993756 
L 344.982857 191.319227 
L 338.819912 195.84 
L 335.931429 198.891148 
L 330.983198 204.891429 
L 327.986964 213.942857 
L 328.54937 222.994286 
L 333.018874 232.045714 
L 335.931429 235.122984 
L 342.840914 241.097143 
L 344.982857 242.543345 
L 354.034286 247.19771 
L 363.085714 249.871463 
L 364.639962 250.148571 
L 372.137143 251.894652 
z
" clip-path="url(#pf6a466b3b2)" style="fill: none; stroke: #3e4989; stroke-width: 1.5"/>
    <path d="M 363.085714 244.147802 
L 372.137143 246.315381 
L 381.188571 247.188758 
L 390.24 246.975299 
L 399.291429 245.6251 
L 408.342857 242.811033 
L 411.939573 241.097143 
L 417.394286 238.144811 
L 424.930084 232.045714 
L 426.445714 229.750754 
L 430.556193 222.994286 
L 431.292048 213.942857 
L 427.371761 204.891429 
L 426.445714 203.863345 
L 417.556368 195.84 
L 417.394286 195.733736 
L 408.342857 191.070455 
L 399.291429 188.45524 
L 390.24 187.20045 
L 381.188571 187.002076 
L 372.137143 187.813737 
L 363.085714 189.828147 
L 354.034286 193.555371 
L 350.237266 195.84 
L 344.982857 200.063837 
L 340.337795 204.891429 
L 336.678741 213.942857 
L 337.365561 222.994286 
L 342.823798 232.045714 
L 344.982857 234.000834 
L 354.034286 240.239342 
L 355.87396 241.097143 
L 363.085714 244.147802 
z
" clip-path="url(#pf6a466b3b2)" style="fill: none; stroke: #31688e; stroke-width: 1.5"/>
    <path d="M 372.137143 241.314246 
L 381.188571 242.478749 
L 390.24 242.194138 
L 395.947322 241.097143 
L 399.291429 240.468721 
L 408.342857 237.115963 
L 416.276353 232.045714 
L 417.394286 230.805584 
L 423.073977 222.994286 
L 423.929859 213.942857 
L 419.370124 204.891429 
L 417.394286 203.056083 
L 408.342857 196.80841 
L 406.128442 195.84 
L 399.291429 193.316811 
L 390.24 191.643759 
L 381.188571 191.379259 
L 372.137143 192.461474 
L 363.085714 195.147353 
L 361.578567 195.84 
L 354.034286 200.137598 
L 348.457856 204.891429 
L 344.982857 211.667093 
L 343.894 213.942857 
L 344.80976 222.994286 
L 344.982857 223.26064 
L 351.497129 232.045714 
L 354.034286 233.930251 
L 363.085714 238.708627 
L 371.367326 241.097143 
L 372.137143 241.314246 
z
" clip-path="url(#pf6a466b3b2)" style="fill: none; stroke: #26828e; stroke-width: 1.5"/>
    <path d="M 363.085714 233.59413 
L 372.137143 236.822271 
L 381.188571 238.122979 
L 390.24 237.805078 
L 399.291429 235.794247 
L 407.519415 232.045714 
L 408.342857 231.441586 
L 416.121272 222.994286 
L 417.187152 213.942857 
L 411.508647 204.891429 
L 408.342857 202.569351 
L 399.291429 198.189652 
L 390.24 196.088257 
L 383.501838 195.84 
L 381.188571 195.756442 
L 380.597184 195.84 
L 372.137143 197.115328 
L 363.085714 200.488858 
L 356.324328 204.891429 
L 354.034286 208.055639 
L 350.600248 213.942857 
L 351.649841 222.994286 
L 354.034286 226.003872 
L 360.356441 232.045714 
L 363.085714 233.59413 
z
" clip-path="url(#pf6a466b3b2)" style="fill: none; stroke: #1f9e89; stroke-width: 1.5"/>
    <path d="M 372.137143 232.353403 
L 381.188571 233.914252 
L 390.24 233.532771 
L 396.008564 232.045714 
L 399.291429 230.781319 
L 408.342857 223.913903 
L 409.189656 222.994286 
L 410.468712 213.942857 
L 408.342857 210.807075 
L 402.766016 204.891429 
L 399.291429 203.074653 
L 390.24 200.55298 
L 381.188571 200.154318 
L 372.137143 201.785464 
L 364.982307 204.891429 
L 363.085714 206.512356 
L 357.411184 213.942857 
L 358.747949 222.994286 
L 363.085714 227.176139 
L 371.323667 232.045714 
L 372.137143 232.353403 
z
" clip-path="url(#pf6a466b3b2)" style="fill: none; stroke: #35b779; stroke-width: 1.5"/>
    <path d="M 372.137143 226.363516 
L 381.188571 228.850125 
L 390.24 228.242384 
L 399.291429 224.398205 
L 401.104906 222.994286 
L 402.879931 213.942857 
L 399.291429 210.169493 
L 390.24 205.108649 
L 387.809331 204.891429 
L 381.188571 204.552597 
L 379.495971 204.891429 
L 372.137143 207.58217 
L 364.851134 213.942857 
L 366.895084 222.994286 
L 372.137143 226.363516 
z
" clip-path="url(#pf6a466b3b2)" style="fill: none; stroke: #6ece58; stroke-width: 1.5"/>
    <path d="M 381.188571 223.103 
L 382.623332 222.994286 
L 390.24 219.367971 
L 392.179276 213.942857 
L 390.24 212.789013 
L 381.188571 211.874625 
L 376.051063 213.942857 
L 380.821774 222.994286 
L 381.188571 223.103 
z
" clip-path="url(#pf6a466b3b2)" style="fill: none; stroke: #b5de2b; stroke-width: 1.5"/>
    <path clip-path="url(#pf6a466b3b2)" style="fill: none; stroke: #fde725; stroke-width: 1.5"/>
   </g>
   <g id="patch_5">
    <path d="M 72 512.64 
L 72 69.12 
" style="fill: none; stroke: #000000; stroke-width: 0.8; stroke-linejoin: miter; stroke-linecap: square"/>
   </g>
   <g id="patch_6">
    <path d="M 518.4 512.64 
L 518.4 69.12 
" style="fill: none; stroke: #000000; stroke-width: 0.8; stroke-linejoin: miter; stroke-linecap: square"/>
   </g>
   <g id="patch_7">
    <path d="M 72 512.64 
L 518.4 512.64 
" style="fill: none; stroke: #000000; stroke-width: 0.8; stroke-linejoin: miter; stroke-linecap: square"/>
   </g>
   <g id="patch_8">
    <path d="M 72 69.12 
L 518.4 69.12 
" style="fill: none; stroke: #000000; stroke-width: 0.8; stroke-linejoin: miter; stroke-linecap: square"/>
   </g>
   <g id="legend_1">
    <g id="patch_9">
     <path d="M 417.203125 106.47625 
L 511.4 106.47625 
Q 513.4 106.47625 513.4 104.47625 
L 513.4 76.12 
Q 513.4 74.12 511.4 74.12 
L 417.203125 74.12 
Q 415.203125 74.12 415.203125 76.12 
L 415.203125 104.47625 
Q 415.203125 106.47625 417.203125 106.47625 
z
" style="fill: #ffffff; opacity: 0.8; stroke: #cccccc; stroke-linejoin: miter"/>
    </g>
    <g id="PathCollection_3">
     <g>
      <use xlink:href="#m96e792bcef" x="429.203125" y="83.093438" style="fill: #00ffff; fill-opacity: 0.8; stroke: #000000; stroke-opacity: 0.8"/>
     </g>
    </g>
    <g id="text_17">
     <!-- Grid points -->
     <g transform="translate(447.203125 85.718438) scale(0.1 -0.1)">
      <defs>
       <path id="DejaVuSans-47" d="M 3809 666 
L 3809 1919 
L 2778 1919 
L 2778 2438 
L 4434 2438 
L 4434 434 
Q 4069 175 3628 42 
Q 3188 -91 2688 -91 
Q 1594 -91 976 548 
Q 359 1188 359 2328 
Q 359 3472 976 4111 
Q 1594 4750 2688 4750 
Q 3144 4750 3555 4637 
Q 3966 4525 4313 4306 
L 4313 3634 
Q 3963 3931 3569 4081 
Q 3175 4231 2741 4231 
Q 1884 4231 1454 3753 
Q 1025 3275 1025 2328 
Q 1025 1384 1454 906 
Q 1884 428 2741 428 
Q 3075 428 3337 486 
Q 3600 544 3809 666 
z
" transform="scale(0.015625)"/>
       <path id="DejaVuSans-72" d="M 2631 2963 
Q 2534 3019 2420 3045 
Q 2306 3072 2169 3072 
Q 1681 3072 1420 2755 
Q 1159 2438 1159 1844 
L 1159 0 
L 581 0 
L 581 3500 
L 1159 3500 
L 1159 2956 
Q 1341 3275 1631 3429 
Q 1922 3584 2338 3584 
Q 2397 3584 2469 3576 
Q 2541 3569 2628 3553 
L 2631 2963 
z
" transform="scale(0.015625)"/>
       <path id="DejaVuSans-69" d="M 603 3500 
L 1178 3500 
L 1178 0 
L 603 0 
L 603 3500 
z
M 603 4863 
L 1178 4863 
L 1178 4134 
L 603 4134 
L 603 4863 
z
" transform="scale(0.015625)"/>
       <path id="DejaVuSans-64" d="M 2906 2969 
L 2906 4863 
L 3481 4863 
L 3481 0 
L 2906 0 
L 2906 525 
Q 2725 213 2448 61 
Q 2172 -91 1784 -91 
Q 1150 -91 751 415 
Q 353 922 353 1747 
Q 353 2572 751 3078 
Q 1150 3584 1784 3584 
Q 2172 3584 2448 3432 
Q 2725 3281 2906 2969 
z
M 947 1747 
Q 947 1113 1208 752 
Q 1469 391 1925 391 
Q 2381 391 2643 752 
Q 2906 1113 2906 1747 
Q 2906 2381 2643 2742 
Q 2381 3103 1925 3103 
Q 1469 3103 1208 2742 
Q 947 2381 947 1747 
z
" transform="scale(0.015625)"/>
       <path id="DejaVuSans-20" transform="scale(0.015625)"/>
       <path id="DejaVuSans-70" d="M 1159 525 
L 1159 -1331 
L 581 -1331 
L 581 3500 
L 1159 3500 
L 1159 2969 
Q 1341 3281 1617 3432 
Q 1894 3584 2278 3584 
Q 2916 3584 3314 3078 
Q 3713 2572 3713 1747 
Q 3713 922 3314 415 
Q 2916 -91 2278 -91 
Q 1894 -91 1617 61 
Q 1341 213 1159 525 
z
M 3116 1747 
Q 3116 2381 2855 2742 
Q 2594 3103 2138 3103 
Q 1681 3103 1420 2742 
Q 1159 2381 1159 1747 
Q 1159 1113 1420 752 
Q 1681 391 2138 391 
Q 2594 391 2855 752 
Q 3116 1113 3116 1747 
z
" transform="scale(0.015625)"/>
       <path id="DejaVuSans-6f" d="M 1959 3097 
Q 1497 3097 1228 2736 
Q 959 2375 959 1747 
Q 959 1119 1226 758 
Q 1494 397 1959 397 
Q 2419 397 2687 759 
Q 2956 1122 2956 1747 
Q 2956 2369 2687 2733 
Q 2419 3097 1959 3097 
z
M 1959 3584 
Q 2709 3584 3137 3096 
Q 3566 2609 3566 1747 
Q 3566 888 3137 398 
Q 2709 -91 1959 -91 
Q 1206 -91 779 398 
Q 353 888 353 1747 
Q 353 2609 779 3096 
Q 1206 3584 1959 3584 
z
" transform="scale(0.015625)"/>
       <path id="DejaVuSans-6e" d="M 3513 2113 
L 3513 0 
L 2938 0 
L 2938 2094 
Q 2938 2591 2744 2837 
Q 2550 3084 2163 3084 
Q 1697 3084 1428 2787 
Q 1159 2491 1159 1978 
L 1159 0 
L 581 0 
L 581 3500 
L 1159 3500 
L 1159 2956 
Q 1366 3272 1645 3428 
Q 1925 3584 2291 3584 
Q 2894 3584 3203 3211 
Q 3513 2838 3513 2113 
z
" transform="scale(0.015625)"/>
       <path id="DejaVuSans-74" d="M 1172 4494 
L 1172 3500 
L 2356 3500 
L 2356 3053 
L 1172 3053 
L 1172 1153 
Q 1172 725 1289 603 
Q 1406 481 1766 481 
L 2356 481 
L 2356 0 
L 1766 0 
Q 1100 0 847 248 
Q 594 497 594 1153 
L 594 3053 
L 172 3053 
L 172 3500 
L 594 3500 
L 594 4494 
L 1172 4494 
z
" transform="scale(0.015625)"/>
       <path id="DejaVuSans-73" d="M 2834 3397 
L 2834 2853 
Q 2591 2978 2328 3040 
Q 2066 3103 1784 3103 
Q 1356 3103 1142 2972 
Q 928 2841 928 2578 
Q 928 2378 1081 2264 
Q 1234 2150 1697 2047 
L 1894 2003 
Q 2506 1872 2764 1633 
Q 3022 1394 3022 966 
Q 3022 478 2636 193 
Q 2250 -91 1575 -91 
Q 1294 -91 989 -36 
Q 684 19 347 128 
L 347 722 
Q 666 556 975 473 
Q 1284 391 1588 391 
Q 1994 391 2212 530 
Q 2431 669 2431 922 
Q 2431 1156 2273 1281 
Q 2116 1406 1581 1522 
L 1381 1569 
Q 847 1681 609 1914 
Q 372 2147 372 2553 
Q 372 3047 722 3315 
Q 1072 3584 1716 3584 
Q 2034 3584 2315 3537 
Q 2597 3491 2834 3397 
z
" transform="scale(0.015625)"/>
      </defs>
      <use xlink:href="#DejaVuSans-47"/>
      <use xlink:href="#DejaVuSans-72" x="77.490234"/>
      <use xlink:href="#DejaVuSans-69" x="118.603516"/>
      <use xlink:href="#DejaVuSans-64" x="146.386719"/>
      <use xlink:href="#DejaVuSans-20" x="209.863281"/>
      <use xlink:href="#DejaVuSans-70" x="241.650391"/>
      <use xlink:href="#DejaVuSans-6f" x="305.126953"/>
      <use xlink:href="#DejaVuSans-69" x="366.308594"/>
      <use xlink:href="#DejaVuSans-6e" x="394.091797"/>
      <use xlink:href="#DejaVuSans-74" x="457.470703"/>
      <use xlink:href="#DejaVuSans-73" x="496.679688"/>
     </g>
    </g>
    <g id="PathCollection_4">
     <g>
      <use xlink:href="#m44149792b6" x="429.203125" y="97.771563" style="fill: #ff0000; stroke: #ff0000"/>
     </g>
    </g>
    <g id="text_18">
     <!-- Outer loc (z) -->
     <g transform="translate(447.203125 100.396563) scale(0.1 -0.1)">
      <defs>
       <path id="DejaVuSans-4f" d="M 2522 4238 
Q 1834 4238 1429 3725 
Q 1025 3213 1025 2328 
Q 1025 1447 1429 934 
Q 1834 422 2522 422 
Q 3209 422 3611 934 
Q 4013 1447 4013 2328 
Q 4013 3213 3611 3725 
Q 3209 4238 2522 4238 
z
M 2522 4750 
Q 3503 4750 4090 4092 
Q 4678 3434 4678 2328 
Q 4678 1225 4090 567 
Q 3503 -91 2522 -91 
Q 1538 -91 948 565 
Q 359 1222 359 2328 
Q 359 3434 948 4092 
Q 1538 4750 2522 4750 
z
" transform="scale(0.015625)"/>
       <path id="DejaVuSans-75" d="M 544 1381 
L 544 3500 
L 1119 3500 
L 1119 1403 
Q 1119 906 1312 657 
Q 1506 409 1894 409 
Q 2359 409 2629 706 
Q 2900 1003 2900 1516 
L 2900 3500 
L 3475 3500 
L 3475 0 
L 2900 0 
L 2900 538 
Q 2691 219 2414 64 
Q 2138 -91 1772 -91 
Q 1169 -91 856 284 
Q 544 659 544 1381 
z
M 1991 3584 
L 1991 3584 
z
" transform="scale(0.015625)"/>
       <path id="DejaVuSans-65" d="M 3597 1894 
L 3597 1613 
L 953 1613 
Q 991 1019 1311 708 
Q 1631 397 2203 397 
Q 2534 397 2845 478 
Q 3156 559 3463 722 
L 3463 178 
Q 3153 47 2828 -22 
Q 2503 -91 2169 -91 
Q 1331 -91 842 396 
Q 353 884 353 1716 
Q 353 2575 817 3079 
Q 1281 3584 2069 3584 
Q 2775 3584 3186 3129 
Q 3597 2675 3597 1894 
z
M 3022 2063 
Q 3016 2534 2758 2815 
Q 2500 3097 2075 3097 
Q 1594 3097 1305 2825 
Q 1016 2553 972 2059 
L 3022 2063 
z
" transform="scale(0.015625)"/>
       <path id="DejaVuSans-6c" d="M 603 4863 
L 1178 4863 
L 1178 0 
L 603 0 
L 603 4863 
z
" transform="scale(0.015625)"/>
       <path id="DejaVuSans-63" d="M 3122 3366 
L 3122 2828 
Q 2878 2963 2633 3030 
Q 2388 3097 2138 3097 
Q 1578 3097 1268 2742 
Q 959 2388 959 1747 
Q 959 1106 1268 751 
Q 1578 397 2138 397 
Q 2388 397 2633 464 
Q 2878 531 3122 666 
L 3122 134 
Q 2881 22 2623 -34 
Q 2366 -91 2075 -91 
Q 1284 -91 818 406 
Q 353 903 353 1747 
Q 353 2603 823 3093 
Q 1294 3584 2113 3584 
Q 2378 3584 2631 3529 
Q 2884 3475 3122 3366 
z
" transform="scale(0.015625)"/>
       <path id="DejaVuSans-28" d="M 1984 4856 
Q 1566 4138 1362 3434 
Q 1159 2731 1159 2009 
Q 1159 1288 1364 580 
Q 1569 -128 1984 -844 
L 1484 -844 
Q 1016 -109 783 600 
Q 550 1309 550 2009 
Q 550 2706 781 3412 
Q 1013 4119 1484 4856 
L 1984 4856 
z
" transform="scale(0.015625)"/>
       <path id="DejaVuSans-7a" d="M 353 3500 
L 3084 3500 
L 3084 2975 
L 922 459 
L 3084 459 
L 3084 0 
L 275 0 
L 275 525 
L 2438 3041 
L 353 3041 
L 353 3500 
z
" transform="scale(0.015625)"/>
       <path id="DejaVuSans-29" d="M 513 4856 
L 1013 4856 
Q 1481 4119 1714 3412 
Q 1947 2706 1947 2009 
Q 1947 1309 1714 600 
Q 1481 -109 1013 -844 
L 513 -844 
Q 928 -128 1133 580 
Q 1338 1288 1338 2009 
Q 1338 2731 1133 3434 
Q 928 4138 513 4856 
z
" transform="scale(0.015625)"/>
      </defs>
      <use xlink:href="#DejaVuSans-4f"/>
      <use xlink:href="#DejaVuSans-75" x="78.710938"/>
      <use xlink:href="#DejaVuSans-74" x="142.089844"/>
      <use xlink:href="#DejaVuSans-65" x="181.298828"/>
      <use xlink:href="#DejaVuSans-72" x="242.822266"/>
      <use xlink:href="#DejaVuSans-20" x="283.935547"/>
      <use xlink:href="#DejaVuSans-6c" x="315.722656"/>
      <use xlink:href="#DejaVuSans-6f" x="343.505859"/>
      <use xlink:href="#DejaVuSans-63" x="404.6875"/>
      <use xlink:href="#DejaVuSans-20" x="459.667969"/>
      <use xlink:href="#DejaVuSans-28" x="491.455078"/>
      <use xlink:href="#DejaVuSans-7a" x="530.46875"/>
      <use xlink:href="#DejaVuSans-29" x="582.958984"/>
     </g>
    </g>
   </g>
  </g>
 </g>
 <defs>
  <clipPath id="pf6a466b3b2">
   <rect x="72" y="69.12" width="446.4" height="443.52"/>
  </clipPath>
 </defs>
</svg>
