<?xml version="1.0" encoding="utf-8" standalone="no"?>
<!DOCTYPE svg PUBLIC "-//W3C//DTD SVG 1.1//EN"
  "http://www.w3.org/Graphics/SVG/1.1/DTD/svg11.dtd">
<svg xmlns:xlink="http://www.w3.org/1999/xlink" width="432pt" height="432pt" viewBox="0 0 432 432" xmlns="http://www.w3.org/2000/svg" version="1.1">
 <metadata>
  <rdf:RDF xmlns:dc="http://purl.org/dc/elements/1.1/" xmlns:cc="http://creativecommons.org/ns#" xmlns:rdf="http://www.w3.org/1999/02/22-rdf-syntax-ns#">
   <cc:Work>
    <dc:type rdf:resource="http://purl.org/dc/dcmitype/StillImage"/>
    <dc:date>2025-07-04T09:53:05.714072</dc:date>
    <dc:format>image/svg+xml</dc:format>
    <dc:creator>
     <cc:Agent>
      <dc:title>Matplotlib v3.9.4, https://matplotlib.org/</dc:title>
     </cc:Agent>
    </dc:creator>
   </cc:Work>
  </rdf:RDF>
 </metadata>
 <defs>
  <style type="text/css">*{stroke-linejoin: round; stroke-linecap: butt}</style>
 </defs>
 <g id="figure_1">
  <g id="patch_1">
   <path d="M 0 432 
L 432 432 
L 432 0 
L 0 0 
z
" style="fill: #ffffff"/>
  </g>
  <g id="axes_1">
   <g id="patch_2">
    <path d="M 133.92 298.08 
L 410.4 298.08 
L 410.4 21.6 
L 133.92 21.6 
z
" style="fill: #ffffff"/>
   </g>
   <g id="PathCollection_1">
    <defs>
     <path id="m150c5c96cd" d="M 0 2.236068 
C 0.593012 2.236068 1.161816 2.000462 1.581139 1.581139 
C 2.000462 1.161816 2.236068 0.593012 2.236068 0 
C 2.236068 -0.593012 2.000462 -1.161816 1.581139 -1.581139 
C 1.161816 -2.000462 0.593012 -2.236068 0 -2.236068 
C -0.593012 -2.236068 -1.161816 -2.000462 -1.581139 -1.581139 
C -2.000462 -1.161816 -2.236068 -0.593012 -2.236068 0 
C -2.236068 0.593012 -2.000462 1.161816 -1.581139 1.581139 
C -1.161816 2.000462 -0.593012 2.236068 0 2.236068 
z
" style="stroke: #ff00ff"/>
    </defs>
    <g clip-path="url(#p5ac5651fc1)">
     <use xlink:href="#m150c5c96cd" x="231.77535" y="198.30593" style="fill: #ff00ff; stroke: #ff00ff"/>
     <use xlink:href="#m150c5c96cd" x="245.590205" y="198.30593" style="fill: #ff00ff; stroke: #ff00ff"/>
     <use xlink:href="#m150c5c96cd" x="257.193828" y="198.30593" style="fill: #ff00ff; stroke: #ff00ff"/>
     <use xlink:href="#m150c5c96cd" x="267.817497" y="198.30593" style="fill: #ff00ff; stroke: #ff00ff"/>
     <use xlink:href="#m150c5c96cd" x="278.155785" y="198.30593" style="fill: #ff00ff; stroke: #ff00ff"/>
     <use xlink:href="#m150c5c96cd" x="288.779454" y="198.30593" style="fill: #ff00ff; stroke: #ff00ff"/>
     <use xlink:href="#m150c5c96cd" x="300.383078" y="198.30593" style="fill: #ff00ff; stroke: #ff00ff"/>
     <use xlink:href="#m150c5c96cd" x="314.197932" y="198.30593" style="fill: #ff00ff; stroke: #ff00ff"/>
     <use xlink:href="#m150c5c96cd" x="333.739841" y="198.30593" style="fill: #ff00ff; stroke: #ff00ff"/>
     <use xlink:href="#m150c5c96cd" x="231.77535" y="185.809145" style="fill: #ff00ff; stroke: #ff00ff"/>
     <use xlink:href="#m150c5c96cd" x="245.590205" y="185.809145" style="fill: #ff00ff; stroke: #ff00ff"/>
     <use xlink:href="#m150c5c96cd" x="257.193828" y="185.809145" style="fill: #ff00ff; stroke: #ff00ff"/>
     <use xlink:href="#m150c5c96cd" x="267.817497" y="185.809145" style="fill: #ff00ff; stroke: #ff00ff"/>
     <use xlink:href="#m150c5c96cd" x="278.155785" y="185.809145" style="fill: #ff00ff; stroke: #ff00ff"/>
     <use xlink:href="#m150c5c96cd" x="288.779454" y="185.809145" style="fill: #ff00ff; stroke: #ff00ff"/>
     <use xlink:href="#m150c5c96cd" x="300.383078" y="185.809145" style="fill: #ff00ff; stroke: #ff00ff"/>
     <use xlink:href="#m150c5c96cd" x="314.197932" y="185.809145" style="fill: #ff00ff; stroke: #ff00ff"/>
     <use xlink:href="#m150c5c96cd" x="333.739841" y="185.809145" style="fill: #ff00ff; stroke: #ff00ff"/>
     <use xlink:href="#m150c5c96cd" x="231.77535" y="175.312622" style="fill: #ff00ff; stroke: #ff00ff"/>
     <use xlink:href="#m150c5c96cd" x="245.590205" y="175.312622" style="fill: #ff00ff; stroke: #ff00ff"/>
     <use xlink:href="#m150c5c96cd" x="257.193828" y="175.312622" style="fill: #ff00ff; stroke: #ff00ff"/>
     <use xlink:href="#m150c5c96cd" x="267.817497" y="175.312622" style="fill: #ff00ff; stroke: #ff00ff"/>
     <use xlink:href="#m150c5c96cd" x="278.155785" y="175.312622" style="fill: #ff00ff; stroke: #ff00ff"/>
     <use xlink:href="#m150c5c96cd" x="288.779454" y="175.312622" style="fill: #ff00ff; stroke: #ff00ff"/>
     <use xlink:href="#m150c5c96cd" x="300.383078" y="175.312622" style="fill: #ff00ff; stroke: #ff00ff"/>
     <use xlink:href="#m150c5c96cd" x="314.197932" y="175.312622" style="fill: #ff00ff; stroke: #ff00ff"/>
     <use xlink:href="#m150c5c96cd" x="333.739841" y="175.312622" style="fill: #ff00ff; stroke: #ff00ff"/>
     <use xlink:href="#m150c5c96cd" x="231.77535" y="165.702553" style="fill: #ff00ff; stroke: #ff00ff"/>
     <use xlink:href="#m150c5c96cd" x="245.590205" y="165.702553" style="fill: #ff00ff; stroke: #ff00ff"/>
     <use xlink:href="#m150c5c96cd" x="257.193828" y="165.702553" style="fill: #ff00ff; stroke: #ff00ff"/>
     <use xlink:href="#m150c5c96cd" x="267.817497" y="165.702553" style="fill: #ff00ff; stroke: #ff00ff"/>
     <use xlink:href="#m150c5c96cd" x="278.155785" y="165.702553" style="fill: #ff00ff; stroke: #ff00ff"/>
     <use xlink:href="#m150c5c96cd" x="288.779454" y="165.702553" style="fill: #ff00ff; stroke: #ff00ff"/>
     <use xlink:href="#m150c5c96cd" x="300.383078" y="165.702553" style="fill: #ff00ff; stroke: #ff00ff"/>
     <use xlink:href="#m150c5c96cd" x="314.197932" y="165.702553" style="fill: #ff00ff; stroke: #ff00ff"/>
     <use xlink:href="#m150c5c96cd" x="333.739841" y="165.702553" style="fill: #ff00ff; stroke: #ff00ff"/>
     <use xlink:href="#m150c5c96cd" x="231.77535" y="156.350639" style="fill: #ff00ff; stroke: #ff00ff"/>
     <use xlink:href="#m150c5c96cd" x="245.590205" y="156.350639" style="fill: #ff00ff; stroke: #ff00ff"/>
     <use xlink:href="#m150c5c96cd" x="257.193828" y="156.350639" style="fill: #ff00ff; stroke: #ff00ff"/>
     <use xlink:href="#m150c5c96cd" x="267.817497" y="156.350639" style="fill: #ff00ff; stroke: #ff00ff"/>
     <use xlink:href="#m150c5c96cd" x="278.155785" y="156.350639" style="fill: #ff00ff; stroke: #ff00ff"/>
     <use xlink:href="#m150c5c96cd" x="288.779454" y="156.350639" style="fill: #ff00ff; stroke: #ff00ff"/>
     <use xlink:href="#m150c5c96cd" x="300.383078" y="156.350639" style="fill: #ff00ff; stroke: #ff00ff"/>
     <use xlink:href="#m150c5c96cd" x="314.197932" y="156.350639" style="fill: #ff00ff; stroke: #ff00ff"/>
     <use xlink:href="#m150c5c96cd" x="333.739841" y="156.350639" style="fill: #ff00ff; stroke: #ff00ff"/>
     <use xlink:href="#m150c5c96cd" x="231.77535" y="146.74057" style="fill: #ff00ff; stroke: #ff00ff"/>
     <use xlink:href="#m150c5c96cd" x="245.590205" y="146.74057" style="fill: #ff00ff; stroke: #ff00ff"/>
     <use xlink:href="#m150c5c96cd" x="257.193828" y="146.74057" style="fill: #ff00ff; stroke: #ff00ff"/>
     <use xlink:href="#m150c5c96cd" x="267.817497" y="146.74057" style="fill: #ff00ff; stroke: #ff00ff"/>
     <use xlink:href="#m150c5c96cd" x="278.155785" y="146.74057" style="fill: #ff00ff; stroke: #ff00ff"/>
     <use xlink:href="#m150c5c96cd" x="288.779454" y="146.74057" style="fill: #ff00ff; stroke: #ff00ff"/>
     <use xlink:href="#m150c5c96cd" x="300.383078" y="146.74057" style="fill: #ff00ff; stroke: #ff00ff"/>
     <use xlink:href="#m150c5c96cd" x="314.197932" y="146.74057" style="fill: #ff00ff; stroke: #ff00ff"/>
     <use xlink:href="#m150c5c96cd" x="333.739841" y="146.74057" style="fill: #ff00ff; stroke: #ff00ff"/>
     <use xlink:href="#m150c5c96cd" x="231.77535" y="136.244047" style="fill: #ff00ff; stroke: #ff00ff"/>
     <use xlink:href="#m150c5c96cd" x="245.590205" y="136.244047" style="fill: #ff00ff; stroke: #ff00ff"/>
     <use xlink:href="#m150c5c96cd" x="257.193828" y="136.244047" style="fill: #ff00ff; stroke: #ff00ff"/>
     <use xlink:href="#m150c5c96cd" x="267.817497" y="136.244047" style="fill: #ff00ff; stroke: #ff00ff"/>
     <use xlink:href="#m150c5c96cd" x="278.155785" y="136.244047" style="fill: #ff00ff; stroke: #ff00ff"/>
     <use xlink:href="#m150c5c96cd" x="288.779454" y="136.244047" style="fill: #ff00ff; stroke: #ff00ff"/>
     <use xlink:href="#m150c5c96cd" x="300.383078" y="136.244047" style="fill: #ff00ff; stroke: #ff00ff"/>
     <use xlink:href="#m150c5c96cd" x="314.197932" y="136.244047" style="fill: #ff00ff; stroke: #ff00ff"/>
     <use xlink:href="#m150c5c96cd" x="333.739841" y="136.244047" style="fill: #ff00ff; stroke: #ff00ff"/>
     <use xlink:href="#m150c5c96cd" x="231.77535" y="123.747262" style="fill: #ff00ff; stroke: #ff00ff"/>
     <use xlink:href="#m150c5c96cd" x="245.590205" y="123.747262" style="fill: #ff00ff; stroke: #ff00ff"/>
     <use xlink:href="#m150c5c96cd" x="257.193828" y="123.747262" style="fill: #ff00ff; stroke: #ff00ff"/>
     <use xlink:href="#m150c5c96cd" x="267.817497" y="123.747262" style="fill: #ff00ff; stroke: #ff00ff"/>
     <use xlink:href="#m150c5c96cd" x="278.155785" y="123.747262" style="fill: #ff00ff; stroke: #ff00ff"/>
     <use xlink:href="#m150c5c96cd" x="288.779454" y="123.747262" style="fill: #ff00ff; stroke: #ff00ff"/>
     <use xlink:href="#m150c5c96cd" x="300.383078" y="123.747262" style="fill: #ff00ff; stroke: #ff00ff"/>
     <use xlink:href="#m150c5c96cd" x="314.197932" y="123.747262" style="fill: #ff00ff; stroke: #ff00ff"/>
     <use xlink:href="#m150c5c96cd" x="333.739841" y="123.747262" style="fill: #ff00ff; stroke: #ff00ff"/>
     <use xlink:href="#m150c5c96cd" x="231.77535" y="106.069846" style="fill: #ff00ff; stroke: #ff00ff"/>
     <use xlink:href="#m150c5c96cd" x="245.590205" y="106.069846" style="fill: #ff00ff; stroke: #ff00ff"/>
     <use xlink:href="#m150c5c96cd" x="257.193828" y="106.069846" style="fill: #ff00ff; stroke: #ff00ff"/>
     <use xlink:href="#m150c5c96cd" x="267.817497" y="106.069846" style="fill: #ff00ff; stroke: #ff00ff"/>
     <use xlink:href="#m150c5c96cd" x="278.155785" y="106.069846" style="fill: #ff00ff; stroke: #ff00ff"/>
     <use xlink:href="#m150c5c96cd" x="288.779454" y="106.069846" style="fill: #ff00ff; stroke: #ff00ff"/>
     <use xlink:href="#m150c5c96cd" x="300.383078" y="106.069846" style="fill: #ff00ff; stroke: #ff00ff"/>
     <use xlink:href="#m150c5c96cd" x="314.197932" y="106.069846" style="fill: #ff00ff; stroke: #ff00ff"/>
     <use xlink:href="#m150c5c96cd" x="333.739841" y="106.069846" style="fill: #ff00ff; stroke: #ff00ff"/>
    </g>
   </g>
   <g id="PathCollection_2">
    <defs>
     <path id="m4a373e6884" d="M 0 3.162278 
C 0.838646 3.162278 1.643056 2.82908 2.236068 2.236068 
C 2.82908 1.643056 3.162278 0.838646 3.162278 0 
C 3.162278 -0.838646 2.82908 -1.643056 2.236068 -2.236068 
C 1.643056 -2.82908 0.838646 -3.162278 0 -3.162278 
C -0.838646 -3.162278 -1.643056 -2.82908 -2.236068 -2.236068 
C -2.82908 -1.643056 -3.162278 -0.838646 -3.162278 0 
C -3.162278 0.838646 -2.82908 1.643056 -2.236068 2.236068 
C -1.643056 2.82908 -0.838646 3.162278 0 3.162278 
z
" style="stroke: #ff0000"/>
    </defs>
    <g clip-path="url(#p5ac5651fc1)">
     <use xlink:href="#m4a373e6884" x="212.233447" y="215.983343" style="fill: #ff0000; stroke: #ff0000"/>
     <use xlink:href="#m4a373e6884" x="212.233447" y="198.30593" style="fill: #ff0000; stroke: #ff0000"/>
     <use xlink:href="#m4a373e6884" x="212.233447" y="185.809145" style="fill: #ff0000; stroke: #ff0000"/>
     <use xlink:href="#m4a373e6884" x="212.233447" y="175.312622" style="fill: #ff0000; stroke: #ff0000"/>
     <use xlink:href="#m4a373e6884" x="212.233447" y="165.702553" style="fill: #ff0000; stroke: #ff0000"/>
     <use xlink:href="#m4a373e6884" x="212.233447" y="156.350639" style="fill: #ff0000; stroke: #ff0000"/>
     <use xlink:href="#m4a373e6884" x="212.233447" y="146.74057" style="fill: #ff0000; stroke: #ff0000"/>
     <use xlink:href="#m4a373e6884" x="212.233447" y="136.244047" style="fill: #ff0000; stroke: #ff0000"/>
     <use xlink:href="#m4a373e6884" x="212.233447" y="123.747262" style="fill: #ff0000; stroke: #ff0000"/>
     <use xlink:href="#m4a373e6884" x="212.233447" y="106.069846" style="fill: #ff0000; stroke: #ff0000"/>
    </g>
   </g>
   <g id="PathCollection_3">
    <defs>
     <path id="m54d84787c8" d="M 0 3.162278 
C 0.838646 3.162278 1.643056 2.82908 2.236068 2.236068 
C 2.82908 1.643056 3.162278 0.838646 3.162278 0 
C 3.162278 -0.838646 2.82908 -1.643056 2.236068 -2.236068 
C 1.643056 -2.82908 0.838646 -3.162278 0 -3.162278 
C -0.838646 -3.162278 -1.643056 -2.82908 -2.236068 -2.236068 
C -2.82908 -1.643056 -3.162278 -0.838646 -3.162278 0 
C -3.162278 0.838646 -2.82908 1.643056 -2.236068 2.236068 
C -1.643056 2.82908 -0.838646 3.162278 0 3.162278 
z
" style="stroke: #0000ff"/>
    </defs>
    <g clip-path="url(#p5ac5651fc1)">
     <use xlink:href="#m54d84787c8" x="212.233447" y="215.983343" style="fill: #0000ff; stroke: #0000ff"/>
     <use xlink:href="#m54d84787c8" x="231.77535" y="215.983343" style="fill: #0000ff; stroke: #0000ff"/>
     <use xlink:href="#m54d84787c8" x="245.590205" y="215.983343" style="fill: #0000ff; stroke: #0000ff"/>
     <use xlink:href="#m54d84787c8" x="257.193828" y="215.983343" style="fill: #0000ff; stroke: #0000ff"/>
     <use xlink:href="#m54d84787c8" x="267.817497" y="215.983343" style="fill: #0000ff; stroke: #0000ff"/>
     <use xlink:href="#m54d84787c8" x="278.155785" y="215.983343" style="fill: #0000ff; stroke: #0000ff"/>
     <use xlink:href="#m54d84787c8" x="288.779454" y="215.983343" style="fill: #0000ff; stroke: #0000ff"/>
     <use xlink:href="#m54d84787c8" x="300.383078" y="215.983343" style="fill: #0000ff; stroke: #0000ff"/>
     <use xlink:href="#m54d84787c8" x="314.197932" y="215.983343" style="fill: #0000ff; stroke: #0000ff"/>
     <use xlink:href="#m54d84787c8" x="333.739841" y="215.983343" style="fill: #0000ff; stroke: #0000ff"/>
    </g>
   </g>
   <g id="matplotlib.axis_1">
    <g id="xtick_1">
     <g id="line2d_1">
      <defs>
       <path id="m12eb360e99" d="M 0 0 
L 0 3.5 
" style="stroke: #000000; stroke-width: 0.8"/>
      </defs>
      <g>
       <use xlink:href="#m12eb360e99" x="161.568" y="298.08" style="stroke: #000000; stroke-width: 0.8"/>
      </g>
     </g>
     <g id="text_1">
      <!-- −4 -->
      <g transform="translate(154.196906 312.678437) scale(0.1 -0.1)">
       <defs>
        <path id="DejaVuSans-2212" d="M 678 2272 
L 4684 2272 
L 4684 1741 
L 678 1741 
L 678 2272 
z
" transform="scale(0.015625)"/>
        <path id="DejaVuSans-34" d="M 2419 4116 
L 825 1625 
L 2419 1625 
L 2419 4116 
z
M 2253 4666 
L 3047 4666 
L 3047 1625 
L 3713 1625 
L 3713 1100 
L 3047 1100 
L 3047 0 
L 2419 0 
L 2419 1100 
L 313 1100 
L 313 1709 
L 2253 4666 
z
" transform="scale(0.015625)"/>
       </defs>
       <use xlink:href="#DejaVuSans-2212"/>
       <use xlink:href="#DejaVuSans-34" x="83.789062"/>
      </g>
     </g>
    </g>
    <g id="xtick_2">
     <g id="line2d_2">
      <g>
       <use xlink:href="#m12eb360e99" x="216.864" y="298.08" style="stroke: #000000; stroke-width: 0.8"/>
      </g>
     </g>
     <g id="text_2">
      <!-- −2 -->
      <g transform="translate(209.492906 312.678437) scale(0.1 -0.1)">
       <defs>
        <path id="DejaVuSans-32" d="M 1228 531 
L 3431 531 
L 3431 0 
L 469 0 
L 469 531 
Q 828 903 1448 1529 
Q 2069 2156 2228 2338 
Q 2531 2678 2651 2914 
Q 2772 3150 2772 3378 
Q 2772 3750 2511 3984 
Q 2250 4219 1831 4219 
Q 1534 4219 1204 4116 
Q 875 4013 500 3803 
L 500 4441 
Q 881 4594 1212 4672 
Q 1544 4750 1819 4750 
Q 2544 4750 2975 4387 
Q 3406 4025 3406 3419 
Q 3406 3131 3298 2873 
Q 3191 2616 2906 2266 
Q 2828 2175 2409 1742 
Q 1991 1309 1228 531 
z
" transform="scale(0.015625)"/>
       </defs>
       <use xlink:href="#DejaVuSans-2212"/>
       <use xlink:href="#DejaVuSans-32" x="83.789062"/>
      </g>
     </g>
    </g>
    <g id="xtick_3">
     <g id="line2d_3">
      <g>
       <use xlink:href="#m12eb360e99" x="272.16" y="298.08" style="stroke: #000000; stroke-width: 0.8"/>
      </g>
     </g>
     <g id="text_3">
      <!-- 0 -->
      <g transform="translate(268.97875 312.678437) scale(0.1 -0.1)">
       <defs>
        <path id="DejaVuSans-30" d="M 2034 4250 
Q 1547 4250 1301 3770 
Q 1056 3291 1056 2328 
Q 1056 1369 1301 889 
Q 1547 409 2034 409 
Q 2525 409 2770 889 
Q 3016 1369 3016 2328 
Q 3016 3291 2770 3770 
Q 2525 4250 2034 4250 
z
M 2034 4750 
Q 2819 4750 3233 4129 
Q 3647 3509 3647 2328 
Q 3647 1150 3233 529 
Q 2819 -91 2034 -91 
Q 1250 -91 836 529 
Q 422 1150 422 2328 
Q 422 3509 836 4129 
Q 1250 4750 2034 4750 
z
" transform="scale(0.015625)"/>
       </defs>
       <use xlink:href="#DejaVuSans-30"/>
      </g>
     </g>
    </g>
    <g id="xtick_4">
     <g id="line2d_4">
      <g>
       <use xlink:href="#m12eb360e99" x="327.456" y="298.08" style="stroke: #000000; stroke-width: 0.8"/>
      </g>
     </g>
     <g id="text_4">
      <!-- 2 -->
      <g transform="translate(324.27475 312.678437) scale(0.1 -0.1)">
       <use xlink:href="#DejaVuSans-32"/>
      </g>
     </g>
    </g>
    <g id="xtick_5">
     <g id="line2d_5">
      <g>
       <use xlink:href="#m12eb360e99" x="382.752" y="298.08" style="stroke: #000000; stroke-width: 0.8"/>
      </g>
     </g>
     <g id="text_5">
      <!-- 4 -->
      <g transform="translate(379.57075 312.678437) scale(0.1 -0.1)">
       <use xlink:href="#DejaVuSans-34"/>
      </g>
     </g>
    </g>
   </g>
   <g id="matplotlib.axis_2">
    <g id="ytick_1">
     <g id="line2d_6">
      <defs>
       <path id="m5b71abf14e" d="M 0 0 
L -3.5 0 
" style="stroke: #000000; stroke-width: 0.8"/>
      </defs>
      <g>
       <use xlink:href="#m5b71abf14e" x="133.92" y="270.432" style="stroke: #000000; stroke-width: 0.8"/>
      </g>
     </g>
     <g id="text_6">
      <!-- −4 -->
      <g transform="translate(112.177812 274.231219) scale(0.1 -0.1)">
       <use xlink:href="#DejaVuSans-2212"/>
       <use xlink:href="#DejaVuSans-34" x="83.789062"/>
      </g>
     </g>
    </g>
    <g id="ytick_2">
     <g id="line2d_7">
      <g>
       <use xlink:href="#m5b71abf14e" x="133.92" y="215.136" style="stroke: #000000; stroke-width: 0.8"/>
      </g>
     </g>
     <g id="text_7">
      <!-- −2 -->
      <g transform="translate(112.177812 218.935219) scale(0.1 -0.1)">
       <use xlink:href="#DejaVuSans-2212"/>
       <use xlink:href="#DejaVuSans-32" x="83.789062"/>
      </g>
     </g>
    </g>
    <g id="ytick_3">
     <g id="line2d_8">
      <g>
       <use xlink:href="#m5b71abf14e" x="133.92" y="159.84" style="stroke: #000000; stroke-width: 0.8"/>
      </g>
     </g>
     <g id="text_8">
      <!-- 0 -->
      <g transform="translate(120.5575 163.639219) scale(0.1 -0.1)">
       <use xlink:href="#DejaVuSans-30"/>
      </g>
     </g>
    </g>
    <g id="ytick_4">
     <g id="line2d_9">
      <g>
       <use xlink:href="#m5b71abf14e" x="133.92" y="104.544" style="stroke: #000000; stroke-width: 0.8"/>
      </g>
     </g>
     <g id="text_9">
      <!-- 2 -->
      <g transform="translate(120.5575 108.343219) scale(0.1 -0.1)">
       <use xlink:href="#DejaVuSans-32"/>
      </g>
     </g>
    </g>
    <g id="ytick_5">
     <g id="line2d_10">
      <g>
       <use xlink:href="#m5b71abf14e" x="133.92" y="49.248" style="stroke: #000000; stroke-width: 0.8"/>
      </g>
     </g>
     <g id="text_10">
      <!-- 4 -->
      <g transform="translate(120.5575 53.047219) scale(0.1 -0.1)">
       <use xlink:href="#DejaVuSans-34"/>
      </g>
     </g>
    </g>
   </g>
   <g id="QuadContourSet_1">
    <path clip-path="url(#p5ac5651fc1)" style="fill: none; stroke: #0d0887; stroke-width: 1.5"/>
    <path d="M 261.739899 219.024876 
L 263.129246 219.259042 
L 264.518593 219.456487 
L 265.90794 219.618754 
L 267.297286 219.747101 
L 268.686633 219.842514 
L 270.07598 219.905723 
L 271.465327 219.937207 
L 272.854673 219.937207 
L 274.24402 219.905723 
L 275.633367 219.842514 
L 277.022714 219.747101 
L 278.41206 219.618754 
L 279.801407 219.456487 
L 281.190754 219.259042 
L 282.580101 219.024876 
L 283.288269 218.887236 
L 283.969447 218.762996 
L 285.358794 218.4747 
L 286.748141 218.146593 
L 288.137487 217.775975 
L 289.075013 217.497889 
L 289.526834 217.370456 
L 290.916181 216.941151 
L 292.305528 216.462786 
L 293.242886 216.108543 
L 293.694874 215.944374 
L 295.084221 215.398646 
L 296.473568 214.794136 
L 296.635594 214.719196 
L 297.862915 214.167738 
L 299.252261 213.480855 
L 299.539828 213.329849 
L 300.641608 212.763152 
L 302.030955 211.980998 
L 302.099519 211.940503 
L 303.420302 211.170087 
L 304.398747 210.551156 
L 304.809648 210.292962 
L 306.198995 209.364701 
L 306.487181 209.161809 
L 307.588342 208.385258 
L 308.404057 207.772462 
L 308.977688 207.338267 
L 310.170024 206.383116 
L 310.367035 206.223156 
L 311.756382 205.04011 
L 311.808853 204.993769 
L 313.145729 203.786865 
L 313.33985 203.604422 
L 314.535075 202.44923 
L 314.76923 202.215075 
L 315.924422 201.01985 
L 316.106865 200.825729 
L 317.313769 199.488853 
L 317.36011 199.436382 
L 318.543156 198.047035 
L 318.703116 197.850024 
L 319.658267 196.657688 
L 320.092462 196.084057 
L 320.705258 195.268342 
L 321.481809 194.167181 
L 321.684701 193.878995 
L 322.612962 192.489648 
L 322.871156 192.078747 
L 323.490087 191.100302 
L 324.260503 189.779519 
L 324.300998 189.710955 
L 325.083152 188.321608 
L 325.649849 187.219828 
L 325.800855 186.932261 
L 326.487738 185.542915 
L 327.039196 184.315594 
L 327.114136 184.153568 
L 327.718646 182.764221 
L 328.264374 181.374874 
L 328.428543 180.922886 
L 328.782786 179.985528 
L 329.261151 178.596181 
L 329.690456 177.206834 
L 329.817889 176.755013 
L 330.095975 175.817487 
L 330.466593 174.428141 
L 330.7947 173.038794 
L 331.082996 171.649447 
L 331.207236 170.968269 
L 331.344876 170.260101 
L 331.579042 168.870754 
L 331.776487 167.481407 
L 331.938754 166.09206 
L 332.067101 164.702714 
L 332.162514 163.313367 
L 332.225723 161.92402 
L 332.257207 160.534673 
L 332.257207 159.145327 
L 332.225723 157.75598 
L 332.162514 156.366633 
L 332.067101 154.977286 
L 331.938754 153.58794 
L 331.776487 152.198593 
L 331.579042 150.809246 
L 331.344876 149.419899 
L 331.207236 148.711731 
L 331.082996 148.030553 
L 330.7947 146.641206 
L 330.466593 145.251859 
L 330.095975 143.862513 
L 329.817889 142.924987 
L 329.690456 142.473166 
L 329.261151 141.083819 
L 328.782786 139.694472 
L 328.428543 138.757114 
L 328.264374 138.305126 
L 327.718646 136.915779 
L 327.114136 135.526432 
L 327.039196 135.364406 
L 326.487738 134.137085 
L 325.800855 132.747739 
L 325.649849 132.460172 
L 325.083152 131.358392 
L 324.300998 129.969045 
L 324.260503 129.900481 
L 323.490087 128.579698 
L 322.871156 127.601253 
L 322.612962 127.190352 
L 321.684701 125.801005 
L 321.481809 125.512819 
L 320.705258 124.411658 
L 320.092462 123.595943 
L 319.658267 123.022312 
L 318.703116 121.829976 
L 318.543156 121.632965 
L 317.36011 120.243618 
L 317.313769 120.191147 
L 316.106865 118.854271 
L 315.924422 118.66015 
L 314.76923 117.464925 
L 314.535075 117.23077 
L 313.33985 116.075578 
L 313.145729 115.893135 
L 311.808853 114.686231 
L 311.756382 114.63989 
L 310.367035 113.456844 
L 310.170024 113.296884 
L 308.977688 112.341733 
L 308.404057 111.907538 
L 307.588342 111.294742 
L 306.487181 110.518191 
L 306.198995 110.315299 
L 304.809648 109.387038 
L 304.398747 109.128844 
L 303.420302 108.509913 
L 302.099519 107.739497 
L 302.030955 107.699002 
L 300.641608 106.916848 
L 299.539828 106.350151 
L 299.252261 106.199145 
L 297.862915 105.512262 
L 296.635594 104.960804 
L 296.473568 104.885864 
L 295.084221 104.281354 
L 293.694874 103.735626 
L 293.242886 103.571457 
L 292.305528 103.217214 
L 290.916181 102.738849 
L 289.526834 102.309544 
L 289.075013 102.182111 
L 288.137487 101.904025 
L 286.748141 101.533407 
L 285.358794 101.2053 
L 283.969447 100.917004 
L 283.288269 100.792764 
L 282.580101 100.655124 
L 281.190754 100.420958 
L 279.801407 100.223513 
L 278.41206 100.061246 
L 277.022714 99.932899 
L 275.633367 99.837486 
L 274.24402 99.774277 
L 272.854673 99.742793 
L 271.465327 99.742793 
L 270.07598 99.774277 
L 268.686633 99.837486 
L 267.297286 99.932899 
L 265.90794 100.061246 
L 264.518593 100.223513 
L 263.129246 100.420958 
L 261.739899 100.655124 
L 261.031731 100.792764 
L 260.350553 100.917004 
L 258.961206 101.2053 
L 257.571859 101.533407 
L 256.182513 101.904025 
L 255.244987 102.182111 
L 254.793166 102.309544 
L 253.403819 102.738849 
L 252.014472 103.217214 
L 251.077114 103.571457 
L 250.625126 103.735626 
L 249.235779 104.281354 
L 247.846432 104.885864 
L 247.684406 104.960804 
L 246.457085 105.512262 
L 245.067739 106.199145 
L 244.780172 106.350151 
L 243.678392 106.916848 
L 242.289045 107.699002 
L 242.220481 107.739497 
L 240.899698 108.509913 
L 239.921253 109.128844 
L 239.510352 109.387038 
L 238.121005 110.315299 
L 237.832819 110.518191 
L 236.731658 111.294742 
L 235.915943 111.907538 
L 235.342312 112.341733 
L 234.149976 113.296884 
L 233.952965 113.456844 
L 232.563618 114.63989 
L 232.511147 114.686231 
L 231.174271 115.893135 
L 230.98015 116.075578 
L 229.784925 117.23077 
L 229.55077 117.464925 
L 228.395578 118.66015 
L 228.213135 118.854271 
L 227.006231 120.191147 
L 226.95989 120.243618 
L 225.776844 121.632965 
L 225.616884 121.829976 
L 224.661733 123.022312 
L 224.227538 123.595943 
L 223.614742 124.411658 
L 222.838191 125.512819 
L 222.635299 125.801005 
L 221.707038 127.190352 
L 221.448844 127.601253 
L 220.829913 128.579698 
L 220.059497 129.900481 
L 220.019002 129.969045 
L 219.236848 131.358392 
L 218.670151 132.460172 
L 218.519145 132.747739 
L 217.832262 134.137085 
L 217.280804 135.364406 
L 217.205864 135.526432 
L 216.601354 136.915779 
L 216.055626 138.305126 
L 215.891457 138.757114 
L 215.537214 139.694472 
L 215.058849 141.083819 
L 214.629544 142.473166 
L 214.502111 142.924987 
L 214.224025 143.862513 
L 213.853407 145.251859 
L 213.5253 146.641206 
L 213.237004 148.030553 
L 213.112764 148.711731 
L 212.975124 149.419899 
L 212.740958 150.809246 
L 212.543513 152.198593 
L 212.381246 153.58794 
L 212.252899 154.977286 
L 212.157486 156.366633 
L 212.094277 157.75598 
L 212.062793 159.145327 
L 212.062793 160.534673 
L 212.094277 161.92402 
L 212.157486 163.313367 
L 212.252899 164.702714 
L 212.381246 166.09206 
L 212.543513 167.481407 
L 212.740958 168.870754 
L 212.975124 170.260101 
L 213.112764 170.968269 
L 213.237004 171.649447 
L 213.5253 173.038794 
L 213.853407 174.428141 
L 214.224025 175.817487 
L 214.502111 176.755013 
L 214.629544 177.206834 
L 215.058849 178.596181 
L 215.537214 179.985528 
L 215.891457 180.922886 
L 216.055626 181.374874 
L 216.601354 182.764221 
L 217.205864 184.153568 
L 217.280804 184.315594 
L 217.832262 185.542915 
L 218.519145 186.932261 
L 218.670151 187.219828 
L 219.236848 188.321608 
L 220.019002 189.710955 
L 220.059497 189.779519 
L 220.829913 191.100302 
L 221.448844 192.078747 
L 221.707038 192.489648 
L 222.635299 193.878995 
L 222.838191 194.167181 
L 223.614742 195.268342 
L 224.227538 196.084057 
L 224.661733 196.657688 
L 225.616884 197.850024 
L 225.776844 198.047035 
L 226.95989 199.436382 
L 227.006231 199.488853 
L 228.213135 200.825729 
L 228.395578 201.01985 
L 229.55077 202.215075 
L 229.784925 202.44923 
L 230.98015 203.604422 
L 231.174271 203.786865 
L 232.511147 204.993769 
L 232.563618 205.04011 
L 233.952965 206.223156 
L 234.149976 206.383116 
L 235.342312 207.338267 
L 235.915943 207.772462 
L 236.731658 208.385258 
L 237.832819 209.161809 
L 238.121005 209.364701 
L 239.510352 210.292962 
L 239.921253 210.551156 
L 240.899698 211.170087 
L 242.220481 211.940503 
L 242.289045 211.980998 
L 243.678392 212.763152 
L 244.780172 213.329849 
L 245.067739 213.480855 
L 246.457085 214.167738 
L 247.684406 214.719196 
L 247.846432 214.794136 
L 249.235779 215.398646 
L 250.625126 215.944374 
L 251.077114 216.108543 
L 252.014472 216.462786 
L 253.403819 216.941151 
L 254.793166 217.370456 
L 255.244987 217.497889 
L 256.182513 217.775975 
L 257.571859 218.146593 
L 258.961206 218.4747 
L 260.350553 218.762996 
L 261.031731 218.887236 
L 261.739899 219.024876 
z
" clip-path="url(#p5ac5651fc1)" style="fill: none; stroke: #3e049c; stroke-width: 1.5"/>
    <path d="M 261.739899 209.265005 
L 263.129246 209.54333 
L 264.518593 209.778009 
L 265.90794 209.970877 
L 267.297286 210.123428 
L 268.686633 210.236835 
L 270.07598 210.311963 
L 271.465327 210.349385 
L 272.854673 210.349385 
L 274.24402 210.311963 
L 275.633367 210.236835 
L 277.022714 210.123428 
L 278.41206 209.970877 
L 279.801407 209.778009 
L 281.190754 209.54333 
L 282.580101 209.265005 
L 283.028498 209.161809 
L 283.969447 208.954007 
L 285.358794 208.603613 
L 286.748141 208.20483 
L 288.083187 207.772462 
L 288.137487 207.755402 
L 289.526834 207.278081 
L 290.916181 206.744397 
L 291.771919 206.383116 
L 292.305528 206.162155 
L 293.694874 205.536435 
L 294.790599 204.993769 
L 295.084221 204.849923 
L 296.473568 204.119512 
L 297.373406 203.604422 
L 297.862915 203.324866 
L 299.252261 202.472529 
L 299.645869 202.215075 
L 300.641608 201.559665 
L 301.678369 200.825729 
L 302.030955 200.573 
L 303.420302 199.513949 
L 303.517374 199.436382 
L 304.809648 198.381622 
L 305.198055 198.047035 
L 306.198995 197.16071 
L 306.740904 196.657688 
L 307.588342 195.843883 
L 308.163883 195.268342 
L 308.977688 194.420904 
L 309.48071 193.878995 
L 310.367035 192.878055 
L 310.701622 192.489648 
L 311.756382 191.197374 
L 311.833949 191.100302 
L 312.893 189.710955 
L 313.145729 189.358369 
L 313.879665 188.321608 
L 314.535075 187.325869 
L 314.792529 186.932261 
L 315.644866 185.542915 
L 315.924422 185.053406 
L 316.439512 184.153568 
L 317.169923 182.764221 
L 317.313769 182.470599 
L 317.856435 181.374874 
L 318.482155 179.985528 
L 318.703116 179.451919 
L 319.064397 178.596181 
L 319.598081 177.206834 
L 320.075402 175.817487 
L 320.092462 175.763187 
L 320.52483 174.428141 
L 320.923613 173.038794 
L 321.274007 171.649447 
L 321.481809 170.708498 
L 321.585005 170.260101 
L 321.86333 168.870754 
L 322.098009 167.481407 
L 322.290877 166.09206 
L 322.443428 164.702714 
L 322.556835 163.313367 
L 322.631963 161.92402 
L 322.669385 160.534673 
L 322.669385 159.145327 
L 322.631963 157.75598 
L 322.556835 156.366633 
L 322.443428 154.977286 
L 322.290877 153.58794 
L 322.098009 152.198593 
L 321.86333 150.809246 
L 321.585005 149.419899 
L 321.481809 148.971502 
L 321.274007 148.030553 
L 320.923613 146.641206 
L 320.52483 145.251859 
L 320.092462 143.916813 
L 320.075402 143.862513 
L 319.598081 142.473166 
L 319.064397 141.083819 
L 318.703116 140.228081 
L 318.482155 139.694472 
L 317.856435 138.305126 
L 317.313769 137.209401 
L 317.169923 136.915779 
L 316.439512 135.526432 
L 315.924422 134.626594 
L 315.644866 134.137085 
L 314.792529 132.747739 
L 314.535075 132.354131 
L 313.879665 131.358392 
L 313.145729 130.321631 
L 312.893 129.969045 
L 311.833949 128.579698 
L 311.756382 128.482626 
L 310.701622 127.190352 
L 310.367035 126.801945 
L 309.48071 125.801005 
L 308.977688 125.259096 
L 308.163883 124.411658 
L 307.588342 123.836117 
L 306.740904 123.022312 
L 306.198995 122.51929 
L 305.198055 121.632965 
L 304.809648 121.298378 
L 303.517374 120.243618 
L 303.420302 120.166051 
L 302.030955 119.107 
L 301.678369 118.854271 
L 300.641608 118.120335 
L 299.645869 117.464925 
L 299.252261 117.207471 
L 297.862915 116.355134 
L 297.373406 116.075578 
L 296.473568 115.560488 
L 295.084221 114.830077 
L 294.790599 114.686231 
L 293.694874 114.143565 
L 292.305528 113.517845 
L 291.771919 113.296884 
L 290.916181 112.935603 
L 289.526834 112.401919 
L 288.137487 111.924598 
L 288.083187 111.907538 
L 286.748141 111.47517 
L 285.358794 111.076387 
L 283.969447 110.725993 
L 283.028498 110.518191 
L 282.580101 110.414995 
L 281.190754 110.13667 
L 279.801407 109.901991 
L 278.41206 109.709123 
L 277.022714 109.556572 
L 275.633367 109.443165 
L 274.24402 109.368037 
L 272.854673 109.330615 
L 271.465327 109.330615 
L 270.07598 109.368037 
L 268.686633 109.443165 
L 267.297286 109.556572 
L 265.90794 109.709123 
L 264.518593 109.901991 
L 263.129246 110.13667 
L 261.739899 110.414995 
L 261.291502 110.518191 
L 260.350553 110.725993 
L 258.961206 111.076387 
L 257.571859 111.47517 
L 256.236813 111.907538 
L 256.182513 111.924598 
L 254.793166 112.401919 
L 253.403819 112.935603 
L 252.548081 113.296884 
L 252.014472 113.517845 
L 250.625126 114.143565 
L 249.529401 114.686231 
L 249.235779 114.830077 
L 247.846432 115.560488 
L 246.946594 116.075578 
L 246.457085 116.355134 
L 245.067739 117.207471 
L 244.674131 117.464925 
L 243.678392 118.120335 
L 242.641631 118.854271 
L 242.289045 119.107 
L 240.899698 120.166051 
L 240.802626 120.243618 
L 239.510352 121.298378 
L 239.121945 121.632965 
L 238.121005 122.51929 
L 237.579096 123.022312 
L 236.731658 123.836117 
L 236.156117 124.411658 
L 235.342312 125.259096 
L 234.83929 125.801005 
L 233.952965 126.801945 
L 233.618378 127.190352 
L 232.563618 128.482626 
L 232.486051 128.579698 
L 231.427 129.969045 
L 231.174271 130.321631 
L 230.440335 131.358392 
L 229.784925 132.354131 
L 229.527471 132.747739 
L 228.675134 134.137085 
L 228.395578 134.626594 
L 227.880488 135.526432 
L 227.150077 136.915779 
L 227.006231 137.209401 
L 226.463565 138.305126 
L 225.837845 139.694472 
L 225.616884 140.228081 
L 225.255603 141.083819 
L 224.721919 142.473166 
L 224.244598 143.862513 
L 224.227538 143.916813 
L 223.79517 145.251859 
L 223.396387 146.641206 
L 223.045993 148.030553 
L 222.838191 148.971502 
L 222.734995 149.419899 
L 222.45667 150.809246 
L 222.221991 152.198593 
L 222.029123 153.58794 
L 221.876572 154.977286 
L 221.763165 156.366633 
L 221.688037 157.75598 
L 221.650615 159.145327 
L 221.650615 160.534673 
L 221.688037 161.92402 
L 221.763165 163.313367 
L 221.876572 164.702714 
L 222.029123 166.09206 
L 222.221991 167.481407 
L 222.45667 168.870754 
L 222.734995 170.260101 
L 222.838191 170.708498 
L 223.045993 171.649447 
L 223.396387 173.038794 
L 223.79517 174.428141 
L 224.227538 175.763187 
L 224.244598 175.817487 
L 224.721919 177.206834 
L 225.255603 178.596181 
L 225.616884 179.451919 
L 225.837845 179.985528 
L 226.463565 181.374874 
L 227.006231 182.470599 
L 227.150077 182.764221 
L 227.880488 184.153568 
L 228.395578 185.053406 
L 228.675134 185.542915 
L 229.527471 186.932261 
L 229.784925 187.325869 
L 230.440335 188.321608 
L 231.174271 189.358369 
L 231.427 189.710955 
L 232.486051 191.100302 
L 232.563618 191.197374 
L 233.618378 192.489648 
L 233.952965 192.878055 
L 234.83929 193.878995 
L 235.342312 194.420904 
L 236.156117 195.268342 
L 236.731658 195.843883 
L 237.579096 196.657688 
L 238.121005 197.16071 
L 239.121945 198.047035 
L 239.510352 198.381622 
L 240.802626 199.436382 
L 240.899698 199.513949 
L 242.289045 200.573 
L 242.641631 200.825729 
L 243.678392 201.559665 
L 244.674131 202.215075 
L 245.067739 202.472529 
L 246.457085 203.324866 
L 246.946594 203.604422 
L 247.846432 204.119512 
L 249.235779 204.849923 
L 249.529401 204.993769 
L 250.625126 205.536435 
L 252.014472 206.162155 
L 252.548081 206.383116 
L 253.403819 206.744397 
L 254.793166 207.278081 
L 256.182513 207.755402 
L 256.236813 207.772462 
L 257.571859 208.20483 
L 258.961206 208.603613 
L 260.350553 208.954007 
L 261.291502 209.161809 
L 261.739899 209.265005 
z
" clip-path="url(#p5ac5651fc1)" style="fill: none; stroke: #6300a7; stroke-width: 1.5"/>
    <path d="M 268.686633 203.649382 
L 270.07598 203.739318 
L 271.465327 203.784115 
L 272.854673 203.784115 
L 274.24402 203.739318 
L 275.633367 203.649382 
L 276.095825 203.604422 
L 277.022714 203.517861 
L 278.41206 203.343763 
L 279.801407 203.123654 
L 281.190754 202.855828 
L 282.580101 202.538192 
L 283.796631 202.215075 
L 283.969447 202.170263 
L 285.358794 201.763424 
L 286.748141 201.300402 
L 288.01228 200.825729 
L 288.137487 200.779312 
L 289.526834 200.215294 
L 290.916181 199.584677 
L 291.217652 199.436382 
L 292.305528 198.902058 
L 293.694874 198.149363 
L 293.871281 198.047035 
L 295.084221 197.338258 
L 296.15169 196.657688 
L 296.473568 196.449629 
L 297.862915 195.487854 
L 298.160681 195.268342 
L 299.252261 194.44506 
L 299.955431 193.878995 
L 300.641608 193.310088 
L 301.575742 192.489648 
L 302.030955 192.075077 
L 303.048765 191.100302 
L 303.420302 190.728765 
L 304.395077 189.710955 
L 304.809648 189.255742 
L 305.630088 188.321608 
L 306.198995 187.635431 
L 306.76506 186.932261 
L 307.588342 185.840681 
L 307.807854 185.542915 
L 308.769629 184.153568 
L 308.977688 183.83169 
L 309.658258 182.764221 
L 310.367035 181.551281 
L 310.469363 181.374874 
L 311.222058 179.985528 
L 311.756382 178.897652 
L 311.904677 178.596181 
L 312.535294 177.206834 
L 313.099312 175.817487 
L 313.145729 175.69228 
L 313.620402 174.428141 
L 314.083424 173.038794 
L 314.490263 171.649447 
L 314.535075 171.476631 
L 314.858192 170.260101 
L 315.175828 168.870754 
L 315.443654 167.481407 
L 315.663763 166.09206 
L 315.837861 164.702714 
L 315.924422 163.775825 
L 315.969382 163.313367 
L 316.059318 161.92402 
L 316.104115 160.534673 
L 316.104115 159.145327 
L 316.059318 157.75598 
L 315.969382 156.366633 
L 315.924422 155.904175 
L 315.837861 154.977286 
L 315.663763 153.58794 
L 315.443654 152.198593 
L 315.175828 150.809246 
L 314.858192 149.419899 
L 314.535075 148.203369 
L 314.490263 148.030553 
L 314.083424 146.641206 
L 313.620402 145.251859 
L 313.145729 143.98772 
L 313.099312 143.862513 
L 312.535294 142.473166 
L 311.904677 141.083819 
L 311.756382 140.782348 
L 311.222058 139.694472 
L 310.469363 138.305126 
L 310.367035 138.128719 
L 309.658258 136.915779 
L 308.977688 135.84831 
L 308.769629 135.526432 
L 307.807854 134.137085 
L 307.588342 133.839319 
L 306.76506 132.747739 
L 306.198995 132.044569 
L 305.630088 131.358392 
L 304.809648 130.424258 
L 304.395077 129.969045 
L 303.420302 128.951235 
L 303.048765 128.579698 
L 302.030955 127.604923 
L 301.575742 127.190352 
L 300.641608 126.369912 
L 299.955431 125.801005 
L 299.252261 125.23494 
L 298.160681 124.411658 
L 297.862915 124.192146 
L 296.473568 123.230371 
L 296.15169 123.022312 
L 295.084221 122.341742 
L 293.871281 121.632965 
L 293.694874 121.530637 
L 292.305528 120.777942 
L 291.217652 120.243618 
L 290.916181 120.095323 
L 289.526834 119.464706 
L 288.137487 118.900688 
L 288.01228 118.854271 
L 286.748141 118.379598 
L 285.358794 117.916576 
L 283.969447 117.509737 
L 283.796631 117.464925 
L 282.580101 117.141808 
L 281.190754 116.824172 
L 279.801407 116.556346 
L 278.41206 116.336237 
L 277.022714 116.162139 
L 276.095825 116.075578 
L 275.633367 116.030618 
L 274.24402 115.940682 
L 272.854673 115.895885 
L 271.465327 115.895885 
L 270.07598 115.940682 
L 268.686633 116.030618 
L 268.224175 116.075578 
L 267.297286 116.162139 
L 265.90794 116.336237 
L 264.518593 116.556346 
L 263.129246 116.824172 
L 261.739899 117.141808 
L 260.523369 117.464925 
L 260.350553 117.509737 
L 258.961206 117.916576 
L 257.571859 118.379598 
L 256.30772 118.854271 
L 256.182513 118.900688 
L 254.793166 119.464706 
L 253.403819 120.095323 
L 253.102348 120.243618 
L 252.014472 120.777942 
L 250.625126 121.530637 
L 250.448719 121.632965 
L 249.235779 122.341742 
L 248.16831 123.022312 
L 247.846432 123.230371 
L 246.457085 124.192146 
L 246.159319 124.411658 
L 245.067739 125.23494 
L 244.364569 125.801005 
L 243.678392 126.369912 
L 242.744258 127.190352 
L 242.289045 127.604923 
L 241.271235 128.579698 
L 240.899698 128.951235 
L 239.924923 129.969045 
L 239.510352 130.424258 
L 238.689912 131.358392 
L 238.121005 132.044569 
L 237.55494 132.747739 
L 236.731658 133.839319 
L 236.512146 134.137085 
L 235.550371 135.526432 
L 235.342312 135.84831 
L 234.661742 136.915779 
L 233.952965 138.128719 
L 233.850637 138.305126 
L 233.097942 139.694472 
L 232.563618 140.782348 
L 232.415323 141.083819 
L 231.784706 142.473166 
L 231.220688 143.862513 
L 231.174271 143.98772 
L 230.699598 145.251859 
L 230.236576 146.641206 
L 229.829737 148.030553 
L 229.784925 148.203369 
L 229.461808 149.419899 
L 229.144172 150.809246 
L 228.876346 152.198593 
L 228.656237 153.58794 
L 228.482139 154.977286 
L 228.395578 155.904175 
L 228.350618 156.366633 
L 228.260682 157.75598 
L 228.215885 159.145327 
L 228.215885 160.534673 
L 228.260682 161.92402 
L 228.350618 163.313367 
L 228.395578 163.775825 
L 228.482139 164.702714 
L 228.656237 166.09206 
L 228.876346 167.481407 
L 229.144172 168.870754 
L 229.461808 170.260101 
L 229.784925 171.476631 
L 229.829737 171.649447 
L 230.236576 173.038794 
L 230.699598 174.428141 
L 231.174271 175.69228 
L 231.220688 175.817487 
L 231.784706 177.206834 
L 232.415323 178.596181 
L 232.563618 178.897652 
L 233.097942 179.985528 
L 233.850637 181.374874 
L 233.952965 181.551281 
L 234.661742 182.764221 
L 235.342312 183.83169 
L 235.550371 184.153568 
L 236.512146 185.542915 
L 236.731658 185.840681 
L 237.55494 186.932261 
L 238.121005 187.635431 
L 238.689912 188.321608 
L 239.510352 189.255742 
L 239.924923 189.710955 
L 240.899698 190.728765 
L 241.271235 191.100302 
L 242.289045 192.075077 
L 242.744258 192.489648 
L 243.678392 193.310088 
L 244.364569 193.878995 
L 245.067739 194.44506 
L 246.159319 195.268342 
L 246.457085 195.487854 
L 247.846432 196.449629 
L 248.16831 196.657688 
L 249.235779 197.338258 
L 250.448719 198.047035 
L 250.625126 198.149363 
L 252.014472 198.902058 
L 253.102348 199.436382 
L 253.403819 199.584677 
L 254.793166 200.215294 
L 256.182513 200.779312 
L 256.30772 200.825729 
L 257.571859 201.300402 
L 258.961206 201.763424 
L 260.350553 202.170263 
L 260.523369 202.215075 
L 261.739899 202.538192 
L 263.129246 202.855828 
L 264.518593 203.123654 
L 265.90794 203.343763 
L 267.297286 203.517861 
L 268.224175 203.604422 
L 268.686633 203.649382 
z
" clip-path="url(#p5ac5651fc1)" style="fill: none; stroke: #8606a6; stroke-width: 1.5"/>
    <path d="M 267.297286 198.153199 
L 268.686633 198.305999 
L 270.07598 198.407224 
L 271.465327 198.457645 
L 272.854673 198.457645 
L 274.24402 198.407224 
L 275.633367 198.305999 
L 277.022714 198.153199 
L 277.743828 198.047035 
L 278.41206 197.950889 
L 279.801407 197.699477 
L 281.190754 197.393561 
L 282.580101 197.030751 
L 283.80956 196.657688 
L 283.969447 196.609606 
L 285.358794 196.13786 
L 286.748141 195.600969 
L 287.519714 195.268342 
L 288.137487 195.00132 
L 289.526834 194.337158 
L 290.394774 193.878995 
L 290.916181 193.600492 
L 292.305528 192.790267 
L 292.781127 192.489648 
L 293.694874 191.899763 
L 294.83407 191.100302 
L 295.084221 190.919757 
L 296.473568 189.845064 
L 296.63666 189.710955 
L 297.862915 188.663886 
L 298.240275 188.321608 
L 299.252261 187.361444 
L 299.681444 186.932261 
L 300.641608 185.920275 
L 300.983886 185.542915 
L 302.030955 184.31666 
L 302.165064 184.153568 
L 303.239757 182.764221 
L 303.420302 182.51407 
L 304.219763 181.374874 
L 304.809648 180.461127 
L 305.110267 179.985528 
L 305.920492 178.596181 
L 306.198995 178.074774 
L 306.657158 177.206834 
L 307.32132 175.817487 
L 307.588342 175.199714 
L 307.920969 174.428141 
L 308.45786 173.038794 
L 308.929606 171.649447 
L 308.977688 171.48956 
L 309.350751 170.260101 
L 309.713561 168.870754 
L 310.019477 167.481407 
L 310.270889 166.09206 
L 310.367035 165.423828 
L 310.473199 164.702714 
L 310.625999 163.313367 
L 310.727224 161.92402 
L 310.777645 160.534673 
L 310.777645 159.145327 
L 310.727224 157.75598 
L 310.625999 156.366633 
L 310.473199 154.977286 
L 310.367035 154.256172 
L 310.270889 153.58794 
L 310.019477 152.198593 
L 309.713561 150.809246 
L 309.350751 149.419899 
L 308.977688 148.19044 
L 308.929606 148.030553 
L 308.45786 146.641206 
L 307.920969 145.251859 
L 307.588342 144.480286 
L 307.32132 143.862513 
L 306.657158 142.473166 
L 306.198995 141.605226 
L 305.920492 141.083819 
L 305.110267 139.694472 
L 304.809648 139.218873 
L 304.219763 138.305126 
L 303.420302 137.16593 
L 303.239757 136.915779 
L 302.165064 135.526432 
L 302.030955 135.36334 
L 300.983886 134.137085 
L 300.641608 133.759725 
L 299.681444 132.747739 
L 299.252261 132.318556 
L 298.240275 131.358392 
L 297.862915 131.016114 
L 296.63666 129.969045 
L 296.473568 129.834936 
L 295.084221 128.760243 
L 294.83407 128.579698 
L 293.694874 127.780237 
L 292.781127 127.190352 
L 292.305528 126.889733 
L 290.916181 126.079508 
L 290.394774 125.801005 
L 289.526834 125.342842 
L 288.137487 124.67868 
L 287.519714 124.411658 
L 286.748141 124.079031 
L 285.358794 123.54214 
L 283.969447 123.070394 
L 283.80956 123.022312 
L 282.580101 122.649249 
L 281.190754 122.286439 
L 279.801407 121.980523 
L 278.41206 121.729111 
L 277.743828 121.632965 
L 277.022714 121.526801 
L 275.633367 121.374001 
L 274.24402 121.272776 
L 272.854673 121.222355 
L 271.465327 121.222355 
L 270.07598 121.272776 
L 268.686633 121.374001 
L 267.297286 121.526801 
L 266.576172 121.632965 
L 265.90794 121.729111 
L 264.518593 121.980523 
L 263.129246 122.286439 
L 261.739899 122.649249 
L 260.51044 123.022312 
L 260.350553 123.070394 
L 258.961206 123.54214 
L 257.571859 124.079031 
L 256.800286 124.411658 
L 256.182513 124.67868 
L 254.793166 125.342842 
L 253.925226 125.801005 
L 253.403819 126.079508 
L 252.014472 126.889733 
L 251.538873 127.190352 
L 250.625126 127.780237 
L 249.48593 128.579698 
L 249.235779 128.760243 
L 247.846432 129.834936 
L 247.68334 129.969045 
L 246.457085 131.016114 
L 246.079725 131.358392 
L 245.067739 132.318556 
L 244.638556 132.747739 
L 243.678392 133.759725 
L 243.336114 134.137085 
L 242.289045 135.36334 
L 242.154936 135.526432 
L 241.080243 136.915779 
L 240.899698 137.16593 
L 240.100237 138.305126 
L 239.510352 139.218873 
L 239.209733 139.694472 
L 238.399508 141.083819 
L 238.121005 141.605226 
L 237.662842 142.473166 
L 236.99868 143.862513 
L 236.731658 144.480286 
L 236.399031 145.251859 
L 235.86214 146.641206 
L 235.390394 148.030553 
L 235.342312 148.19044 
L 234.969249 149.419899 
L 234.606439 150.809246 
L 234.300523 152.198593 
L 234.049111 153.58794 
L 233.952965 154.256172 
L 233.846801 154.977286 
L 233.694001 156.366633 
L 233.592776 157.75598 
L 233.542355 159.145327 
L 233.542355 160.534673 
L 233.592776 161.92402 
L 233.694001 163.313367 
L 233.846801 164.702714 
L 233.952965 165.423828 
L 234.049111 166.09206 
L 234.300523 167.481407 
L 234.606439 168.870754 
L 234.969249 170.260101 
L 235.342312 171.48956 
L 235.390394 171.649447 
L 235.86214 173.038794 
L 236.399031 174.428141 
L 236.731658 175.199714 
L 236.99868 175.817487 
L 237.662842 177.206834 
L 238.121005 178.074774 
L 238.399508 178.596181 
L 239.209733 179.985528 
L 239.510352 180.461127 
L 240.100237 181.374874 
L 240.899698 182.51407 
L 241.080243 182.764221 
L 242.154936 184.153568 
L 242.289045 184.31666 
L 243.336114 185.542915 
L 243.678392 185.920275 
L 244.638556 186.932261 
L 245.067739 187.361444 
L 246.079725 188.321608 
L 246.457085 188.663886 
L 247.68334 189.710955 
L 247.846432 189.845064 
L 249.235779 190.919757 
L 249.48593 191.100302 
L 250.625126 191.899763 
L 251.538873 192.489648 
L 252.014472 192.790267 
L 253.403819 193.600492 
L 253.925226 193.878995 
L 254.793166 194.337158 
L 256.182513 195.00132 
L 256.800286 195.268342 
L 257.571859 195.600969 
L 258.961206 196.13786 
L 260.350553 196.609606 
L 260.51044 196.657688 
L 261.739899 197.030751 
L 263.129246 197.393561 
L 264.518593 197.699477 
L 265.90794 197.950889 
L 266.576172 198.047035 
L 267.297286 198.153199 
z
" clip-path="url(#p5ac5651fc1)" style="fill: none; stroke: #a62098; stroke-width: 1.5"/>
    <path d="M 263.129246 192.531613 
L 264.518593 192.886252 
L 265.90794 193.177707 
L 267.297286 193.408236 
L 268.686633 193.579612 
L 270.07598 193.693143 
L 271.465327 193.749693 
L 272.854673 193.749693 
L 274.24402 193.693143 
L 275.633367 193.579612 
L 277.022714 193.408236 
L 278.41206 193.177707 
L 279.801407 192.886252 
L 281.190754 192.531613 
L 281.331596 192.489648 
L 282.580101 192.117315 
L 283.969447 191.635591 
L 285.313601 191.100302 
L 285.358794 191.082116 
L 286.748141 190.45969 
L 288.137487 189.75662 
L 288.220164 189.710955 
L 289.526834 188.972781 
L 290.568233 188.321608 
L 290.916181 188.097445 
L 292.305528 187.124228 
L 292.559885 186.932261 
L 293.694874 186.040763 
L 294.283851 185.542915 
L 295.084221 184.833281 
L 295.803016 184.153568 
L 296.473568 183.483016 
L 297.153281 182.764221 
L 297.862915 181.963851 
L 298.360763 181.374874 
L 299.252261 180.239885 
L 299.444228 179.985528 
L 300.417445 178.596181 
L 300.641608 178.248233 
L 301.292781 177.206834 
L 302.030955 175.900164 
L 302.07662 175.817487 
L 302.77969 174.428141 
L 303.402116 173.038794 
L 303.420302 172.993601 
L 303.955591 171.649447 
L 304.437315 170.260101 
L 304.809648 169.011596 
L 304.851613 168.870754 
L 305.206252 167.481407 
L 305.497707 166.09206 
L 305.728236 164.702714 
L 305.899612 163.313367 
L 306.013143 161.92402 
L 306.069693 160.534673 
L 306.069693 159.145327 
L 306.013143 157.75598 
L 305.899612 156.366633 
L 305.728236 154.977286 
L 305.497707 153.58794 
L 305.206252 152.198593 
L 304.851613 150.809246 
L 304.809648 150.668404 
L 304.437315 149.419899 
L 303.955591 148.030553 
L 303.420302 146.686399 
L 303.402116 146.641206 
L 302.77969 145.251859 
L 302.07662 143.862513 
L 302.030955 143.779836 
L 301.292781 142.473166 
L 300.641608 141.431767 
L 300.417445 141.083819 
L 299.444228 139.694472 
L 299.252261 139.440115 
L 298.360763 138.305126 
L 297.862915 137.716149 
L 297.153281 136.915779 
L 296.473568 136.196984 
L 295.803016 135.526432 
L 295.084221 134.846719 
L 294.283851 134.137085 
L 293.694874 133.639237 
L 292.559885 132.747739 
L 292.305528 132.555772 
L 290.916181 131.582555 
L 290.568233 131.358392 
L 289.526834 130.707219 
L 288.220164 129.969045 
L 288.137487 129.92338 
L 286.748141 129.22031 
L 285.358794 128.597884 
L 285.313601 128.579698 
L 283.969447 128.044409 
L 282.580101 127.562685 
L 281.331596 127.190352 
L 281.190754 127.148387 
L 279.801407 126.793748 
L 278.41206 126.502293 
L 277.022714 126.271764 
L 275.633367 126.100388 
L 274.24402 125.986857 
L 272.854673 125.930307 
L 271.465327 125.930307 
L 270.07598 125.986857 
L 268.686633 126.100388 
L 267.297286 126.271764 
L 265.90794 126.502293 
L 264.518593 126.793748 
L 263.129246 127.148387 
L 262.988404 127.190352 
L 261.739899 127.562685 
L 260.350553 128.044409 
L 259.006399 128.579698 
L 258.961206 128.597884 
L 257.571859 129.22031 
L 256.182513 129.92338 
L 256.099836 129.969045 
L 254.793166 130.707219 
L 253.751767 131.358392 
L 253.403819 131.582555 
L 252.014472 132.555772 
L 251.760115 132.747739 
L 250.625126 133.639237 
L 250.036149 134.137085 
L 249.235779 134.846719 
L 248.516984 135.526432 
L 247.846432 136.196984 
L 247.166719 136.915779 
L 246.457085 137.716149 
L 245.959237 138.305126 
L 245.067739 139.440115 
L 244.875772 139.694472 
L 243.902555 141.083819 
L 243.678392 141.431767 
L 243.027219 142.473166 
L 242.289045 143.779836 
L 242.24338 143.862513 
L 241.54031 145.251859 
L 240.917884 146.641206 
L 240.899698 146.686399 
L 240.364409 148.030553 
L 239.882685 149.419899 
L 239.510352 150.668404 
L 239.468387 150.809246 
L 239.113748 152.198593 
L 238.822293 153.58794 
L 238.591764 154.977286 
L 238.420388 156.366633 
L 238.306857 157.75598 
L 238.250307 159.145327 
L 238.250307 160.534673 
L 238.306857 161.92402 
L 238.420388 163.313367 
L 238.591764 164.702714 
L 238.822293 166.09206 
L 239.113748 167.481407 
L 239.468387 168.870754 
L 239.510352 169.011596 
L 239.882685 170.260101 
L 240.364409 171.649447 
L 240.899698 172.993601 
L 240.917884 173.038794 
L 241.54031 174.428141 
L 242.24338 175.817487 
L 242.289045 175.900164 
L 243.027219 177.206834 
L 243.678392 178.248233 
L 243.902555 178.596181 
L 244.875772 179.985528 
L 245.067739 180.239885 
L 245.959237 181.374874 
L 246.457085 181.963851 
L 247.166719 182.764221 
L 247.846432 183.483016 
L 248.516984 184.153568 
L 249.235779 184.833281 
L 250.036149 185.542915 
L 250.625126 186.040763 
L 251.760115 186.932261 
L 252.014472 187.124228 
L 253.403819 188.097445 
L 253.751767 188.321608 
L 254.793166 188.972781 
L 256.099836 189.710955 
L 256.182513 189.75662 
L 257.571859 190.45969 
L 258.961206 191.082116 
L 259.006399 191.100302 
L 260.350553 191.635591 
L 261.739899 192.117315 
L 262.988404 192.489648 
L 263.129246 192.531613 
z
" clip-path="url(#p5ac5651fc1)" style="fill: none; stroke: #c03a83; stroke-width: 1.5"/>
    <path d="M 264.518593 188.355744 
L 265.90794 188.692826 
L 267.297286 188.959444 
L 268.686633 189.157647 
L 270.07598 189.288951 
L 271.465327 189.354355 
L 272.854673 189.354355 
L 274.24402 189.288951 
L 275.633367 189.157647 
L 277.022714 188.959444 
L 278.41206 188.692826 
L 279.801407 188.355744 
L 279.918654 188.321608 
L 281.190754 187.946701 
L 282.580101 187.461705 
L 283.883922 186.932261 
L 283.969447 186.89675 
L 285.358794 186.246128 
L 286.679894 185.542915 
L 286.748141 185.505383 
L 288.137487 184.662797 
L 288.895603 184.153568 
L 289.526834 183.710814 
L 290.75849 182.764221 
L 290.916181 182.636584 
L 292.305528 181.419398 
L 292.35296 181.374874 
L 293.694874 180.03296 
L 293.739398 179.985528 
L 294.956584 178.596181 
L 295.084221 178.43849 
L 296.030814 177.206834 
L 296.473568 176.575603 
L 296.982797 175.817487 
L 297.825383 174.428141 
L 297.862915 174.359894 
L 298.566128 173.038794 
L 299.21675 171.649447 
L 299.252261 171.563922 
L 299.781705 170.260101 
L 300.266701 168.870754 
L 300.641608 167.598654 
L 300.675744 167.481407 
L 301.012826 166.09206 
L 301.279444 164.702714 
L 301.477647 163.313367 
L 301.608951 161.92402 
L 301.674355 160.534673 
L 301.674355 159.145327 
L 301.608951 157.75598 
L 301.477647 156.366633 
L 301.279444 154.977286 
L 301.012826 153.58794 
L 300.675744 152.198593 
L 300.641608 152.081346 
L 300.266701 150.809246 
L 299.781705 149.419899 
L 299.252261 148.116078 
L 299.21675 148.030553 
L 298.566128 146.641206 
L 297.862915 145.320106 
L 297.825383 145.251859 
L 296.982797 143.862513 
L 296.473568 143.104397 
L 296.030814 142.473166 
L 295.084221 141.24151 
L 294.956584 141.083819 
L 293.739398 139.694472 
L 293.694874 139.64704 
L 292.35296 138.305126 
L 292.305528 138.260602 
L 290.916181 137.043416 
L 290.75849 136.915779 
L 289.526834 135.969186 
L 288.895603 135.526432 
L 288.137487 135.017203 
L 286.748141 134.174617 
L 286.679894 134.137085 
L 285.358794 133.433872 
L 283.969447 132.78325 
L 283.883922 132.747739 
L 282.580101 132.218295 
L 281.190754 131.733299 
L 279.918654 131.358392 
L 279.801407 131.324256 
L 278.41206 130.987174 
L 277.022714 130.720556 
L 275.633367 130.522353 
L 274.24402 130.391049 
L 272.854673 130.325645 
L 271.465327 130.325645 
L 270.07598 130.391049 
L 268.686633 130.522353 
L 267.297286 130.720556 
L 265.90794 130.987174 
L 264.518593 131.324256 
L 264.401346 131.358392 
L 263.129246 131.733299 
L 261.739899 132.218295 
L 260.436078 132.747739 
L 260.350553 132.78325 
L 258.961206 133.433872 
L 257.640106 134.137085 
L 257.571859 134.174617 
L 256.182513 135.017203 
L 255.424397 135.526432 
L 254.793166 135.969186 
L 253.56151 136.915779 
L 253.403819 137.043416 
L 252.014472 138.260602 
L 251.96704 138.305126 
L 250.625126 139.64704 
L 250.580602 139.694472 
L 249.363416 141.083819 
L 249.235779 141.24151 
L 248.289186 142.473166 
L 247.846432 143.104397 
L 247.337203 143.862513 
L 246.494617 145.251859 
L 246.457085 145.320106 
L 245.753872 146.641206 
L 245.10325 148.030553 
L 245.067739 148.116078 
L 244.538295 149.419899 
L 244.053299 150.809246 
L 243.678392 152.081346 
L 243.644256 152.198593 
L 243.307174 153.58794 
L 243.040556 154.977286 
L 242.842353 156.366633 
L 242.711049 157.75598 
L 242.645645 159.145327 
L 242.645645 160.534673 
L 242.711049 161.92402 
L 242.842353 163.313367 
L 243.040556 164.702714 
L 243.307174 166.09206 
L 243.644256 167.481407 
L 243.678392 167.598654 
L 244.053299 168.870754 
L 244.538295 170.260101 
L 245.067739 171.563922 
L 245.10325 171.649447 
L 245.753872 173.038794 
L 246.457085 174.359894 
L 246.494617 174.428141 
L 247.337203 175.817487 
L 247.846432 176.575603 
L 248.289186 177.206834 
L 249.235779 178.43849 
L 249.363416 178.596181 
L 250.580602 179.985528 
L 250.625126 180.03296 
L 251.96704 181.374874 
L 252.014472 181.419398 
L 253.403819 182.636584 
L 253.56151 182.764221 
L 254.793166 183.710814 
L 255.424397 184.153568 
L 256.182513 184.662797 
L 257.571859 185.505383 
L 257.640106 185.542915 
L 258.961206 186.246128 
L 260.350553 186.89675 
L 260.436078 186.932261 
L 261.739899 187.461705 
L 263.129246 187.946701 
L 264.401346 188.321608 
L 264.518593 188.355744 
z
" clip-path="url(#p5ac5651fc1)" style="fill: none; stroke: #d5546e; stroke-width: 1.5"/>
    <path d="M 265.90794 184.268441 
L 267.297286 184.581511 
L 268.686633 184.814246 
L 270.07598 184.968427 
L 271.465327 185.045226 
L 272.854673 185.045226 
L 274.24402 184.968427 
L 275.633367 184.814246 
L 277.022714 184.581511 
L 278.41206 184.268441 
L 278.818905 184.153568 
L 279.801407 183.868962 
L 281.190754 183.381055 
L 282.580101 182.802408 
L 282.660336 182.764221 
L 283.969447 182.116277 
L 285.275959 181.374874 
L 285.358794 181.32555 
L 286.748141 180.403917 
L 287.315813 179.985528 
L 288.137487 179.34238 
L 289.00587 178.596181 
L 289.526834 178.115901 
L 290.435901 177.206834 
L 290.916181 176.68587 
L 291.66238 175.817487 
L 292.305528 174.995813 
L 292.723917 174.428141 
L 293.64555 173.038794 
L 293.694874 172.955959 
L 294.436277 171.649447 
L 295.084221 170.340336 
L 295.122408 170.260101 
L 295.701055 168.870754 
L 296.188962 167.481407 
L 296.473568 166.498905 
L 296.588441 166.09206 
L 296.901511 164.702714 
L 297.134246 163.313367 
L 297.288427 161.92402 
L 297.365226 160.534673 
L 297.365226 159.145327 
L 297.288427 157.75598 
L 297.134246 156.366633 
L 296.901511 154.977286 
L 296.588441 153.58794 
L 296.473568 153.181095 
L 296.188962 152.198593 
L 295.701055 150.809246 
L 295.122408 149.419899 
L 295.084221 149.339664 
L 294.436277 148.030553 
L 293.694874 146.724041 
L 293.64555 146.641206 
L 292.723917 145.251859 
L 292.305528 144.684187 
L 291.66238 143.862513 
L 290.916181 142.99413 
L 290.435901 142.473166 
L 289.526834 141.564099 
L 289.00587 141.083819 
L 288.137487 140.33762 
L 287.315813 139.694472 
L 286.748141 139.276083 
L 285.358794 138.35445 
L 285.275959 138.305126 
L 283.969447 137.563723 
L 282.660336 136.915779 
L 282.580101 136.877592 
L 281.190754 136.298945 
L 279.801407 135.811038 
L 278.818905 135.526432 
L 278.41206 135.411559 
L 277.022714 135.098489 
L 275.633367 134.865754 
L 274.24402 134.711573 
L 272.854673 134.634774 
L 271.465327 134.634774 
L 270.07598 134.711573 
L 268.686633 134.865754 
L 267.297286 135.098489 
L 265.90794 135.411559 
L 265.501095 135.526432 
L 264.518593 135.811038 
L 263.129246 136.298945 
L 261.739899 136.877592 
L 261.659664 136.915779 
L 260.350553 137.563723 
L 259.044041 138.305126 
L 258.961206 138.35445 
L 257.571859 139.276083 
L 257.004187 139.694472 
L 256.182513 140.33762 
L 255.31413 141.083819 
L 254.793166 141.564099 
L 253.884099 142.473166 
L 253.403819 142.99413 
L 252.65762 143.862513 
L 252.014472 144.684187 
L 251.596083 145.251859 
L 250.67445 146.641206 
L 250.625126 146.724041 
L 249.883723 148.030553 
L 249.235779 149.339664 
L 249.197592 149.419899 
L 248.618945 150.809246 
L 248.131038 152.198593 
L 247.846432 153.181095 
L 247.731559 153.58794 
L 247.418489 154.977286 
L 247.185754 156.366633 
L 247.031573 157.75598 
L 246.954774 159.145327 
L 246.954774 160.534673 
L 247.031573 161.92402 
L 247.185754 163.313367 
L 247.418489 164.702714 
L 247.731559 166.09206 
L 247.846432 166.498905 
L 248.131038 167.481407 
L 248.618945 168.870754 
L 249.197592 170.260101 
L 249.235779 170.340336 
L 249.883723 171.649447 
L 250.625126 172.955959 
L 250.67445 173.038794 
L 251.596083 174.428141 
L 252.014472 174.995813 
L 252.65762 175.817487 
L 253.403819 176.68587 
L 253.884099 177.206834 
L 254.793166 178.115901 
L 255.31413 178.596181 
L 256.182513 179.34238 
L 257.004187 179.985528 
L 257.571859 180.403917 
L 258.961206 181.32555 
L 259.044041 181.374874 
L 260.350553 182.116277 
L 261.659664 182.764221 
L 261.739899 182.802408 
L 263.129246 183.381055 
L 264.518593 183.868962 
L 265.501095 184.153568 
L 265.90794 184.268441 
z
" clip-path="url(#p5ac5651fc1)" style="fill: none; stroke: #e76f5a; stroke-width: 1.5"/>
    <path d="M 267.297286 180.040032 
L 268.686633 180.321716 
L 270.07598 180.508323 
L 271.465327 180.601274 
L 272.854673 180.601274 
L 274.24402 180.508323 
L 275.633367 180.321716 
L 277.022714 180.040032 
L 277.224296 179.985528 
L 278.41206 179.65044 
L 279.801407 179.155616 
L 281.093692 178.596181 
L 281.190754 178.551779 
L 282.580101 177.808547 
L 283.551758 177.206834 
L 283.969447 176.929783 
L 285.358794 175.885361 
L 285.440038 175.817487 
L 286.748141 174.629811 
L 286.949811 174.428141 
L 288.137487 173.120038 
L 288.205361 173.038794 
L 289.249783 171.649447 
L 289.526834 171.231758 
L 290.128547 170.260101 
L 290.871779 168.870754 
L 290.916181 168.773692 
L 291.475616 167.481407 
L 291.97044 166.09206 
L 292.305528 164.904296 
L 292.360032 164.702714 
L 292.641716 163.313367 
L 292.828323 161.92402 
L 292.921274 160.534673 
L 292.921274 159.145327 
L 292.828323 157.75598 
L 292.641716 156.366633 
L 292.360032 154.977286 
L 292.305528 154.775704 
L 291.97044 153.58794 
L 291.475616 152.198593 
L 290.916181 150.906308 
L 290.871779 150.809246 
L 290.128547 149.419899 
L 289.526834 148.448242 
L 289.249783 148.030553 
L 288.205361 146.641206 
L 288.137487 146.559962 
L 286.949811 145.251859 
L 286.748141 145.050189 
L 285.440038 143.862513 
L 285.358794 143.794639 
L 283.969447 142.750217 
L 283.551758 142.473166 
L 282.580101 141.871453 
L 281.190754 141.128221 
L 281.093692 141.083819 
L 279.801407 140.524384 
L 278.41206 140.02956 
L 277.224296 139.694472 
L 277.022714 139.639968 
L 275.633367 139.358284 
L 274.24402 139.171677 
L 272.854673 139.078726 
L 271.465327 139.078726 
L 270.07598 139.171677 
L 268.686633 139.358284 
L 267.297286 139.639968 
L 267.095704 139.694472 
L 265.90794 140.02956 
L 264.518593 140.524384 
L 263.226308 141.083819 
L 263.129246 141.128221 
L 261.739899 141.871453 
L 260.768242 142.473166 
L 260.350553 142.750217 
L 258.961206 143.794639 
L 258.879962 143.862513 
L 257.571859 145.050189 
L 257.370189 145.251859 
L 256.182513 146.559962 
L 256.114639 146.641206 
L 255.070217 148.030553 
L 254.793166 148.448242 
L 254.191453 149.419899 
L 253.448221 150.809246 
L 253.403819 150.906308 
L 252.844384 152.198593 
L 252.34956 153.58794 
L 252.014472 154.775704 
L 251.959968 154.977286 
L 251.678284 156.366633 
L 251.491677 157.75598 
L 251.398726 159.145327 
L 251.398726 160.534673 
L 251.491677 161.92402 
L 251.678284 163.313367 
L 251.959968 164.702714 
L 252.014472 164.904296 
L 252.34956 166.09206 
L 252.844384 167.481407 
L 253.403819 168.773692 
L 253.448221 168.870754 
L 254.191453 170.260101 
L 254.793166 171.231758 
L 255.070217 171.649447 
L 256.114639 173.038794 
L 256.182513 173.120038 
L 257.370189 174.428141 
L 257.571859 174.629811 
L 258.879962 175.817487 
L 258.961206 175.885361 
L 260.350553 176.929783 
L 260.768242 177.206834 
L 261.739899 177.808547 
L 263.129246 178.551779 
L 263.226308 178.596181 
L 264.518593 179.155616 
L 265.90794 179.65044 
L 267.095704 179.985528 
L 267.297286 180.040032 
z
" clip-path="url(#p5ac5651fc1)" style="fill: none; stroke: #f68d45; stroke-width: 1.5"/>
    <path d="M 267.297286 174.929537 
L 268.686633 175.308501 
L 270.07598 175.559554 
L 271.465327 175.684605 
L 272.854673 175.684605 
L 274.24402 175.559554 
L 275.633367 175.308501 
L 277.022714 174.929537 
L 278.389459 174.428141 
L 278.41206 174.419169 
L 279.801407 173.728767 
L 280.945588 173.038794 
L 281.190754 172.87597 
L 282.580101 171.795198 
L 282.743864 171.649447 
L 283.969447 170.423864 
L 284.115198 170.260101 
L 285.19597 168.870754 
L 285.358794 168.625588 
L 286.048767 167.481407 
L 286.739169 166.09206 
L 286.748141 166.069459 
L 287.249537 164.702714 
L 287.628501 163.313367 
L 287.879554 161.92402 
L 288.004605 160.534673 
L 288.004605 159.145327 
L 287.879554 157.75598 
L 287.628501 156.366633 
L 287.249537 154.977286 
L 286.748141 153.610541 
L 286.739169 153.58794 
L 286.048767 152.198593 
L 285.358794 151.054412 
L 285.19597 150.809246 
L 284.115198 149.419899 
L 283.969447 149.256136 
L 282.743864 148.030553 
L 282.580101 147.884802 
L 281.190754 146.80403 
L 280.945588 146.641206 
L 279.801407 145.951233 
L 278.41206 145.260831 
L 278.389459 145.251859 
L 277.022714 144.750463 
L 275.633367 144.371499 
L 274.24402 144.120446 
L 272.854673 143.995395 
L 271.465327 143.995395 
L 270.07598 144.120446 
L 268.686633 144.371499 
L 267.297286 144.750463 
L 265.930541 145.251859 
L 265.90794 145.260831 
L 264.518593 145.951233 
L 263.374412 146.641206 
L 263.129246 146.80403 
L 261.739899 147.884802 
L 261.576136 148.030553 
L 260.350553 149.256136 
L 260.204802 149.419899 
L 259.12403 150.809246 
L 258.961206 151.054412 
L 258.271233 152.198593 
L 257.580831 153.58794 
L 257.571859 153.610541 
L 257.070463 154.977286 
L 256.691499 156.366633 
L 256.440446 157.75598 
L 256.315395 159.145327 
L 256.315395 160.534673 
L 256.440446 161.92402 
L 256.691499 163.313367 
L 257.070463 164.702714 
L 257.571859 166.069459 
L 257.580831 166.09206 
L 258.271233 167.481407 
L 258.961206 168.625588 
L 259.12403 168.870754 
L 260.204802 170.260101 
L 260.350553 170.423864 
L 261.576136 171.649447 
L 261.739899 171.795198 
L 263.129246 172.87597 
L 263.374412 173.038794 
L 264.518593 173.728767 
L 265.90794 174.419169 
L 265.930541 174.428141 
L 267.297286 174.929537 
z
" clip-path="url(#p5ac5651fc1)" style="fill: none; stroke: #fdae32; stroke-width: 1.5"/>
    <path d="M 270.07598 169.112829 
L 271.465327 169.312203 
L 272.854673 169.312203 
L 274.24402 169.112829 
L 275.08596 168.870754 
L 275.633367 168.689206 
L 277.022714 167.995783 
L 277.792336 167.481407 
L 278.41206 166.986254 
L 279.306254 166.09206 
L 279.801407 165.472336 
L 280.315783 164.702714 
L 281.009206 163.313367 
L 281.190754 162.76596 
L 281.432829 161.92402 
L 281.632203 160.534673 
L 281.632203 159.145327 
L 281.432829 157.75598 
L 281.190754 156.91404 
L 281.009206 156.366633 
L 280.315783 154.977286 
L 279.801407 154.207664 
L 279.306254 153.58794 
L 278.41206 152.693746 
L 277.792336 152.198593 
L 277.022714 151.684217 
L 275.633367 150.990794 
L 275.08596 150.809246 
L 274.24402 150.567171 
L 272.854673 150.367797 
L 271.465327 150.367797 
L 270.07598 150.567171 
L 269.23404 150.809246 
L 268.686633 150.990794 
L 267.297286 151.684217 
L 266.527664 152.198593 
L 265.90794 152.693746 
L 265.013746 153.58794 
L 264.518593 154.207664 
L 264.004217 154.977286 
L 263.310794 156.366633 
L 263.129246 156.91404 
L 262.887171 157.75598 
L 262.687797 159.145327 
L 262.687797 160.534673 
L 262.887171 161.92402 
L 263.129246 162.76596 
L 263.310794 163.313367 
L 264.004217 164.702714 
L 264.518593 165.472336 
L 265.013746 166.09206 
L 265.90794 166.986254 
L 266.527664 167.481407 
L 267.297286 167.995783 
L 268.686633 168.689206 
L 269.23404 168.870754 
L 270.07598 169.112829 
z
" clip-path="url(#p5ac5651fc1)" style="fill: none; stroke: #fcd225; stroke-width: 1.5"/>
    <path clip-path="url(#p5ac5651fc1)" style="fill: none; stroke: #f0f921; stroke-width: 1.5"/>
   </g>
   <g id="patch_3">
    <path d="M 133.92 298.08 
L 133.92 21.6 
" style="fill: none; stroke: #000000; stroke-width: 0.8; stroke-linejoin: miter; stroke-linecap: square"/>
   </g>
   <g id="patch_4">
    <path d="M 410.4 298.08 
L 410.4 21.6 
" style="fill: none; stroke: #000000; stroke-width: 0.8; stroke-linejoin: miter; stroke-linecap: square"/>
   </g>
   <g id="patch_5">
    <path d="M 133.92 298.08 
L 410.4 298.08 
" style="fill: none; stroke: #000000; stroke-width: 0.8; stroke-linejoin: miter; stroke-linecap: square"/>
   </g>
   <g id="patch_6">
    <path d="M 133.92 21.6 
L 410.4 21.6 
" style="fill: none; stroke: #000000; stroke-width: 0.8; stroke-linejoin: miter; stroke-linecap: square"/>
   </g>
  </g>
  <g id="axes_2">
   <g id="line2d_11">
    <path d="M 130.778182 298.08 
L 130.679536 259.178291 
L 130.449468 249.452864 
L 130.058806 242.506131 
L 129.492146 236.948744 
L 128.842022 232.780704 
L 127.928808 228.612663 
L 127.137903 225.83397 
L 126.174224 223.055276 
L 125.01397 220.276583 
L 123.633864 217.497889 
L 122.01233 214.719196 
L 120.130864 211.940503 
L 117.975554 209.161809 
L 115.538672 206.383116 
L 112.820266 203.604422 
L 109.829633 200.825729 
L 106.586553 198.047035 
L 101.319959 193.878995 
L 93.803193 188.321608 
L 84.368413 181.374874 
L 80.842251 178.596181 
L 77.58816 175.817487 
L 74.691409 173.038794 
L 72.231268 170.260101 
L 70.277419 167.481407 
L 69.508694 166.09206 
L 68.886688 164.702714 
L 68.416042 163.313367 
L 68.100292 161.92402 
L 67.941818 160.534673 
L 67.941818 159.145327 
L 68.100292 157.75598 
L 68.416042 156.366633 
L 68.886688 154.977286 
L 69.508694 153.58794 
L 70.277419 152.198593 
L 71.187169 150.809246 
L 73.402142 148.030553 
L 76.089979 145.251859 
L 79.17577 142.473166 
L 82.576785 139.694472 
L 88.079062 135.526432 
L 103.122178 124.411658 
L 108.237976 120.243618 
L 111.358 117.464925 
L 114.214311 114.686231 
L 116.792507 111.907538 
L 119.088087 109.128844 
L 121.105084 106.350151 
L 122.854521 103.571457 
L 124.352802 100.792764 
L 125.620148 98.01407 
L 126.679147 95.235377 
L 127.553472 92.456683 
L 128.570305 88.288643 
L 129.300501 84.120603 
L 129.811457 79.952563 
L 130.248266 74.395176 
L 130.542116 67.448442 
L 130.709853 57.723015 
L 130.775227 36.882814 
L 130.778182 21.6 
L 130.778182 21.6 
" clip-path="url(#pba0958faa5)" style="fill: none; stroke: #ff0000; stroke-width: 1.5; stroke-linecap: square"/>
   </g>
  </g>
  <g id="axes_3">
   <g id="line2d_12">
    <path d="M 133.92 301.221818 
L 172.821709 301.320464 
L 182.547136 301.550532 
L 189.493869 301.941194 
L 195.051256 302.507854 
L 199.219296 303.157978 
L 203.387337 304.071192 
L 206.16603 304.862097 
L 208.944724 305.825776 
L 211.723417 306.98603 
L 214.502111 308.366136 
L 217.280804 309.98767 
L 220.059497 311.869136 
L 222.838191 314.024446 
L 225.616884 316.461328 
L 228.395578 319.179734 
L 231.174271 322.170367 
L 233.952965 325.413447 
L 238.121005 330.680041 
L 243.678392 338.196807 
L 250.625126 347.631587 
L 253.403819 351.157749 
L 256.182513 354.41184 
L 258.961206 357.308591 
L 261.739899 359.768732 
L 264.518593 361.722581 
L 265.90794 362.491306 
L 267.297286 363.113312 
L 268.686633 363.583958 
L 270.07598 363.899708 
L 271.465327 364.058182 
L 272.854673 364.058182 
L 274.24402 363.899708 
L 275.633367 363.583958 
L 277.022714 363.113312 
L 278.41206 362.491306 
L 279.801407 361.722581 
L 281.190754 360.812831 
L 283.969447 358.597858 
L 286.748141 355.910021 
L 289.526834 352.82423 
L 292.305528 349.423215 
L 296.473568 343.920938 
L 307.588342 328.877822 
L 311.756382 323.762024 
L 314.535075 320.642 
L 317.313769 317.785689 
L 320.092462 315.207493 
L 322.871156 312.911913 
L 325.649849 310.894916 
L 328.428543 309.145479 
L 331.207236 307.647198 
L 333.98593 306.379852 
L 336.764623 305.320853 
L 339.543317 304.446528 
L 343.711357 303.429695 
L 347.879397 302.699499 
L 352.047437 302.188543 
L 357.604824 301.751734 
L 364.551558 301.457884 
L 374.276985 301.290147 
L 395.117186 301.224773 
L 410.4 301.221818 
L 410.4 301.221818 
" clip-path="url(#p030aeaf5a8)" style="fill: none; stroke: #0000ff; stroke-width: 1.5; stroke-linecap: square"/>
   </g>
  </g>
 </g>
 <defs>
  <clipPath id="p5ac5651fc1">
   <rect x="133.92" y="21.6" width="276.48" height="276.48"/>
  </clipPath>
  <clipPath id="pba0958faa5">
   <rect x="64.8" y="21.6" width="69.12" height="276.48"/>
  </clipPath>
  <clipPath id="p030aeaf5a8">
   <rect x="133.92" y="298.08" width="276.48" height="69.12"/>
  </clipPath>
 </defs>
</svg>
