<?xml version="1.0" encoding="UTF-8" standalone="no"?>
<svg
   width="432pt"
   height="432pt"
   viewBox="0 0 432 432"
   version="1.1"
   id="svg116"
   sodipodi:docname="shell_alg_step4.svg"
   inkscape:version="1.3.2 (091e20e, 2023-11-25)"
   xmlns:inkscape="http://www.inkscape.org/namespaces/inkscape"
   xmlns:sodipodi="http://sodipodi.sourceforge.net/DTD/sodipodi-0.dtd"
   xmlns:xlink="http://www.w3.org/1999/xlink"
   xmlns="http://www.w3.org/2000/svg"
   xmlns:svg="http://www.w3.org/2000/svg"
   xmlns:rdf="http://www.w3.org/1999/02/22-rdf-syntax-ns#"
   xmlns:cc="http://creativecommons.org/ns#"
   xmlns:dc="http://purl.org/dc/elements/1.1/">
  <sodipodi:namedview
     id="namedview116"
     pagecolor="#ffffff"
     bordercolor="#000000"
     borderopacity="0.25"
     inkscape:showpageshadow="2"
     inkscape:pageopacity="0.0"
     inkscape:pagecheckerboard="0"
     inkscape:deskcolor="#d1d1d1"
     inkscape:document-units="pt"
     inkscape:zoom="1.0968286"
     inkscape:cx="312.71977"
     inkscape:cy="289.92679"
     inkscape:window-width="1280"
     inkscape:window-height="837"
     inkscape:window-x="274"
     inkscape:window-y="171"
     inkscape:window-maximized="0"
     inkscape:current-layer="svg116" />
  <metadata
     id="metadata1">
    <rdf:RDF>
      <cc:Work>
        <dc:type
           rdf:resource="http://purl.org/dc/dcmitype/StillImage" />
        <dc:date>2025-07-11T15:25:36.018750</dc:date>
        <dc:format>image/svg+xml</dc:format>
        <dc:creator>
          <cc:Agent>
            <dc:title>Matplotlib v3.9.4, https://matplotlib.org/</dc:title>
          </cc:Agent>
        </dc:creator>
      </cc:Work>
    </rdf:RDF>
  </metadata>
  <defs
     id="defs1">
    <style
       type="text/css"
       id="style1">*{stroke-linejoin: round; stroke-linecap: butt}</style>
    <clipPath
       clipPathUnits="userSpaceOnUse"
       id="clipPath117">
      <rect
         style="fill:none;stroke-width:2"
         id="rect118"
         width="283.08893"
         height="232.48842"
         x="81.370964"
         y="97.781914" />
    </clipPath>
  </defs>
  <g
     id="figure_1"
     clip-path="url(#clipPath117)">
    <g
       id="patch_1">
      <path
         d="M 0 432  L 432 432  L 432 0  L 0 0  z "
         style="fill: #ffffff"
         id="path1" />
    </g>
    <g
       id="axes_1">
      <g
         id="patch_2">
        <path
           d="M 54 384.48  L 388.8 384.48  L 388.8 51.84  L 54 51.84  z "
           style="fill: #ffffff"
           id="path2" />
      </g>
      <g
         id="matplotlib.axis_1">
        <g
           id="xtick_1">
          <g
             id="line2d_1">
            <defs
               id="defs2">
              <path
                 id="mae1b16ba3e"
                 d="M 0 0  L 0 3.5  "
                 style="stroke: #000000; stroke-width: 0.8" />
            </defs>
            <g
               id="g2">
              <use
                 xlink:href="#mae1b16ba3e"
                 x="54"
                 y="384.48"
                 style="stroke: #000000; stroke-width: 0.8"
                 id="use2" />
            </g>
          </g>
          <g
             id="text_1">
            <!-- −10.0 -->
            <g
               transform="translate(38.677344 399.078438) scale(0.1 -0.1)"
               id="g7">
              <defs
                 id="defs3">
                <path
                   id="DejaVuSans-2212"
                   d="M 678 2272  L 4684 2272  L 4684 1741  L 678 1741  L 678 2272  z "
                   transform="scale(0.015625)" />
                <path
                   id="DejaVuSans-31"
                   d="M 794 531  L 1825 531  L 1825 4091  L 703 3866  L 703 4441  L 1819 4666  L 2450 4666  L 2450 531  L 3481 531  L 3481 0  L 794 0  L 794 531  z "
                   transform="scale(0.015625)" />
                <path
                   id="DejaVuSans-30"
                   d="M 2034 4250  Q 1547 4250 1301 3770  Q 1056 3291 1056 2328  Q 1056 1369 1301 889  Q 1547 409 2034 409  Q 2525 409 2770 889  Q 3016 1369 3016 2328  Q 3016 3291 2770 3770  Q 2525 4250 2034 4250  z M 2034 4750  Q 2819 4750 3233 4129  Q 3647 3509 3647 2328  Q 3647 1150 3233 529  Q 2819 -91 2034 -91  Q 1250 -91 836 529  Q 422 1150 422 2328  Q 422 3509 836 4129  Q 1250 4750 2034 4750  z "
                   transform="scale(0.015625)" />
                <path
                   id="DejaVuSans-2e"
                   d="M 684 794  L 1344 794  L 1344 0  L 684 0  L 684 794  z "
                   transform="scale(0.015625)" />
              </defs>
              <use
                 xlink:href="#DejaVuSans-2212"
                 id="use3" />
              <use
                 xlink:href="#DejaVuSans-31"
                 x="83.789062"
                 id="use4" />
              <use
                 xlink:href="#DejaVuSans-30"
                 x="147.412109"
                 id="use5" />
              <use
                 xlink:href="#DejaVuSans-2e"
                 x="211.035156"
                 id="use6" />
              <use
                 xlink:href="#DejaVuSans-30"
                 x="242.822266"
                 id="use7" />
            </g>
          </g>
        </g>
        <g
           id="xtick_2">
          <g
             id="line2d_2">
            <g
               id="g8">
              <use
                 xlink:href="#mae1b16ba3e"
                 x="92.045455"
                 y="384.48"
                 style="stroke: #000000; stroke-width: 0.8"
                 id="use8" />
            </g>
          </g>
          <g
             id="text_2">
            <!-- −7.5 -->
            <g
               transform="translate(79.904048 399.078438) scale(0.1 -0.1)"
               id="g12">
              <defs
                 id="defs8">
                <path
                   id="DejaVuSans-37"
                   d="M 525 4666  L 3525 4666  L 3525 4397  L 1831 0  L 1172 0  L 2766 4134  L 525 4134  L 525 4666  z "
                   transform="scale(0.015625)" />
                <path
                   id="DejaVuSans-35"
                   d="M 691 4666  L 3169 4666  L 3169 4134  L 1269 4134  L 1269 2991  Q 1406 3038 1543 3061  Q 1681 3084 1819 3084  Q 2600 3084 3056 2656  Q 3513 2228 3513 1497  Q 3513 744 3044 326  Q 2575 -91 1722 -91  Q 1428 -91 1123 -41  Q 819 9 494 109  L 494 744  Q 775 591 1075 516  Q 1375 441 1709 441  Q 2250 441 2565 725  Q 2881 1009 2881 1497  Q 2881 1984 2565 2268  Q 2250 2553 1709 2553  Q 1456 2553 1204 2497  Q 953 2441 691 2322  L 691 4666  z "
                   transform="scale(0.015625)" />
              </defs>
              <use
                 xlink:href="#DejaVuSans-2212"
                 id="use9" />
              <use
                 xlink:href="#DejaVuSans-37"
                 x="83.789062"
                 id="use10" />
              <use
                 xlink:href="#DejaVuSans-2e"
                 x="147.412109"
                 id="use11" />
              <use
                 xlink:href="#DejaVuSans-35"
                 x="179.199219"
                 id="use12" />
            </g>
          </g>
        </g>
        <g
           id="xtick_3">
          <g
             id="line2d_3">
            <g
               id="g13">
              <use
                 xlink:href="#mae1b16ba3e"
                 x="130.090909"
                 y="384.48"
                 style="stroke: #000000; stroke-width: 0.8"
                 id="use13" />
            </g>
          </g>
          <g
             id="text_3">
            <!-- −5.0 -->
            <g
               transform="translate(117.949503 399.078438) scale(0.1 -0.1)"
               id="g17">
              <use
                 xlink:href="#DejaVuSans-2212"
                 id="use14" />
              <use
                 xlink:href="#DejaVuSans-35"
                 x="83.789062"
                 id="use15" />
              <use
                 xlink:href="#DejaVuSans-2e"
                 x="147.412109"
                 id="use16" />
              <use
                 xlink:href="#DejaVuSans-30"
                 x="179.199219"
                 id="use17" />
            </g>
          </g>
        </g>
        <g
           id="xtick_4">
          <g
             id="line2d_4">
            <g
               id="g18">
              <use
                 xlink:href="#mae1b16ba3e"
                 x="168.136364"
                 y="384.48"
                 style="stroke: #000000; stroke-width: 0.8"
                 id="use18" />
            </g>
          </g>
          <g
             id="text_4">
            <!-- −2.5 -->
            <g
               transform="translate(155.994957 399.078438) scale(0.1 -0.1)"
               id="g22">
              <defs
                 id="defs18">
                <path
                   id="DejaVuSans-32"
                   d="M 1228 531  L 3431 531  L 3431 0  L 469 0  L 469 531  Q 828 903 1448 1529  Q 2069 2156 2228 2338  Q 2531 2678 2651 2914  Q 2772 3150 2772 3378  Q 2772 3750 2511 3984  Q 2250 4219 1831 4219  Q 1534 4219 1204 4116  Q 875 4013 500 3803  L 500 4441  Q 881 4594 1212 4672  Q 1544 4750 1819 4750  Q 2544 4750 2975 4387  Q 3406 4025 3406 3419  Q 3406 3131 3298 2873  Q 3191 2616 2906 2266  Q 2828 2175 2409 1742  Q 1991 1309 1228 531  z "
                   transform="scale(0.015625)" />
              </defs>
              <use
                 xlink:href="#DejaVuSans-2212"
                 id="use19" />
              <use
                 xlink:href="#DejaVuSans-32"
                 x="83.789062"
                 id="use20" />
              <use
                 xlink:href="#DejaVuSans-2e"
                 x="147.412109"
                 id="use21" />
              <use
                 xlink:href="#DejaVuSans-35"
                 x="179.199219"
                 id="use22" />
            </g>
          </g>
        </g>
        <g
           id="xtick_5">
          <g
             id="line2d_5">
            <g
               id="g23">
              <use
                 xlink:href="#mae1b16ba3e"
                 x="206.181818"
                 y="384.48"
                 style="stroke: #000000; stroke-width: 0.8"
                 id="use23" />
            </g>
          </g>
          <g
             id="text_5">
            <!-- 0.0 -->
            <g
               transform="translate(198.230256 399.078438) scale(0.1 -0.1)"
               id="g26">
              <use
                 xlink:href="#DejaVuSans-30"
                 id="use24" />
              <use
                 xlink:href="#DejaVuSans-2e"
                 x="63.623047"
                 id="use25" />
              <use
                 xlink:href="#DejaVuSans-30"
                 x="95.410156"
                 id="use26" />
            </g>
          </g>
        </g>
        <g
           id="xtick_6">
          <g
             id="line2d_6">
            <g
               id="g27">
              <use
                 xlink:href="#mae1b16ba3e"
                 x="244.227273"
                 y="384.48"
                 style="stroke: #000000; stroke-width: 0.8"
                 id="use27" />
            </g>
          </g>
          <g
             id="text_6">
            <!-- 2.5 -->
            <g
               transform="translate(236.27571 399.078438) scale(0.1 -0.1)"
               id="g30">
              <use
                 xlink:href="#DejaVuSans-32"
                 id="use28" />
              <use
                 xlink:href="#DejaVuSans-2e"
                 x="63.623047"
                 id="use29" />
              <use
                 xlink:href="#DejaVuSans-35"
                 x="95.410156"
                 id="use30" />
            </g>
          </g>
        </g>
        <g
           id="xtick_7">
          <g
             id="line2d_7">
            <g
               id="g31">
              <use
                 xlink:href="#mae1b16ba3e"
                 x="282.272727"
                 y="384.48"
                 style="stroke: #000000; stroke-width: 0.8"
                 id="use31" />
            </g>
          </g>
          <g
             id="text_7">
            <!-- 5.0 -->
            <g
               transform="translate(274.321165 399.078438) scale(0.1 -0.1)"
               id="g34">
              <use
                 xlink:href="#DejaVuSans-35"
                 id="use32" />
              <use
                 xlink:href="#DejaVuSans-2e"
                 x="63.623047"
                 id="use33" />
              <use
                 xlink:href="#DejaVuSans-30"
                 x="95.410156"
                 id="use34" />
            </g>
          </g>
        </g>
        <g
           id="xtick_8">
          <g
             id="line2d_8">
            <g
               id="g35">
              <use
                 xlink:href="#mae1b16ba3e"
                 x="320.318182"
                 y="384.48"
                 style="stroke: #000000; stroke-width: 0.8"
                 id="use35" />
            </g>
          </g>
          <g
             id="text_8">
            <!-- 7.5 -->
            <g
               transform="translate(312.366619 399.078438) scale(0.1 -0.1)"
               id="g38">
              <use
                 xlink:href="#DejaVuSans-37"
                 id="use36" />
              <use
                 xlink:href="#DejaVuSans-2e"
                 x="63.623047"
                 id="use37" />
              <use
                 xlink:href="#DejaVuSans-35"
                 x="95.410156"
                 id="use38" />
            </g>
          </g>
        </g>
        <g
           id="xtick_9">
          <g
             id="line2d_9">
            <g
               id="g39">
              <use
                 xlink:href="#mae1b16ba3e"
                 x="358.363636"
                 y="384.48"
                 style="stroke: #000000; stroke-width: 0.8"
                 id="use39" />
            </g>
          </g>
          <g
             id="text_9">
            <!-- 10.0 -->
            <g
               transform="translate(347.230824 399.078438) scale(0.1 -0.1)"
               id="g43">
              <use
                 xlink:href="#DejaVuSans-31"
                 id="use40" />
              <use
                 xlink:href="#DejaVuSans-30"
                 x="63.623047"
                 id="use41" />
              <use
                 xlink:href="#DejaVuSans-2e"
                 x="127.246094"
                 id="use42" />
              <use
                 xlink:href="#DejaVuSans-30"
                 x="159.033203"
                 id="use43" />
            </g>
          </g>
        </g>
        <g
           id="text_10">
          <!-- x -->
          <g
             transform="translate(218.440625 412.756563) scale(0.1 -0.1)"
             id="g44">
            <defs
               id="defs43">
              <path
                 id="DejaVuSans-78"
                 d="M 3513 3500  L 2247 1797  L 3578 0  L 2900 0  L 1881 1375  L 863 0  L 184 0  L 1544 1831  L 300 3500  L 978 3500  L 1906 2253  L 2834 3500  L 3513 3500  z "
                 transform="scale(0.015625)" />
            </defs>
            <use
               xlink:href="#DejaVuSans-78"
               id="use44" />
          </g>
        </g>
      </g>
      <g
         id="matplotlib.axis_2">
        <g
           id="ytick_1">
          <g
             id="line2d_10">
            <defs
               id="defs44">
              <path
                 id="m0154e1aa3c"
                 d="M 0 0  L -3.5 0  "
                 style="stroke: #000000; stroke-width: 0.8" />
            </defs>
            <g
               id="g45">
              <use
                 xlink:href="#m0154e1aa3c"
                 x="54"
                 y="384.48"
                 style="stroke: #000000; stroke-width: 0.8"
                 id="use45" />
            </g>
          </g>
          <g
             id="text_11">
            <!-- −10.0 -->
            <g
               transform="translate(16.354687 388.279219) scale(0.1 -0.1)"
               id="g50">
              <use
                 xlink:href="#DejaVuSans-2212"
                 id="use46" />
              <use
                 xlink:href="#DejaVuSans-31"
                 x="83.789062"
                 id="use47" />
              <use
                 xlink:href="#DejaVuSans-30"
                 x="147.412109"
                 id="use48" />
              <use
                 xlink:href="#DejaVuSans-2e"
                 x="211.035156"
                 id="use49" />
              <use
                 xlink:href="#DejaVuSans-30"
                 x="242.822266"
                 id="use50" />
            </g>
          </g>
        </g>
        <g
           id="ytick_2">
          <g
             id="line2d_11">
            <g
               id="g51">
              <use
                 xlink:href="#m0154e1aa3c"
                 x="54"
                 y="342.9"
                 style="stroke: #000000; stroke-width: 0.8"
                 id="use51" />
            </g>
          </g>
          <g
             id="text_12">
            <!-- −7.5 -->
            <g
               transform="translate(22.717187 346.699219) scale(0.1 -0.1)"
               id="g55">
              <use
                 xlink:href="#DejaVuSans-2212"
                 id="use52" />
              <use
                 xlink:href="#DejaVuSans-37"
                 x="83.789062"
                 id="use53" />
              <use
                 xlink:href="#DejaVuSans-2e"
                 x="147.412109"
                 id="use54" />
              <use
                 xlink:href="#DejaVuSans-35"
                 x="179.199219"
                 id="use55" />
            </g>
          </g>
        </g>
        <g
           id="ytick_3">
          <g
             id="line2d_12">
            <g
               id="g56">
              <use
                 xlink:href="#m0154e1aa3c"
                 x="54"
                 y="301.32"
                 style="stroke: #000000; stroke-width: 0.8"
                 id="use56" />
            </g>
          </g>
          <g
             id="text_13">
            <!-- −5.0 -->
            <g
               transform="translate(22.717187 305.119219) scale(0.1 -0.1)"
               id="g60">
              <use
                 xlink:href="#DejaVuSans-2212"
                 id="use57" />
              <use
                 xlink:href="#DejaVuSans-35"
                 x="83.789062"
                 id="use58" />
              <use
                 xlink:href="#DejaVuSans-2e"
                 x="147.412109"
                 id="use59" />
              <use
                 xlink:href="#DejaVuSans-30"
                 x="179.199219"
                 id="use60" />
            </g>
          </g>
        </g>
        <g
           id="ytick_4">
          <g
             id="line2d_13">
            <g
               id="g61">
              <use
                 xlink:href="#m0154e1aa3c"
                 x="54"
                 y="259.74"
                 style="stroke: #000000; stroke-width: 0.8"
                 id="use61" />
            </g>
          </g>
          <g
             id="text_14">
            <!-- −2.5 -->
            <g
               transform="translate(22.717187 263.539219) scale(0.1 -0.1)"
               id="g65">
              <use
                 xlink:href="#DejaVuSans-2212"
                 id="use62" />
              <use
                 xlink:href="#DejaVuSans-32"
                 x="83.789062"
                 id="use63" />
              <use
                 xlink:href="#DejaVuSans-2e"
                 x="147.412109"
                 id="use64" />
              <use
                 xlink:href="#DejaVuSans-35"
                 x="179.199219"
                 id="use65" />
            </g>
          </g>
        </g>
        <g
           id="ytick_5">
          <g
             id="line2d_14">
            <g
               id="g66">
              <use
                 xlink:href="#m0154e1aa3c"
                 x="54"
                 y="218.16"
                 style="stroke: #000000; stroke-width: 0.8"
                 id="use66" />
            </g>
          </g>
          <g
             id="text_15">
            <!-- 0.0 -->
            <g
               transform="translate(31.096875 221.959219) scale(0.1 -0.1)"
               id="g69">
              <use
                 xlink:href="#DejaVuSans-30"
                 id="use67" />
              <use
                 xlink:href="#DejaVuSans-2e"
                 x="63.623047"
                 id="use68" />
              <use
                 xlink:href="#DejaVuSans-30"
                 x="95.410156"
                 id="use69" />
            </g>
          </g>
        </g>
        <g
           id="ytick_6">
          <g
             id="line2d_15">
            <g
               id="g70">
              <use
                 xlink:href="#m0154e1aa3c"
                 x="54"
                 y="176.58"
                 style="stroke: #000000; stroke-width: 0.8"
                 id="use70" />
            </g>
          </g>
          <g
             id="text_16">
            <!-- 2.5 -->
            <g
               transform="translate(31.096875 180.379219) scale(0.1 -0.1)"
               id="g73">
              <use
                 xlink:href="#DejaVuSans-32"
                 id="use71" />
              <use
                 xlink:href="#DejaVuSans-2e"
                 x="63.623047"
                 id="use72" />
              <use
                 xlink:href="#DejaVuSans-35"
                 x="95.410156"
                 id="use73" />
            </g>
          </g>
        </g>
        <g
           id="ytick_7">
          <g
             id="line2d_16">
            <g
               id="g74">
              <use
                 xlink:href="#m0154e1aa3c"
                 x="54"
                 y="135"
                 style="stroke: #000000; stroke-width: 0.8"
                 id="use74" />
            </g>
          </g>
          <g
             id="text_17">
            <!-- 5.0 -->
            <g
               transform="translate(31.096875 138.799219) scale(0.1 -0.1)"
               id="g77">
              <use
                 xlink:href="#DejaVuSans-35"
                 id="use75" />
              <use
                 xlink:href="#DejaVuSans-2e"
                 x="63.623047"
                 id="use76" />
              <use
                 xlink:href="#DejaVuSans-30"
                 x="95.410156"
                 id="use77" />
            </g>
          </g>
        </g>
        <g
           id="ytick_8">
          <g
             id="line2d_17">
            <g
               id="g78">
              <use
                 xlink:href="#m0154e1aa3c"
                 x="54"
                 y="93.42"
                 style="stroke: #000000; stroke-width: 0.8"
                 id="use78" />
            </g>
          </g>
          <g
             id="text_18">
            <!-- 7.5 -->
            <g
               transform="translate(31.096875 97.219219) scale(0.1 -0.1)"
               id="g81">
              <use
                 xlink:href="#DejaVuSans-37"
                 id="use79" />
              <use
                 xlink:href="#DejaVuSans-2e"
                 x="63.623047"
                 id="use80" />
              <use
                 xlink:href="#DejaVuSans-35"
                 x="95.410156"
                 id="use81" />
            </g>
          </g>
        </g>
        <g
           id="ytick_9">
          <g
             id="line2d_18">
            <g
               id="g82">
              <use
                 xlink:href="#m0154e1aa3c"
                 x="54"
                 y="51.84"
                 style="stroke: #000000; stroke-width: 0.8"
                 id="use82" />
            </g>
          </g>
          <g
             id="text_19">
            <!-- 10.0 -->
            <g
               transform="translate(24.734375 55.639219) scale(0.1 -0.1)"
               id="g86">
              <use
                 xlink:href="#DejaVuSans-31"
                 id="use83" />
              <use
                 xlink:href="#DejaVuSans-30"
                 x="63.623047"
                 id="use84" />
              <use
                 xlink:href="#DejaVuSans-2e"
                 x="127.246094"
                 id="use85" />
              <use
                 xlink:href="#DejaVuSans-30"
                 x="159.033203"
                 id="use86" />
            </g>
          </g>
        </g>
        <g
           id="text_20">
          <!-- y -->
          <g
             transform="translate(10.275 221.119375) rotate(-90) scale(0.1 -0.1)"
             id="g87">
            <defs
               id="defs86">
              <path
                 id="DejaVuSans-79"
                 d="M 2059 -325  Q 1816 -950 1584 -1140  Q 1353 -1331 966 -1331  L 506 -1331  L 506 -850  L 844 -850  Q 1081 -850 1212 -737  Q 1344 -625 1503 -206  L 1606 56  L 191 3500  L 800 3500  L 1894 763  L 2988 3500  L 3597 3500  L 2059 -325  z "
                 transform="scale(0.015625)" />
            </defs>
            <use
               xlink:href="#DejaVuSans-79"
               id="use87" />
          </g>
        </g>
      </g>
      <g
         id="QuadContourSet_1">
        <path
           clip-path="url(#p318f376ae9)"
           style="fill: none; stroke: #008000; stroke-width: 1.5"
           id="path87" />
        <path
           d="M 272.713568 304.312863  L 274.39598 304.485629  L 276.078392 304.622419  L 277.760804 304.724949  L 279.443216 304.79449  L 281.125628 304.831901  L 282.80804 304.837641  L 284.490452 304.811779  L 286.172864 304.753999  L 287.855276 304.663591  L 289.537688 304.539433  L 291.220101 304.379977  L 292.380816 304.245226  L 292.902513 304.193024  L 294.584925 303.993868  L 296.267337 303.758589  L 297.949749 303.484067  L 299.632161 303.166582  L 301.314573 302.801738  L 302.253914 302.573668  L 302.996985 302.41234  L 304.679397 302.006701  L 306.361809 301.545025  L 308.044221 301.020191  L 308.394904 300.902111  L 309.726633 300.4894  L 311.409045 299.904637  L 313.091457 299.239799  L 313.113635 299.230553  L 314.773869 298.577332  L 316.456281 297.823841  L 317.005392 297.558995  L 318.138693 297.03205  L 319.821106 296.161533  L 320.315403 295.887437  L 321.503518 295.238417  L 323.17865 294.215879  L 323.18593 294.211422  L 324.868342 293.135399  L 325.713839 292.544322  L 326.550754 291.944063  L 327.938235 290.872764  L 328.233166 290.634611  L 329.90798 289.201206  L 329.915578 289.194268  L 331.59799 287.598635  L 331.668094 287.529648  L 333.227188 285.85809  L 333.280402 285.794837  L 334.617244 284.186533  L 334.962814 283.712181  L 335.837779 282.514975  L 336.645226 281.220963  L 336.885173 280.843417  L 337.805113 279.171859  L 338.327638 278.01309  L 338.569164 277.500302  L 339.219523 275.828744  L 339.719533 274.157186  L 340.01005 272.838327  L 340.094113 272.485628  L 340.365602 270.81407  L 340.508415 269.142513  L 340.52692 267.470955  L 340.421683 265.799397  L 340.189489 264.127839  L 340.01005 263.29698  L 339.842754 262.456281  L 339.384482 260.784724  L 338.781226 259.113166  L 338.327638 258.102277  L 338.044688 257.441608  L 337.18186 255.77005  L 336.645226 254.894722  L 336.167412 254.098492  L 334.986048 252.426935  L 334.962814 252.397301  L 333.670512 250.755377  L 333.280402 250.314802  L 332.169395 249.083819  L 331.59799 248.508141  L 330.472171 247.412261  L 329.915578 246.909004  L 328.557504 245.740704  L 328.233166 245.476233  L 326.550754 244.17841  L 326.401872 244.069146  L 324.868342 242.977029  L 323.981287 242.397588  L 323.18593 241.883915  L 321.503518 240.88654  L 321.215591 240.72603  L 319.821106 239.940157  L 318.138693 239.098591  L 318.045612 239.054472  L 316.456281 238.27617  L 314.773869 237.550652  L 314.355246 237.382915  L 313.091457 236.848422  L 311.409045 236.210761  L 309.922533 235.711357  L 309.726633 235.640411  L 308.044221 235.070625  L 306.361809 234.569162  L 304.679397 234.128046  L 304.311559 234.039799  L 302.996985 233.689856  L 301.314573 233.292548  L 299.632161 232.945252  L 297.949749 232.643039  L 296.267337 232.381721  L 296.169067 232.368241  L 294.584925 232.119099  L 292.902513 231.894703  L 291.220101 231.708085  L 289.537688 231.556856  L 287.855276 231.439105  L 286.172864 231.35336  L 284.490452 231.298562  L 282.80804 231.274034  L 281.125628 231.279478  L 279.443216 231.314959  L 277.760804 231.380912  L 276.078392 231.478152  L 274.39598 231.607884  L 272.713568 231.771737  L 271.031156 231.971789  L 269.348744 232.210618  L 268.390349 232.368241  L 267.666332 232.47225  L 265.98392 232.747998  L 264.301508 233.066083  L 262.619095 233.430952  L 260.936683 233.847833  L 260.234935 234.039799  L 259.254271 234.281922  L 257.571859 234.744138  L 255.889447 235.269455  L 254.62287 235.711357  L 254.207035 235.845597  L 252.524623 236.433202  L 250.842211 237.101467  L 250.188876 237.382915  L 249.159799 237.803538  L 247.477387 238.564593  L 246.493487 239.054472  L 245.794975 239.39159  L 244.112563 240.275536  L 243.325154 240.72603  L 242.430151 241.233297  L 240.747739 242.282563  L 240.572081 242.397588  L 239.065327 243.397002  L 238.133945 244.069146  L 237.382915 244.628512  L 235.988801 245.740704  L 235.700503 245.982722  L 234.08581 247.412261  L 234.01809 247.476639  L 232.390124 249.083819  L 232.335678 249.142779  L 230.879537 250.755377  L 230.653266 251.036555  L 229.542346 252.426935  L 228.970854 253.249447  L 228.376148 254.098492  L 227.377767 255.77005  L 227.288442 255.943596  L 226.491295 257.441608  L 225.773585 259.113166  L 225.60603 259.59309  L 225.164937 260.784724  L 224.688127 262.456281  L 224.346917 264.127839  L 224.13063 265.799397  L 224.032602 267.470955  L 224.04984 269.142513  L 224.182869 270.81407  L 224.435759 272.485628  L 224.816333 274.157186  L 225.33657 275.828744  L 225.60603 276.515329  L 225.971741 277.500302  L 226.740112 279.171859  L 227.288442 280.160535  L 227.65588 280.843417  L 228.717873 282.514975  L 228.970854 282.864829  L 229.921781 284.186533  L 230.653266 285.076293  L 231.302559 285.85809  L 232.335678 286.973088  L 232.864654 287.529648  L 234.01809 288.641891  L 234.622265 289.201206  L 235.700503 290.135409  L 236.600754 290.872764  L 237.382915 291.484428  L 238.839056 292.544322  L 239.065327 292.704616  L 240.747739 293.837613  L 241.355808 294.215879  L 242.430151 294.881209  L 244.112563 295.822068  L 244.235825 295.887437  L 245.794975 296.728971  L 247.477387 297.528265  L 247.545651 297.558995  L 249.159799 298.314696  L 250.842211 299.008027  L 251.428348 299.230553  L 252.524623 299.672715  L 254.207035 300.285363  L 255.889447 300.824432  L 256.150948 300.902111  L 257.571859 301.361895  L 259.254271 301.845653  L 260.936683 302.270914  L 262.288521 302.573668  L 262.619095 302.65634  L 264.301508 303.039646  L 265.98392 303.373805  L 267.666332 303.663486  L 269.348744 303.912644  L 271.031156 304.124609  L 272.164824 304.245226  L 272.713568 304.312863  z "
           clip-path="url(#p318f376ae9)"
           style="fill: none; stroke: #008000; stroke-width: 1.5"
           id="path88" />
        <path
           d="M 267.666332 297.767753  L 269.348744 298.088056  L 271.031156 298.360545  L 272.713568 298.588792  L 274.39598 298.775737  L 276.078392 298.923754  L 277.760804 299.034698  L 279.443216 299.109947  L 281.125628 299.150428  L 282.80804 299.156639  L 284.490452 299.128655  L 286.172864 299.066133  L 287.855276 298.968304  L 289.537688 298.833957  L 291.220101 298.661414  L 292.902513 298.448495  L 294.584925 298.192473  L 296.267337 297.890013  L 297.848849 297.558995  L 297.949749 297.539607  L 299.632161 297.178148  L 301.314573 296.762768  L 302.996985 296.287571  L 304.25593 295.887437  L 304.679397 295.760142  L 306.361809 295.206458  L 308.044221 294.577026  L 308.920867 294.215879  L 309.726633 293.893608  L 311.409045 293.153847  L 312.65227 292.544322  L 313.091457 292.330495  L 314.773869 291.446585  L 315.765532 290.872764  L 316.456281 290.466507  L 318.138693 289.38898  L 318.415085 289.201206  L 319.821106 288.206694  L 320.707676 287.529648  L 321.503518 286.883484  L 322.692233 285.85809  L 323.18593 285.395129  L 324.41853 284.186533  L 324.868342 283.695456  L 325.918916 282.514975  L 326.550754 281.703512  L 327.211717 280.843417  L 328.233166 279.278984  L 328.303279 279.171859  L 329.244798 277.500302  L 329.915578 276.002508  L 329.995607 275.828744  L 330.615803 274.157186  L 331.069501 272.485628  L 331.370982 270.81407  L 331.529572 269.142513  L 331.550122 267.470955  L 331.433259 265.799397  L 331.175414 264.127839  L 330.768643 262.456281  L 330.200217 260.784724  L 329.915578 260.12945  L 329.487607 259.113166  L 328.608165 257.441608  L 328.233166 256.844459  L 327.562127 255.77005  L 326.550754 254.40572  L 326.320693 254.098492  L 324.880772 252.426935  L 324.868342 252.413915  L 323.227065 250.755377  L 323.18593 250.717514  L 321.503518 249.231844  L 321.326383 249.083819  L 319.821106 247.906933  L 319.140071 247.412261  L 318.138693 246.717097  L 316.599921 245.740704  L 316.456281 245.651813  L 314.773869 244.665571  L 313.642634 244.069146  L 313.091457 243.778998  L 311.409045 242.959044  L 310.119535 242.397588  L 309.726633 242.222847  L 308.044221 241.52858  L 306.361809 240.917564  L 305.783823 240.72603  L 304.679397 240.342228  L 302.996985 239.818311  L 301.314573 239.358917  L 300.052809 239.054472  L 299.632161 238.945249  L 297.949749 238.552262  L 296.267337 238.212454  L 294.584925 237.921223  L 292.902513 237.674706  L 291.220101 237.469691  L 290.349589 237.382915  L 289.537688 237.292474  L 287.855276 237.145056  L 286.172864 237.037708  L 284.490452 236.969102  L 282.80804 236.938395  L 281.125628 236.94521  L 279.443216 236.989631  L 277.760804 237.072202  L 276.078392 237.193941  L 274.39598 237.356359  L 274.174154 237.382915  L 272.713568 237.539617  L 271.031156 237.759391  L 269.348744 238.021764  L 267.666332 238.330175  L 265.98392 238.688746  L 264.489307 239.054472  L 264.301508 239.097065  L 262.619095 239.518949  L 260.936683 240.000974  L 259.254271 240.550234  L 258.761012 240.72603  L 257.571859 241.130766  L 255.889447 241.770848  L 254.426692 242.397588  L 254.207035 242.489488  L 252.524623 243.245076  L 250.906465 244.069146  L 250.842211 244.101834  L 249.159799 245.009334  L 247.942265 245.740704  L 247.477387 246.026289  L 245.794975 247.139028  L 245.407555 247.412261  L 244.112563 248.369278  L 243.212321 249.083819  L 242.430151 249.748367  L 241.308758 250.755377  L 240.747739 251.307032  L 239.652932 252.426935  L 239.065327 253.101454  L 238.21714 254.098492  L 237.382915 255.229076  L 236.986969 255.77005  L 235.940519 257.441608  L 235.700503 257.900374  L 235.054782 259.113166  L 234.344105 260.784724  L 234.01809 261.778517  L 233.785968 262.456281  L 233.366638 264.127839  L 233.100832 265.799397  L 232.98036 267.470955  L 233.001545 269.142513  L 233.165031 270.81407  L 233.47582 272.485628  L 233.943526 274.157186  L 234.01809 274.359468  L 234.538438 275.828744  L 235.304605 277.500302  L 235.700503 278.208665  L 236.231079 279.171859  L 237.346796 280.843417  L 237.382915 280.891021  L 238.628889 282.514975  L 239.065327 283.011924  L 240.124898 284.186533  L 240.747739 284.805741  L 241.852245 285.85809  L 242.430151 286.363838  L 243.842423 287.529648  L 244.112563 287.73908  L 245.794975 288.971553  L 246.129848 289.201206  L 247.477387 290.091127  L 248.781462 290.872764  L 249.159799 291.095541  L 250.842211 292.022261  L 251.892258 292.544322  L 252.524623 292.860452  L 254.207035 293.635489  L 255.624496 294.215879  L 255.889447 294.327457  L 257.571859 294.98683  L 259.254271 295.566998  L 260.290081 295.887437  L 260.936683 296.098623  L 262.619095 296.597231  L 264.301508 297.033629  L 265.98392 297.414072  L 266.707737 297.558995  L 267.666332 297.767753  z "
           clip-path="url(#p318f376ae9)"
           style="fill: none; stroke: #008000; stroke-width: 1.5"
           id="path89" />
        <path
           d="M 271.031156 294.377087  L 272.713568 294.649271  L 274.39598 294.872203  L 276.078392 295.048713  L 277.760804 295.181014  L 279.443216 295.270748  L 281.125628 295.319022  L 282.80804 295.326429  L 284.490452 295.293058  L 286.172864 295.2185  L 287.855276 295.101839  L 289.537688 294.941631  L 291.220101 294.735873  L 292.902513 294.481968  L 294.373988 294.215879  L 294.584925 294.180181  L 296.267337 293.851865  L 297.949749 293.468787  L 299.632161 293.025759  L 301.226845 292.544322  L 301.314573 292.51876  L 302.996985 291.980874  L 304.679397 291.367439  L 305.890758 290.872764  L 306.361809 290.681969  L 308.044221 289.937832  L 309.521826 289.201206  L 309.726633 289.097471  L 311.409045 288.182231  L 312.492439 287.529648  L 313.091457 287.153764  L 314.773869 286.006547  L 314.979053 285.85809  L 316.456281 284.71496  L 317.093619 284.186533  L 318.138693 283.23736  L 318.893372 282.514975  L 319.821106 281.516394  L 320.424082 280.843417  L 321.503518 279.448364  L 321.713199 279.171859  L 322.796331 277.500302  L 323.18593 276.761601  L 323.680836 275.828744  L 324.37872 274.157186  L 324.868342 272.556206  L 324.890624 272.485628  L 325.252149 270.81407  L 325.442325 269.142513  L 325.466968 267.470955  L 325.326829 265.799397  L 325.01763 264.127839  L 324.868342 263.605978  L 324.550705 262.456281  L 323.911077 260.784724  L 323.18593 259.335514  L 323.075661 259.113166  L 322.063943 257.441608  L 321.503518 256.671368  L 320.836399 255.77005  L 319.821106 254.595341  L 319.377181 254.098492  L 318.138693 252.874642  L 317.662646 252.426935  L 316.456281 251.397789  L 315.651892 250.755377  L 314.773869 250.10351  L 313.282007 249.083819  L 313.091457 248.959964  L 311.409045 247.93112  L 310.472729 247.412261  L 309.726633 247.008978  L 308.044221 246.177109  L 307.065949 245.740704  L 306.361809 245.42677  L 304.679397 244.743074  L 302.996985 244.142363  L 302.772652 244.069146  L 301.314573 243.580257  L 299.632161 243.083917  L 297.949749 242.652007  L 296.816835 242.397588  L 296.267337 242.267364  L 294.584925 241.917233  L 292.902513 241.620858  L 291.220101 241.374381  L 289.537688 241.174643  L 287.855276 241.019122  L 286.172864 240.905874  L 284.490452 240.833497  L 282.80804 240.801103  L 281.125628 240.808292  L 279.443216 240.855154  L 277.760804 240.942263  L 276.078392 241.070694  L 274.39598 241.242039  L 272.713568 241.458449  L 271.031156 241.72267  L 269.348744 242.038107  L 267.715995 242.397588  L 267.666332 242.407922  L 265.98392 242.802009  L 264.301508 243.256604  L 262.619095 243.778059  L 261.776244 244.069146  L 260.936683 244.351801  L 259.254271 244.98157  L 257.571859 245.697968  L 257.478232 245.740704  L 255.889447 246.467394  L 254.207035 247.338806  L 254.073917 247.412261  L 252.524623 248.290022  L 251.262241 249.083819  L 250.842211 249.360838  L 249.159799 250.556387  L 248.896409 250.755377  L 247.477387 251.910316  L 246.881768 252.426935  L 245.794975 253.467663  L 245.166608 254.098492  L 244.112563 255.298763  L 243.711329 255.77005  L 242.490137 257.441608  L 242.430151 257.538585  L 241.460919 259.113166  L 240.747739 260.574288  L 240.643887 260.784724  L 239.989718 262.456281  L 239.521589 264.127839  L 239.224849 265.799397  L 239.090357 267.470955  L 239.114007 269.142513  L 239.296519 270.81407  L 239.643477 272.485628  L 240.165613 274.157186  L 240.747739 275.53089  L 240.871697 275.828744  L 241.746003 277.500302  L 242.430151 278.559115  L 242.829216 279.171859  L 244.112563 280.821086  L 244.130361 280.843417  L 245.658245 282.514975  L 245.794975 282.647938  L 247.458692 284.186533  L 247.477387 284.202292  L 249.159799 285.555054  L 249.564926 285.85809  L 250.842211 286.75371  L 252.053124 287.529648  L 252.524623 287.81924  L 254.207035 288.778124  L 255.022956 289.201206  L 255.889447 289.642782  L 257.571859 290.422317  L 258.654637 290.872764  L 259.254271 291.123892  L 260.936683 291.767  L 262.619095 292.331384  L 263.325605 292.544322  L 264.301508 292.848628  L 265.98392 293.314924  L 267.666332 293.719154  L 269.348744 294.066838  L 270.184187 294.215879  L 271.031156 294.377087  z "
           clip-path="url(#p318f376ae9)"
           style="fill: none; stroke: #008000; stroke-width: 1.5"
           id="path90" />
        <path
           d="M 271.031156 291.156824  L 272.713568 291.461902  L 274.39598 291.711777  L 276.078392 291.909619  L 277.760804 292.057909  L 279.443216 292.158488  L 281.125628 292.212597  L 282.80804 292.220898  L 284.490452 292.183494  L 286.172864 292.099926  L 287.855276 291.969166  L 289.537688 291.789595  L 291.220101 291.558971  L 292.902513 291.274379  L 294.584925 290.932175  L 294.838962 290.872764  L 296.267337 290.549432  L 297.949749 290.107176  L 299.632161 289.595709  L 300.777623 289.201206  L 301.314573 289.017108  L 302.996985 288.376583  L 304.679397 287.646094  L 304.926675 287.529648  L 306.361809 286.836992  L 308.044221 285.92133  L 308.152849 285.85809  L 309.726633 284.894029  L 310.774435 284.186533  L 311.409045 283.724728  L 312.944208 282.514975  L 313.091457 282.386602  L 314.754613 280.843417  L 314.773869 280.823062  L 316.266717 279.171859  L 316.456281 278.92475  L 317.518205 277.500302  L 318.138693 276.478363  L 318.528372 275.828744  L 319.32443 274.157186  L 319.821106 272.73829  L 319.910818 272.485628  L 320.316035 270.81407  L 320.529194 269.142513  L 320.556815 267.470955  L 320.39974 265.799397  L 320.053174 264.127839  L 319.821106 263.406547  L 319.520609 262.456281  L 318.791001 260.784724  L 318.138693 259.631752  L 317.842619 259.113166  L 316.667609 257.441608  L 316.456281 257.186212  L 315.241921 255.77005  L 314.773869 255.296865  L 313.524737 254.098492  L 313.091457 253.726973  L 311.466356 252.426935  L 311.409045 252.384836  L 309.726633 251.218769  L 308.993656 250.755377  L 308.044221 250.188214  L 306.361809 249.278057  L 305.970794 249.083819  L 304.679397 248.461217  L 302.996985 247.738958  L 302.149342 247.412261  L 301.314573 247.091978  L 299.632161 246.513706  L 297.949749 246.010499  L 296.920853 245.740704  L 296.267337 245.5652  L 294.584925 245.169311  L 292.902513 244.834204  L 291.220101 244.555515  L 289.537688 244.329674  L 287.855276 244.153828  L 286.74698 244.069146  L 286.172864 244.022397  L 284.490452 243.934179  L 282.80804 243.894693  L 281.125628 243.903457  L 279.443216 243.960576  L 277.760804 244.066752  L 277.734746 244.069146  L 276.078392 244.21214  L 274.39598 244.405878  L 272.713568 244.650571  L 271.031156 244.949322  L 269.348744 245.305982  L 267.666332 245.725226  L 267.610939 245.740704  L 265.98392 246.185263  L 264.301508 246.714899  L 262.619095 247.322431  L 262.39179 247.412261  L 260.936683 247.990773  L 259.254271 248.74797  L 258.575019 249.083819  L 257.571859 249.595638  L 255.889447 250.549092  L 255.551636 250.755377  L 254.207035 251.625635  L 253.077253 252.426935  L 252.524623 252.852676  L 251.022776 254.098492  L 250.842211 254.265643  L 249.306721 255.77005  L 249.159799 255.935669  L 247.876055 257.441608  L 247.477387 257.999245  L 246.699297 259.113166  L 245.794975 260.726001  L 245.762272 260.784724  L 245.020859 262.456281  L 244.490297 264.127839  L 244.153982 265.799397  L 244.112563 266.250775  L 243.996063 267.470955  L 244.024193 269.142513  L 244.112563 269.827655  L 244.235211 270.81407  L 244.628441 272.485628  L 245.220212 274.157186  L 245.794975 275.359135  L 246.019481 275.828744  L 247.028213 277.500302  L 247.477387 278.112893  L 248.274512 279.171859  L 249.159799 280.168292  L 249.7859 280.843417  L 250.842211 281.841741  L 251.59843 282.514975  L 252.524623 283.259193  L 253.771067 284.186533  L 254.207035 284.487052  L 255.889447 285.562295  L 256.393218 285.85809  L 257.571859 286.51749  L 259.254271 287.361487  L 259.619988 287.529648  L 260.936683 288.121898  L 262.619095 288.793978  L 263.767356 289.201206  L 264.301508 289.391214  L 265.98392 289.929544  L 267.666332 290.39622  L 269.348744 290.797614  L 269.71062 290.872764  L 271.031156 291.156824  z "
           clip-path="url(#p318f376ae9)"
           style="fill: none; stroke: #008000; stroke-width: 1.5"
           id="path91" />
        <path
           d="M 277.760804 289.319859  L 279.443216 289.437734  L 281.125628 289.501147  L 282.80804 289.510876  L 284.490452 289.46704  L 286.172864 289.369101  L 287.855276 289.215856  L 287.974098 289.201206  L 289.537688 289.01469  L 291.220101 288.757223  L 292.902513 288.439507  L 294.584925 288.057472  L 296.267337 287.606144  L 296.519327 287.529648  L 297.949749 287.093574  L 299.632161 286.503548  L 301.237045 285.85809  L 301.314573 285.825943  L 302.996985 285.060672  L 304.679397 284.187916  L 304.681875 284.186533  L 306.361809 283.188297  L 307.38304 282.514975  L 308.044221 282.038558  L 309.567335 280.843417  L 309.726633 280.702745  L 311.347778 279.171859  L 311.409045 279.104502  L 312.797927 277.500302  L 313.091457 277.089081  L 313.962737 275.828744  L 314.773869 274.328733  L 314.865251 274.157186  L 315.541653 272.485628  L 315.991121 270.81407  L 316.227557 269.142513  L 316.258194 267.470955  L 316.083966 265.799397  L 315.699554 264.127839  L 315.093114 262.456281  L 314.773869 261.811248  L 314.259687 260.784724  L 313.17374 259.113166  L 313.091457 259.008016  L 311.816839 257.441608  L 311.409045 257.017246  L 310.140982 255.77005  L 309.726633 255.412416  L 308.087203 254.098492  L 308.044221 254.067325  L 306.361809 252.924005  L 305.553958 252.426935  L 304.679397 251.924689  L 302.996985 251.052172  L 302.363442 250.755377  L 301.314573 250.283463  L 299.632161 249.609497  L 298.130522 249.083819  L 297.949749 249.021392  L 296.267337 248.500716  L 294.584925 248.054473  L 292.902513 247.676743  L 291.491382 247.412261  L 291.220101 247.360393  L 289.537688 247.094476  L 287.855276 246.887425  L 286.172864 246.736655  L 284.490452 246.640298  L 282.80804 246.59717  L 281.125628 246.606741  L 279.443216 246.66913  L 277.760804 246.785101  L 276.078392 246.956085  L 274.39598 247.184203  L 273.058429 247.412261  L 272.713568 247.469753  L 271.031156 247.806503  L 269.348744 248.208528  L 267.666332 248.681096  L 266.420932 249.083819  L 265.98392 249.226702  L 264.301508 249.843983  L 262.619095 250.552052  L 262.180357 250.755377  L 260.936683 251.356375  L 259.254271 252.271097  L 258.989676 252.426935  L 257.571859 253.322944  L 256.458923 254.098492  L 255.889447 254.535965  L 254.405334 255.77005  L 254.207035 255.957461  L 252.729905 257.441608  L 252.524623 257.684555  L 251.369052 259.113166  L 250.842211 259.914716  L 250.285299 260.784724  L 249.452889 262.456281  L 249.159799 263.266705  L 248.848199 264.127839  L 248.459365 265.799397  L 248.283133 267.470955  L 248.314123 269.142513  L 248.553279 270.81407  L 249.007916 272.485628  L 249.159799 272.865968  L 249.676709 274.157186  L 250.584934 275.828744  L 250.842211 276.207818  L 251.745658 277.500302  L 252.524623 278.41772  L 253.195549 279.171859  L 254.207035 280.146967  L 254.977403 280.843417  L 255.889447 281.574986  L 257.161784 282.514975  L 257.571859 282.791779  L 259.254271 283.83922  L 259.867783 284.186533  L 260.936683 284.756386  L 262.619095 285.559357  L 263.315575 285.85809  L 264.301508 286.267643  L 265.98392 286.888658  L 267.666332 287.427014  L 268.029655 287.529648  L 269.348744 287.901662  L 271.031156 288.308268  L 272.713568 288.648856  L 274.39598 288.927814  L 276.078392 289.148684  L 276.607442 289.201206  L 277.760804 289.319859  z "
           clip-path="url(#p318f376ae9)"
           style="fill: none; stroke: #008000; stroke-width: 1.5"
           id="path92" />
        <path
           d="M 272.713568 286.026427  L 274.39598 286.350737  L 276.078392 286.607514  L 277.760804 286.799978  L 279.443216 286.930519  L 281.125628 287.000745  L 282.80804 287.011519  L 284.490452 286.962973  L 286.172864 286.854511  L 287.855276 286.684799  L 289.537688 286.451736  L 291.220101 286.152411  L 292.567095 285.85809  L 292.902513 285.784051  L 294.584925 285.34587  L 296.267337 284.828213  L 297.949749 284.224211  L 298.043994 284.186533  L 299.632161 283.521489  L 301.314573 282.713665  L 301.690143 282.514975  L 302.996985 281.768582  L 304.443204 280.843417  L 304.679397 280.675439  L 306.361809 279.373198  L 306.602822 279.171859  L 308.044221 277.781352  L 308.317213 277.500302  L 309.669815 275.828744  L 309.726633 275.740966  L 310.714807 274.157186  L 311.409045 272.644093  L 311.48038 272.485628  L 311.995031 270.81407  L 312.265755 269.142513  L 312.300836 267.470955  L 312.101341 265.799397  L 311.66118 264.127839  L 311.409045 263.509718  L 310.972405 262.456281  L 310.014374 260.784724  L 309.726633 260.388725  L 308.758254 259.113166  L 308.044221 258.341513  L 307.158241 257.441608  L 306.361809 256.748181  L 305.143906 255.77005  L 304.679397 255.43864  L 302.996985 254.339781  L 302.590695 254.098492  L 301.314573 253.401535  L 299.632161 252.588778  L 299.258914 252.426935  L 297.949749 251.888403  L 296.267337 251.284567  L 294.584925 250.767052  L 294.541283 250.755377  L 292.902513 250.325669  L 291.220101 249.958522  L 289.537688 249.660997  L 287.855276 249.429335  L 286.172864 249.260643  L 284.490452 249.152833  L 282.80804 249.104579  L 281.125628 249.115288  L 279.443216 249.185093  L 277.760804 249.314849  L 276.078392 249.506156  L 274.39598 249.761389  L 272.713568 250.083749  L 271.031156 250.477327  L 270.023708 250.755377  L 269.348744 250.945711  L 267.666332 251.493756  L 265.98392 252.130935  L 265.289535 252.426935  L 264.301508 252.871553  L 262.619095 253.725435  L 261.955935 254.098492  L 260.936683 254.722898  L 259.4001 255.77005  L 259.254271 255.881629  L 257.571859 257.27605  L 257.386127 257.441608  L 255.889447 259.000283  L 255.787266 259.113166  L 254.531413 260.784724  L 254.207035 261.338574  L 253.572347 262.456281  L 252.884171 264.127839  L 252.524623 265.501032  L 252.446754 265.799397  L 252.245968 267.470955  L 252.281276 269.142513  L 252.524623 270.637213  L 252.553307 270.81407  L 253.063353 272.485628  L 253.830921 274.157186  L 254.207035 274.772581  L 254.874824 275.828744  L 255.889447 277.09753  L 256.228709 277.500302  L 257.571859 278.829177  L 257.943509 279.171859  L 259.254271 280.221173  L 260.104433 280.843417  L 260.936683 281.39052  L 262.619095 282.388175  L 262.854048 282.514975  L 264.301508 283.240431  L 265.98392 283.980312  L 266.511207 284.186533  L 267.666332 284.618966  L 269.348744 285.167162  L 271.031156 285.633525  L 271.987938 285.85809  L 272.713568 286.026427  z "
           clip-path="url(#p318f376ae9)"
           style="fill: none; stroke: #008000; stroke-width: 1.5"
           id="path93" />
        <path
           d="M 277.760804 284.361743  L 279.443216 284.511996  L 281.125628 284.592827  L 282.80804 284.605228  L 284.490452 284.549351  L 286.172864 284.424511  L 287.855276 284.229172  L 288.126212 284.186533  L 289.537688 283.959483  L 291.220101 283.612772  L 292.902513 283.184928  L 294.584925 282.670472  L 295.02565 282.514975  L 296.267337 282.049657  L 297.949749 281.320058  L 298.916619 280.843417  L 299.632161 280.456025  L 301.314573 279.432883  L 301.703984 279.171859  L 302.996985 278.183157  L 303.810555 277.500302  L 304.679397 276.633625  L 305.429559 275.828744  L 306.361809 274.575788  L 306.657048 274.157186  L 307.547167 272.485628  L 308.044221 271.085836  L 308.138374 270.81407  L 308.448608 269.142513  L 308.488808 267.470955  L 308.260199 265.799397  L 308.044221 265.075994  L 307.754959 264.127839  L 306.956907 262.456281  L 306.361809 261.548148  L 305.835655 260.784724  L 304.679397 259.469364  L 304.343624 259.113166  L 302.996985 257.926708  L 302.394453 257.441608  L 301.314573 256.687188  L 299.846921 255.77005  L 299.632161 255.649363  L 297.949749 254.794302  L 296.369829 254.098492  L 296.267337 254.056471  L 294.584925 253.444992  L 292.902513 252.927394  L 291.220101 252.496938  L 290.887737 252.426935  L 289.537688 252.151626  L 287.855276 251.883444  L 286.172864 251.688158  L 284.490452 251.563352  L 282.80804 251.50749  L 281.125628 251.519888  L 279.443216 251.600697  L 277.760804 251.750909  L 276.078392 251.972375  L 274.39598 252.267845  L 273.670051 252.426935  L 272.713568 252.643758  L 271.031156 253.105202  L 269.348744 253.65609  L 268.18727 254.098492  L 267.666332 254.311084  L 265.98392 255.091265  L 264.702192 255.77005  L 264.301508 256.005402  L 262.619095 257.103863  L 262.149732 257.441608  L 260.936683 258.449038  L 260.203149 259.113166  L 259.254271 260.149093  L 258.709452 260.784724  L 257.587181 262.456281  L 257.571859 262.487283  L 256.790619 264.127839  L 256.285773 265.799397  L 256.056961 267.470955  L 256.097197 269.142513  L 256.407707 270.81407  L 256.99799 272.485628  L 257.571859 273.577594  L 257.888939 274.157186  L 259.113424 275.828744  L 259.254271 275.983728  L 260.731588 277.500302  L 260.936683 277.677198  L 262.619095 279.012356  L 262.839849 279.171859  L 264.301508 280.100054  L 265.624529 280.843417  L 265.98392 281.027013  L 267.666332 281.796899  L 269.348744 282.459088  L 269.511303 282.514975  L 271.031156 283.0082  L 272.713568 283.466843  L 274.39598 283.842494  L 276.078392 284.139922  L 276.426554 284.186533  L 277.760804 284.361743  z "
           clip-path="url(#p318f376ae9)"
           style="fill: none; stroke: #008000; stroke-width: 1.5"
           id="path94" />
        <path
           d="M 272.713568 280.851203  L 274.39598 281.292903  L 276.078392 281.642626  L 277.760804 281.904756  L 279.443216 282.082549  L 281.125628 282.178196  L 282.80804 282.19287  L 284.490452 282.126751  L 286.172864 281.979029  L 287.855276 281.747886  L 289.537688 281.430461  L 291.220101 281.022789  L 291.829155 280.843417  L 292.902513 280.501863  L 294.584925 279.863581  L 296.132275 279.171859  L 296.267337 279.104096  L 297.949749 278.147603  L 298.950521 277.500302  L 299.632161 276.982693  L 300.997607 275.828744  L 301.314573 275.497275  L 302.492505 274.157186  L 302.996985 273.392459  L 303.558753 272.485628  L 304.25702 270.81407  L 304.624333 269.142513  L 304.67193 267.470955  L 304.40126 265.799397  L 303.804058 264.127839  L 302.996985 262.690056  L 302.857667 262.456281  L 301.499593 260.784724  L 301.314573 260.60398  L 299.642583 259.113166  L 299.632161 259.105385  L 297.949749 257.963411  L 297.075771 257.441608  L 296.267337 257.017627  L 294.584925 256.247055  L 293.363809 255.77005  L 292.902513 255.605341  L 291.220101 255.095545  L 289.537688 254.682423  L 287.855276 254.360753  L 286.172864 254.12652  L 285.859765 254.098492  L 284.490452 253.981081  L 282.80804 253.916424  L 281.125628 253.930774  L 279.443216 254.024306  L 278.721682 254.098492  L 277.760804 254.201785  L 276.078392 254.467421  L 274.39598 254.82182  L 272.713568 255.269426  L 271.169149 255.77005  L 271.031156 255.81886  L 269.348744 256.513076  L 267.666332 257.329106  L 267.46016 257.441608  L 265.98392 258.360019  L 264.913472 259.113166  L 264.301508 259.626051  L 263.049528 260.784724  L 262.619095 261.287376  L 261.692288 262.456281  L 260.936683 263.764167  L 260.738029 264.127839  L 260.146013 265.799397  L 259.877693 267.470955  L 259.924877 269.142513  L 260.289001 270.81407  L 260.936683 272.380282  L 260.982434 272.485628  L 262.052901 274.157186  L 262.619095 274.820656  L 263.55103 275.828744  L 264.301508 276.483815  L 265.59135 277.500302  L 265.98392 277.763427  L 267.666332 278.772735  L 268.425925 279.171859  L 269.348744 279.603263  L 271.031156 280.282597  L 272.688668 280.843417  L 272.713568 280.851203  z "
           clip-path="url(#p318f376ae9)"
           style="fill: none; stroke: #008000; stroke-width: 1.5"
           id="path95" />
        <path
           d="M 277.760804 279.313355  L 279.443216 279.524407  L 281.125628 279.637946  L 282.80804 279.655365  L 284.490452 279.576877  L 286.172864 279.401522  L 287.583699 279.171859  L 287.855276 279.123244  L 289.537688 278.713607  L 291.220101 278.187507  L 292.902513 277.538297  L 292.986591 277.500302  L 294.584925 276.662612  L 295.941978 275.828744  L 296.267337 275.58436  L 297.938426 274.157186  L 297.949749 274.144458  L 299.283252 272.485628  L 299.632161 271.84124  L 300.147272 270.81407  L 300.591961 269.142513  L 300.649584 267.470955  L 300.321896 265.799397  L 299.632161 264.203392  L 299.597014 264.127839  L 298.391968 262.456281  L 297.949749 262.004611  L 296.618695 260.784724  L 296.267337 260.527058  L 294.584925 259.439046  L 294.000251 259.113166  L 292.902513 258.592433  L 291.220101 257.922217  L 289.734725 257.441608  L 289.537688 257.384687  L 287.855276 256.999629  L 286.172864 256.719237  L 284.490452 256.540039  L 282.80804 256.459833  L 281.125628 256.477633  L 279.443216 256.593659  L 277.760804 256.809334  L 276.078392 257.127316  L 274.826516 257.441608  L 274.39598 257.562357  L 272.713568 258.150814  L 271.031156 258.869279  L 270.542698 259.113166  L 269.348744 259.814656  L 267.924893 260.784724  L 267.666332 261.004303  L 266.148165 262.456281  L 265.98392 262.669248  L 264.958645 264.127839  L 264.301508 265.593852  L 264.215504 265.799397  L 263.893266 267.470955  L 263.949931 269.142513  L 264.301508 270.489468  L 264.391635 270.81407  L 265.265715 272.485628  L 265.98392 273.411456  L 266.620553 274.157186  L 267.666332 275.086466  L 268.609931 275.828744  L 269.348744 276.303487  L 271.031156 277.240669  L 271.578249 277.500302  L 272.713568 277.966074  L 274.39598 278.536088  L 276.078392 278.987405  L 276.990352 279.171859  L 277.760804 279.313355  z "
           clip-path="url(#p318f376ae9)"
           style="fill: none; stroke: #008000; stroke-width: 1.5"
           id="path96" />
        <path
           d="M 276.078392 275.885767  L 277.760804 276.309739  L 279.443216 276.597303  L 281.125628 276.752002  L 282.80804 276.775736  L 284.490452 276.668795  L 286.172864 276.429868  L 287.855276 276.056016  L 288.606502 275.828744  L 289.537688 275.489941  L 291.220101 274.709199  L 292.193796 274.157186  L 292.902513 273.634751  L 294.224667 272.485628  L 294.584925 272.026412  L 295.421096 270.81407  L 296.031221 269.142513  L 296.110281 267.470955  L 295.660685 265.799397  L 294.668706 264.127839  L 294.584925 264.035879  L 292.936421 262.456281  L 292.902513 262.432084  L 291.220101 261.406072  L 289.969087 260.784724  L 289.537688 260.610458  L 287.855276 260.073486  L 286.172864 259.682474  L 284.490452 259.432579  L 282.80804 259.32073  L 281.125628 259.345553  L 279.443216 259.507353  L 277.760804 259.808117  L 276.078392 260.25155  L 274.559621 260.784724  L 274.39598 260.855174  L 272.713568 261.756024  L 271.632659 262.456281  L 271.031156 262.978168  L 269.892394 264.127839  L 269.348744 264.978077  L 268.881926 265.799397  L 268.447192 267.470955  L 268.523639 269.142513  L 269.113595 270.81407  L 269.348744 271.170601  L 270.327424 272.485628  L 271.031156 273.129407  L 272.342413 274.157186  L 272.713568 274.380589  L 274.39598 275.2265  L 275.906169 275.828744  L 276.078392 275.885767  z "
           clip-path="url(#p318f376ae9)"
           style="fill: none; stroke: #008000; stroke-width: 1.5"
           id="path97" />
        <path
           d="M 279.443216 272.592665  L 281.125628 272.848523  L 282.80804 272.887777  L 284.490452 272.710906  L 285.452632 272.485628  L 286.172864 272.243297  L 287.855276 271.361299  L 288.621867 270.81407  L 289.537688 269.593171  L 289.80718 269.142513  L 289.937811 267.470955  L 289.537688 266.567059  L 289.112714 265.799397  L 287.855276 264.757793  L 286.819593 264.127839  L 286.172864 263.869349  L 284.490452 263.436539  L 282.80804 263.242819  L 281.125628 263.285812  L 279.443216 263.566046  L 277.760804 264.086959  L 277.670145 264.127839  L 276.078392 265.221761  L 275.441229 265.799397  L 274.595238 267.470955  L 274.744003 269.142513  L 275.892056 270.81407  L 276.078392 270.959646  L 277.760804 271.959887  L 279.061966 272.485628  L 279.443216 272.592665  z "
           clip-path="url(#p318f376ae9)"
           style="fill: none; stroke: #008000; stroke-width: 1.5"
           id="path98" />
        <path
           clip-path="url(#p318f376ae9)"
           style="fill: none; stroke: #008000; stroke-width: 1.5"
           id="path99" />
      </g>
      <g
         id="QuadContourSet_2">
        <path
           clip-path="url(#p318f376ae9)"
           style="fill: none; stroke: #ffa500; stroke-width: 1.5"
           id="path100" />
        <path
           d="M 146.532663 187.310963  L 148.215075 187.573759  L 149.897487 187.796207  L 151.579899 187.981203  L 153.262312 188.131119  L 154.944724 188.247848  L 156.627136 188.332848  L 158.309548 188.387171  L 159.99196 188.411485  L 161.674372 188.406089  L 163.356784 188.370916  L 165.039196 188.305535  L 166.721608 188.20914  L 168.40402 188.080534  L 170.086432 187.918105  L 171.768844 187.71979  L 173.451256 187.483035  L 174.949126 187.236181  L 175.133668 187.2096  L 176.81608 186.936079  L 178.498492 186.620562  L 180.180905 186.258639  L 181.863317 185.845124  L 182.886504 185.564623  L 183.545729 185.401409  L 185.228141 184.942639  L 186.910553 184.421237  L 188.420952 183.893065  L 188.592965 183.837374  L 190.275377 183.253776  L 191.957789 182.590069  L 192.811283 182.221508  L 193.640201 181.881657  L 195.322613 181.125298  L 196.47522 180.54995  L 197.005025 180.293426  L 198.687437 179.414344  L 199.621667 178.878392  L 200.369849 178.452887  L 202.052261 177.408673  L 202.359598 177.206834  L 203.734673 176.291443  L 204.779213 175.535276  L 205.417085 175.058345  L 206.909493 173.863719  L 207.099497 173.703551  L 208.78191 172.210609  L 208.802 172.192161  L 210.464322 170.545018  L 210.488185 170.520603  L 211.988517 168.849045  L 212.146734 168.651382  L 213.318695 167.177487  L 213.829146 166.438464  L 214.478802 165.50593  L 215.466909 163.834372  L 215.511558 163.746965  L 216.348598 162.162814  L 217.058082 160.491256  L 217.19397 160.097881  L 217.662339 158.819698  L 218.132048 157.148141  L 218.466793 155.476583  L 218.677041 153.805025  L 218.769264 152.133467  L 218.746278 150.46191  L 218.607382 148.790352  L 218.348326 147.118794  L 217.961091 145.447236  L 217.433474 143.775678  L 217.19397 143.171138  L 216.793848 142.104121  L 216.016809 140.432563  L 215.511558 139.527663  L 215.096052 138.761005  L 214.02312 137.089447  L 213.829146 136.822587  L 212.812723 135.417889  L 212.146734 134.611567  L 211.42442 133.746332  L 210.464322 132.714513  L 209.853406 132.074774  L 208.78191 131.045525  L 208.085049 130.403216  L 207.099497 129.552341  L 206.093439 128.731658  L 205.417085 128.20447  L 203.838923 127.060101  L 203.734673 126.986473  L 202.052261 125.848522  L 201.310205 125.388543  L 200.369849 124.807845  L 198.687437 123.862203  L 198.412692 123.716985  L 197.005025 122.959235  L 195.322613 122.155328  L 195.077701 122.045427  L 193.640201 121.374113  L 191.957789 120.676315  L 191.158736 120.373869  L 190.275377 120.018424  L 188.592965 119.40143  L 186.910553 118.858537  L 186.383118 118.702312  L 185.228141 118.329413  L 183.545729 117.841915  L 181.863317 117.413366  L 180.180905 117.037276  L 180.149027 117.030754  L 178.498492 116.651902  L 176.81608 116.31495  L 175.133668 116.022848  L 173.451256 115.771607  L 171.768844 115.55787  L 170.086432 115.378837  L 169.865176 115.359196  L 168.40402 115.208228  L 166.721608 115.07021  L 165.039196 114.96676  L 163.356784 114.896595  L 161.674372 114.858848  L 159.99196 114.853057  L 158.309548 114.87915  L 156.627136 114.937449  L 154.944724 115.028669  L 153.262312 115.153941  L 151.579899 115.314828  L 151.196952 115.359196  L 149.897487 115.488883  L 148.215075 115.689704  L 146.532663 115.926949  L 144.850251 116.203766  L 143.167839 116.523904  L 141.485427 116.891798  L 140.911904 117.030754  L 139.803015 117.270846  L 138.120603 117.679622  L 136.438191 118.144867  L 134.755779 118.673759  L 134.670793 118.702312  L 133.073367 119.195946  L 131.390955 119.784857  L 129.89835 120.373869  L 129.708543 120.444223  L 128.026131 121.109785  L 126.343719 121.868129  L 125.975201 122.045427  L 124.661307 122.654407  L 122.978894 123.529949  L 122.640698 123.716985  L 121.296482 124.448821  L 119.752633 125.388543  L 119.61407 125.473078  L 117.931658 126.553806  L 117.205226 127.060101  L 116.249246 127.743165  L 114.964803 128.731658  L 114.566834 129.051713  L 112.982103 130.403216  L 112.884422 130.492022  L 111.217123 132.074774  L 111.20201 132.090391  L 109.643512 133.746332  L 109.519598 133.892865  L 108.246051 135.417889  L 107.837186 135.97593  L 107.01914 137.089447  L 106.154774 138.46588  L 105.966105 138.761005  L 105.036366 140.432563  L 104.472362 141.672915  L 104.267661 142.104121  L 103.609268 143.775678  L 103.102166 145.447236  L 102.78995 146.842099  L 102.722972 147.118794  L 102.444864 148.790352  L 102.295753 150.46191  L 102.271077 152.133467  L 102.370083 153.805025  L 102.595793 155.476583  L 102.78995 156.391419  L 102.937856 157.148141  L 103.389302 158.819698  L 103.984885 160.491256  L 104.472362 161.586763  L 104.716901 162.162814  L 105.570481 163.834372  L 106.154774 164.793309  L 106.579582 165.50593  L 107.749044 167.177487  L 107.837186 167.290457  L 109.057358 168.849045  L 109.519598 169.373368  L 110.549983 170.520603  L 111.20201 171.180127  L 112.237039 172.192161  L 112.884422 172.779649  L 114.139356 173.863719  L 114.566834 174.213468  L 116.249246 175.506938  L 116.28771 175.535276  L 117.931658 176.709694  L 118.689961 177.206834  L 119.61407 177.805401  L 121.296482 178.797975  L 121.440244 178.878392  L 122.978894 179.747877  L 124.585007 180.54995  L 124.661307 180.589131  L 126.343719 181.411942  L 128.026131 182.132982  L 128.246387 182.221508  L 129.708543 182.841388  L 131.390955 183.474701  L 132.632621 183.893065  L 133.073367 184.053046  L 134.755779 184.618585  L 136.438191 185.11631  L 138.120603 185.554138  L 138.164186 185.564623  L 139.803015 186.001826  L 141.485427 186.395926  L 143.167839 186.740417  L 144.850251 187.04019  L 146.111098 187.236181  L 146.532663 187.310963  z "
           clip-path="url(#p318f376ae9)"
           style="fill: none; stroke: #ffa500; stroke-width: 1.5"
           id="path101" />
        <path
           d="M 153.262312 182.400364  L 154.944724 182.546778  L 156.627136 182.653393  L 158.309548 182.721531  L 159.99196 182.752028  L 161.674372 182.74526  L 163.356784 182.701142  L 165.039196 182.619135  L 166.721608 182.498226  L 168.40402 182.336915  L 169.365741 182.221508  L 170.086432 182.143949  L 171.768844 181.925532  L 173.451256 181.664778  L 175.133668 181.358269  L 176.81608 181.001911  L 178.498492 180.590837  L 178.650561 180.54995  L 180.180905 180.166767  L 181.863317 179.687395  L 183.545729 179.141158  L 184.281006 178.878392  L 185.228141 178.554925  L 186.910553 177.917924  L 188.565345 177.206834  L 188.592965 177.195237  L 190.275377 176.442746  L 191.957789 175.586961  L 192.05388 175.535276  L 193.640201 174.678801  L 194.992529 173.863719  L 195.322613 173.660096  L 197.005025 172.550216  L 197.510865 172.192161  L 198.687437 171.318749  L 199.689017 170.520603  L 200.369849 169.939326  L 201.578676 168.849045  L 202.052261 168.380868  L 203.222995 167.177487  L 203.734673 166.586637  L 204.649071 165.50593  L 205.417085 164.458138  L 205.870832 163.834372  L 206.906066 162.162814  L 207.099497 161.789809  L 207.785142 160.491256  L 208.486779 158.819698  L 208.78191 157.90798  L 209.038826 157.148141  L 209.450211 155.476583  L 209.708595 153.805025  L 209.821933 152.133467  L 209.793684 150.46191  L 209.622989 148.790352  L 209.304622 147.118794  L 208.828729 145.447236  L 208.78191 145.321703  L 208.227643 143.775678  L 207.452011 142.104121  L 207.099497 141.478312  L 206.518614 140.432563  L 205.417085 138.797001  L 205.392805 138.761005  L 204.100011 137.089447  L 203.734673 136.675613  L 202.593635 135.417889  L 202.052261 134.882178  L 200.853938 133.746332  L 200.369849 133.324474  L 198.848773 132.074774  L 198.687437 131.950176  L 197.005025 130.71519  L 196.548124 130.403216  L 195.322613 129.59675  L 193.87344 128.731658  L 193.640201 128.594769  L 191.957789 127.664683  L 190.737149 127.060101  L 190.275377 126.829955  L 188.592965 126.051529  L 186.968017 125.388543  L 186.910553 125.364412  L 185.228141 124.701687  L 183.545729 124.118569  L 182.243263 123.716985  L 181.863317 123.593221  L 180.180905 123.091736  L 178.498492 122.652819  L 176.81608 122.27018  L 175.689986 122.045427  L 175.133668 121.924578  L 173.451256 121.602212  L 171.768844 121.327968  L 170.086432 121.098251  L 168.40402 120.910102  L 166.721608 120.761132  L 165.039196 120.649473  L 163.356784 120.573739  L 161.674372 120.532997  L 159.99196 120.526747  L 158.309548 120.554911  L 156.627136 120.617836  L 154.944724 120.716295  L 153.262312 120.851507  L 151.579899 121.025161  L 149.897487 121.239452  L 148.215075 121.497123  L 146.532663 121.801531  L 145.364471 122.045427  L 144.850251 122.14392  L 143.167839 122.507466  L 141.485427 122.925243  L 139.803015 123.403183  L 138.813062 123.716985  L 138.120603 123.924443  L 136.438191 124.480943  L 134.755779 125.113574  L 134.086419 125.388543  L 133.073367 125.792282  L 131.390955 126.535278  L 130.317225 127.060101  L 129.708543 127.35533  L 128.026131 128.24245  L 127.177916 128.731658  L 126.343719 129.220297  L 124.661307 130.300903  L 124.510173 130.403216  L 122.978894 131.481609  L 122.19916 132.074774  L 121.296482 132.804222  L 120.19969 133.746332  L 119.61407 134.292661  L 118.461126 135.417889  L 117.931658 135.992641  L 116.950461 137.089447  L 116.249246 137.98429  L 115.648847 138.761005  L 114.566834 140.406267  L 114.549508 140.432563  L 113.597367 142.104121  L 112.884422 143.680356  L 112.840105 143.775678  L 112.211111 145.447236  L 111.749471 147.118794  L 111.440639 148.790352  L 111.275056 150.46191  L 111.247653 152.133467  L 111.357597 153.805025  L 111.608242 155.476583  L 112.007306 157.148141  L 112.567266 158.819698  L 112.884422 159.557251  L 113.27359 160.491256  L 114.142952 162.162814  L 114.566834 162.842598  L 115.181584 163.834372  L 116.249246 165.283506  L 116.4147 165.50593  L 117.840113 167.177487  L 117.931658 167.27384  L 119.482158 168.849045  L 119.61407 168.970997  L 121.296482 170.455413  L 121.374113 170.520603  L 122.978894 171.780291  L 123.543395 172.192161  L 124.661307 172.971063  L 126.062275 173.863719  L 126.343719 174.038477  L 128.026131 175.021412  L 128.997005 175.535276  L 129.708543 175.911013  L 131.390955 176.727606  L 132.487622 177.206834  L 133.073367 177.468101  L 134.755779 178.159025  L 136.438191 178.7671  L 136.772886 178.878392  L 138.120603 179.34802  L 139.803015 179.869054  L 141.485427 180.325919  L 142.410922 180.54995  L 143.167839 180.746991  L 144.850251 181.137553  L 146.532663 181.475264  L 148.215075 181.764698  L 149.897487 182.009694  L 151.579899 182.213444  L 151.660545 182.221508  L 153.262312 182.400364  z "
           clip-path="url(#p318f376ae9)"
           style="fill: none; stroke: #ffa500; stroke-width: 1.5"
           id="path102" />
        <path
           d="M 159.99196 178.883502  L 161.076001 178.878392  L 161.674372 178.875846  L 163.356784 178.82921  L 165.039196 178.74252  L 166.721608 178.614708  L 168.40402 178.444187  L 170.086432 178.228819  L 171.768844 177.96587  L 173.451256 177.651952  L 175.133668 177.282951  L 175.441462 177.206834  L 176.81608 176.883996  L 178.498492 176.431265  L 180.180905 175.911948  L 181.268166 175.535276  L 181.863317 175.334129  L 183.545729 174.706471  L 185.228141 173.992477  L 185.509281 173.863719  L 186.910553 173.220125  L 188.592965 172.350952  L 188.879681 172.192161  L 190.275377 171.397867  L 191.664955 170.520603  L 191.957789 170.326528  L 193.640201 169.131987  L 194.013079 168.849045  L 195.322613 167.777506  L 196.011044 167.177487  L 197.005025 166.219983  L 197.71245 165.50593  L 198.687437 164.388281  L 199.156125 163.834372  L 200.364228 162.162814  L 200.369849 162.153646  L 201.38464 160.491256  L 202.052261 159.108872  L 202.193535 158.819698  L 202.837961 157.148141  L 203.297221 155.476583  L 203.585675 153.805025  L 203.712203 152.133467  L 203.680666 150.46191  L 203.490106 148.790352  L 203.134689 147.118794  L 202.603414 145.447236  L 202.052261 144.161786  L 201.889597 143.775678  L 201.004491 142.104121  L 200.369849 141.129603  L 199.912077 140.432563  L 198.687437 138.86932  L 198.600484 138.761005  L 197.056861 137.089447  L 197.005025 137.039301  L 195.322613 135.48612  L 195.244573 135.417889  L 193.640201 134.1327  L 193.12099 133.746332  L 191.957789 132.934147  L 190.610309 132.074774  L 190.275377 131.869853  L 188.592965 130.909014  L 187.613258 130.403216  L 186.910553 130.046376  L 185.228141 129.264613  L 183.941827 128.731658  L 183.545729 128.566315  L 181.863317 127.920871  L 180.180905 127.354437  L 179.200614 127.060101  L 178.498492 126.841831  L 176.81608 126.373497  L 175.133668 125.967499  L 173.451256 125.618295  L 172.15881 125.388543  L 171.768844 125.314529  L 170.086432 125.040962  L 168.40402 124.816896  L 166.721608 124.639489  L 165.039196 124.506516  L 163.356784 124.416325  L 161.674372 124.367806  L 159.99196 124.360362  L 158.309548 124.393902  L 156.627136 124.468839  L 154.944724 124.586093  L 153.262312 124.747116  L 151.579899 124.953919  L 149.897487 125.209116  L 148.902424 125.388543  L 148.215075 125.504457  L 146.532663 125.834207  L 144.850251 126.21896  L 143.167839 126.663925  L 141.851566 127.060101  L 141.485427 127.166381  L 139.803015 127.706221  L 138.120603 128.321883  L 137.113849 128.731658  L 136.438191 129.00422  L 134.755779 129.750483  L 133.441802 130.403216  L 133.073367 130.589016  L 131.390955 131.506122  L 130.443249 132.074774  L 129.708543 132.533627  L 128.026131 133.682181  L 127.937091 133.746332  L 126.343719 134.97298  L 125.804602 135.417889  L 124.661307 136.450362  L 123.99017 137.089447  L 122.978894 138.171036  L 122.447182 138.761005  L 121.296482 140.237453  L 121.147528 140.432563  L 120.052176 142.104121  L 119.61407 142.926597  L 119.15935 143.775678  L 118.451565 145.447236  L 117.932098 147.118794  L 117.931658 147.120864  L 117.561787 148.790352  L 117.363225 150.46191  L 117.330365 152.133467  L 117.462205 153.805025  L 117.76277 155.476583  L 117.931658 156.077351  L 118.222231 157.148141  L 118.852333 158.819698  L 119.61407 160.357507  L 119.6797 160.491256  L 120.679822 162.162814  L 121.296482 163.016362  L 121.897367 163.834372  L 122.978894 165.093422  L 123.34502 165.50593  L 124.661307 166.813724  L 125.045813 167.177487  L 126.343719 168.2901  L 127.039865 168.849045  L 128.026131 169.584483  L 129.389063 170.520603  L 129.708543 170.729088  L 131.390955 171.756145  L 132.174253 172.192161  L 133.073367 172.679932  L 134.755779 173.509664  L 135.546157 173.863719  L 136.438191 174.262766  L 138.120603 174.944168  L 139.780564 175.535276  L 139.803015 175.54345  L 141.485427 176.108939  L 143.167839 176.603244  L 144.850251 177.033384  L 145.619817 177.206834  L 146.532663 177.423799  L 148.215075 177.772244  L 149.897487 178.067192  L 151.579899 178.312483  L 153.262312 178.511259  L 154.944724 178.666032  L 156.627136 178.778734  L 158.309548 178.850762  L 159.750749 178.878392  L 159.99196 178.883502  z "
           clip-path="url(#p318f376ae9)"
           style="fill: none; stroke: #ffa500; stroke-width: 1.5"
           id="path103" />
        <path
           d="M 156.627136 175.668612  L 158.309548 175.756468  L 159.99196 175.795792  L 161.674372 175.787065  L 163.356784 175.73018  L 165.039196 175.624439  L 166.006738 175.535276  L 166.721608 175.473322  L 168.40402 175.280233  L 170.086432 175.036361  L 171.768844 174.738612  L 173.451256 174.383148  L 175.133668 173.965311  L 175.496026 173.863719  L 176.81608 173.50153  L 178.498492 172.973256  L 180.180905 172.367284  L 180.622423 172.192161  L 181.863317 171.696596  L 183.545729 170.940715  L 184.392026 170.520603  L 185.228141 170.091926  L 186.910553 169.139277  L 187.38376 168.849045  L 188.592965 168.062224  L 189.834364 167.177487  L 190.275377 166.835717  L 191.869791 165.50593  L 191.957789 165.423926  L 193.570253 163.834372  L 193.640201 163.754922  L 194.98783 162.162814  L 195.322613 161.690379  L 196.153266 160.491256  L 197.005025 158.955952  L 197.080141 158.819698  L 197.810511 157.148141  L 198.331022 155.476583  L 198.657945 153.805025  L 198.687437 153.463457  L 198.806982 152.133467  L 198.769472 150.46191  L 198.687437 149.852231  L 198.549631 148.790352  L 198.146813 147.118794  L 197.544683 145.447236  L 197.005025 144.331854  L 196.735862 143.775678  L 195.714669 142.104121  L 195.322613 141.573607  L 194.456501 140.432563  L 193.640201 139.519932  L 192.931281 138.761005  L 191.957789 137.846336  L 191.102168 137.089447  L 190.275377 136.428547  L 188.909171 135.417889  L 188.592965 135.200939  L 186.910553 134.125458  L 186.261513 133.746332  L 185.228141 133.170642  L 183.545729 132.325662  L 182.997511 132.074774  L 181.863317 131.566578  L 180.180905 130.893128  L 178.793458 130.403216  L 178.498492 130.298662  L 176.81608 129.758795  L 175.133668 129.290785  L 173.451256 128.888245  L 172.69417 128.731658  L 171.768844 128.533264  L 170.086432 128.227077  L 168.40402 127.976295  L 166.721608 127.777734  L 165.039196 127.628905  L 163.356784 127.527961  L 161.674372 127.473656  L 159.99196 127.465324  L 158.309548 127.502864  L 156.627136 127.586736  L 154.944724 127.717971  L 153.262312 127.898194  L 151.579899 128.129656  L 149.897487 128.415281  L 148.344327 128.731658  L 148.215075 128.757019  L 146.532663 129.137135  L 144.850251 129.580655  L 143.167839 130.093583  L 142.265608 130.403216  L 141.485427 130.669543  L 139.803015 131.311374  L 138.120603 132.043352  L 138.05362 132.074774  L 136.438191 132.850768  L 134.792397 133.746332  L 134.755779 133.767194  L 133.073367 134.793871  L 132.144875 135.417889  L 131.390955 135.963393  L 129.954554 137.089447  L 129.708543 137.302559  L 128.127464 138.761005  L 128.026131 138.86735  L 126.601486 140.432563  L 126.343719 140.765784  L 125.338131 142.104121  L 124.661307 143.207844  L 124.317467 143.775678  L 123.510115 145.447236  L 122.978894 146.940731  L 122.914682 147.118794  L 122.499585 148.790352  L 122.277027 150.46191  L 122.240195 152.133467  L 122.387969 153.805025  L 122.724858 155.476583  L 122.978894 156.280053  L 123.24852 157.148141  L 123.967261 158.819698  L 124.661307 160.05891  L 124.905537 160.491256  L 126.067079 162.162814  L 126.343719 162.499515  L 127.479714 163.834372  L 128.026131 164.390183  L 129.181434 165.50593  L 129.708543 165.960359  L 131.22102 167.177487  L 131.390955 167.302924  L 133.073367 168.469143  L 133.671078 168.849045  L 134.755779 169.499849  L 136.438191 170.40924  L 136.661283 170.520603  L 138.120603 171.22697  L 139.803015 171.947974  L 140.433744 172.192161  L 141.485427 172.597145  L 143.167839 173.173931  L 144.850251 173.675845  L 145.563755 173.863719  L 146.532663 174.124799  L 148.215075 174.51936  L 149.897487 174.853343  L 151.579899 175.131098  L 153.262312 175.356181  L 154.944724 175.531438  L 154.994767 175.535276  L 156.627136 175.668612  z "
           clip-path="url(#p318f376ae9)"
           style="fill: none; stroke: #ffa500; stroke-width: 1.5"
           id="path104" />
        <path
           d="M 151.579899 172.32942  L 153.262312 172.594654  L 154.944724 172.801173  L 156.627136 172.951556  L 158.309548 173.047665  L 159.99196 173.090682  L 161.674372 173.081135  L 163.356784 173.018907  L 165.039196 172.903234  L 166.721608 172.73269  L 168.40402 172.505158  L 170.086432 172.217785  L 170.2122 172.192161  L 171.768844 171.880546  L 173.451256 171.479219  L 175.133668 171.007473  L 176.633304 170.520603  L 176.81608 170.460552  L 178.498492 169.843791  L 180.180905 169.136318  L 180.798086 168.849045  L 181.863317 168.331519  L 183.545729 167.416677  L 183.949886 167.177487  L 185.228141 166.364879  L 186.4541 165.50593  L 186.910553 165.152943  L 188.486562 163.834372  L 188.592965 163.733046  L 190.144753 162.162814  L 190.275377 162.00685  L 191.491133 160.491256  L 191.957789 159.773694  L 192.562319 158.819698  L 193.382332 157.148141  L 193.640201 156.42219  L 193.976449 155.476583  L 194.354425 153.805025  L 194.520221 152.133467  L 194.478898 150.46191  L 194.229196 148.790352  L 193.763474 147.118794  L 193.640201 146.814846  L 193.083878 145.447236  L 192.162769 143.775678  L 191.957789 143.476488  L 190.988943 142.104121  L 190.275377 141.270295  L 189.52383 140.432563  L 188.592965 139.541185  L 187.723723 138.761005  L 186.910553 138.112561  L 185.516849 137.089447  L 185.228141 136.895578  L 183.545729 135.848995  L 182.779842 135.417889  L 181.863317 134.931545  L 180.180905 134.128397  L 179.285525 133.746332  L 178.498492 133.42078  L 176.81608 132.799042  L 175.133668 132.260059  L 174.474656 132.074774  L 173.451256 131.787263  L 171.768844 131.379828  L 170.086432 131.038546  L 168.40402 130.759019  L 166.721608 130.537699  L 165.361059 130.403216  L 165.039196 130.370221  L 163.356784 130.25201  L 161.674372 130.188416  L 159.99196 130.178659  L 158.309548 130.222621  L 156.627136 130.320839  L 155.720528 130.403216  L 154.944724 130.471086  L 153.262312 130.671966  L 151.579899 130.929958  L 149.897487 131.248322  L 148.215075 131.631135  L 146.563706 132.074774  L 146.532663 132.083108  L 144.850251 132.593887  L 143.167839 133.184601  L 141.765219 133.746332  L 141.485427 133.861752  L 139.803015 134.627192  L 138.271782 135.417889  L 138.120603 135.500577  L 136.438191 136.499385  L 135.538573 137.089447  L 134.755779 137.649911  L 133.331444 138.761005  L 133.073367 138.987265  L 131.532537 140.432563  L 131.390955 140.586926  L 130.067052 142.104121  L 129.708543 142.601418  L 128.889092 143.775678  L 128.026131 145.352136  L 127.974874 145.447236  L 127.286632 147.118794  L 126.826206 148.790352  L 126.579343 150.46191  L 126.53849 152.133467  L 126.7024 153.805025  L 127.076078 155.476583  L 127.671029 157.148141  L 128.026131 157.874882  L 128.493121 158.819698  L 129.565255 160.491256  L 129.708543 160.675898  L 130.90783 162.162814  L 131.390955 162.669138  L 132.566736 163.834372  L 133.073367 164.27435  L 134.599875 165.50593  L 134.755779 165.619594  L 136.438191 166.764301  L 137.105746 167.177487  L 138.120603 167.763131  L 139.803015 168.635762  L 140.255865 168.849045  L 141.485427 169.404681  L 143.167839 170.078079  L 144.425794 170.520603  L 144.850251 170.667768  L 146.532663 171.187539  L 148.215075 171.633006  L 149.897487 172.01008  L 150.864621 172.192161  L 151.579899 172.32942  z "
           clip-path="url(#p318f376ae9)"
           style="fill: none; stroke: #ffa500; stroke-width: 1.5"
           id="path105" />
        <path
           d="M 158.309548 170.534713  L 159.99196 170.584171  L 161.674372 170.573195  L 162.912643 170.520603  L 163.356784 170.502126  L 165.039196 170.372479  L 166.721608 170.181333  L 168.40402 169.926315  L 170.086432 169.604227  L 171.768844 169.210981  L 173.074511 168.849045  L 173.451256 168.742237  L 175.133668 168.19412  L 176.81608 167.556858  L 177.701746 167.177487  L 178.498492 166.816817  L 180.180905 165.961899  L 180.987074 165.50593  L 181.863317 164.965554  L 183.513043 163.834372  L 183.545729 163.809172  L 185.228141 162.409327  L 185.502743 162.162814  L 186.910553 160.683674  L 187.083284 160.491256  L 188.323163 158.819698  L 188.592965 158.352851  L 189.268343 157.148141  L 189.943481 155.476583  L 190.275377 154.173458  L 190.368957 153.805025  L 190.557854 152.133467  L 190.510773 150.46191  L 190.275377 149.075945  L 190.227032 148.790352  L 189.70455 147.118794  L 188.923546 145.447236  L 188.592965 144.912648  L 187.865238 143.775678  L 186.910553 142.593028  L 186.494634 142.104121  L 185.228141 140.860882  L 184.759718 140.432563  L 183.545729 139.467227  L 182.573833 138.761005  L 181.863317 138.29666  L 180.180905 137.300989  L 179.786425 137.089447  L 178.498492 136.447294  L 176.81608 135.708019  L 176.070001 135.417889  L 175.133668 135.068995  L 173.451256 134.520678  L 171.768844 134.054213  L 170.450291 133.746332  L 170.086432 133.662277  L 168.40402 133.33759  L 166.721608 133.080514  L 165.039196 132.887825  L 163.356784 132.757132  L 161.674372 132.686824  L 159.99196 132.676037  L 158.309548 132.72464  L 156.627136 132.833229  L 154.944724 133.003138  L 153.262312 133.236473  L 151.579899 133.536146  L 150.613887 133.746332  L 149.897487 133.903653  L 148.215075 134.34193  L 146.532663 134.859702  L 144.974024 135.417889  L 144.850251 135.464081  L 143.167839 136.166466  L 141.485427 136.973628  L 141.26536 137.089447  L 139.803015 137.91935  L 138.479596 138.761005  L 138.120603 139.014479  L 136.438191 140.312368  L 136.293342 140.432563  L 134.755779 141.903501  L 134.559377 142.104121  L 133.190065 143.775678  L 133.073367 143.953772  L 132.130554 145.447236  L 131.390955 147.033604  L 131.352007 147.118794  L 130.824808 148.790352  L 130.542145 150.46191  L 130.495367 152.133467  L 130.683048 153.805025  L 131.110918 155.476583  L 131.390955 156.17519  L 131.787059 157.148141  L 132.730821 158.819698  L 133.073367 159.295912  L 133.971264 160.491256  L 134.755779 161.346173  L 135.552708 162.162814  L 136.438191 162.93925  L 137.544319 163.834372  L 138.120603 164.248062  L 139.803015 165.349607  L 140.064493 165.50593  L 141.485427 166.286192  L 143.167839 167.099934  L 143.345637 167.177487  L 144.850251 167.799421  L 146.532663 168.403336  L 147.974964 168.849045  L 148.215075 168.921409  L 149.897487 169.36251  L 151.579899 169.729348  L 153.262312 170.026622  L 154.944724 170.258089  L 156.627136 170.426638  L 158.093331 170.520603  L 158.309548 170.534713  z "
           clip-path="url(#p318f376ae9)"
           style="fill: none; stroke: #ffa500; stroke-width: 1.5"
           id="path106" />
        <path
           d="M 151.579899 167.191689  L 153.262312 167.536163  L 154.944724 167.804381  L 156.627136 167.999692  L 158.309548 168.124515  L 159.99196 168.180384  L 161.674372 168.167985  L 163.356784 168.087165  L 165.039196 167.936934  L 166.721608 167.715438  L 168.40402 167.41993  L 169.504945 167.177487  L 170.086432 167.044888  L 171.768844 166.582884  L 173.451256 166.031328  L 174.823173 165.50593  L 175.133668 165.378374  L 176.81608 164.596286  L 178.245971 163.834372  L 178.498492 163.684918  L 180.180905 162.582185  L 180.759593 162.162814  L 181.863317 161.23804  L 182.6813 160.491256  L 183.545729 159.537452  L 184.154748 158.819698  L 185.228141 157.198617  L 185.260037 157.148141  L 186.041383 155.476583  L 186.532132 153.805025  L 186.747395 152.133467  L 186.693742 150.46191  L 186.369539 148.790352  L 185.764864 147.118794  L 185.228141 146.113216  L 184.857923 145.447236  L 183.616067 143.775678  L 183.545729 143.699005  L 181.976646 142.104121  L 181.863317 142.007137  L 180.180905 140.678613  L 179.837512 140.432563  L 178.498492 139.587942  L 177.016058 138.761005  L 176.81608 138.659443  L 175.133668 137.891089  L 173.451256 137.230217  L 173.03918 137.089447  L 171.768844 136.679335  L 170.086432 136.221067  L 168.40402 135.845723  L 166.721608 135.548539  L 165.740118 135.417889  L 165.039196 135.326274  L 163.356784 135.175988  L 161.674372 135.095139  L 159.99196 135.082736  L 158.309548 135.138625  L 156.627136 135.263493  L 155.294455 135.417889  L 154.944724 135.459092  L 153.262312 135.728831  L 151.579899 136.075258  L 149.897487 136.502751  L 148.215075 137.016785  L 148.008056 137.089447  L 146.532663 137.638834  L 144.850251 138.366982  L 144.046268 138.761005  L 143.167839 139.233161  L 141.485427 140.252882  L 141.215562 140.432563  L 139.803015 141.503693  L 139.082015 142.104121  L 138.120603 143.053674  L 137.44132 143.775678  L 136.438191 145.107508  L 136.195755 145.447236  L 135.290054 147.118794  L 134.755779 148.588841  L 134.68436 148.790352  L 134.360446 150.46191  L 134.306841 152.133467  L 134.521912 153.805025  L 134.755779 154.609902  L 135.012974 155.476583  L 135.795907 157.148141  L 136.438191 158.14093  L 136.899807 158.819698  L 138.120603 160.222591  L 138.371188 160.491256  L 139.803015 161.763327  L 140.294844 162.162814  L 141.485427 163.000481  L 142.809786 163.834372  L 143.167839 164.036824  L 144.850251 164.893975  L 146.230565 165.50593  L 146.532663 165.630461  L 148.215075 166.242683  L 149.897487 166.760908  L 151.522389 167.177487  L 151.579899 167.191689  z "
           clip-path="url(#p318f376ae9)"
           style="fill: none; stroke: #ffa500; stroke-width: 1.5"
           id="path107" />
        <path
           d="M 156.627136 165.56131  L 158.309548 165.705942  L 159.99196 165.770678  L 161.674372 165.756311  L 163.356784 165.662665  L 164.872955 165.50593  L 165.039196 165.48794  L 166.721608 165.221655  L 168.40402 164.86639  L 170.086432 164.417689  L 171.768844 163.869858  L 171.862689 163.834372  L 173.451256 163.175269  L 175.133668 162.356065  L 175.485324 162.162814  L 176.81608 161.327563  L 177.994858 160.491256  L 178.498492 160.064657  L 179.830171 158.819698  L 180.180905 158.404623  L 181.16446 157.148141  L 181.863317 155.916566  L 182.099499 155.476583  L 182.674983 153.805025  L 182.927414 152.133467  L 182.864497 150.46191  L 182.484316 148.790352  L 181.863317 147.322425  L 181.772803 147.118794  L 180.683598 145.447236  L 180.180905 144.865044  L 179.161439 143.775678  L 178.498492 143.202431  L 177.090932 142.104121  L 176.81608 141.921337  L 175.133668 140.917044  L 174.203895 140.432563  L 173.451256 140.083072  L 171.768844 139.406009  L 170.086432 138.838875  L 169.809314 138.761005  L 168.40402 138.394083  L 166.721608 138.045056  L 165.039196 137.783446  L 163.356784 137.606007  L 161.674372 137.510551  L 159.99196 137.495906  L 158.309548 137.561893  L 156.627136 137.709322  L 154.944724 137.940005  L 153.262312 138.256798  L 151.579899 138.663659  L 151.247418 138.761005  L 149.897487 139.187475  L 148.215075 139.823624  L 146.843723 140.432563  L 146.532663 140.587329  L 144.850251 141.539069  L 143.969762 142.104121  L 143.167839 142.707058  L 141.891404 143.775678  L 141.485427 144.19507  L 140.371797 145.447236  L 139.803015 146.29575  L 139.285189 147.118794  L 138.569897 148.790352  L 138.186386 150.46191  L 138.122918 152.133467  L 138.377561 153.805025  L 138.958085 155.476583  L 139.803015 157.008301  L 139.88487 157.148141  L 141.222717 158.819698  L 141.485427 159.078944  L 143.052646 160.491256  L 143.167839 160.577978  L 144.850251 161.726415  L 145.574751 162.162814  L 146.532663 162.668756  L 148.215075 163.442325  L 149.211121 163.834372  L 149.897487 164.080954  L 151.579899 164.591995  L 153.262312 165.006128  L 154.944724 165.328583  L 156.21185 165.50593  L 156.627136 165.56131  z "
           clip-path="url(#p318f376ae9)"
           style="fill: none; stroke: #ffa500; stroke-width: 1.5"
           id="path108" />
        <path
           d="M 153.262312 162.300268  L 154.944724 162.686824  L 156.627136 162.968307  L 158.309548 163.148201  L 159.99196 163.22872  L 161.674372 163.21085  L 163.356784 163.094373  L 165.039196 162.877859  L 166.721608 162.55864  L 168.287131 162.162814  L 168.40402 162.12974  L 170.086432 161.537952  L 171.768844 160.81542  L 172.412693 160.491256  L 173.451256 159.874551  L 174.983975 158.819698  L 175.133668 158.690868  L 176.726171 157.148141  L 176.81608 157.029449  L 177.888743 155.476583  L 178.498492 154.078148  L 178.609711 153.805025  L 178.912867 152.133467  L 178.837308 150.46191  L 178.498492 149.217618  L 178.374671 148.790352  L 177.479279 147.118794  L 176.81608 146.27702  L 176.096263 145.447236  L 175.133668 144.601845  L 174.070504 143.775678  L 173.451256 143.381492  L 171.768844 142.450894  L 171.030846 142.104121  L 170.086432 141.719696  L 168.40402 141.152515  L 166.721608 140.70344  L 165.371128 140.432563  L 165.039196 140.372011  L 163.356784 140.161665  L 161.674372 140.048505  L 159.99196 140.031145  L 158.309548 140.10937  L 156.627136 140.284139  L 155.709209 140.432563  L 154.944724 140.568277  L 153.262312 140.975878  L 151.579899 141.499364  L 150.002504 142.104121  L 149.897487 142.150529  L 148.215075 143.02489  L 146.981674 143.775678  L 146.532663 144.108841  L 144.947041 145.447236  L 144.850251 145.554314  L 143.572952 147.118794  L 143.167839 147.849795  L 142.685315 148.790352  L 142.221017 150.46191  L 142.144179 152.133467  L 142.452462 153.805025  L 143.155275 155.476583  L 143.167839 155.495883  L 144.336781 157.148141  L 144.850251 157.679352  L 146.078044 158.819698  L 146.532663 159.156479  L 148.215075 160.25315  L 148.637759 160.491256  L 149.897487 161.093833  L 151.579899 161.767843  L 152.78986 162.162814  L 153.262312 162.300268  z "
           clip-path="url(#p318f376ae9)"
           style="fill: none; stroke: #ffa500; stroke-width: 1.5"
           id="path109" />
        <path
           d="M 153.262312 159.072414  L 154.944724 159.61366  L 156.627136 160.007785  L 158.309548 160.259668  L 159.99196 160.372409  L 161.674372 160.347388  L 163.356784 160.184299  L 165.039196 159.881142  L 166.721608 159.43418  L 168.40402 158.837862  L 168.44544 158.819698  L 170.086432 157.930724  L 171.279031 157.148141  L 171.768844 156.715461  L 172.974741 155.476583  L 173.451256 154.710445  L 173.952092 153.805025  L 174.361083 152.133467  L 174.259145 150.46191  L 173.643173 148.790352  L 173.451256 148.505912  L 172.394648 147.118794  L 171.768844 146.555107  L 170.332604 145.447236  L 170.086432 145.300789  L 168.40402 144.463186  L 166.721608 143.8  L 166.640299 143.775678  L 165.039196 143.375284  L 163.356784 143.089741  L 161.674372 142.936128  L 159.99196 142.912561  L 158.309548 143.018751  L 156.627136 143.255999  L 154.944724 143.627224  L 154.449384 143.775678  L 153.262312 144.202332  L 151.579899 144.975407  L 150.737823 145.447236  L 149.897487 146.056861  L 148.656569 147.118794  L 148.215075 147.668632  L 147.423614 148.790352  L 146.786584 150.46191  L 146.681161 152.133467  L 147.104134 153.805025  L 148.068413 155.476583  L 148.215075 155.640396  L 149.760594 157.148141  L 149.897487 157.24709  L 151.579899 158.284597  L 152.643002 158.819698  L 153.262312 159.072414  z "
           clip-path="url(#p318f376ae9)"
           style="fill: none; stroke: #ffa500; stroke-width: 1.5"
           id="path110" />
        <path
           d="M 156.627136 155.809659  L 158.309548 156.249569  L 159.99196 156.446468  L 161.674372 156.40277  L 163.356784 156.117938  L 165.039196 155.588479  L 165.283049 155.476583  L 166.721608 154.460223  L 167.42497 153.805025  L 168.220865 152.133467  L 168.022494 150.46191  L 166.823814 148.790352  L 166.721608 148.712298  L 165.039196 147.733717  L 163.48153 147.118794  L 163.356784 147.08431  L 161.674372 146.832046  L 159.99196 146.793343  L 158.309548 146.967729  L 157.654263 147.118794  L 156.627136 147.456444  L 154.944724 148.319343  L 154.269731 148.790352  L 153.262312 150.077079  L 153.02224 150.46191  L 152.848049 152.133467  L 153.262312 153.127545  L 153.615211 153.805025  L 154.944724 154.93664  L 155.808213 155.476583  L 156.627136 155.809659  z "
           clip-path="url(#p318f376ae9)"
           style="fill: none; stroke: #ffa500; stroke-width: 1.5"
           id="path111" />
        <path
           clip-path="url(#p318f376ae9)"
           style="fill: none; stroke: #ffa500; stroke-width: 1.5"
           id="path112" />
      </g>
      <g
         id="patch_3">
        <path
           d="M 54 384.48  L 54 51.84  "
           style="fill: none; stroke: #000000; stroke-width: 0.8; stroke-linejoin: miter; stroke-linecap: square"
           id="path113" />
      </g>
      <g
         id="patch_4">
        <path
           d="M 388.8 384.48  L 388.8 51.84  "
           style="fill: none; stroke: #000000; stroke-width: 0.8; stroke-linejoin: miter; stroke-linecap: square"
           id="path114" />
      </g>
      <g
         id="patch_5">
        <path
           d="M 54 384.48  L 388.8 384.48  "
           style="fill: none; stroke: #000000; stroke-width: 0.8; stroke-linejoin: miter; stroke-linecap: square"
           id="path115" />
      </g>
      <g
         id="patch_6">
        <path
           d="M 54 51.84  L 388.8 51.84  "
           style="fill: none; stroke: #000000; stroke-width: 0.8; stroke-linejoin: miter; stroke-linecap: square"
           id="path116" />
      </g>
    </g>
  </g>
  <defs
     id="defs116">
    <clipPath
       id="p318f376ae9">
      <rect
         x="54"
         y="51.84"
         width="334.8"
         height="332.64"
         id="rect116" />
    </clipPath>
  </defs>
</svg>
